<?xml version="1.0" encoding="utf-8" standalone="no"?><!DOCTYPE svg PUBLIC "-//W3C//DTD SVG 1.1//EN" "http://www.w3.org/Graphics/SVG/1.1/DTD/svg11.dtd">
<svg preserveAspectRatio="xMinYMin meet" width="100%" height="100%" viewBox="0 0 560.000 420.000"  version="1.1" xmlns="http://www.w3.org/2000/svg" xmlns:xlink="http://www.w3.org/1999/xlink">
  <desc>Matlab Figure Converted by PLOT2SVG written by Juerg Schwizer</desc>
  <g id="topgroup">
  <rect x="0" y="0" width="560.000" height="420.000" fill="#ffffff" stroke="none" />
  <g id ="ID000000">
  <clipPath id="ID000001">
    <rect x="72.800" y="38.000" width="434.000" height="334.000"/>
  </clipPath>
      <polygon fill="#ffffff" fill-opacity="1.00" stroke="none" stroke-width="0.5pt" stroke-opacity="1.00" stroke-dasharray="none" points="72.800,372.000 506.800,372.000 506.800,38.000 72.800,38.000 "/>
      <polygon fill="#ffffff" fill-opacity="1.00" stroke="none" stroke-width="0.5pt" stroke-opacity="1.00" stroke-dasharray="none" points="72.800,38.000 506.800,38.000 506.800,38.000 72.800,38.000 "/>
      <polygon fill="#ffffff" fill-opacity="1.00" stroke="none" stroke-width="0.5pt" stroke-opacity="1.00" stroke-dasharray="none" points="72.800,372.000 72.800,372.000 72.800,38.000 72.800,38.000 "/>
    <g>
<g id="ID000002" clip-path="url(#ID000001)" >
      <polygon fill="#738ccc" fill-opacity="0.08" stroke="none" stroke-width="0.5pt" stroke-opacity="1.00" stroke-dasharray="none" points="72.800,175.458 133.078,162.602 193.356,166.151 253.633,130.822 313.911,120.819 374.189,113.489 434.467,109.249 494.744,120.793 494.744,48.727 434.467,41.066 374.189,46.290 313.911,44.526 253.633,50.110 193.356,66.829 133.078,67.038 72.800,75.057 "/>
</g>
<g id="ID000003" clip-path="url(#ID000001)" >
      <polyline fill="none" stroke="#738ccc" stroke-width="2.0pt" stroke-dasharray="none" points="72.800,125.257 133.078,114.820 193.356,116.490 253.633,90.466 313.911,82.673 374.189,79.889 434.467,75.157 494.744,84.760 "/>
<g>
<circle cx="72.800" cy="125.257" r="3.333" fill="#738ccc" stroke="none" stroke-width="2.0pt" />
<circle cx="133.078" cy="114.820" r="3.333" fill="#738ccc" stroke="none" stroke-width="2.0pt" />
<circle cx="193.356" cy="116.490" r="3.333" fill="#738ccc" stroke="none" stroke-width="2.0pt" />
<circle cx="253.633" cy="90.466" r="3.333" fill="#738ccc" stroke="none" stroke-width="2.0pt" />
<circle cx="313.911" cy="82.673" r="3.333" fill="#738ccc" stroke="none" stroke-width="2.0pt" />
<circle cx="374.189" cy="79.889" r="3.333" fill="#738ccc" stroke="none" stroke-width="2.0pt" />
<circle cx="434.467" cy="75.157" r="3.333" fill="#738ccc" stroke="none" stroke-width="2.0pt" />
<circle cx="494.744" cy="84.760" r="3.333" fill="#738ccc" stroke="none" stroke-width="2.0pt" />
</g>
</g>
<g id="ID000004" clip-path="url(#ID000001)" >
      <polygon fill="#000080" fill-opacity="0.08" stroke="none" stroke-width="0.5pt" stroke-opacity="1.00" stroke-dasharray="none" points="72.800,209.297 133.078,209.978 193.356,189.203 253.633,210.957 313.911,198.006 374.189,188.855 434.467,211.068 494.744,247.899 494.744,173.235 434.467,121.834 374.189,95.060 313.911,96.485 253.633,106.636 193.356,89.702 133.078,107.059 72.800,116.089 "/>
</g>
<g id="ID000005" clip-path="url(#ID000001)" >
      <polyline fill="none" stroke="#000080" stroke-width="2.0pt" stroke-dasharray="none" points="72.800,162.693 133.078,158.518 193.356,139.452 253.633,158.797 313.911,147.246 374.189,141.958 434.467,166.451 494.744,210.567 "/>
<g>
<circle cx="72.800" cy="162.693" r="3.333" fill="#000080" stroke="none" stroke-width="2.0pt" />
<circle cx="133.078" cy="158.518" r="3.333" fill="#000080" stroke="none" stroke-width="2.0pt" />
<circle cx="193.356" cy="139.452" r="3.333" fill="#000080" stroke="none" stroke-width="2.0pt" />
<circle cx="253.633" cy="158.797" r="3.333" fill="#000080" stroke="none" stroke-width="2.0pt" />
<circle cx="313.911" cy="147.246" r="3.333" fill="#000080" stroke="none" stroke-width="2.0pt" />
<circle cx="374.189" cy="141.958" r="3.333" fill="#000080" stroke="none" stroke-width="2.0pt" />
<circle cx="434.467" cy="166.451" r="3.333" fill="#000080" stroke="none" stroke-width="2.0pt" />
<circle cx="494.744" cy="210.567" r="3.333" fill="#000080" stroke="none" stroke-width="2.0pt" />
</g>
</g>
<g id="ID000006" clip-path="url(#ID000001)" >
      <polygon fill="#f08080" fill-opacity="0.08" stroke="none" stroke-width="0.5pt" stroke-opacity="1.00" stroke-dasharray="none" points="72.800,149.054 133.078,134.775 193.356,129.422 253.633,158.811 313.911,105.172 374.189,87.510 434.467,72.698 494.744,85.264 494.744,32.765 434.467,31.692 374.189,33.580 313.911,41.803 253.633,69.437 193.356,53.736 133.078,51.723 72.800,62.495 "/>
</g>
<g id="ID000007" clip-path="url(#ID000001)" >
      <polyline fill="none" stroke="#f08080" stroke-width="2.0pt" stroke-dasharray="none" points="72.800,105.774 133.078,93.249 193.356,91.579 253.633,114.124 313.911,73.488 374.189,60.545 434.467,52.195 494.744,59.014 "/>
<g>
<circle cx="72.800" cy="105.774" r="3.333" fill="#f08080" stroke="none" stroke-width="2.0pt" />
<circle cx="133.078" cy="93.249" r="3.333" fill="#f08080" stroke="none" stroke-width="2.0pt" />
<circle cx="193.356" cy="91.579" r="3.333" fill="#f08080" stroke="none" stroke-width="2.0pt" />
<circle cx="253.633" cy="114.124" r="3.333" fill="#f08080" stroke="none" stroke-width="2.0pt" />
<circle cx="313.911" cy="73.488" r="3.333" fill="#f08080" stroke="none" stroke-width="2.0pt" />
<circle cx="374.189" cy="60.545" r="3.333" fill="#f08080" stroke="none" stroke-width="2.0pt" />
<circle cx="434.467" cy="52.195" r="3.333" fill="#f08080" stroke="none" stroke-width="2.0pt" />
<circle cx="494.744" cy="59.014" r="3.333" fill="#f08080" stroke="none" stroke-width="2.0pt" />
</g>
</g>
<g id="ID000008" clip-path="url(#ID000001)" >
      <polygon fill="#ff0000" fill-opacity="0.08" stroke="none" stroke-width="0.5pt" stroke-opacity="1.00" stroke-dasharray="none" points="72.800,174.840 133.078,173.487 193.356,130.624 253.633,120.271 313.911,134.744 374.189,148.033 434.467,142.037 494.744,222.177 494.744,117.404 434.467,58.656 374.189,65.464 313.911,53.981 253.633,45.909 193.356,53.369 133.078,81.760 72.800,83.190 "/>
</g>
<g id="ID000009" clip-path="url(#ID000001)" >
      <polyline fill="none" stroke="#ff0000" stroke-width="2.0pt" stroke-dasharray="none" points="72.800,129.015 133.078,127.623 193.356,91.997 253.633,83.090 313.911,94.362 374.189,106.748 434.467,100.347 494.744,169.791 "/>
<g>
<circle cx="72.800" cy="129.015" r="3.333" fill="#ff0000" stroke="none" stroke-width="2.0pt" />
<circle cx="133.078" cy="127.623" r="3.333" fill="#ff0000" stroke="none" stroke-width="2.0pt" />
<circle cx="193.356" cy="91.997" r="3.333" fill="#ff0000" stroke="none" stroke-width="2.0pt" />
<circle cx="253.633" cy="83.090" r="3.333" fill="#ff0000" stroke="none" stroke-width="2.0pt" />
<circle cx="313.911" cy="94.362" r="3.333" fill="#ff0000" stroke="none" stroke-width="2.0pt" />
<circle cx="374.189" cy="106.748" r="3.333" fill="#ff0000" stroke="none" stroke-width="2.0pt" />
<circle cx="434.467" cy="100.347" r="3.333" fill="#ff0000" stroke="none" stroke-width="2.0pt" />
<circle cx="494.744" cy="169.791" r="3.333" fill="#ff0000" stroke="none" stroke-width="2.0pt" />
</g>
</g>
<g id="ID000010" >
  <g transform="translate(28.550,206.500)">
    <g transform="rotate(-90.0)">
      <text x="0.000" y="0.000" font-family="Helvetica" text-anchor="middle" font-size="15pt" fill="#000000" >Decoding accuracy (%)</text>
    </g>
  </g>
</g>
<g id="ID000011" >
  <g transform="translate(289.300,418.750)">
    <g transform="rotate(-0.0)">
      <text x="0.000" y="0.000" font-family="Helvetica" text-anchor="middle" font-size="15pt" fill="#000000" >Time from saccade onset (s)</text>
    </g>
  </g>
</g>
<g id="ID000012" clip-path="url(#ID000001)" >
      <polyline fill="none" stroke="#000000" stroke-width="0.5pt" stroke-dasharray="none" points="72.800,205.000 506.800,205.000 "/>
<g>
</g>
</g>
<g id="ID000013" clip-path="url(#ID000001)" >
      <polyline fill="none" stroke="#000000" stroke-width="0.5pt" stroke-dasharray="8.0,2.0" points="494.744,372.000 494.744,38.000 "/>
<g>
</g>
</g>
<g id="ID000014" >
  <g transform="translate(289.300,22.750)">
    <g transform="rotate(-0.0)">
      <text x="0.000" y="0.000" font-family="Helvetica" text-anchor="middle" font-size="15pt" fill="#000000" >Mean decoding for phi rel tr brt out te brt in  Quincy</text>
    </g>
  </g>
</g>
    </g>
    <g>
      <polyline fill="none" stroke="#000000" stroke-width="0.5pt" stroke-dasharray="none" points="133.078,372.000 133.078,367.660 "/>
      <polyline fill="none" stroke="#000000" stroke-width="0.5pt" stroke-dasharray="none" points="193.356,372.000 193.356,367.660 "/>
      <polyline fill="none" stroke="#000000" stroke-width="0.5pt" stroke-dasharray="none" points="253.633,372.000 253.633,367.660 "/>
      <polyline fill="none" stroke="#000000" stroke-width="0.5pt" stroke-dasharray="none" points="313.911,372.000 313.911,367.660 "/>
      <polyline fill="none" stroke="#000000" stroke-width="0.5pt" stroke-dasharray="none" points="374.189,372.000 374.189,367.660 "/>
      <polyline fill="none" stroke="#000000" stroke-width="0.5pt" stroke-dasharray="none" points="434.467,372.000 434.467,367.660 "/>
      <polyline fill="none" stroke="#000000" stroke-width="0.5pt" stroke-dasharray="none" points="494.744,372.000 494.744,367.660 "/>
      <polyline fill="none" stroke="#000000" stroke-width="0.5pt" stroke-dasharray="none" points="72.800,372.000 506.800,372.000 "/>
  <g transform="translate(133.078,396.380)">
    <g transform="rotate(-0.0)">
      <text x="0.000" y="0.000" font-family="Helvetica" text-anchor="middle" font-size="15pt" fill="#000000" >-0.6</text>
    </g>
  </g>
  <g transform="translate(193.356,396.380)">
    <g transform="rotate(-0.0)">
      <text x="0.000" y="0.000" font-family="Helvetica" text-anchor="middle" font-size="15pt" fill="#000000" >-0.5</text>
    </g>
  </g>
  <g transform="translate(253.633,396.380)">
    <g transform="rotate(-0.0)">
      <text x="0.000" y="0.000" font-family="Helvetica" text-anchor="middle" font-size="15pt" fill="#000000" >-0.4</text>
    </g>
  </g>
  <g transform="translate(313.911,396.380)">
    <g transform="rotate(-0.0)">
      <text x="0.000" y="0.000" font-family="Helvetica" text-anchor="middle" font-size="15pt" fill="#000000" >-0.3</text>
    </g>
  </g>
  <g transform="translate(374.189,396.380)">
    <g transform="rotate(-0.0)">
      <text x="0.000" y="0.000" font-family="Helvetica" text-anchor="middle" font-size="15pt" fill="#000000" >-0.2</text>
    </g>
  </g>
  <g transform="translate(434.467,396.380)">
    <g transform="rotate(-0.0)">
      <text x="0.000" y="0.000" font-family="Helvetica" text-anchor="middle" font-size="15pt" fill="#000000" >-0.1</text>
    </g>
  </g>
  <g transform="translate(494.744,396.380)">
    <g transform="rotate(-0.0)">
      <text x="0.000" y="0.000" font-family="Helvetica" text-anchor="middle" font-size="15pt" fill="#000000" >0</text>
    </g>
  </g>
      <polyline fill="none" stroke="#000000" stroke-width="0.5pt" stroke-dasharray="none" points="72.800,372.000 77.140,372.000 "/>
      <polyline fill="none" stroke="#000000" stroke-width="0.5pt" stroke-dasharray="none" points="72.800,288.500 77.140,288.500 "/>
      <polyline fill="none" stroke="#000000" stroke-width="0.5pt" stroke-dasharray="none" points="72.800,205.000 77.140,205.000 "/>
      <polyline fill="none" stroke="#000000" stroke-width="0.5pt" stroke-dasharray="none" points="72.800,121.500 77.140,121.500 "/>
      <polyline fill="none" stroke="#000000" stroke-width="0.5pt" stroke-dasharray="none" points="72.800,38.000 77.140,38.000 "/>
      <polyline fill="none" stroke="#000000" stroke-width="0.5pt" stroke-dasharray="none" points="72.800,372.000 72.800,38.000 "/>
  <g transform="translate(64.120,378.750)">
    <g transform="rotate(-0.0)">
      <text x="0.000" y="0.000" font-family="Helvetica" text-anchor="end" font-size="15pt" fill="#000000" >0</text>
    </g>
  </g>
  <g transform="translate(64.120,295.250)">
    <g transform="rotate(-0.0)">
      <text x="0.000" y="0.000" font-family="Helvetica" text-anchor="end" font-size="15pt" fill="#000000" >25</text>
    </g>
  </g>
  <g transform="translate(64.120,211.750)">
    <g transform="rotate(-0.0)">
      <text x="0.000" y="0.000" font-family="Helvetica" text-anchor="end" font-size="15pt" fill="#000000" >50</text>
    </g>
  </g>
  <g transform="translate(64.120,128.250)">
    <g transform="rotate(-0.0)">
      <text x="0.000" y="0.000" font-family="Helvetica" text-anchor="end" font-size="15pt" fill="#000000" >75</text>
    </g>
  </g>
  <g transform="translate(64.120,44.750)">
    <g transform="rotate(-0.0)">
      <text x="0.000" y="0.000" font-family="Helvetica" text-anchor="end" font-size="15pt" fill="#000000" >100</text>
    </g>
  </g>
      <polyline fill="none" stroke="#000000" stroke-width="0.5pt" stroke-dasharray="none" points="72.800,372.000 72.800,368.660 "/>
      <polyline fill="none" stroke="#000000" stroke-width="0.5pt" stroke-dasharray="none" points="72.800,372.000 72.800,368.660 "/>
      <polyline fill="none" stroke="#000000" stroke-width="0.5pt" stroke-dasharray="none" points="72.800,372.000 72.800,368.660 "/>
      <polyline fill="none" stroke="#000000" stroke-width="0.5pt" stroke-dasharray="none" points="72.800,372.000 72.800,372.000 "/>
    </g>
  </g>
  </g>
</svg>
