<?xml version="1.0" encoding="utf-8" standalone="no"?><!DOCTYPE svg PUBLIC "-//W3C//DTD SVG 1.1//EN" "http://www.w3.org/Graphics/SVG/1.1/DTD/svg11.dtd">
<svg preserveAspectRatio="xMinYMin meet" width="100%" height="100%" viewBox="0 0 560.000 420.000"  version="1.1" xmlns="http://www.w3.org/2000/svg" xmlns:xlink="http://www.w3.org/1999/xlink">
  <desc>Matlab Figure Converted by PLOT2SVG written by Juerg Schwizer</desc>
  <g id="topgroup">
  <rect x="0" y="0" width="560.000" height="420.000" fill="#ffffff" stroke="none" />
  <g id ="ID000000">
  <clipPath id="ID000001">
    <rect x="72.800" y="38.000" width="434.000" height="334.000"/>
  </clipPath>
      <polygon fill="#ffffff" fill-opacity="1.00" stroke="none" stroke-width="0.5pt" stroke-opacity="1.00" stroke-dasharray="none" points="72.800,372.000 506.800,372.000 506.800,38.000 72.800,38.000 "/>
      <polygon fill="#ffffff" fill-opacity="1.00" stroke="none" stroke-width="0.5pt" stroke-opacity="1.00" stroke-dasharray="none" points="72.800,38.000 506.800,38.000 506.800,38.000 72.800,38.000 "/>
      <polygon fill="#ffffff" fill-opacity="1.00" stroke="none" stroke-width="0.5pt" stroke-opacity="1.00" stroke-dasharray="none" points="72.800,372.000 72.800,372.000 72.800,38.000 72.800,38.000 "/>
    <g>
<g id="ID000002" clip-path="url(#ID000001)" >
      <polygon fill="#738ccc" fill-opacity="0.08" stroke="none" stroke-width="0.5pt" stroke-opacity="1.00" stroke-dasharray="none" points="72.800,264.982 103.363,292.901 133.927,302.120 164.490,310.506 195.054,324.352 225.617,326.584 256.180,299.148 286.744,302.586 317.307,318.187 347.870,312.410 378.434,289.935 408.997,279.406 439.561,294.868 470.124,205.204 500.687,189.091 500.687,31.642 470.124,38.909 439.561,98.432 408.997,76.041 378.434,93.345 347.870,133.217 317.307,116.307 286.744,117.434 256.180,109.738 225.617,136.856 195.054,131.294 164.490,119.534 133.927,110.107 103.363,101.512 72.800,78.218 "/>
</g>
<g id="ID000003" clip-path="url(#ID000001)" >
      <polyline fill="none" stroke="#738ccc" stroke-width="2.0pt" stroke-dasharray="none" points="72.800,171.600 103.363,197.207 133.927,206.113 164.490,215.020 195.054,227.823 225.617,231.720 256.180,204.443 286.744,210.010 317.307,217.247 347.870,222.813 378.434,191.640 408.997,177.723 439.561,196.650 470.124,122.057 500.687,110.367 "/>
<g>
<circle cx="72.800" cy="171.600" r="3.333" fill="#738ccc" stroke="none" stroke-width="2.0pt" />
<circle cx="103.363" cy="197.207" r="3.333" fill="#738ccc" stroke="none" stroke-width="2.0pt" />
<circle cx="133.927" cy="206.113" r="3.333" fill="#738ccc" stroke="none" stroke-width="2.0pt" />
<circle cx="164.490" cy="215.020" r="3.333" fill="#738ccc" stroke="none" stroke-width="2.0pt" />
<circle cx="195.054" cy="227.823" r="3.333" fill="#738ccc" stroke="none" stroke-width="2.0pt" />
<circle cx="225.617" cy="231.720" r="3.333" fill="#738ccc" stroke="none" stroke-width="2.0pt" />
<circle cx="256.180" cy="204.443" r="3.333" fill="#738ccc" stroke="none" stroke-width="2.0pt" />
<circle cx="286.744" cy="210.010" r="3.333" fill="#738ccc" stroke="none" stroke-width="2.0pt" />
<circle cx="317.307" cy="217.247" r="3.333" fill="#738ccc" stroke="none" stroke-width="2.0pt" />
<circle cx="347.870" cy="222.813" r="3.333" fill="#738ccc" stroke="none" stroke-width="2.0pt" />
<circle cx="378.434" cy="191.640" r="3.333" fill="#738ccc" stroke="none" stroke-width="2.0pt" />
<circle cx="408.997" cy="177.723" r="3.333" fill="#738ccc" stroke="none" stroke-width="2.0pt" />
<circle cx="439.561" cy="196.650" r="3.333" fill="#738ccc" stroke="none" stroke-width="2.0pt" />
<circle cx="470.124" cy="122.057" r="3.333" fill="#738ccc" stroke="none" stroke-width="2.0pt" />
<circle cx="500.687" cy="110.367" r="3.333" fill="#738ccc" stroke="none" stroke-width="2.0pt" />
</g>
</g>
<g id="ID000004" clip-path="url(#ID000001)" >
      <polygon fill="#000080" fill-opacity="0.08" stroke="none" stroke-width="0.5pt" stroke-opacity="1.00" stroke-dasharray="none" points="72.800,289.229 103.363,316.036 133.927,301.013 164.490,326.480 195.054,306.011 225.617,294.928 256.180,289.715 286.744,302.578 317.307,287.385 347.870,282.666 378.434,297.128 408.997,276.573 439.561,262.016 470.124,236.195 500.687,166.238 500.687,23.322 470.124,47.999 439.561,71.164 408.997,68.854 378.434,82.812 347.870,85.027 317.307,92.555 286.744,102.969 256.180,102.472 225.617,95.032 195.054,122.915 164.490,131.394 133.927,108.987 103.363,128.477 72.800,98.505 "/>
</g>
<g id="ID000005" clip-path="url(#ID000001)" >
      <polyline fill="none" stroke="#000080" stroke-width="2.0pt" stroke-dasharray="none" points="72.800,193.867 103.363,222.257 133.927,205.000 164.490,228.937 195.054,214.463 225.617,194.980 256.180,196.093 286.744,202.773 317.307,189.970 347.870,183.847 378.434,189.970 408.997,172.713 439.561,166.590 470.124,142.097 500.687,94.780 "/>
<g>
<circle cx="72.800" cy="193.867" r="3.333" fill="#000080" stroke="none" stroke-width="2.0pt" />
<circle cx="103.363" cy="222.257" r="3.333" fill="#000080" stroke="none" stroke-width="2.0pt" />
<circle cx="133.927" cy="205.000" r="3.333" fill="#000080" stroke="none" stroke-width="2.0pt" />
<circle cx="164.490" cy="228.937" r="3.333" fill="#000080" stroke="none" stroke-width="2.0pt" />
<circle cx="195.054" cy="214.463" r="3.333" fill="#000080" stroke="none" stroke-width="2.0pt" />
<circle cx="225.617" cy="194.980" r="3.333" fill="#000080" stroke="none" stroke-width="2.0pt" />
<circle cx="256.180" cy="196.093" r="3.333" fill="#000080" stroke="none" stroke-width="2.0pt" />
<circle cx="286.744" cy="202.773" r="3.333" fill="#000080" stroke="none" stroke-width="2.0pt" />
<circle cx="317.307" cy="189.970" r="3.333" fill="#000080" stroke="none" stroke-width="2.0pt" />
<circle cx="347.870" cy="183.847" r="3.333" fill="#000080" stroke="none" stroke-width="2.0pt" />
<circle cx="378.434" cy="189.970" r="3.333" fill="#000080" stroke="none" stroke-width="2.0pt" />
<circle cx="408.997" cy="172.713" r="3.333" fill="#000080" stroke="none" stroke-width="2.0pt" />
<circle cx="439.561" cy="166.590" r="3.333" fill="#000080" stroke="none" stroke-width="2.0pt" />
<circle cx="470.124" cy="142.097" r="3.333" fill="#000080" stroke="none" stroke-width="2.0pt" />
<circle cx="500.687" cy="94.780" r="3.333" fill="#000080" stroke="none" stroke-width="2.0pt" />
</g>
</g>
<g id="ID000006" clip-path="url(#ID000001)" >
      <polygon fill="#f08080" fill-opacity="0.08" stroke="none" stroke-width="0.5pt" stroke-opacity="1.00" stroke-dasharray="none" points="72.800,297.538 103.363,325.610 133.927,313.730 164.490,316.020 195.054,320.208 225.617,303.860 256.180,283.284 286.744,291.787 317.307,252.505 347.870,294.747 378.434,308.488 408.997,309.688 439.561,310.506 470.124,319.149 500.687,271.297 500.687,96.396 470.124,129.818 439.561,119.534 408.997,121.466 378.434,117.099 347.870,101.893 317.307,68.428 286.744,97.059 256.180,102.223 225.617,110.593 195.054,126.532 164.490,120.700 133.927,135.237 103.363,133.377 72.800,106.896 "/>
</g>
<g id="ID000007" clip-path="url(#ID000001)" >
      <polyline fill="none" stroke="#f08080" stroke-width="2.0pt" stroke-dasharray="none" points="72.800,202.217 103.363,229.493 133.927,224.483 164.490,218.360 195.054,223.370 225.617,207.227 256.180,192.753 286.744,194.423 317.307,160.467 347.870,198.320 378.434,212.793 408.997,215.577 439.561,215.020 470.124,224.483 500.687,183.847 "/>
<g>
<circle cx="72.800" cy="202.217" r="3.333" fill="#f08080" stroke="none" stroke-width="2.0pt" />
<circle cx="103.363" cy="229.493" r="3.333" fill="#f08080" stroke="none" stroke-width="2.0pt" />
<circle cx="133.927" cy="224.483" r="3.333" fill="#f08080" stroke="none" stroke-width="2.0pt" />
<circle cx="164.490" cy="218.360" r="3.333" fill="#f08080" stroke="none" stroke-width="2.0pt" />
<circle cx="195.054" cy="223.370" r="3.333" fill="#f08080" stroke="none" stroke-width="2.0pt" />
<circle cx="225.617" cy="207.227" r="3.333" fill="#f08080" stroke="none" stroke-width="2.0pt" />
<circle cx="256.180" cy="192.753" r="3.333" fill="#f08080" stroke="none" stroke-width="2.0pt" />
<circle cx="286.744" cy="194.423" r="3.333" fill="#f08080" stroke="none" stroke-width="2.0pt" />
<circle cx="317.307" cy="160.467" r="3.333" fill="#f08080" stroke="none" stroke-width="2.0pt" />
<circle cx="347.870" cy="198.320" r="3.333" fill="#f08080" stroke="none" stroke-width="2.0pt" />
<circle cx="378.434" cy="212.793" r="3.333" fill="#f08080" stroke="none" stroke-width="2.0pt" />
<circle cx="408.997" cy="215.577" r="3.333" fill="#f08080" stroke="none" stroke-width="2.0pt" />
<circle cx="439.561" cy="215.020" r="3.333" fill="#f08080" stroke="none" stroke-width="2.0pt" />
<circle cx="470.124" cy="224.483" r="3.333" fill="#f08080" stroke="none" stroke-width="2.0pt" />
<circle cx="500.687" cy="183.847" r="3.333" fill="#f08080" stroke="none" stroke-width="2.0pt" />
</g>
</g>
<g id="ID000008" clip-path="url(#ID000001)" >
      <polygon fill="#ff0000" fill-opacity="0.08" stroke="none" stroke-width="0.5pt" stroke-opacity="1.00" stroke-dasharray="none" points="72.800,307.588 103.363,271.321 133.927,320.116 164.490,291.122 195.054,305.825 225.617,313.790 256.180,314.259 286.744,259.637 317.307,297.890 347.870,279.529 378.434,303.643 408.997,280.559 439.561,322.119 470.124,307.726 500.687,273.645 500.687,72.895 470.124,105.614 439.561,124.621 408.997,103.834 378.434,113.037 347.870,93.731 317.307,99.863 286.744,86.903 256.180,100.195 225.617,131.837 195.054,124.215 164.490,87.705 133.927,123.284 103.363,91.919 72.800,114.659 "/>
</g>
<g id="ID000009" clip-path="url(#ID000001)" >
      <polyline fill="none" stroke="#ff0000" stroke-width="2.0pt" stroke-dasharray="none" points="72.800,211.123 103.363,181.620 133.927,221.700 164.490,189.413 195.054,215.020 225.617,222.813 256.180,207.227 286.744,173.270 317.307,198.877 347.870,186.630 378.434,208.340 408.997,192.197 439.561,223.370 470.124,206.670 500.687,173.270 "/>
<g>
<circle cx="72.800" cy="211.123" r="3.333" fill="#ff0000" stroke="none" stroke-width="2.0pt" />
<circle cx="103.363" cy="181.620" r="3.333" fill="#ff0000" stroke="none" stroke-width="2.0pt" />
<circle cx="133.927" cy="221.700" r="3.333" fill="#ff0000" stroke="none" stroke-width="2.0pt" />
<circle cx="164.490" cy="189.413" r="3.333" fill="#ff0000" stroke="none" stroke-width="2.0pt" />
<circle cx="195.054" cy="215.020" r="3.333" fill="#ff0000" stroke="none" stroke-width="2.0pt" />
<circle cx="225.617" cy="222.813" r="3.333" fill="#ff0000" stroke="none" stroke-width="2.0pt" />
<circle cx="256.180" cy="207.227" r="3.333" fill="#ff0000" stroke="none" stroke-width="2.0pt" />
<circle cx="286.744" cy="173.270" r="3.333" fill="#ff0000" stroke="none" stroke-width="2.0pt" />
<circle cx="317.307" cy="198.877" r="3.333" fill="#ff0000" stroke="none" stroke-width="2.0pt" />
<circle cx="347.870" cy="186.630" r="3.333" fill="#ff0000" stroke="none" stroke-width="2.0pt" />
<circle cx="378.434" cy="208.340" r="3.333" fill="#ff0000" stroke="none" stroke-width="2.0pt" />
<circle cx="408.997" cy="192.197" r="3.333" fill="#ff0000" stroke="none" stroke-width="2.0pt" />
<circle cx="439.561" cy="223.370" r="3.333" fill="#ff0000" stroke="none" stroke-width="2.0pt" />
<circle cx="470.124" cy="206.670" r="3.333" fill="#ff0000" stroke="none" stroke-width="2.0pt" />
<circle cx="500.687" cy="173.270" r="3.333" fill="#ff0000" stroke="none" stroke-width="2.0pt" />
</g>
</g>
<g id="ID000010" >
  <g transform="translate(28.550,206.500)">
    <g transform="rotate(-90.0)">
      <text x="0.000" y="0.000" font-family="Helvetica" text-anchor="middle" font-size="15pt" fill="#000000" >Decoding accuracy (%)</text>
    </g>
  </g>
</g>
<g id="ID000011" clip-path="url(#ID000001)" >
      <polyline fill="none" stroke="#000080" stroke-width="1.0pt" stroke-dasharray="none" points="454.842,346.950 485.406,346.950 "/>
<g>
</g>
</g>
<g id="ID000012" clip-path="url(#ID000001)" >
      <polyline fill="none" stroke="#000080" stroke-width="1.0pt" stroke-dasharray="none" points="485.406,346.950 515.969,346.950 "/>
<g>
</g>
</g>
<g id="ID000013" >
  <g transform="translate(289.300,418.750)">
    <g transform="rotate(-0.0)">
      <text x="0.000" y="0.000" font-family="Helvetica" text-anchor="middle" font-size="15pt" fill="#000000" >Time from saccade onset (s)</text>
    </g>
  </g>
</g>
<g id="ID000014" clip-path="url(#ID000001)" >
      <polyline fill="none" stroke="#000000" stroke-width="0.5pt" stroke-dasharray="none" points="72.800,205.000 506.800,205.000 "/>
<g>
</g>
</g>
<g id="ID000015" clip-path="url(#ID000001)" >
      <polyline fill="none" stroke="#000000" stroke-width="0.5pt" stroke-dasharray="8.0,2.0" points="500.687,372.000 500.687,38.000 "/>
<g>
</g>
</g>
<g id="ID000016" >
  <g transform="translate(289.300,22.750)">
    <g transform="rotate(-0.0)">
      <text x="0.000" y="0.000" font-family="Helvetica" text-anchor="middle" font-size="15pt" fill="#000000" >Mean decoding for brt rel tr phi 180 te phi 180  Michel</text>
    </g>
  </g>
</g>
    </g>
    <g>
      <polyline fill="none" stroke="#000000" stroke-width="0.5pt" stroke-dasharray="none" points="133.927,372.000 133.927,367.660 "/>
      <polyline fill="none" stroke="#000000" stroke-width="0.5pt" stroke-dasharray="none" points="195.054,372.000 195.054,367.660 "/>
      <polyline fill="none" stroke="#000000" stroke-width="0.5pt" stroke-dasharray="none" points="256.180,372.000 256.180,367.660 "/>
      <polyline fill="none" stroke="#000000" stroke-width="0.5pt" stroke-dasharray="none" points="317.307,372.000 317.307,367.660 "/>
      <polyline fill="none" stroke="#000000" stroke-width="0.5pt" stroke-dasharray="none" points="378.434,372.000 378.434,367.660 "/>
      <polyline fill="none" stroke="#000000" stroke-width="0.5pt" stroke-dasharray="none" points="439.561,372.000 439.561,367.660 "/>
      <polyline fill="none" stroke="#000000" stroke-width="0.5pt" stroke-dasharray="none" points="500.687,372.000 500.687,367.660 "/>
      <polyline fill="none" stroke="#000000" stroke-width="0.5pt" stroke-dasharray="none" points="72.800,372.000 506.800,372.000 "/>
  <g transform="translate(133.927,396.380)">
    <g transform="rotate(-0.0)">
      <text x="0.000" y="0.000" font-family="Helvetica" text-anchor="middle" font-size="15pt" fill="#000000" >-1.2</text>
    </g>
  </g>
  <g transform="translate(195.054,396.380)">
    <g transform="rotate(-0.0)">
      <text x="0.000" y="0.000" font-family="Helvetica" text-anchor="middle" font-size="15pt" fill="#000000" >-1</text>
    </g>
  </g>
  <g transform="translate(256.180,396.380)">
    <g transform="rotate(-0.0)">
      <text x="0.000" y="0.000" font-family="Helvetica" text-anchor="middle" font-size="15pt" fill="#000000" >-0.8</text>
    </g>
  </g>
  <g transform="translate(317.307,396.380)">
    <g transform="rotate(-0.0)">
      <text x="0.000" y="0.000" font-family="Helvetica" text-anchor="middle" font-size="15pt" fill="#000000" >-0.6</text>
    </g>
  </g>
  <g transform="translate(378.434,396.380)">
    <g transform="rotate(-0.0)">
      <text x="0.000" y="0.000" font-family="Helvetica" text-anchor="middle" font-size="15pt" fill="#000000" >-0.4</text>
    </g>
  </g>
  <g transform="translate(439.561,396.380)">
    <g transform="rotate(-0.0)">
      <text x="0.000" y="0.000" font-family="Helvetica" text-anchor="middle" font-size="15pt" fill="#000000" >-0.2</text>
    </g>
  </g>
  <g transform="translate(500.687,396.380)">
    <g transform="rotate(-0.0)">
      <text x="0.000" y="0.000" font-family="Helvetica" text-anchor="middle" font-size="15pt" fill="#000000" >0</text>
    </g>
  </g>
      <polyline fill="none" stroke="#000000" stroke-width="0.5pt" stroke-dasharray="none" points="72.800,372.000 77.140,372.000 "/>
      <polyline fill="none" stroke="#000000" stroke-width="0.5pt" stroke-dasharray="none" points="72.800,288.500 77.140,288.500 "/>
      <polyline fill="none" stroke="#000000" stroke-width="0.5pt" stroke-dasharray="none" points="72.800,205.000 77.140,205.000 "/>
      <polyline fill="none" stroke="#000000" stroke-width="0.5pt" stroke-dasharray="none" points="72.800,121.500 77.140,121.500 "/>
      <polyline fill="none" stroke="#000000" stroke-width="0.5pt" stroke-dasharray="none" points="72.800,38.000 77.140,38.000 "/>
      <polyline fill="none" stroke="#000000" stroke-width="0.5pt" stroke-dasharray="none" points="72.800,372.000 72.800,38.000 "/>
  <g transform="translate(64.120,378.750)">
    <g transform="rotate(-0.0)">
      <text x="0.000" y="0.000" font-family="Helvetica" text-anchor="end" font-size="15pt" fill="#000000" >0</text>
    </g>
  </g>
  <g transform="translate(64.120,295.250)">
    <g transform="rotate(-0.0)">
      <text x="0.000" y="0.000" font-family="Helvetica" text-anchor="end" font-size="15pt" fill="#000000" >25</text>
    </g>
  </g>
  <g transform="translate(64.120,211.750)">
    <g transform="rotate(-0.0)">
      <text x="0.000" y="0.000" font-family="Helvetica" text-anchor="end" font-size="15pt" fill="#000000" >50</text>
    </g>
  </g>
  <g transform="translate(64.120,128.250)">
    <g transform="rotate(-0.0)">
      <text x="0.000" y="0.000" font-family="Helvetica" text-anchor="end" font-size="15pt" fill="#000000" >75</text>
    </g>
  </g>
  <g transform="translate(64.120,44.750)">
    <g transform="rotate(-0.0)">
      <text x="0.000" y="0.000" font-family="Helvetica" text-anchor="end" font-size="15pt" fill="#000000" >100</text>
    </g>
  </g>
      <polyline fill="none" stroke="#000000" stroke-width="0.5pt" stroke-dasharray="none" points="72.800,372.000 72.800,368.660 "/>
      <polyline fill="none" stroke="#000000" stroke-width="0.5pt" stroke-dasharray="none" points="72.800,372.000 72.800,368.660 "/>
      <polyline fill="none" stroke="#000000" stroke-width="0.5pt" stroke-dasharray="none" points="72.800,372.000 72.800,368.660 "/>
      <polyline fill="none" stroke="#000000" stroke-width="0.5pt" stroke-dasharray="none" points="72.800,372.000 72.800,372.000 "/>
    </g>
  </g>
  </g>
</svg>
