<?xml version="1.0" encoding="utf-8" standalone="no"?><!DOCTYPE svg PUBLIC "-//W3C//DTD SVG 1.1//EN" "http://www.w3.org/Graphics/SVG/1.1/DTD/svg11.dtd">
<svg preserveAspectRatio="xMinYMin meet" width="100%" height="100%" viewBox="0 0 560.000 420.000"  version="1.1" xmlns="http://www.w3.org/2000/svg" xmlns:xlink="http://www.w3.org/1999/xlink">
  <desc>Matlab Figure Converted by PLOT2SVG written by Juerg Schwizer</desc>
  <g id="topgroup">
  <rect x="0" y="0" width="560.000" height="420.000" fill="#ffffff" stroke="none" />
  <g id ="ID000000">
  <clipPath id="ID000001">
    <rect x="72.800" y="38.000" width="434.000" height="334.000"/>
  </clipPath>
      <polygon fill="#ffffff" fill-opacity="1.00" stroke="none" stroke-width="0.5pt" stroke-opacity="1.00" stroke-dasharray="none" points="72.800,372.000 506.800,372.000 506.800,38.000 72.800,38.000 "/>
      <polygon fill="#ffffff" fill-opacity="1.00" stroke="none" stroke-width="0.5pt" stroke-opacity="1.00" stroke-dasharray="none" points="72.800,38.000 506.800,38.000 506.800,38.000 72.800,38.000 "/>
      <polygon fill="#ffffff" fill-opacity="1.00" stroke="none" stroke-width="0.5pt" stroke-opacity="1.00" stroke-dasharray="none" points="72.800,372.000 72.800,372.000 72.800,38.000 72.800,38.000 "/>
    <g>
<g id="ID000002" clip-path="url(#ID000001)" >
      <polygon fill="#000080" fill-opacity="0.08" stroke="none" stroke-width="0.5pt" stroke-opacity="1.00" stroke-dasharray="none" points="72.800,265.471 95.642,290.818 118.484,281.646 141.326,281.062 164.168,274.275 187.011,272.563 209.853,262.144 232.695,269.176 255.537,263.820 278.379,271.577 301.221,273.681 324.063,267.041 346.905,257.611 369.747,259.885 392.589,273.899 415.432,258.536 438.274,254.434 461.116,274.381 483.958,272.358 506.800,270.292 506.800,148.058 483.958,141.539 461.116,144.526 438.274,131.073 415.432,136.434 392.589,145.007 369.747,140.095 346.905,131.792 324.063,148.526 301.221,151.906 278.379,141.206 255.537,150.633 232.695,153.627 209.853,152.309 187.011,151.353 164.168,152.982 141.326,155.658 118.484,142.270 95.642,174.292 72.800,143.973 "/>
</g>
<g id="ID000003" clip-path="url(#ID000001)" >
      <polyline fill="none" stroke="#000080" stroke-width="2.0pt" stroke-dasharray="none" points="72.800,204.722 95.642,232.555 118.484,211.958 141.326,218.360 164.168,213.628 187.011,211.958 209.853,207.227 232.695,211.402 255.537,207.227 278.379,206.392 301.221,212.793 324.063,207.783 346.905,194.702 369.747,199.990 392.589,209.453 415.432,197.485 438.274,192.753 461.116,209.453 483.958,206.948 506.800,209.175 "/>
<g>
<circle cx="72.800" cy="204.722" r="3.333" fill="#000080" stroke="none" stroke-width="2.0pt" />
<circle cx="95.642" cy="232.555" r="3.333" fill="#000080" stroke="none" stroke-width="2.0pt" />
<circle cx="118.484" cy="211.958" r="3.333" fill="#000080" stroke="none" stroke-width="2.0pt" />
<circle cx="141.326" cy="218.360" r="3.333" fill="#000080" stroke="none" stroke-width="2.0pt" />
<circle cx="164.168" cy="213.628" r="3.333" fill="#000080" stroke="none" stroke-width="2.0pt" />
<circle cx="187.011" cy="211.958" r="3.333" fill="#000080" stroke="none" stroke-width="2.0pt" />
<circle cx="209.853" cy="207.227" r="3.333" fill="#000080" stroke="none" stroke-width="2.0pt" />
<circle cx="232.695" cy="211.402" r="3.333" fill="#000080" stroke="none" stroke-width="2.0pt" />
<circle cx="255.537" cy="207.227" r="3.333" fill="#000080" stroke="none" stroke-width="2.0pt" />
<circle cx="278.379" cy="206.392" r="3.333" fill="#000080" stroke="none" stroke-width="2.0pt" />
<circle cx="301.221" cy="212.793" r="3.333" fill="#000080" stroke="none" stroke-width="2.0pt" />
<circle cx="324.063" cy="207.783" r="3.333" fill="#000080" stroke="none" stroke-width="2.0pt" />
<circle cx="346.905" cy="194.702" r="3.333" fill="#000080" stroke="none" stroke-width="2.0pt" />
<circle cx="369.747" cy="199.990" r="3.333" fill="#000080" stroke="none" stroke-width="2.0pt" />
<circle cx="392.589" cy="209.453" r="3.333" fill="#000080" stroke="none" stroke-width="2.0pt" />
<circle cx="415.432" cy="197.485" r="3.333" fill="#000080" stroke="none" stroke-width="2.0pt" />
<circle cx="438.274" cy="192.753" r="3.333" fill="#000080" stroke="none" stroke-width="2.0pt" />
<circle cx="461.116" cy="209.453" r="3.333" fill="#000080" stroke="none" stroke-width="2.0pt" />
<circle cx="483.958" cy="206.948" r="3.333" fill="#000080" stroke="none" stroke-width="2.0pt" />
<circle cx="506.800" cy="209.175" r="3.333" fill="#000080" stroke="none" stroke-width="2.0pt" />
</g>
</g>
<g id="ID000004" clip-path="url(#ID000001)" >
      <polygon fill="#ff0000" fill-opacity="0.08" stroke="none" stroke-width="0.5pt" stroke-opacity="1.00" stroke-dasharray="none" points="72.800,270.799 95.642,259.885 118.484,266.607 141.326,264.970 164.168,265.253 187.011,266.428 209.853,272.581 232.695,273.310 255.537,280.141 278.379,267.588 301.221,259.437 324.063,264.947 346.905,255.385 369.747,267.668 392.589,271.553 415.432,281.426 438.274,273.583 461.116,266.720 483.958,290.957 506.800,274.641 506.800,153.173 483.958,166.916 461.116,136.044 438.274,150.334 415.432,157.521 392.589,151.250 369.747,151.796 346.905,141.255 324.063,141.713 301.221,131.637 278.379,139.628 255.537,151.569 232.695,151.720 209.853,147.995 187.011,141.902 164.168,145.303 141.326,127.774 118.484,140.610 95.642,140.095 72.800,147.551 "/>
</g>
<g id="ID000005" clip-path="url(#ID000001)" >
      <polyline fill="none" stroke="#ff0000" stroke-width="2.0pt" stroke-dasharray="none" points="72.800,209.175 95.642,199.990 118.484,203.608 141.326,196.372 164.168,205.278 187.011,204.165 209.853,210.288 232.695,212.515 255.537,215.855 278.379,203.608 301.221,195.537 324.063,203.330 346.905,198.320 369.747,209.732 392.589,211.402 415.432,219.473 438.274,211.958 461.116,201.382 483.958,228.937 506.800,213.907 "/>
<g>
<circle cx="72.800" cy="209.175" r="3.333" fill="#ff0000" stroke="none" stroke-width="2.0pt" />
<circle cx="95.642" cy="199.990" r="3.333" fill="#ff0000" stroke="none" stroke-width="2.0pt" />
<circle cx="118.484" cy="203.608" r="3.333" fill="#ff0000" stroke="none" stroke-width="2.0pt" />
<circle cx="141.326" cy="196.372" r="3.333" fill="#ff0000" stroke="none" stroke-width="2.0pt" />
<circle cx="164.168" cy="205.278" r="3.333" fill="#ff0000" stroke="none" stroke-width="2.0pt" />
<circle cx="187.011" cy="204.165" r="3.333" fill="#ff0000" stroke="none" stroke-width="2.0pt" />
<circle cx="209.853" cy="210.288" r="3.333" fill="#ff0000" stroke="none" stroke-width="2.0pt" />
<circle cx="232.695" cy="212.515" r="3.333" fill="#ff0000" stroke="none" stroke-width="2.0pt" />
<circle cx="255.537" cy="215.855" r="3.333" fill="#ff0000" stroke="none" stroke-width="2.0pt" />
<circle cx="278.379" cy="203.608" r="3.333" fill="#ff0000" stroke="none" stroke-width="2.0pt" />
<circle cx="301.221" cy="195.537" r="3.333" fill="#ff0000" stroke="none" stroke-width="2.0pt" />
<circle cx="324.063" cy="203.330" r="3.333" fill="#ff0000" stroke="none" stroke-width="2.0pt" />
<circle cx="346.905" cy="198.320" r="3.333" fill="#ff0000" stroke="none" stroke-width="2.0pt" />
<circle cx="369.747" cy="209.732" r="3.333" fill="#ff0000" stroke="none" stroke-width="2.0pt" />
<circle cx="392.589" cy="211.402" r="3.333" fill="#ff0000" stroke="none" stroke-width="2.0pt" />
<circle cx="415.432" cy="219.473" r="3.333" fill="#ff0000" stroke="none" stroke-width="2.0pt" />
<circle cx="438.274" cy="211.958" r="3.333" fill="#ff0000" stroke="none" stroke-width="2.0pt" />
<circle cx="461.116" cy="201.382" r="3.333" fill="#ff0000" stroke="none" stroke-width="2.0pt" />
<circle cx="483.958" cy="228.937" r="3.333" fill="#ff0000" stroke="none" stroke-width="2.0pt" />
<circle cx="506.800" cy="213.907" r="3.333" fill="#ff0000" stroke="none" stroke-width="2.0pt" />
</g>
</g>
<g id="ID000006" clip-path="url(#ID000001)" >
      <polyline fill="none" stroke="#000000" stroke-width="0.5pt" stroke-dasharray="8.0,2.0" points="164.168,372.000 164.168,38.000 "/>
<g>
</g>
</g>
<g id="ID000007" >
  <g transform="translate(288.300,22.750)">
    <g transform="rotate(-0.0)">
      <text x="0.000" y="0.000" font-family="Helvetica" text-anchor="middle" font-size="15pt" fill="#000000" >Mean decoding for brt rel tr phi 0 te phi 180  Michel</text>
    </g>
  </g>
</g>
<g id="ID000008" >
  <g transform="translate(28.550,206.500)">
    <g transform="rotate(-90.0)">
      <text x="0.000" y="0.000" font-family="Helvetica" text-anchor="middle" font-size="15pt" fill="#000000" >Decoding accuracy (%)</text>
    </g>
  </g>
</g>
<g id="ID000009" >
  <g transform="translate(288.300,418.750)">
    <g transform="rotate(-0.0)">
      <text x="0.000" y="0.000" font-family="Helvetica" text-anchor="middle" font-size="15pt" fill="#000000" >Time from stimulus onset (s)</text>
    </g>
  </g>
</g>
<g id="ID000010" clip-path="url(#ID000001)" >
      <polyline fill="none" stroke="#000000" stroke-width="0.5pt" stroke-dasharray="none" points="72.800,205.000 506.800,205.000 "/>
<g>
</g>
</g>
    </g>
    <g>
      <polyline fill="none" stroke="#000000" stroke-width="0.5pt" stroke-dasharray="none" points="164.168,372.000 164.168,367.660 "/>
      <polyline fill="none" stroke="#000000" stroke-width="0.5pt" stroke-dasharray="none" points="278.379,372.000 278.379,367.660 "/>
      <polyline fill="none" stroke="#000000" stroke-width="0.5pt" stroke-dasharray="none" points="392.589,372.000 392.589,367.660 "/>
      <polyline fill="none" stroke="#000000" stroke-width="0.5pt" stroke-dasharray="none" points="506.800,372.000 506.800,367.660 "/>
      <polyline fill="none" stroke="#000000" stroke-width="0.5pt" stroke-dasharray="none" points="72.800,372.000 506.800,372.000 "/>
  <g transform="translate(164.168,396.380)">
    <g transform="rotate(-0.0)">
      <text x="0.000" y="0.000" font-family="Helvetica" text-anchor="middle" font-size="15pt" fill="#000000" >0</text>
    </g>
  </g>
  <g transform="translate(278.379,396.380)">
    <g transform="rotate(-0.0)">
      <text x="0.000" y="0.000" font-family="Helvetica" text-anchor="middle" font-size="15pt" fill="#000000" >0.5</text>
    </g>
  </g>
  <g transform="translate(392.589,396.380)">
    <g transform="rotate(-0.0)">
      <text x="0.000" y="0.000" font-family="Helvetica" text-anchor="middle" font-size="15pt" fill="#000000" >1</text>
    </g>
  </g>
  <g transform="translate(506.800,396.380)">
    <g transform="rotate(-0.0)">
      <text x="0.000" y="0.000" font-family="Helvetica" text-anchor="middle" font-size="15pt" fill="#000000" >1.5</text>
    </g>
  </g>
      <polyline fill="none" stroke="#000000" stroke-width="0.5pt" stroke-dasharray="none" points="72.800,372.000 77.140,372.000 "/>
      <polyline fill="none" stroke="#000000" stroke-width="0.5pt" stroke-dasharray="none" points="72.800,288.500 77.140,288.500 "/>
      <polyline fill="none" stroke="#000000" stroke-width="0.5pt" stroke-dasharray="none" points="72.800,205.000 77.140,205.000 "/>
      <polyline fill="none" stroke="#000000" stroke-width="0.5pt" stroke-dasharray="none" points="72.800,121.500 77.140,121.500 "/>
      <polyline fill="none" stroke="#000000" stroke-width="0.5pt" stroke-dasharray="none" points="72.800,38.000 77.140,38.000 "/>
      <polyline fill="none" stroke="#000000" stroke-width="0.5pt" stroke-dasharray="none" points="72.800,372.000 72.800,38.000 "/>
  <g transform="translate(64.120,378.750)">
    <g transform="rotate(-0.0)">
      <text x="0.000" y="0.000" font-family="Helvetica" text-anchor="end" font-size="15pt" fill="#000000" >0</text>
    </g>
  </g>
  <g transform="translate(64.120,295.250)">
    <g transform="rotate(-0.0)">
      <text x="0.000" y="0.000" font-family="Helvetica" text-anchor="end" font-size="15pt" fill="#000000" >25</text>
    </g>
  </g>
  <g transform="translate(64.120,211.750)">
    <g transform="rotate(-0.0)">
      <text x="0.000" y="0.000" font-family="Helvetica" text-anchor="end" font-size="15pt" fill="#000000" >50</text>
    </g>
  </g>
  <g transform="translate(64.120,128.250)">
    <g transform="rotate(-0.0)">
      <text x="0.000" y="0.000" font-family="Helvetica" text-anchor="end" font-size="15pt" fill="#000000" >75</text>
    </g>
  </g>
  <g transform="translate(64.120,44.750)">
    <g transform="rotate(-0.0)">
      <text x="0.000" y="0.000" font-family="Helvetica" text-anchor="end" font-size="15pt" fill="#000000" >100</text>
    </g>
  </g>
      <polyline fill="none" stroke="#000000" stroke-width="0.5pt" stroke-dasharray="none" points="72.800,372.000 72.800,368.660 "/>
      <polyline fill="none" stroke="#000000" stroke-width="0.5pt" stroke-dasharray="none" points="72.800,372.000 72.800,368.660 "/>
      <polyline fill="none" stroke="#000000" stroke-width="0.5pt" stroke-dasharray="none" points="72.800,372.000 72.800,368.660 "/>
      <polyline fill="none" stroke="#000000" stroke-width="0.5pt" stroke-dasharray="none" points="72.800,372.000 72.800,372.000 "/>
    </g>
  </g>
  </g>
</svg>
