<?xml version="1.0" encoding="utf-8" standalone="no"?><!DOCTYPE svg PUBLIC "-//W3C//DTD SVG 1.1//EN" "http://www.w3.org/Graphics/SVG/1.1/DTD/svg11.dtd">
<svg preserveAspectRatio="xMinYMin meet" width="100%" height="100%" viewBox="0 0 560.000 420.000"  version="1.1" xmlns="http://www.w3.org/2000/svg" xmlns:xlink="http://www.w3.org/1999/xlink">
  <desc>Matlab Figure Converted by PLOT2SVG written by Juerg Schwizer</desc>
  <g id="topgroup">
  <rect x="0" y="0" width="560.000" height="420.000" fill="#ffffff" stroke="none" />
  <g id ="ID000000">
  <clipPath id="ID000001">
    <rect x="72.800" y="38.000" width="434.000" height="334.000"/>
  </clipPath>
      <polygon fill="#ffffff" fill-opacity="1.00" stroke="none" stroke-width="0.5pt" stroke-opacity="1.00" stroke-dasharray="none" points="72.800,372.000 506.800,372.000 506.800,38.000 72.800,38.000 "/>
      <polygon fill="#ffffff" fill-opacity="1.00" stroke="none" stroke-width="0.5pt" stroke-opacity="1.00" stroke-dasharray="none" points="72.800,38.000 506.800,38.000 506.800,38.000 72.800,38.000 "/>
      <polygon fill="#ffffff" fill-opacity="1.00" stroke="none" stroke-width="0.5pt" stroke-opacity="1.00" stroke-dasharray="none" points="72.800,372.000 72.800,372.000 72.800,38.000 72.800,38.000 "/>
    <g>
<g id="ID000002" clip-path="url(#ID000001)" >
      <polygon fill="#738ccc" fill-opacity="0.08" stroke="none" stroke-width="0.5pt" stroke-opacity="1.00" stroke-dasharray="none" points="72.800,281.768 133.078,282.572 193.356,278.502 253.633,274.859 313.911,282.486 374.189,253.886 434.467,206.558 494.744,111.231 494.744,12.588 434.467,24.243 374.189,89.349 313.911,92.470 253.633,114.084 193.356,87.335 133.078,123.650 72.800,135.033 "/>
</g>
<g id="ID000003" clip-path="url(#ID000001)" >
      <polyline fill="none" stroke="#738ccc" stroke-width="2.0pt" stroke-dasharray="none" points="72.800,208.400 133.078,203.111 193.356,182.919 253.633,194.472 313.911,187.478 374.189,171.617 434.467,115.400 494.744,61.910 "/>
<g>
<circle cx="72.800" cy="208.400" r="3.333" fill="#738ccc" stroke="none" stroke-width="2.0pt" />
<circle cx="133.078" cy="203.111" r="3.333" fill="#738ccc" stroke="none" stroke-width="2.0pt" />
<circle cx="193.356" cy="182.919" r="3.333" fill="#738ccc" stroke="none" stroke-width="2.0pt" />
<circle cx="253.633" cy="194.472" r="3.333" fill="#738ccc" stroke="none" stroke-width="2.0pt" />
<circle cx="313.911" cy="187.478" r="3.333" fill="#738ccc" stroke="none" stroke-width="2.0pt" />
<circle cx="374.189" cy="171.617" r="3.333" fill="#738ccc" stroke="none" stroke-width="2.0pt" />
<circle cx="434.467" cy="115.400" r="3.333" fill="#738ccc" stroke="none" stroke-width="2.0pt" />
<circle cx="494.744" cy="61.910" r="3.333" fill="#738ccc" stroke="none" stroke-width="2.0pt" />
</g>
</g>
<g id="ID000004" clip-path="url(#ID000001)" >
      <polygon fill="#000080" fill-opacity="0.08" stroke="none" stroke-width="0.5pt" stroke-opacity="1.00" stroke-dasharray="none" points="72.800,237.191 133.078,225.725 193.356,223.823 253.633,223.749 313.911,221.447 374.189,218.255 434.467,212.615 494.744,200.379 494.744,137.914 434.467,162.483 374.189,166.646 313.911,177.955 253.633,180.541 193.356,176.139 133.078,184.366 72.800,181.568 "/>
</g>
<g id="ID000005" clip-path="url(#ID000001)" >
      <polyline fill="none" stroke="#000080" stroke-width="2.0pt" stroke-dasharray="none" points="72.800,209.380 133.078,205.045 193.356,199.981 253.633,202.145 313.911,199.701 374.189,192.450 434.467,187.549 494.744,169.147 "/>
<g>
<circle cx="72.800" cy="209.380" r="3.333" fill="#000080" stroke="none" stroke-width="2.0pt" />
<circle cx="133.078" cy="205.045" r="3.333" fill="#000080" stroke="none" stroke-width="2.0pt" />
<circle cx="193.356" cy="199.981" r="3.333" fill="#000080" stroke="none" stroke-width="2.0pt" />
<circle cx="253.633" cy="202.145" r="3.333" fill="#000080" stroke="none" stroke-width="2.0pt" />
<circle cx="313.911" cy="199.701" r="3.333" fill="#000080" stroke="none" stroke-width="2.0pt" />
<circle cx="374.189" cy="192.450" r="3.333" fill="#000080" stroke="none" stroke-width="2.0pt" />
<circle cx="434.467" cy="187.549" r="3.333" fill="#000080" stroke="none" stroke-width="2.0pt" />
<circle cx="494.744" cy="169.147" r="3.333" fill="#000080" stroke="none" stroke-width="2.0pt" />
</g>
</g>
<g id="ID000006" clip-path="url(#ID000001)" >
      <polygon fill="#f08080" fill-opacity="0.08" stroke="none" stroke-width="0.5pt" stroke-opacity="1.00" stroke-dasharray="none" points="72.800,271.655 133.078,255.924 193.356,246.206 253.633,235.797 313.911,269.734 374.189,235.446 434.467,256.356 494.744,303.240 494.744,140.952 434.467,155.750 374.189,154.746 313.911,164.593 253.633,179.170 193.356,182.656 133.078,152.550 72.800,146.931 "/>
</g>
<g id="ID000007" clip-path="url(#ID000001)" >
      <polyline fill="none" stroke="#f08080" stroke-width="2.0pt" stroke-dasharray="none" points="72.800,209.293 133.078,204.237 193.356,214.431 253.633,207.483 313.911,217.164 374.189,195.096 434.467,206.053 494.744,222.096 "/>
<g>
<circle cx="72.800" cy="209.293" r="3.333" fill="#f08080" stroke="none" stroke-width="2.0pt" />
<circle cx="133.078" cy="204.237" r="3.333" fill="#f08080" stroke="none" stroke-width="2.0pt" />
<circle cx="193.356" cy="214.431" r="3.333" fill="#f08080" stroke="none" stroke-width="2.0pt" />
<circle cx="253.633" cy="207.483" r="3.333" fill="#f08080" stroke="none" stroke-width="2.0pt" />
<circle cx="313.911" cy="217.164" r="3.333" fill="#f08080" stroke="none" stroke-width="2.0pt" />
<circle cx="374.189" cy="195.096" r="3.333" fill="#f08080" stroke="none" stroke-width="2.0pt" />
<circle cx="434.467" cy="206.053" r="3.333" fill="#f08080" stroke="none" stroke-width="2.0pt" />
<circle cx="494.744" cy="222.096" r="3.333" fill="#f08080" stroke="none" stroke-width="2.0pt" />
</g>
</g>
<g id="ID000008" clip-path="url(#ID000001)" >
      <polygon fill="#ff0000" fill-opacity="0.08" stroke="none" stroke-width="0.5pt" stroke-opacity="1.00" stroke-dasharray="none" points="72.800,241.513 133.078,247.831 193.356,267.588 253.633,297.907 313.911,263.435 374.189,250.321 434.467,252.656 494.744,235.874 494.744,188.528 434.467,169.110 374.189,149.591 313.911,169.289 253.633,151.683 193.356,163.536 133.078,161.812 72.800,171.389 "/>
</g>
<g id="ID000009" clip-path="url(#ID000001)" >
      <polyline fill="none" stroke="#ff0000" stroke-width="2.0pt" stroke-dasharray="none" points="72.800,206.451 133.078,204.822 193.356,215.562 253.633,224.795 313.911,216.362 374.189,199.956 434.467,210.883 494.744,212.201 "/>
<g>
<circle cx="72.800" cy="206.451" r="3.333" fill="#ff0000" stroke="none" stroke-width="2.0pt" />
<circle cx="133.078" cy="204.822" r="3.333" fill="#ff0000" stroke="none" stroke-width="2.0pt" />
<circle cx="193.356" cy="215.562" r="3.333" fill="#ff0000" stroke="none" stroke-width="2.0pt" />
<circle cx="253.633" cy="224.795" r="3.333" fill="#ff0000" stroke="none" stroke-width="2.0pt" />
<circle cx="313.911" cy="216.362" r="3.333" fill="#ff0000" stroke="none" stroke-width="2.0pt" />
<circle cx="374.189" cy="199.956" r="3.333" fill="#ff0000" stroke="none" stroke-width="2.0pt" />
<circle cx="434.467" cy="210.883" r="3.333" fill="#ff0000" stroke="none" stroke-width="2.0pt" />
<circle cx="494.744" cy="212.201" r="3.333" fill="#ff0000" stroke="none" stroke-width="2.0pt" />
</g>
</g>
<g id="ID000010" >
  <g transform="translate(28.550,206.500)">
    <g transform="rotate(-90.0)">
      <text x="0.000" y="0.000" font-family="Helvetica" text-anchor="middle" font-size="15pt" fill="#000000" >Decoding accuracy (%)</text>
    </g>
  </g>
</g>
<g id="ID000011" clip-path="url(#ID000001)" >
      <polyline fill="none" stroke="#000080" stroke-width="1.0pt" stroke-dasharray="none" points="404.328,346.950 464.606,346.950 "/>
<g>
</g>
</g>
<g id="ID000012" clip-path="url(#ID000001)" >
      <polyline fill="none" stroke="#000080" stroke-width="1.0pt" stroke-dasharray="none" points="464.606,346.950 524.883,346.950 "/>
<g>
</g>
</g>
<g id="ID000013" >
  <g transform="translate(289.300,418.750)">
    <g transform="rotate(-0.0)">
      <text x="0.000" y="0.000" font-family="Helvetica" text-anchor="middle" font-size="15pt" fill="#000000" >Time from saccade onset (s)</text>
    </g>
  </g>
</g>
<g id="ID000014" clip-path="url(#ID000001)" >
      <polyline fill="none" stroke="#000000" stroke-width="0.5pt" stroke-dasharray="none" points="72.800,205.000 506.800,205.000 "/>
<g>
</g>
</g>
<g id="ID000015" clip-path="url(#ID000001)" >
      <polyline fill="none" stroke="#000000" stroke-width="0.5pt" stroke-dasharray="8.0,2.0" points="494.744,372.000 494.744,38.000 "/>
<g>
</g>
</g>
<g id="ID000016" >
  <g transform="translate(289.300,22.750)">
    <g transform="rotate(-0.0)">
      <text x="0.000" y="0.000" font-family="Helvetica" text-anchor="middle" font-size="15pt" fill="#000000" >Mean decoding for brt rel tr phi in te phi out  Michel</text>
    </g>
  </g>
</g>
    </g>
    <g>
      <polyline fill="none" stroke="#000000" stroke-width="0.5pt" stroke-dasharray="none" points="133.078,372.000 133.078,367.660 "/>
      <polyline fill="none" stroke="#000000" stroke-width="0.5pt" stroke-dasharray="none" points="193.356,372.000 193.356,367.660 "/>
      <polyline fill="none" stroke="#000000" stroke-width="0.5pt" stroke-dasharray="none" points="253.633,372.000 253.633,367.660 "/>
      <polyline fill="none" stroke="#000000" stroke-width="0.5pt" stroke-dasharray="none" points="313.911,372.000 313.911,367.660 "/>
      <polyline fill="none" stroke="#000000" stroke-width="0.5pt" stroke-dasharray="none" points="374.189,372.000 374.189,367.660 "/>
      <polyline fill="none" stroke="#000000" stroke-width="0.5pt" stroke-dasharray="none" points="434.467,372.000 434.467,367.660 "/>
      <polyline fill="none" stroke="#000000" stroke-width="0.5pt" stroke-dasharray="none" points="494.744,372.000 494.744,367.660 "/>
      <polyline fill="none" stroke="#000000" stroke-width="0.5pt" stroke-dasharray="none" points="72.800,372.000 506.800,372.000 "/>
  <g transform="translate(133.078,396.380)">
    <g transform="rotate(-0.0)">
      <text x="0.000" y="0.000" font-family="Helvetica" text-anchor="middle" font-size="15pt" fill="#000000" >-0.6</text>
    </g>
  </g>
  <g transform="translate(193.356,396.380)">
    <g transform="rotate(-0.0)">
      <text x="0.000" y="0.000" font-family="Helvetica" text-anchor="middle" font-size="15pt" fill="#000000" >-0.5</text>
    </g>
  </g>
  <g transform="translate(253.633,396.380)">
    <g transform="rotate(-0.0)">
      <text x="0.000" y="0.000" font-family="Helvetica" text-anchor="middle" font-size="15pt" fill="#000000" >-0.4</text>
    </g>
  </g>
  <g transform="translate(313.911,396.380)">
    <g transform="rotate(-0.0)">
      <text x="0.000" y="0.000" font-family="Helvetica" text-anchor="middle" font-size="15pt" fill="#000000" >-0.3</text>
    </g>
  </g>
  <g transform="translate(374.189,396.380)">
    <g transform="rotate(-0.0)">
      <text x="0.000" y="0.000" font-family="Helvetica" text-anchor="middle" font-size="15pt" fill="#000000" >-0.2</text>
    </g>
  </g>
  <g transform="translate(434.467,396.380)">
    <g transform="rotate(-0.0)">
      <text x="0.000" y="0.000" font-family="Helvetica" text-anchor="middle" font-size="15pt" fill="#000000" >-0.1</text>
    </g>
  </g>
  <g transform="translate(494.744,396.380)">
    <g transform="rotate(-0.0)">
      <text x="0.000" y="0.000" font-family="Helvetica" text-anchor="middle" font-size="15pt" fill="#000000" >0</text>
    </g>
  </g>
      <polyline fill="none" stroke="#000000" stroke-width="0.5pt" stroke-dasharray="none" points="72.800,372.000 77.140,372.000 "/>
      <polyline fill="none" stroke="#000000" stroke-width="0.5pt" stroke-dasharray="none" points="72.800,288.500 77.140,288.500 "/>
      <polyline fill="none" stroke="#000000" stroke-width="0.5pt" stroke-dasharray="none" points="72.800,205.000 77.140,205.000 "/>
      <polyline fill="none" stroke="#000000" stroke-width="0.5pt" stroke-dasharray="none" points="72.800,121.500 77.140,121.500 "/>
      <polyline fill="none" stroke="#000000" stroke-width="0.5pt" stroke-dasharray="none" points="72.800,38.000 77.140,38.000 "/>
      <polyline fill="none" stroke="#000000" stroke-width="0.5pt" stroke-dasharray="none" points="72.800,372.000 72.800,38.000 "/>
  <g transform="translate(64.120,378.750)">
    <g transform="rotate(-0.0)">
      <text x="0.000" y="0.000" font-family="Helvetica" text-anchor="end" font-size="15pt" fill="#000000" >0</text>
    </g>
  </g>
  <g transform="translate(64.120,295.250)">
    <g transform="rotate(-0.0)">
      <text x="0.000" y="0.000" font-family="Helvetica" text-anchor="end" font-size="15pt" fill="#000000" >25</text>
    </g>
  </g>
  <g transform="translate(64.120,211.750)">
    <g transform="rotate(-0.0)">
      <text x="0.000" y="0.000" font-family="Helvetica" text-anchor="end" font-size="15pt" fill="#000000" >50</text>
    </g>
  </g>
  <g transform="translate(64.120,128.250)">
    <g transform="rotate(-0.0)">
      <text x="0.000" y="0.000" font-family="Helvetica" text-anchor="end" font-size="15pt" fill="#000000" >75</text>
    </g>
  </g>
  <g transform="translate(64.120,44.750)">
    <g transform="rotate(-0.0)">
      <text x="0.000" y="0.000" font-family="Helvetica" text-anchor="end" font-size="15pt" fill="#000000" >100</text>
    </g>
  </g>
      <polyline fill="none" stroke="#000000" stroke-width="0.5pt" stroke-dasharray="none" points="72.800,372.000 72.800,368.660 "/>
      <polyline fill="none" stroke="#000000" stroke-width="0.5pt" stroke-dasharray="none" points="72.800,372.000 72.800,368.660 "/>
      <polyline fill="none" stroke="#000000" stroke-width="0.5pt" stroke-dasharray="none" points="72.800,372.000 72.800,368.660 "/>
      <polyline fill="none" stroke="#000000" stroke-width="0.5pt" stroke-dasharray="none" points="72.800,372.000 72.800,372.000 "/>
    </g>
  </g>
  </g>
</svg>
