<?xml version="1.0" encoding="utf-8" standalone="no"?><!DOCTYPE svg PUBLIC "-//W3C//DTD SVG 1.1//EN" "http://www.w3.org/Graphics/SVG/1.1/DTD/svg11.dtd">
<svg preserveAspectRatio="xMinYMin meet" width="100%" height="100%" viewBox="0 0 560.000 420.000"  version="1.1" xmlns="http://www.w3.org/2000/svg" xmlns:xlink="http://www.w3.org/1999/xlink">
  <desc>Matlab Figure Converted by PLOT2SVG written by Juerg Schwizer</desc>
  <g id="topgroup">
  <rect x="0" y="0" width="560.000" height="420.000" fill="#ffffff" stroke="none" />
  <g id ="ID000000">
  <clipPath id="ID000001">
    <rect x="72.800" y="31.500" width="434.000" height="342.300"/>
  </clipPath>
      <polygon fill="#ffffff" fill-opacity="1.00" stroke="none" stroke-width="0.5pt" stroke-opacity="1.00" stroke-dasharray="none" points="72.800,373.800 506.800,373.800 506.800,31.500 72.800,31.500 "/>
      <polygon fill="#ffffff" fill-opacity="1.00" stroke="none" stroke-width="0.5pt" stroke-opacity="1.00" stroke-dasharray="none" points="72.800,31.500 506.800,31.500 506.800,31.500 72.800,31.500 "/>
      <polygon fill="#ffffff" fill-opacity="1.00" stroke="none" stroke-width="0.5pt" stroke-opacity="1.00" stroke-dasharray="none" points="72.800,373.800 72.800,373.800 72.800,31.500 72.800,31.500 "/>
    <g>
<g id="ID000002" clip-path="url(#ID000001)" >
      <polygon fill="#add8e6" fill-opacity="0.15" stroke="none" stroke-width="0.5pt" stroke-opacity="1.00" stroke-dasharray="none" points="94.500,203.294 116.200,194.388 137.900,189.378 159.600,216.766 181.300,195.153 203.000,208.682 224.700,159.017 246.400,149.558 268.100,152.297 289.800,183.075 311.500,193.706 333.200,208.162 354.900,196.403 376.600,197.803 398.300,174.809 420.000,165.353 441.700,189.459 463.400,162.472 485.100,167.505 506.800,189.892 506.800,173.762 485.100,152.790 463.400,147.555 441.700,174.480 420.000,149.808 398.300,160.890 376.600,182.966 354.900,181.228 333.200,192.859 311.500,177.649 289.800,167.457 268.100,137.762 246.400,134.226 224.700,143.878 203.000,193.195 181.300,180.196 159.600,199.373 137.900,172.278 116.200,178.964 94.500,186.887 "/>
</g>
<g id="ID000003" clip-path="url(#ID000001)" >
      <polyline fill="none" stroke="#daedf3" stroke-width="0.5pt" stroke-dasharray="none" points="94.500,203.294 116.200,194.388 137.900,189.378 159.600,216.766 181.300,195.153 203.000,208.682 224.700,159.017 246.400,149.558 268.100,152.297 289.800,183.075 311.500,193.706 333.200,208.162 354.900,196.403 376.600,197.803 398.300,174.809 420.000,165.353 441.700,189.459 463.400,162.472 485.100,167.505 506.800,189.892 "/>
<g>
</g>
</g>
<g id="ID000004" clip-path="url(#ID000001)" >
      <polyline fill="none" stroke="#daedf3" stroke-width="0.5pt" stroke-dasharray="none" points="94.500,186.887 116.200,178.964 137.900,172.278 159.600,199.373 181.300,180.196 203.000,193.195 224.700,143.878 246.400,134.226 268.100,137.762 289.800,167.457 311.500,177.649 333.200,192.859 354.900,181.228 376.600,182.966 398.300,160.890 420.000,149.808 441.700,174.480 463.400,147.555 485.100,152.790 506.800,173.762 "/>
<g>
</g>
</g>
<g id="ID000005" clip-path="url(#ID000001)" >
      <polyline fill="none" stroke="#add8e6" stroke-width="0.5pt" stroke-dasharray="none" points="94.500,195.091 116.200,186.676 137.900,180.828 159.600,208.070 181.300,187.674 203.000,200.938 224.700,151.448 246.400,141.892 268.100,145.029 289.800,175.266 311.500,185.678 333.200,200.511 354.900,188.815 376.600,190.384 398.300,167.850 420.000,157.581 441.700,181.969 463.400,155.013 485.100,160.148 506.800,181.827 "/>
<g>
</g>
</g>
<g id="ID000006" clip-path="url(#ID000001)" >
      <polygon fill="#000080" fill-opacity="0.15" stroke="none" stroke-width="0.5pt" stroke-opacity="1.00" stroke-dasharray="none" points="94.500,212.029 116.200,196.281 137.900,201.755 159.600,212.263 181.300,189.001 203.000,202.511 224.700,154.743 246.400,146.455 268.100,145.469 289.800,171.824 311.500,187.495 333.200,209.084 354.900,197.403 376.600,198.230 398.300,178.171 420.000,167.703 441.700,188.293 463.400,167.280 485.100,171.974 506.800,172.669 506.800,156.184 485.100,155.453 463.400,153.016 441.700,174.220 420.000,152.878 398.300,163.518 376.600,183.964 354.900,183.080 333.200,192.793 311.500,171.880 289.800,155.603 268.100,131.754 246.400,131.909 224.700,140.735 203.000,187.385 181.300,173.511 159.600,194.748 137.900,185.004 116.200,180.494 94.500,196.123 "/>
</g>
<g id="ID000007" clip-path="url(#ID000001)" >
      <polyline fill="none" stroke="#8c8cc5" stroke-width="0.5pt" stroke-dasharray="none" points="94.500,212.029 116.200,196.281 137.900,201.755 159.600,212.263 181.300,189.001 203.000,202.511 224.700,154.743 246.400,146.455 268.100,145.469 289.800,171.824 311.500,187.495 333.200,209.084 354.900,197.403 376.600,198.230 398.300,178.171 420.000,167.703 441.700,188.293 463.400,167.280 485.100,171.974 506.800,172.669 "/>
<g>
</g>
</g>
<g id="ID000008" clip-path="url(#ID000001)" >
      <polyline fill="none" stroke="#8c8cc5" stroke-width="0.5pt" stroke-dasharray="none" points="94.500,196.123 116.200,180.494 137.900,185.004 159.600,194.748 181.300,173.511 203.000,187.385 224.700,140.735 246.400,131.909 268.100,131.754 289.800,155.603 311.500,171.880 333.200,192.793 354.900,183.080 376.600,183.964 398.300,163.518 420.000,152.878 441.700,174.220 463.400,153.016 485.100,155.453 506.800,156.184 "/>
<g>
</g>
</g>
<g id="ID000009" clip-path="url(#ID000001)" >
      <polyline fill="none" stroke="#000080" stroke-width="0.5pt" stroke-dasharray="none" points="94.500,204.076 116.200,188.388 137.900,193.379 159.600,203.506 181.300,181.256 203.000,194.948 224.700,147.739 246.400,139.182 268.100,138.611 289.800,163.713 311.500,179.687 333.200,200.938 354.900,190.242 376.600,191.097 398.300,170.845 420.000,160.290 441.700,181.256 463.400,160.148 485.100,163.713 506.800,164.426 "/>
<g>
</g>
</g>
<g id="ID000010" clip-path="url(#ID000001)" >
      <polygon fill="#f08080" fill-opacity="0.15" stroke="none" stroke-width="0.5pt" stroke-opacity="1.00" stroke-dasharray="none" points="94.500,201.299 116.200,193.809 137.900,173.113 159.600,236.201 181.300,216.896 203.000,239.147 224.700,136.827 246.400,56.592 268.100,70.924 289.800,153.516 311.500,234.633 333.200,145.374 354.900,153.216 376.600,141.886 398.300,156.818 420.000,104.563 441.700,117.725 463.400,141.286 485.100,140.824 506.800,121.851 506.800,106.880 485.100,126.415 463.400,125.097 441.700,103.589 420.000,92.789 398.300,139.231 376.600,123.642 354.900,135.702 333.200,130.422 311.500,218.589 289.800,137.969 268.100,61.392 246.400,49.766 224.700,123.566 203.000,225.199 181.300,200.099 159.600,220.159 137.900,156.881 116.200,177.832 94.500,185.745 "/>
</g>
<g id="ID000011" clip-path="url(#ID000001)" >
      <polyline fill="none" stroke="#f8c5c5" stroke-width="0.5pt" stroke-dasharray="none" points="94.500,201.299 116.200,193.809 137.900,173.113 159.600,236.201 181.300,216.896 203.000,239.147 224.700,136.827 246.400,56.592 268.100,70.924 289.800,153.516 311.500,234.633 333.200,145.374 354.900,153.216 376.600,141.886 398.300,156.818 420.000,104.563 441.700,117.725 463.400,141.286 485.100,140.824 506.800,121.851 "/>
<g>
</g>
</g>
<g id="ID000012" clip-path="url(#ID000001)" >
      <polyline fill="none" stroke="#f8c5c5" stroke-width="0.5pt" stroke-dasharray="none" points="94.500,185.745 116.200,177.832 137.900,156.881 159.600,220.159 181.300,200.099 203.000,225.199 224.700,123.566 246.400,49.766 268.100,61.392 289.800,137.969 311.500,218.589 333.200,130.422 354.900,135.702 376.600,123.642 398.300,139.231 420.000,92.789 441.700,103.589 463.400,125.097 485.100,126.415 506.800,106.880 "/>
<g>
</g>
</g>
<g id="ID000013" clip-path="url(#ID000001)" >
      <polyline fill="none" stroke="#f08080" stroke-width="0.5pt" stroke-dasharray="none" points="94.500,193.522 116.200,185.820 137.900,164.997 159.600,228.180 181.300,208.498 203.000,232.173 224.700,130.196 246.400,53.179 268.100,66.158 289.800,145.743 311.500,226.611 333.200,137.898 354.900,144.459 376.600,132.764 398.300,148.025 420.000,98.676 441.700,110.657 463.400,133.192 485.100,133.619 506.800,114.365 "/>
<g>
</g>
</g>
<g id="ID000014" clip-path="url(#ID000001)" >
      <polygon fill="#ff0000" fill-opacity="0.15" stroke="none" stroke-width="0.5pt" stroke-opacity="1.00" stroke-dasharray="none" points="94.500,201.906 116.200,186.828 137.900,178.210 159.600,227.662 181.300,220.191 203.000,237.731 224.700,132.702 246.400,53.018 268.100,65.622 289.800,164.061 311.500,230.977 333.200,150.058 354.900,155.297 376.600,161.813 398.300,161.055 420.000,110.926 441.700,120.766 463.400,141.690 485.100,145.986 506.800,128.672 506.800,114.606 485.100,131.237 463.400,125.834 441.700,106.253 420.000,98.407 398.300,143.266 376.600,142.793 354.900,137.330 333.200,134.581 311.500,214.543 289.800,146.536 268.100,57.566 246.400,46.494 224.700,119.134 203.000,222.907 181.300,203.365 159.600,210.727 137.900,162.053 116.200,171.121 94.500,186.564 "/>
</g>
<g id="ID000015" clip-path="url(#ID000001)" >
      <polyline fill="none" stroke="#ff8c8c" stroke-width="0.5pt" stroke-dasharray="none" points="94.500,201.906 116.200,186.828 137.900,178.210 159.600,227.662 181.300,220.191 203.000,237.731 224.700,132.702 246.400,53.018 268.100,65.622 289.800,164.061 311.500,230.977 333.200,150.058 354.900,155.297 376.600,161.813 398.300,161.055 420.000,110.926 441.700,120.766 463.400,141.690 485.100,145.986 506.800,128.672 "/>
<g>
</g>
</g>
<g id="ID000016" clip-path="url(#ID000001)" >
      <polyline fill="none" stroke="#ff8c8c" stroke-width="0.5pt" stroke-dasharray="none" points="94.500,186.564 116.200,171.121 137.900,162.053 159.600,210.727 181.300,203.365 203.000,222.907 224.700,119.134 246.400,46.494 268.100,57.566 289.800,146.536 311.500,214.543 333.200,134.581 354.900,137.330 376.600,142.793 398.300,143.266 420.000,98.407 441.700,106.253 463.400,125.834 485.100,131.237 506.800,114.606 "/>
<g>
</g>
</g>
<g id="ID000017" clip-path="url(#ID000001)" >
      <polyline fill="none" stroke="#ff0000" stroke-width="0.5pt" stroke-dasharray="none" points="94.500,194.235 116.200,178.974 137.900,170.131 159.600,219.194 181.300,211.778 203.000,230.319 224.700,125.918 246.400,49.756 268.100,61.594 289.800,155.299 311.500,222.760 333.200,142.320 354.900,146.313 376.600,152.303 398.300,152.161 420.000,104.667 441.700,113.509 463.400,133.762 485.100,138.611 506.800,121.639 "/>
<g>
</g>
</g>
<g id="ID000018" clip-path="url(#ID000001)" >
      <polyline fill="none" stroke="#000000" stroke-width="0.5pt" stroke-dasharray="none" points="72.800,202.650 506.800,202.650 "/>
<g>
</g>
</g>
<g id="ID000019" clip-path="url(#ID000001)" >
      <polyline fill="none" stroke="#000000" stroke-width="2.0pt" stroke-dasharray="none" points="203.000,373.800 203.000,31.500 "/>
<g>
</g>
</g>
<g id="ID000020" >
  <g transform="translate(289.300,21.493)">
    <g transform="rotate(-0.0)">
      <text x="0.000" y="0.000" font-family="Helvetica" text-anchor="middle" font-size="10pt" fill="#000000" >Mean decoding for phi abs tr brt in te brt out</text>
    </g>
  </g>
</g>
<g id="ID000021" >
</g>
<g id="ID000022" >
</g>
<g id="ID000023" >
</g>
<g id="ID000024" >
</g>
    </g>
    <g>
      <polyline fill="none" stroke="#000000" stroke-width="0.5pt" stroke-dasharray="none" points="72.800,373.800 72.800,369.460 "/>
      <polyline fill="none" stroke="#000000" stroke-width="0.5pt" stroke-dasharray="none" points="116.200,373.800 116.200,369.460 "/>
      <polyline fill="none" stroke="#000000" stroke-width="0.5pt" stroke-dasharray="none" points="159.600,373.800 159.600,369.460 "/>
      <polyline fill="none" stroke="#000000" stroke-width="0.5pt" stroke-dasharray="none" points="203.000,373.800 203.000,369.460 "/>
      <polyline fill="none" stroke="#000000" stroke-width="0.5pt" stroke-dasharray="none" points="246.400,373.800 246.400,369.460 "/>
      <polyline fill="none" stroke="#000000" stroke-width="0.5pt" stroke-dasharray="none" points="289.800,373.800 289.800,369.460 "/>
      <polyline fill="none" stroke="#000000" stroke-width="0.5pt" stroke-dasharray="none" points="333.200,373.800 333.200,369.460 "/>
      <polyline fill="none" stroke="#000000" stroke-width="0.5pt" stroke-dasharray="none" points="376.600,373.800 376.600,369.460 "/>
      <polyline fill="none" stroke="#000000" stroke-width="0.5pt" stroke-dasharray="none" points="420.000,373.800 420.000,369.460 "/>
      <polyline fill="none" stroke="#000000" stroke-width="0.5pt" stroke-dasharray="none" points="463.400,373.800 463.400,369.460 "/>
      <polyline fill="none" stroke="#000000" stroke-width="0.5pt" stroke-dasharray="none" points="506.800,373.800 506.800,369.460 "/>
      <polyline fill="none" stroke="#000000" stroke-width="0.5pt" stroke-dasharray="none" points="72.800,373.800 506.800,373.800 "/>
  <g transform="translate(72.800,392.446)">
    <g transform="rotate(-0.0)">
      <text x="0.000" y="0.000" font-family="Helvetica" text-anchor="middle" font-size="10pt" fill="#000000" >-600</text>
    </g>
  </g>
  <g transform="translate(116.200,392.446)">
    <g transform="rotate(-0.0)">
      <text x="0.000" y="0.000" font-family="Helvetica" text-anchor="middle" font-size="10pt" fill="#000000" >-400</text>
    </g>
  </g>
  <g transform="translate(159.600,392.446)">
    <g transform="rotate(-0.0)">
      <text x="0.000" y="0.000" font-family="Helvetica" text-anchor="middle" font-size="10pt" fill="#000000" >-200</text>
    </g>
  </g>
  <g transform="translate(203.000,392.446)">
    <g transform="rotate(-0.0)">
      <text x="0.000" y="0.000" font-family="Helvetica" text-anchor="middle" font-size="10pt" fill="#000000" >0</text>
    </g>
  </g>
  <g transform="translate(246.400,392.446)">
    <g transform="rotate(-0.0)">
      <text x="0.000" y="0.000" font-family="Helvetica" text-anchor="middle" font-size="10pt" fill="#000000" >200</text>
    </g>
  </g>
  <g transform="translate(289.800,392.446)">
    <g transform="rotate(-0.0)">
      <text x="0.000" y="0.000" font-family="Helvetica" text-anchor="middle" font-size="10pt" fill="#000000" >400</text>
    </g>
  </g>
  <g transform="translate(333.200,392.446)">
    <g transform="rotate(-0.0)">
      <text x="0.000" y="0.000" font-family="Helvetica" text-anchor="middle" font-size="10pt" fill="#000000" >600</text>
    </g>
  </g>
  <g transform="translate(376.600,392.446)">
    <g transform="rotate(-0.0)">
      <text x="0.000" y="0.000" font-family="Helvetica" text-anchor="middle" font-size="10pt" fill="#000000" >800</text>
    </g>
  </g>
  <g transform="translate(420.000,392.446)">
    <g transform="rotate(-0.0)">
      <text x="0.000" y="0.000" font-family="Helvetica" text-anchor="middle" font-size="10pt" fill="#000000" >1000</text>
    </g>
  </g>
  <g transform="translate(463.400,392.446)">
    <g transform="rotate(-0.0)">
      <text x="0.000" y="0.000" font-family="Helvetica" text-anchor="middle" font-size="10pt" fill="#000000" >1200</text>
    </g>
  </g>
  <g transform="translate(506.800,392.446)">
    <g transform="rotate(-0.0)">
      <text x="0.000" y="0.000" font-family="Helvetica" text-anchor="middle" font-size="10pt" fill="#000000" >1400</text>
    </g>
  </g>
      <polyline fill="none" stroke="#000000" stroke-width="0.5pt" stroke-dasharray="none" points="72.800,373.800 77.140,373.800 "/>
      <polyline fill="none" stroke="#000000" stroke-width="0.5pt" stroke-dasharray="none" points="72.800,339.570 77.140,339.570 "/>
      <polyline fill="none" stroke="#000000" stroke-width="0.5pt" stroke-dasharray="none" points="72.800,305.340 77.140,305.340 "/>
      <polyline fill="none" stroke="#000000" stroke-width="0.5pt" stroke-dasharray="none" points="72.800,271.110 77.140,271.110 "/>
      <polyline fill="none" stroke="#000000" stroke-width="0.5pt" stroke-dasharray="none" points="72.800,236.880 77.140,236.880 "/>
      <polyline fill="none" stroke="#000000" stroke-width="0.5pt" stroke-dasharray="none" points="72.800,202.650 77.140,202.650 "/>
      <polyline fill="none" stroke="#000000" stroke-width="0.5pt" stroke-dasharray="none" points="72.800,168.420 77.140,168.420 "/>
      <polyline fill="none" stroke="#000000" stroke-width="0.5pt" stroke-dasharray="none" points="72.800,134.190 77.140,134.190 "/>
      <polyline fill="none" stroke="#000000" stroke-width="0.5pt" stroke-dasharray="none" points="72.800,99.960 77.140,99.960 "/>
      <polyline fill="none" stroke="#000000" stroke-width="0.5pt" stroke-dasharray="none" points="72.800,65.730 77.140,65.730 "/>
      <polyline fill="none" stroke="#000000" stroke-width="0.5pt" stroke-dasharray="none" points="72.800,31.500 77.140,31.500 "/>
      <polyline fill="none" stroke="#000000" stroke-width="0.5pt" stroke-dasharray="none" points="72.800,373.800 72.800,31.500 "/>
  <g transform="translate(64.120,378.300)">
    <g transform="rotate(-0.0)">
      <text x="0.000" y="0.000" font-family="Helvetica" text-anchor="end" font-size="10pt" fill="#000000" >0</text>
    </g>
  </g>
  <g transform="translate(64.120,344.070)">
    <g transform="rotate(-0.0)">
      <text x="0.000" y="0.000" font-family="Helvetica" text-anchor="end" font-size="10pt" fill="#000000" >0.1</text>
    </g>
  </g>
  <g transform="translate(64.120,309.840)">
    <g transform="rotate(-0.0)">
      <text x="0.000" y="0.000" font-family="Helvetica" text-anchor="end" font-size="10pt" fill="#000000" >0.2</text>
    </g>
  </g>
  <g transform="translate(64.120,275.610)">
    <g transform="rotate(-0.0)">
      <text x="0.000" y="0.000" font-family="Helvetica" text-anchor="end" font-size="10pt" fill="#000000" >0.3</text>
    </g>
  </g>
  <g transform="translate(64.120,241.380)">
    <g transform="rotate(-0.0)">
      <text x="0.000" y="0.000" font-family="Helvetica" text-anchor="end" font-size="10pt" fill="#000000" >0.4</text>
    </g>
  </g>
  <g transform="translate(64.120,207.150)">
    <g transform="rotate(-0.0)">
      <text x="0.000" y="0.000" font-family="Helvetica" text-anchor="end" font-size="10pt" fill="#000000" >0.5</text>
    </g>
  </g>
  <g transform="translate(64.120,172.920)">
    <g transform="rotate(-0.0)">
      <text x="0.000" y="0.000" font-family="Helvetica" text-anchor="end" font-size="10pt" fill="#000000" >0.6</text>
    </g>
  </g>
  <g transform="translate(64.120,138.690)">
    <g transform="rotate(-0.0)">
      <text x="0.000" y="0.000" font-family="Helvetica" text-anchor="end" font-size="10pt" fill="#000000" >0.7</text>
    </g>
  </g>
  <g transform="translate(64.120,104.460)">
    <g transform="rotate(-0.0)">
      <text x="0.000" y="0.000" font-family="Helvetica" text-anchor="end" font-size="10pt" fill="#000000" >0.8</text>
    </g>
  </g>
  <g transform="translate(64.120,70.230)">
    <g transform="rotate(-0.0)">
      <text x="0.000" y="0.000" font-family="Helvetica" text-anchor="end" font-size="10pt" fill="#000000" >0.9</text>
    </g>
  </g>
  <g transform="translate(64.120,36.000)">
    <g transform="rotate(-0.0)">
      <text x="0.000" y="0.000" font-family="Helvetica" text-anchor="end" font-size="10pt" fill="#000000" >1</text>
    </g>
  </g>
      <polyline fill="none" stroke="#000000" stroke-width="0.5pt" stroke-dasharray="none" points="72.800,373.800 72.800,370.377 "/>
      <polyline fill="none" stroke="#000000" stroke-width="0.5pt" stroke-dasharray="none" points="72.800,373.800 72.800,370.377 "/>
      <polyline fill="none" stroke="#000000" stroke-width="0.5pt" stroke-dasharray="none" points="72.800,373.800 72.800,370.377 "/>
      <polyline fill="none" stroke="#000000" stroke-width="0.5pt" stroke-dasharray="none" points="72.800,373.800 72.800,373.800 "/>
    </g>
  </g>
  <g id ="ID000025">
  <clipPath id="ID000026">
    <rect x="79.250" y="277.875" width="123.500" height="86.875"/>
  </clipPath>
      <polygon fill="#ffffff" fill-opacity="1.00" stroke="none" stroke-width="0.5pt" stroke-opacity="1.00" stroke-dasharray="none" points="79.250,364.750 202.750,364.750 202.750,277.875 79.250,277.875 "/>
      <polygon fill="#ffffff" fill-opacity="1.00" stroke="none" stroke-width="0.5pt" stroke-opacity="1.00" stroke-dasharray="none" points="79.250,277.875 202.750,277.875 202.750,277.875 79.250,277.875 "/>
      <polygon fill="#ffffff" fill-opacity="1.00" stroke="none" stroke-width="0.5pt" stroke-opacity="1.00" stroke-dasharray="none" points="79.250,364.750 79.250,364.750 79.250,277.875 79.250,277.875 "/>
    <g>
<g id="ID000027" >
  <g transform="translate(128.550,295.856)">
    <g transform="rotate(-0.0)">
      <text x="0.000" y="0.000" font-family="Helvetica" text-anchor="start" font-size="10pt" fill="#000000" >LIP class 1</text>
    </g>
  </g>
</g>
<g id="ID000028" clip-path="url(#ID000026)" >
      <polyline fill="none" stroke="#add8e6" stroke-width="0.5pt" stroke-dasharray="none" points="86.750,290.375 124.250,290.375 "/>
<g>
</g>
</g>
<g id="ID000029" clip-path="url(#ID000026)" >
<g>
</g>
</g>
<g id="ID000030" >
  <g transform="translate(128.550,316.825)">
    <g transform="rotate(-0.0)">
      <text x="0.000" y="0.000" font-family="Helvetica" text-anchor="start" font-size="10pt" fill="#000000" >LIP class 2</text>
    </g>
  </g>
</g>
<g id="ID000031" clip-path="url(#ID000026)" >
      <polyline fill="none" stroke="#000080" stroke-width="0.5pt" stroke-dasharray="none" points="86.750,311.000 124.250,311.000 "/>
<g>
</g>
</g>
<g id="ID000032" clip-path="url(#ID000026)" >
<g>
</g>
</g>
<g id="ID000033" >
  <g transform="translate(128.550,336.797)">
    <g transform="rotate(-0.0)">
      <text x="0.000" y="0.000" font-family="Helvetica" text-anchor="start" font-size="10pt" fill="#000000" >PITd class 1</text>
    </g>
  </g>
</g>
<g id="ID000034" clip-path="url(#ID000026)" >
      <polyline fill="none" stroke="#f08080" stroke-width="0.5pt" stroke-dasharray="none" points="86.750,331.625 124.250,331.625 "/>
<g>
</g>
</g>
<g id="ID000035" clip-path="url(#ID000026)" >
<g>
</g>
</g>
<g id="ID000036" >
  <g transform="translate(128.550,357.767)">
    <g transform="rotate(-0.0)">
      <text x="0.000" y="0.000" font-family="Helvetica" text-anchor="start" font-size="10pt" fill="#000000" >PITd class 2</text>
    </g>
  </g>
</g>
<g id="ID000037" clip-path="url(#ID000026)" >
      <polyline fill="none" stroke="#ff0000" stroke-width="0.5pt" stroke-dasharray="none" points="86.750,352.250 124.250,352.250 "/>
<g>
</g>
</g>
<g id="ID000038" clip-path="url(#ID000026)" >
<g>
</g>
</g>
<g id="ID000039" >
</g>
<g id="ID000040" >
</g>
<g id="ID000041" >
</g>
    </g>
    <g>
      <polyline fill="none" stroke="#000000" stroke-width="0.5pt" stroke-dasharray="none" points="79.250,364.750 202.750,364.750 "/>
      <polyline fill="none" stroke="#000000" stroke-width="0.5pt" stroke-dasharray="none" points="79.250,277.875 202.750,277.875 "/>
      <polyline fill="none" stroke="#000000" stroke-width="0.5pt" stroke-dasharray="none" points="79.250,364.750 79.250,277.875 "/>
      <polyline fill="none" stroke="#000000" stroke-width="0.5pt" stroke-dasharray="none" points="202.750,364.750 202.750,277.875 "/>
      <polyline fill="none" stroke="#000000" stroke-width="0.5pt" stroke-dasharray="none" points="79.250,364.750 79.250,363.881 "/>
      <polyline fill="none" stroke="#000000" stroke-width="0.5pt" stroke-dasharray="none" points="79.250,364.750 79.250,364.750 "/>
    </g>
  </g>
  </g>
</svg>
