<?xml version="1.0" encoding="utf-8" standalone="no"?><!DOCTYPE svg PUBLIC "-//W3C//DTD SVG 1.1//EN" "http://www.w3.org/Graphics/SVG/1.1/DTD/svg11.dtd">
<svg preserveAspectRatio="xMinYMin meet" width="100%" height="100%" viewBox="0 0 560.000 420.000"  version="1.1" xmlns="http://www.w3.org/2000/svg" xmlns:xlink="http://www.w3.org/1999/xlink">
  <desc>Matlab Figure Converted by PLOT2SVG written by Juerg Schwizer</desc>
  <g id="topgroup">
  <rect x="0" y="0" width="560.000" height="420.000" fill="#ffffff" stroke="none" />
  <g id ="ID000000">
  <clipPath id="ID000001">
    <rect x="72.800" y="31.500" width="434.000" height="342.300"/>
  </clipPath>
      <polygon fill="#ffffff" fill-opacity="1.00" stroke="none" stroke-width="0.5pt" stroke-opacity="1.00" stroke-dasharray="none" points="72.800,373.800 506.800,373.800 506.800,31.500 72.800,31.500 "/>
      <polygon fill="#ffffff" fill-opacity="1.00" stroke="none" stroke-width="0.5pt" stroke-opacity="1.00" stroke-dasharray="none" points="72.800,31.500 506.800,31.500 506.800,31.500 72.800,31.500 "/>
      <polygon fill="#ffffff" fill-opacity="1.00" stroke="none" stroke-width="0.5pt" stroke-opacity="1.00" stroke-dasharray="none" points="72.800,373.800 72.800,373.800 72.800,31.500 72.800,31.500 "/>
    <g>
<g id="ID000002" clip-path="url(#ID000001)" >
      <polygon fill="#ffd8d8" fill-opacity="1.00" stroke="none" stroke-width="0.5pt" stroke-opacity="1.00" stroke-dasharray="none" points="94.500,284.398 116.200,260.689 137.900,278.918 159.600,290.348 181.300,333.764 203.000,321.980 224.700,338.704 246.400,313.353 268.100,295.711 289.800,280.881 311.500,279.157 333.200,260.682 354.900,266.990 376.600,276.627 398.300,285.149 420.000,264.303 441.700,250.656 463.400,250.836 485.100,234.254 506.800,274.507 506.800,261.723 485.100,220.965 463.400,237.187 441.700,237.081 420.000,250.818 398.300,271.049 376.600,263.882 354.900,253.837 333.200,248.449 311.500,265.345 289.800,267.615 268.100,282.735 246.400,301.606 224.700,329.596 203.000,311.235 181.300,322.556 159.600,276.974 137.900,265.014 116.200,247.301 94.500,272.085 "/>
</g>
<g id="ID000003" clip-path="url(#ID000001)" >
      <polyline fill="none" stroke="#ff8c8c" stroke-width="0.5pt" stroke-dasharray="none" points="94.500,284.398 116.200,260.689 137.900,278.918 159.600,290.348 181.300,333.764 203.000,321.980 224.700,338.704 246.400,313.353 268.100,295.711 289.800,280.881 311.500,279.157 333.200,260.682 354.900,266.990 376.600,276.627 398.300,285.149 420.000,264.303 441.700,250.656 463.400,250.836 485.100,234.254 506.800,274.507 "/>
<g>
</g>
</g>
<g id="ID000004" clip-path="url(#ID000001)" >
      <polyline fill="none" stroke="#ff8c8c" stroke-width="0.5pt" stroke-dasharray="none" points="94.500,272.085 116.200,247.301 137.900,265.014 159.600,276.974 181.300,322.556 203.000,311.235 224.700,329.596 246.400,301.606 268.100,282.735 289.800,267.615 311.500,265.345 333.200,248.449 354.900,253.837 376.600,263.882 398.300,271.049 420.000,250.818 441.700,237.081 463.400,237.187 485.100,220.965 506.800,261.723 "/>
<g>
</g>
</g>
<g id="ID000005" clip-path="url(#ID000001)" >
      <polyline fill="none" stroke="#ff0000" stroke-width="0.5pt" stroke-dasharray="none" points="94.500,278.241 116.200,253.995 137.900,271.966 159.600,283.661 181.300,328.160 203.000,316.607 224.700,334.150 246.400,307.479 268.100,289.223 289.800,274.248 311.500,272.251 333.200,254.566 354.900,260.413 376.600,270.254 398.300,278.099 420.000,257.561 441.700,243.869 463.400,244.011 485.100,227.609 506.800,268.115 "/>
<g>
</g>
</g>
<g id="ID000006" clip-path="url(#ID000001)" >
      <polygon fill="#d8ffff" fill-opacity="1.00" stroke="none" stroke-width="0.5pt" stroke-opacity="1.00" stroke-dasharray="none" points="94.500,133.215 116.200,157.999 137.900,140.286 159.600,128.326 181.300,82.744 203.000,94.065 224.700,75.704 246.400,103.694 268.100,122.565 289.800,137.685 311.500,139.955 333.200,156.851 354.900,151.463 376.600,141.418 398.300,134.251 420.000,154.482 441.700,168.219 463.400,168.113 485.100,184.335 506.800,143.577 506.800,130.793 485.100,171.046 463.400,154.464 441.700,154.644 420.000,140.997 398.300,120.151 376.600,128.673 354.900,138.310 333.200,144.618 311.500,126.143 289.800,124.419 268.100,109.589 246.400,91.947 224.700,66.596 203.000,83.320 181.300,71.536 159.600,114.952 137.900,126.382 116.200,144.611 94.500,120.902 "/>
</g>
<g id="ID000007" clip-path="url(#ID000001)" >
      <polyline fill="none" stroke="#8cffff" stroke-width="0.5pt" stroke-dasharray="none" points="94.500,133.215 116.200,157.999 137.900,140.286 159.600,128.326 181.300,82.744 203.000,94.065 224.700,75.704 246.400,103.694 268.100,122.565 289.800,137.685 311.500,139.955 333.200,156.851 354.900,151.463 376.600,141.418 398.300,134.251 420.000,154.482 441.700,168.219 463.400,168.113 485.100,184.335 506.800,143.577 "/>
<g>
</g>
</g>
<g id="ID000008" clip-path="url(#ID000001)" >
      <polyline fill="none" stroke="#8cffff" stroke-width="0.5pt" stroke-dasharray="none" points="94.500,120.902 116.200,144.611 137.900,126.382 159.600,114.952 181.300,71.536 203.000,83.320 224.700,66.596 246.400,91.947 268.100,109.589 289.800,124.419 311.500,126.143 333.200,144.618 354.900,138.310 376.600,128.673 398.300,120.151 420.000,140.997 441.700,154.644 463.400,154.464 485.100,171.046 506.800,130.793 "/>
<g>
</g>
</g>
<g id="ID000009" clip-path="url(#ID000001)" >
      <polyline fill="none" stroke="#00ffff" stroke-width="0.5pt" stroke-dasharray="none" points="94.500,127.059 116.200,151.305 137.900,133.334 159.600,121.639 181.300,77.140 203.000,88.693 224.700,71.150 246.400,97.821 268.100,116.077 289.800,131.052 311.500,133.049 333.200,150.735 354.900,144.887 376.600,135.046 398.300,127.201 420.000,147.739 441.700,161.431 463.400,161.289 485.100,177.691 506.800,137.185 "/>
<g>
</g>
</g>
<g id="ID000010" clip-path="url(#ID000001)" >
      <polyline fill="none" stroke="#000000" stroke-width="0.5pt" stroke-dasharray="none" points="72.800,202.650 506.800,202.650 "/>
<g>
</g>
</g>
<g id="ID000011" clip-path="url(#ID000001)" >
      <polyline fill="none" stroke="#000000" stroke-width="2.0pt" stroke-dasharray="none" points="203.000,373.800 203.000,31.500 "/>
<g>
</g>
</g>
<g id="ID000012" >
  <g transform="translate(289.300,21.493)">
    <g transform="rotate(-0.0)">
      <text x="0.000" y="0.000" font-family="Helvetica" text-anchor="middle" font-size="10pt" fill="#000000" >Decode phi rel tr brt in te brt in  class 2 presented</text>
    </g>
  </g>
</g>
<g id="ID000013" >
</g>
<g id="ID000014" >
</g>
<g id="ID000015" >
</g>
<g id="ID000016" >
</g>
    </g>
    <g>
      <polyline fill="none" stroke="#000000" stroke-width="0.5pt" stroke-dasharray="none" points="72.800,373.800 72.800,369.460 "/>
      <polyline fill="none" stroke="#000000" stroke-width="0.5pt" stroke-dasharray="none" points="116.200,373.800 116.200,369.460 "/>
      <polyline fill="none" stroke="#000000" stroke-width="0.5pt" stroke-dasharray="none" points="159.600,373.800 159.600,369.460 "/>
      <polyline fill="none" stroke="#000000" stroke-width="0.5pt" stroke-dasharray="none" points="203.000,373.800 203.000,369.460 "/>
      <polyline fill="none" stroke="#000000" stroke-width="0.5pt" stroke-dasharray="none" points="246.400,373.800 246.400,369.460 "/>
      <polyline fill="none" stroke="#000000" stroke-width="0.5pt" stroke-dasharray="none" points="289.800,373.800 289.800,369.460 "/>
      <polyline fill="none" stroke="#000000" stroke-width="0.5pt" stroke-dasharray="none" points="333.200,373.800 333.200,369.460 "/>
      <polyline fill="none" stroke="#000000" stroke-width="0.5pt" stroke-dasharray="none" points="376.600,373.800 376.600,369.460 "/>
      <polyline fill="none" stroke="#000000" stroke-width="0.5pt" stroke-dasharray="none" points="420.000,373.800 420.000,369.460 "/>
      <polyline fill="none" stroke="#000000" stroke-width="0.5pt" stroke-dasharray="none" points="463.400,373.800 463.400,369.460 "/>
      <polyline fill="none" stroke="#000000" stroke-width="0.5pt" stroke-dasharray="none" points="506.800,373.800 506.800,369.460 "/>
      <polyline fill="none" stroke="#000000" stroke-width="0.5pt" stroke-dasharray="none" points="72.800,373.800 506.800,373.800 "/>
  <g transform="translate(72.800,392.446)">
    <g transform="rotate(-0.0)">
      <text x="0.000" y="0.000" font-family="Helvetica" text-anchor="middle" font-size="10pt" fill="#000000" >-600</text>
    </g>
  </g>
  <g transform="translate(116.200,392.446)">
    <g transform="rotate(-0.0)">
      <text x="0.000" y="0.000" font-family="Helvetica" text-anchor="middle" font-size="10pt" fill="#000000" >-400</text>
    </g>
  </g>
  <g transform="translate(159.600,392.446)">
    <g transform="rotate(-0.0)">
      <text x="0.000" y="0.000" font-family="Helvetica" text-anchor="middle" font-size="10pt" fill="#000000" >-200</text>
    </g>
  </g>
  <g transform="translate(203.000,392.446)">
    <g transform="rotate(-0.0)">
      <text x="0.000" y="0.000" font-family="Helvetica" text-anchor="middle" font-size="10pt" fill="#000000" >0</text>
    </g>
  </g>
  <g transform="translate(246.400,392.446)">
    <g transform="rotate(-0.0)">
      <text x="0.000" y="0.000" font-family="Helvetica" text-anchor="middle" font-size="10pt" fill="#000000" >200</text>
    </g>
  </g>
  <g transform="translate(289.800,392.446)">
    <g transform="rotate(-0.0)">
      <text x="0.000" y="0.000" font-family="Helvetica" text-anchor="middle" font-size="10pt" fill="#000000" >400</text>
    </g>
  </g>
  <g transform="translate(333.200,392.446)">
    <g transform="rotate(-0.0)">
      <text x="0.000" y="0.000" font-family="Helvetica" text-anchor="middle" font-size="10pt" fill="#000000" >600</text>
    </g>
  </g>
  <g transform="translate(376.600,392.446)">
    <g transform="rotate(-0.0)">
      <text x="0.000" y="0.000" font-family="Helvetica" text-anchor="middle" font-size="10pt" fill="#000000" >800</text>
    </g>
  </g>
  <g transform="translate(420.000,392.446)">
    <g transform="rotate(-0.0)">
      <text x="0.000" y="0.000" font-family="Helvetica" text-anchor="middle" font-size="10pt" fill="#000000" >1000</text>
    </g>
  </g>
  <g transform="translate(463.400,392.446)">
    <g transform="rotate(-0.0)">
      <text x="0.000" y="0.000" font-family="Helvetica" text-anchor="middle" font-size="10pt" fill="#000000" >1200</text>
    </g>
  </g>
  <g transform="translate(506.800,392.446)">
    <g transform="rotate(-0.0)">
      <text x="0.000" y="0.000" font-family="Helvetica" text-anchor="middle" font-size="10pt" fill="#000000" >1400</text>
    </g>
  </g>
      <polyline fill="none" stroke="#000000" stroke-width="0.5pt" stroke-dasharray="none" points="72.800,373.800 77.140,373.800 "/>
      <polyline fill="none" stroke="#000000" stroke-width="0.5pt" stroke-dasharray="none" points="72.800,339.570 77.140,339.570 "/>
      <polyline fill="none" stroke="#000000" stroke-width="0.5pt" stroke-dasharray="none" points="72.800,305.340 77.140,305.340 "/>
      <polyline fill="none" stroke="#000000" stroke-width="0.5pt" stroke-dasharray="none" points="72.800,271.110 77.140,271.110 "/>
      <polyline fill="none" stroke="#000000" stroke-width="0.5pt" stroke-dasharray="none" points="72.800,236.880 77.140,236.880 "/>
      <polyline fill="none" stroke="#000000" stroke-width="0.5pt" stroke-dasharray="none" points="72.800,202.650 77.140,202.650 "/>
      <polyline fill="none" stroke="#000000" stroke-width="0.5pt" stroke-dasharray="none" points="72.800,168.420 77.140,168.420 "/>
      <polyline fill="none" stroke="#000000" stroke-width="0.5pt" stroke-dasharray="none" points="72.800,134.190 77.140,134.190 "/>
      <polyline fill="none" stroke="#000000" stroke-width="0.5pt" stroke-dasharray="none" points="72.800,99.960 77.140,99.960 "/>
      <polyline fill="none" stroke="#000000" stroke-width="0.5pt" stroke-dasharray="none" points="72.800,65.730 77.140,65.730 "/>
      <polyline fill="none" stroke="#000000" stroke-width="0.5pt" stroke-dasharray="none" points="72.800,31.500 77.140,31.500 "/>
      <polyline fill="none" stroke="#000000" stroke-width="0.5pt" stroke-dasharray="none" points="72.800,373.800 72.800,31.500 "/>
  <g transform="translate(64.120,378.300)">
    <g transform="rotate(-0.0)">
      <text x="0.000" y="0.000" font-family="Helvetica" text-anchor="end" font-size="10pt" fill="#000000" >0</text>
    </g>
  </g>
  <g transform="translate(64.120,344.070)">
    <g transform="rotate(-0.0)">
      <text x="0.000" y="0.000" font-family="Helvetica" text-anchor="end" font-size="10pt" fill="#000000" >0.1</text>
    </g>
  </g>
  <g transform="translate(64.120,309.840)">
    <g transform="rotate(-0.0)">
      <text x="0.000" y="0.000" font-family="Helvetica" text-anchor="end" font-size="10pt" fill="#000000" >0.2</text>
    </g>
  </g>
  <g transform="translate(64.120,275.610)">
    <g transform="rotate(-0.0)">
      <text x="0.000" y="0.000" font-family="Helvetica" text-anchor="end" font-size="10pt" fill="#000000" >0.3</text>
    </g>
  </g>
  <g transform="translate(64.120,241.380)">
    <g transform="rotate(-0.0)">
      <text x="0.000" y="0.000" font-family="Helvetica" text-anchor="end" font-size="10pt" fill="#000000" >0.4</text>
    </g>
  </g>
  <g transform="translate(64.120,207.150)">
    <g transform="rotate(-0.0)">
      <text x="0.000" y="0.000" font-family="Helvetica" text-anchor="end" font-size="10pt" fill="#000000" >0.5</text>
    </g>
  </g>
  <g transform="translate(64.120,172.920)">
    <g transform="rotate(-0.0)">
      <text x="0.000" y="0.000" font-family="Helvetica" text-anchor="end" font-size="10pt" fill="#000000" >0.6</text>
    </g>
  </g>
  <g transform="translate(64.120,138.690)">
    <g transform="rotate(-0.0)">
      <text x="0.000" y="0.000" font-family="Helvetica" text-anchor="end" font-size="10pt" fill="#000000" >0.7</text>
    </g>
  </g>
  <g transform="translate(64.120,104.460)">
    <g transform="rotate(-0.0)">
      <text x="0.000" y="0.000" font-family="Helvetica" text-anchor="end" font-size="10pt" fill="#000000" >0.8</text>
    </g>
  </g>
  <g transform="translate(64.120,70.230)">
    <g transform="rotate(-0.0)">
      <text x="0.000" y="0.000" font-family="Helvetica" text-anchor="end" font-size="10pt" fill="#000000" >0.9</text>
    </g>
  </g>
  <g transform="translate(64.120,36.000)">
    <g transform="rotate(-0.0)">
      <text x="0.000" y="0.000" font-family="Helvetica" text-anchor="end" font-size="10pt" fill="#000000" >1</text>
    </g>
  </g>
      <polyline fill="none" stroke="#000000" stroke-width="0.5pt" stroke-dasharray="none" points="72.800,373.800 72.800,370.377 "/>
      <polyline fill="none" stroke="#000000" stroke-width="0.5pt" stroke-dasharray="none" points="72.800,373.800 72.800,370.377 "/>
      <polyline fill="none" stroke="#000000" stroke-width="0.5pt" stroke-dasharray="none" points="72.800,373.800 72.800,370.377 "/>
      <polyline fill="none" stroke="#000000" stroke-width="0.5pt" stroke-dasharray="none" points="72.800,373.800 72.800,373.800 "/>
    </g>
  </g>
  <g id ="ID000017">
  <clipPath id="ID000018">
    <rect x="79.250" y="319.125" width="235.500" height="45.625"/>
  </clipPath>
      <polygon fill="#ffffff" fill-opacity="1.00" stroke="none" stroke-width="0.5pt" stroke-opacity="1.00" stroke-dasharray="none" points="79.250,364.750 314.750,364.750 314.750,319.125 79.250,319.125 "/>
      <polygon fill="#ffffff" fill-opacity="1.00" stroke="none" stroke-width="0.5pt" stroke-opacity="1.00" stroke-dasharray="none" points="79.250,319.125 314.750,319.125 314.750,319.125 79.250,319.125 "/>
      <polygon fill="#ffffff" fill-opacity="1.00" stroke="none" stroke-width="0.5pt" stroke-opacity="1.00" stroke-dasharray="none" points="79.250,364.750 79.250,364.750 79.250,319.125 79.250,319.125 "/>
    <g>
<g id="ID000019" >
  <g transform="translate(128.645,337.015)">
    <g transform="rotate(-0.0)">
      <text x="0.000" y="0.000" font-family="Helvetica" text-anchor="start" font-size="10pt" fill="#000000" >s = 0, t = 0 &amp; s = 0, t = 180</text>
    </g>
  </g>
</g>
<g id="ID000020" clip-path="url(#ID000018)" >
      <polyline fill="none" stroke="#ff0000" stroke-width="0.5pt" stroke-dasharray="none" points="86.750,331.625 124.250,331.625 "/>
<g>
</g>
</g>
<g id="ID000021" clip-path="url(#ID000018)" >
<g>
</g>
</g>
<g id="ID000022" >
  <g transform="translate(128.645,357.844)">
    <g transform="rotate(-0.0)">
      <text x="0.000" y="0.000" font-family="Helvetica" text-anchor="start" font-size="10pt" fill="#000000" >s = 180, t = 0 &amp; s = 180, t = 180</text>
    </g>
  </g>
</g>
<g id="ID000023" clip-path="url(#ID000018)" >
      <polyline fill="none" stroke="#00ffff" stroke-width="0.5pt" stroke-dasharray="none" points="86.750,352.250 124.250,352.250 "/>
<g>
</g>
</g>
<g id="ID000024" clip-path="url(#ID000018)" >
<g>
</g>
</g>
<g id="ID000025" >
</g>
<g id="ID000026" >
</g>
<g id="ID000027" >
</g>
    </g>
    <g>
      <polyline fill="none" stroke="#000000" stroke-width="0.5pt" stroke-dasharray="none" points="79.250,364.750 314.750,364.750 "/>
      <polyline fill="none" stroke="#000000" stroke-width="0.5pt" stroke-dasharray="none" points="79.250,319.125 314.750,319.125 "/>
      <polyline fill="none" stroke="#000000" stroke-width="0.5pt" stroke-dasharray="none" points="79.250,364.750 79.250,319.125 "/>
      <polyline fill="none" stroke="#000000" stroke-width="0.5pt" stroke-dasharray="none" points="314.750,364.750 314.750,319.125 "/>
      <polyline fill="none" stroke="#000000" stroke-width="0.5pt" stroke-dasharray="none" points="79.250,364.750 79.250,364.294 "/>
      <polyline fill="none" stroke="#000000" stroke-width="0.5pt" stroke-dasharray="none" points="79.250,364.750 79.250,364.750 "/>
    </g>
  </g>
  </g>
</svg>
