<?xml version="1.0" encoding="utf-8" standalone="no"?><!DOCTYPE svg PUBLIC "-//W3C//DTD SVG 1.1//EN" "http://www.w3.org/Graphics/SVG/1.1/DTD/svg11.dtd">
<svg preserveAspectRatio="xMinYMin meet" width="100%" height="100%" viewBox="0 0 560.000 420.000"  version="1.1" xmlns="http://www.w3.org/2000/svg" xmlns:xlink="http://www.w3.org/1999/xlink">
  <desc>Matlab Figure Converted by PLOT2SVG written by Juerg Schwizer</desc>
  <g id="topgroup">
  <rect x="0" y="0" width="560.000" height="420.000" fill="#ffffff" stroke="none" />
  <g id ="ID000000">
  <clipPath id="ID000001">
    <rect x="72.800" y="38.000" width="434.000" height="334.000"/>
  </clipPath>
      <polygon fill="#ffffff" fill-opacity="1.00" stroke="none" stroke-width="0.5pt" stroke-opacity="1.00" stroke-dasharray="none" points="72.800,372.000 506.800,372.000 506.800,38.000 72.800,38.000 "/>
      <polygon fill="#ffffff" fill-opacity="1.00" stroke="none" stroke-width="0.5pt" stroke-opacity="1.00" stroke-dasharray="none" points="72.800,38.000 506.800,38.000 506.800,38.000 72.800,38.000 "/>
      <polygon fill="#ffffff" fill-opacity="1.00" stroke="none" stroke-width="0.5pt" stroke-opacity="1.00" stroke-dasharray="none" points="72.800,372.000 72.800,372.000 72.800,38.000 72.800,38.000 "/>
    <g>
<g id="ID000002" clip-path="url(#ID000001)" >
      <polygon fill="#738ccc" fill-opacity="0.08" stroke="none" stroke-width="0.5pt" stroke-opacity="1.00" stroke-dasharray="none" points="72.800,231.711 95.642,217.720 118.484,211.329 141.326,221.832 164.168,232.773 187.011,215.633 209.853,225.505 232.695,191.197 255.537,158.652 278.379,130.944 301.221,139.940 324.063,152.397 346.905,171.539 369.747,176.302 392.589,158.229 415.432,140.221 438.274,129.294 461.116,142.947 483.958,144.923 506.800,133.870 506.800,62.943 483.958,69.225 461.116,63.990 438.274,60.729 415.432,71.791 392.589,73.251 369.747,106.707 346.905,91.755 324.063,79.791 301.221,65.758 278.379,62.210 255.537,85.819 232.695,114.723 209.853,149.839 187.011,143.963 164.168,165.796 141.326,143.738 118.484,132.395 95.642,141.471 72.800,160.724 "/>
</g>
<g id="ID000003" clip-path="url(#ID000001)" >
      <polyline fill="none" stroke="#738ccc" stroke-width="2.0pt" stroke-dasharray="none" points="72.800,196.217 95.642,179.596 118.484,171.862 141.326,182.785 164.168,199.284 187.011,179.798 209.853,187.672 232.695,152.960 255.537,122.236 278.379,96.577 301.221,102.849 324.063,116.094 346.905,131.647 369.747,141.505 392.589,115.740 415.432,106.006 438.274,95.011 461.116,103.469 483.958,107.074 506.800,98.406 "/>
<g>
<circle cx="72.800" cy="196.217" r="3.333" fill="#738ccc" stroke="none" stroke-width="2.0pt" />
<circle cx="95.642" cy="179.596" r="3.333" fill="#738ccc" stroke="none" stroke-width="2.0pt" />
<circle cx="118.484" cy="171.862" r="3.333" fill="#738ccc" stroke="none" stroke-width="2.0pt" />
<circle cx="141.326" cy="182.785" r="3.333" fill="#738ccc" stroke="none" stroke-width="2.0pt" />
<circle cx="164.168" cy="199.284" r="3.333" fill="#738ccc" stroke="none" stroke-width="2.0pt" />
<circle cx="187.011" cy="179.798" r="3.333" fill="#738ccc" stroke="none" stroke-width="2.0pt" />
<circle cx="209.853" cy="187.672" r="3.333" fill="#738ccc" stroke="none" stroke-width="2.0pt" />
<circle cx="232.695" cy="152.960" r="3.333" fill="#738ccc" stroke="none" stroke-width="2.0pt" />
<circle cx="255.537" cy="122.236" r="3.333" fill="#738ccc" stroke="none" stroke-width="2.0pt" />
<circle cx="278.379" cy="96.577" r="3.333" fill="#738ccc" stroke="none" stroke-width="2.0pt" />
<circle cx="301.221" cy="102.849" r="3.333" fill="#738ccc" stroke="none" stroke-width="2.0pt" />
<circle cx="324.063" cy="116.094" r="3.333" fill="#738ccc" stroke="none" stroke-width="2.0pt" />
<circle cx="346.905" cy="131.647" r="3.333" fill="#738ccc" stroke="none" stroke-width="2.0pt" />
<circle cx="369.747" cy="141.505" r="3.333" fill="#738ccc" stroke="none" stroke-width="2.0pt" />
<circle cx="392.589" cy="115.740" r="3.333" fill="#738ccc" stroke="none" stroke-width="2.0pt" />
<circle cx="415.432" cy="106.006" r="3.333" fill="#738ccc" stroke="none" stroke-width="2.0pt" />
<circle cx="438.274" cy="95.011" r="3.333" fill="#738ccc" stroke="none" stroke-width="2.0pt" />
<circle cx="461.116" cy="103.469" r="3.333" fill="#738ccc" stroke="none" stroke-width="2.0pt" />
<circle cx="483.958" cy="107.074" r="3.333" fill="#738ccc" stroke="none" stroke-width="2.0pt" />
<circle cx="506.800" cy="98.406" r="3.333" fill="#738ccc" stroke="none" stroke-width="2.0pt" />
</g>
</g>
<g id="ID000004" clip-path="url(#ID000001)" >
      <polygon fill="#000080" fill-opacity="0.08" stroke="none" stroke-width="0.5pt" stroke-opacity="1.00" stroke-dasharray="none" points="72.800,231.027 95.642,216.862 118.484,213.919 141.326,222.208 164.168,234.166 187.011,216.828 209.853,224.035 232.695,190.861 255.537,156.593 278.379,140.169 301.221,142.531 324.063,154.101 346.905,171.776 369.747,177.270 392.589,159.598 415.432,140.839 438.274,129.812 461.116,145.051 483.958,145.180 506.800,133.291 506.800,62.925 483.958,69.526 461.116,70.785 438.274,65.408 415.432,71.233 392.589,82.213 369.747,108.356 346.905,96.719 324.063,83.462 301.221,68.131 278.379,64.174 255.537,78.037 232.695,114.029 209.853,147.791 187.011,149.153 164.168,162.500 141.326,143.036 118.484,135.524 95.642,141.609 72.800,161.157 "/>
</g>
<g id="ID000005" clip-path="url(#ID000001)" >
      <polyline fill="none" stroke="#000080" stroke-width="2.0pt" stroke-dasharray="none" points="72.800,196.092 95.642,179.235 118.484,174.721 141.326,182.622 164.168,198.333 187.011,182.990 209.853,185.913 232.695,152.445 255.537,117.315 278.379,102.171 301.221,105.331 324.063,118.781 346.905,134.247 369.747,142.813 392.589,120.906 415.432,106.036 438.274,97.610 461.116,107.918 483.958,107.353 506.800,98.108 "/>
<g>
<circle cx="72.800" cy="196.092" r="3.333" fill="#000080" stroke="none" stroke-width="2.0pt" />
<circle cx="95.642" cy="179.235" r="3.333" fill="#000080" stroke="none" stroke-width="2.0pt" />
<circle cx="118.484" cy="174.721" r="3.333" fill="#000080" stroke="none" stroke-width="2.0pt" />
<circle cx="141.326" cy="182.622" r="3.333" fill="#000080" stroke="none" stroke-width="2.0pt" />
<circle cx="164.168" cy="198.333" r="3.333" fill="#000080" stroke="none" stroke-width="2.0pt" />
<circle cx="187.011" cy="182.990" r="3.333" fill="#000080" stroke="none" stroke-width="2.0pt" />
<circle cx="209.853" cy="185.913" r="3.333" fill="#000080" stroke="none" stroke-width="2.0pt" />
<circle cx="232.695" cy="152.445" r="3.333" fill="#000080" stroke="none" stroke-width="2.0pt" />
<circle cx="255.537" cy="117.315" r="3.333" fill="#000080" stroke="none" stroke-width="2.0pt" />
<circle cx="278.379" cy="102.171" r="3.333" fill="#000080" stroke="none" stroke-width="2.0pt" />
<circle cx="301.221" cy="105.331" r="3.333" fill="#000080" stroke="none" stroke-width="2.0pt" />
<circle cx="324.063" cy="118.781" r="3.333" fill="#000080" stroke="none" stroke-width="2.0pt" />
<circle cx="346.905" cy="134.247" r="3.333" fill="#000080" stroke="none" stroke-width="2.0pt" />
<circle cx="369.747" cy="142.813" r="3.333" fill="#000080" stroke="none" stroke-width="2.0pt" />
<circle cx="392.589" cy="120.906" r="3.333" fill="#000080" stroke="none" stroke-width="2.0pt" />
<circle cx="415.432" cy="106.036" r="3.333" fill="#000080" stroke="none" stroke-width="2.0pt" />
<circle cx="438.274" cy="97.610" r="3.333" fill="#000080" stroke="none" stroke-width="2.0pt" />
<circle cx="461.116" cy="107.918" r="3.333" fill="#000080" stroke="none" stroke-width="2.0pt" />
<circle cx="483.958" cy="107.353" r="3.333" fill="#000080" stroke="none" stroke-width="2.0pt" />
<circle cx="506.800" cy="98.108" r="3.333" fill="#000080" stroke="none" stroke-width="2.0pt" />
</g>
</g>
<g id="ID000006" clip-path="url(#ID000001)" >
      <polygon fill="#f08080" fill-opacity="0.08" stroke="none" stroke-width="0.5pt" stroke-opacity="1.00" stroke-dasharray="none" points="72.800,230.844 95.642,239.642 118.484,244.583 141.326,216.799 164.168,231.362 187.011,264.431 209.853,230.609 232.695,199.383 255.537,172.322 278.379,164.733 301.221,176.816 324.063,185.526 346.905,112.793 369.747,107.527 392.589,106.009 415.432,92.679 438.274,108.682 461.116,111.896 483.958,133.077 506.800,129.710 506.800,54.216 483.958,57.588 461.116,50.481 438.274,48.218 415.432,40.268 392.589,46.832 369.747,45.392 346.905,48.077 324.063,112.135 301.221,101.776 278.379,95.973 255.537,100.898 232.695,121.073 209.853,151.194 187.011,188.263 164.168,148.804 141.326,146.826 118.484,175.343 95.642,180.013 72.800,161.010 "/>
</g>
<g id="ID000007" clip-path="url(#ID000001)" >
      <polyline fill="none" stroke="#f08080" stroke-width="2.0pt" stroke-dasharray="none" points="72.800,195.927 95.642,209.827 118.484,209.963 141.326,181.812 164.168,190.083 187.011,226.347 209.853,190.901 232.695,160.228 255.537,136.610 278.379,130.353 301.221,139.296 324.063,148.830 346.905,80.435 369.747,76.460 392.589,76.420 415.432,66.473 438.274,78.450 461.116,81.189 483.958,95.333 506.800,91.963 "/>
<g>
<circle cx="72.800" cy="195.927" r="3.333" fill="#f08080" stroke="none" stroke-width="2.0pt" />
<circle cx="95.642" cy="209.827" r="3.333" fill="#f08080" stroke="none" stroke-width="2.0pt" />
<circle cx="118.484" cy="209.963" r="3.333" fill="#f08080" stroke="none" stroke-width="2.0pt" />
<circle cx="141.326" cy="181.812" r="3.333" fill="#f08080" stroke="none" stroke-width="2.0pt" />
<circle cx="164.168" cy="190.083" r="3.333" fill="#f08080" stroke="none" stroke-width="2.0pt" />
<circle cx="187.011" cy="226.347" r="3.333" fill="#f08080" stroke="none" stroke-width="2.0pt" />
<circle cx="209.853" cy="190.901" r="3.333" fill="#f08080" stroke="none" stroke-width="2.0pt" />
<circle cx="232.695" cy="160.228" r="3.333" fill="#f08080" stroke="none" stroke-width="2.0pt" />
<circle cx="255.537" cy="136.610" r="3.333" fill="#f08080" stroke="none" stroke-width="2.0pt" />
<circle cx="278.379" cy="130.353" r="3.333" fill="#f08080" stroke="none" stroke-width="2.0pt" />
<circle cx="301.221" cy="139.296" r="3.333" fill="#f08080" stroke="none" stroke-width="2.0pt" />
<circle cx="324.063" cy="148.830" r="3.333" fill="#f08080" stroke="none" stroke-width="2.0pt" />
<circle cx="346.905" cy="80.435" r="3.333" fill="#f08080" stroke="none" stroke-width="2.0pt" />
<circle cx="369.747" cy="76.460" r="3.333" fill="#f08080" stroke="none" stroke-width="2.0pt" />
<circle cx="392.589" cy="76.420" r="3.333" fill="#f08080" stroke="none" stroke-width="2.0pt" />
<circle cx="415.432" cy="66.473" r="3.333" fill="#f08080" stroke="none" stroke-width="2.0pt" />
<circle cx="438.274" cy="78.450" r="3.333" fill="#f08080" stroke="none" stroke-width="2.0pt" />
<circle cx="461.116" cy="81.189" r="3.333" fill="#f08080" stroke="none" stroke-width="2.0pt" />
<circle cx="483.958" cy="95.333" r="3.333" fill="#f08080" stroke="none" stroke-width="2.0pt" />
<circle cx="506.800" cy="91.963" r="3.333" fill="#f08080" stroke="none" stroke-width="2.0pt" />
</g>
</g>
<g id="ID000008" clip-path="url(#ID000001)" >
      <polygon fill="#ff0000" fill-opacity="0.08" stroke="none" stroke-width="0.5pt" stroke-opacity="1.00" stroke-dasharray="none" points="72.800,232.304 95.642,241.485 118.484,239.426 141.326,215.865 164.168,233.876 187.011,268.245 209.853,227.839 232.695,198.671 255.537,172.727 278.379,163.768 301.221,177.827 324.063,185.939 346.905,109.878 369.747,101.177 392.589,100.957 415.432,91.776 438.274,112.189 461.116,112.348 483.958,130.595 506.800,125.458 506.800,55.223 483.958,60.571 461.116,50.815 438.274,49.775 415.432,39.043 392.589,45.071 369.747,43.165 346.905,50.596 324.063,105.456 301.221,97.330 278.379,85.452 255.537,92.768 232.695,114.047 209.853,158.858 187.011,189.546 164.168,148.029 141.326,145.453 118.484,176.168 95.642,177.877 72.800,161.434 "/>
</g>
<g id="ID000009" clip-path="url(#ID000001)" >
      <polyline fill="none" stroke="#ff0000" stroke-width="2.0pt" stroke-dasharray="none" points="72.800,196.869 95.642,209.681 118.484,207.797 141.326,180.659 164.168,190.952 187.011,228.896 209.853,193.348 232.695,156.359 255.537,132.748 278.379,124.610 301.221,137.578 324.063,145.698 346.905,80.237 369.747,72.171 392.589,73.014 415.432,65.410 438.274,80.982 461.116,81.581 483.958,95.583 506.800,90.340 "/>
<g>
<circle cx="72.800" cy="196.869" r="3.333" fill="#ff0000" stroke="none" stroke-width="2.0pt" />
<circle cx="95.642" cy="209.681" r="3.333" fill="#ff0000" stroke="none" stroke-width="2.0pt" />
<circle cx="118.484" cy="207.797" r="3.333" fill="#ff0000" stroke="none" stroke-width="2.0pt" />
<circle cx="141.326" cy="180.659" r="3.333" fill="#ff0000" stroke="none" stroke-width="2.0pt" />
<circle cx="164.168" cy="190.952" r="3.333" fill="#ff0000" stroke="none" stroke-width="2.0pt" />
<circle cx="187.011" cy="228.896" r="3.333" fill="#ff0000" stroke="none" stroke-width="2.0pt" />
<circle cx="209.853" cy="193.348" r="3.333" fill="#ff0000" stroke="none" stroke-width="2.0pt" />
<circle cx="232.695" cy="156.359" r="3.333" fill="#ff0000" stroke="none" stroke-width="2.0pt" />
<circle cx="255.537" cy="132.748" r="3.333" fill="#ff0000" stroke="none" stroke-width="2.0pt" />
<circle cx="278.379" cy="124.610" r="3.333" fill="#ff0000" stroke="none" stroke-width="2.0pt" />
<circle cx="301.221" cy="137.578" r="3.333" fill="#ff0000" stroke="none" stroke-width="2.0pt" />
<circle cx="324.063" cy="145.698" r="3.333" fill="#ff0000" stroke="none" stroke-width="2.0pt" />
<circle cx="346.905" cy="80.237" r="3.333" fill="#ff0000" stroke="none" stroke-width="2.0pt" />
<circle cx="369.747" cy="72.171" r="3.333" fill="#ff0000" stroke="none" stroke-width="2.0pt" />
<circle cx="392.589" cy="73.014" r="3.333" fill="#ff0000" stroke="none" stroke-width="2.0pt" />
<circle cx="415.432" cy="65.410" r="3.333" fill="#ff0000" stroke="none" stroke-width="2.0pt" />
<circle cx="438.274" cy="80.982" r="3.333" fill="#ff0000" stroke="none" stroke-width="2.0pt" />
<circle cx="461.116" cy="81.581" r="3.333" fill="#ff0000" stroke="none" stroke-width="2.0pt" />
<circle cx="483.958" cy="95.583" r="3.333" fill="#ff0000" stroke="none" stroke-width="2.0pt" />
<circle cx="506.800" cy="90.340" r="3.333" fill="#ff0000" stroke="none" stroke-width="2.0pt" />
</g>
</g>
<g id="ID000010" >
  <g transform="translate(28.550,206.500)">
    <g transform="rotate(-90.0)">
      <text x="0.000" y="0.000" font-family="Helvetica" text-anchor="middle" font-size="15pt" fill="#000000" >Decoding accuracy (%)</text>
    </g>
  </g>
</g>
<g id="ID000011" clip-path="url(#ID000001)" >
      <polyline fill="none" stroke="#000080" stroke-width="1.0pt" stroke-dasharray="none" points="84.221,346.950 107.063,346.950 "/>
<g>
</g>
</g>
<g id="ID000012" clip-path="url(#ID000001)" >
      <polyline fill="none" stroke="#000080" stroke-width="1.0pt" stroke-dasharray="none" points="107.063,346.950 129.905,346.950 "/>
<g>
</g>
</g>
<g id="ID000013" clip-path="url(#ID000001)" >
      <polyline fill="none" stroke="#000080" stroke-width="1.0pt" stroke-dasharray="none" points="129.905,346.950 152.747,346.950 "/>
<g>
</g>
</g>
<g id="ID000014" clip-path="url(#ID000001)" >
      <polyline fill="none" stroke="#000080" stroke-width="1.0pt" stroke-dasharray="none" points="175.589,346.950 198.432,346.950 "/>
<g>
</g>
</g>
<g id="ID000015" clip-path="url(#ID000001)" >
      <polyline fill="none" stroke="#000080" stroke-width="1.0pt" stroke-dasharray="none" points="221.274,346.950 244.116,346.950 "/>
<g>
</g>
</g>
<g id="ID000016" clip-path="url(#ID000001)" >
      <polyline fill="none" stroke="#000080" stroke-width="1.0pt" stroke-dasharray="none" points="244.116,346.950 266.958,346.950 "/>
<g>
</g>
</g>
<g id="ID000017" clip-path="url(#ID000001)" >
      <polyline fill="none" stroke="#000080" stroke-width="1.0pt" stroke-dasharray="none" points="266.958,346.950 289.800,346.950 "/>
<g>
</g>
</g>
<g id="ID000018" clip-path="url(#ID000001)" >
      <polyline fill="none" stroke="#000080" stroke-width="1.0pt" stroke-dasharray="none" points="289.800,346.950 312.642,346.950 "/>
<g>
</g>
</g>
<g id="ID000019" clip-path="url(#ID000001)" >
      <polyline fill="none" stroke="#000080" stroke-width="1.0pt" stroke-dasharray="none" points="312.642,346.950 335.484,346.950 "/>
<g>
</g>
</g>
<g id="ID000020" clip-path="url(#ID000001)" >
      <polyline fill="none" stroke="#000080" stroke-width="1.0pt" stroke-dasharray="none" points="335.484,346.950 358.326,346.950 "/>
<g>
</g>
</g>
<g id="ID000021" clip-path="url(#ID000001)" >
      <polyline fill="none" stroke="#000080" stroke-width="1.0pt" stroke-dasharray="none" points="358.326,346.950 381.168,346.950 "/>
<g>
</g>
</g>
<g id="ID000022" clip-path="url(#ID000001)" >
      <polyline fill="none" stroke="#000080" stroke-width="1.0pt" stroke-dasharray="none" points="381.168,346.950 404.011,346.950 "/>
<g>
</g>
</g>
<g id="ID000023" clip-path="url(#ID000001)" >
      <polyline fill="none" stroke="#000080" stroke-width="1.0pt" stroke-dasharray="none" points="404.011,346.950 426.853,346.950 "/>
<g>
</g>
</g>
<g id="ID000024" clip-path="url(#ID000001)" >
      <polyline fill="none" stroke="#000080" stroke-width="1.0pt" stroke-dasharray="none" points="426.853,346.950 449.695,346.950 "/>
<g>
</g>
</g>
<g id="ID000025" clip-path="url(#ID000001)" >
      <polyline fill="none" stroke="#000080" stroke-width="1.0pt" stroke-dasharray="none" points="449.695,346.950 472.537,346.950 "/>
<g>
</g>
</g>
<g id="ID000026" clip-path="url(#ID000001)" >
      <polyline fill="none" stroke="#000080" stroke-width="1.0pt" stroke-dasharray="none" points="472.537,346.950 495.379,346.950 "/>
<g>
</g>
</g>
<g id="ID000027" clip-path="url(#ID000001)" >
      <polyline fill="none" stroke="#000080" stroke-width="1.0pt" stroke-dasharray="none" points="495.379,346.950 518.221,346.950 "/>
<g>
</g>
</g>
<g id="ID000028" clip-path="url(#ID000001)" >
      <polyline fill="none" stroke="#ff0000" stroke-width="1.0pt" stroke-dasharray="none" points="129.905,355.300 152.747,355.300 "/>
<g>
</g>
</g>
<g id="ID000029" clip-path="url(#ID000001)" >
      <polyline fill="none" stroke="#ff0000" stroke-width="1.0pt" stroke-dasharray="none" points="221.274,355.300 244.116,355.300 "/>
<g>
</g>
</g>
<g id="ID000030" clip-path="url(#ID000001)" >
      <polyline fill="none" stroke="#ff0000" stroke-width="1.0pt" stroke-dasharray="none" points="244.116,355.300 266.958,355.300 "/>
<g>
</g>
</g>
<g id="ID000031" clip-path="url(#ID000001)" >
      <polyline fill="none" stroke="#ff0000" stroke-width="1.0pt" stroke-dasharray="none" points="266.958,355.300 289.800,355.300 "/>
<g>
</g>
</g>
<g id="ID000032" clip-path="url(#ID000001)" >
      <polyline fill="none" stroke="#ff0000" stroke-width="1.0pt" stroke-dasharray="none" points="289.800,355.300 312.642,355.300 "/>
<g>
</g>
</g>
<g id="ID000033" clip-path="url(#ID000001)" >
      <polyline fill="none" stroke="#ff0000" stroke-width="1.0pt" stroke-dasharray="none" points="312.642,355.300 335.484,355.300 "/>
<g>
</g>
</g>
<g id="ID000034" clip-path="url(#ID000001)" >
      <polyline fill="none" stroke="#ff0000" stroke-width="1.0pt" stroke-dasharray="none" points="335.484,355.300 358.326,355.300 "/>
<g>
</g>
</g>
<g id="ID000035" clip-path="url(#ID000001)" >
      <polyline fill="none" stroke="#ff0000" stroke-width="1.0pt" stroke-dasharray="none" points="358.326,355.300 381.168,355.300 "/>
<g>
</g>
</g>
<g id="ID000036" clip-path="url(#ID000001)" >
      <polyline fill="none" stroke="#ff0000" stroke-width="1.0pt" stroke-dasharray="none" points="381.168,355.300 404.011,355.300 "/>
<g>
</g>
</g>
<g id="ID000037" clip-path="url(#ID000001)" >
      <polyline fill="none" stroke="#ff0000" stroke-width="1.0pt" stroke-dasharray="none" points="404.011,355.300 426.853,355.300 "/>
<g>
</g>
</g>
<g id="ID000038" clip-path="url(#ID000001)" >
      <polyline fill="none" stroke="#ff0000" stroke-width="1.0pt" stroke-dasharray="none" points="426.853,355.300 449.695,355.300 "/>
<g>
</g>
</g>
<g id="ID000039" clip-path="url(#ID000001)" >
      <polyline fill="none" stroke="#ff0000" stroke-width="1.0pt" stroke-dasharray="none" points="449.695,355.300 472.537,355.300 "/>
<g>
</g>
</g>
<g id="ID000040" clip-path="url(#ID000001)" >
      <polyline fill="none" stroke="#ff0000" stroke-width="1.0pt" stroke-dasharray="none" points="472.537,355.300 495.379,355.300 "/>
<g>
</g>
</g>
<g id="ID000041" clip-path="url(#ID000001)" >
      <polyline fill="none" stroke="#ff0000" stroke-width="1.0pt" stroke-dasharray="none" points="495.379,355.300 518.221,355.300 "/>
<g>
</g>
</g>
<g id="ID000042" >
  <g transform="translate(288.300,418.750)">
    <g transform="rotate(-0.0)">
      <text x="0.000" y="0.000" font-family="Helvetica" text-anchor="middle" font-size="15pt" fill="#000000" >Time from stimulus onset (s)</text>
    </g>
  </g>
</g>
<g id="ID000043" clip-path="url(#ID000001)" >
      <polyline fill="none" stroke="#000000" stroke-width="0.5pt" stroke-dasharray="none" points="72.800,205.000 506.800,205.000 "/>
<g>
</g>
</g>
<g id="ID000044" clip-path="url(#ID000001)" >
      <polyline fill="none" stroke="#000000" stroke-width="0.5pt" stroke-dasharray="8.0,2.0" points="164.168,372.000 164.168,38.000 "/>
<g>
</g>
</g>
<g id="ID000045" >
  <g transform="translate(288.300,22.750)">
    <g transform="rotate(-0.0)">
      <text x="0.000" y="0.000" font-family="Helvetica" text-anchor="middle" font-size="15pt" fill="#000000" >Mean decoding for phi abs tr brt in te brt out  Quincy</text>
    </g>
  </g>
</g>
    </g>
    <g>
      <polyline fill="none" stroke="#000000" stroke-width="0.5pt" stroke-dasharray="none" points="164.168,372.000 164.168,367.660 "/>
      <polyline fill="none" stroke="#000000" stroke-width="0.5pt" stroke-dasharray="none" points="278.379,372.000 278.379,367.660 "/>
      <polyline fill="none" stroke="#000000" stroke-width="0.5pt" stroke-dasharray="none" points="392.589,372.000 392.589,367.660 "/>
      <polyline fill="none" stroke="#000000" stroke-width="0.5pt" stroke-dasharray="none" points="506.800,372.000 506.800,367.660 "/>
      <polyline fill="none" stroke="#000000" stroke-width="0.5pt" stroke-dasharray="none" points="72.800,372.000 506.800,372.000 "/>
  <g transform="translate(164.168,396.380)">
    <g transform="rotate(-0.0)">
      <text x="0.000" y="0.000" font-family="Helvetica" text-anchor="middle" font-size="15pt" fill="#000000" >0</text>
    </g>
  </g>
  <g transform="translate(278.379,396.380)">
    <g transform="rotate(-0.0)">
      <text x="0.000" y="0.000" font-family="Helvetica" text-anchor="middle" font-size="15pt" fill="#000000" >0.5</text>
    </g>
  </g>
  <g transform="translate(392.589,396.380)">
    <g transform="rotate(-0.0)">
      <text x="0.000" y="0.000" font-family="Helvetica" text-anchor="middle" font-size="15pt" fill="#000000" >1</text>
    </g>
  </g>
  <g transform="translate(506.800,396.380)">
    <g transform="rotate(-0.0)">
      <text x="0.000" y="0.000" font-family="Helvetica" text-anchor="middle" font-size="15pt" fill="#000000" >1.5</text>
    </g>
  </g>
      <polyline fill="none" stroke="#000000" stroke-width="0.5pt" stroke-dasharray="none" points="72.800,372.000 77.140,372.000 "/>
      <polyline fill="none" stroke="#000000" stroke-width="0.5pt" stroke-dasharray="none" points="72.800,288.500 77.140,288.500 "/>
      <polyline fill="none" stroke="#000000" stroke-width="0.5pt" stroke-dasharray="none" points="72.800,205.000 77.140,205.000 "/>
      <polyline fill="none" stroke="#000000" stroke-width="0.5pt" stroke-dasharray="none" points="72.800,121.500 77.140,121.500 "/>
      <polyline fill="none" stroke="#000000" stroke-width="0.5pt" stroke-dasharray="none" points="72.800,38.000 77.140,38.000 "/>
      <polyline fill="none" stroke="#000000" stroke-width="0.5pt" stroke-dasharray="none" points="72.800,372.000 72.800,38.000 "/>
  <g transform="translate(64.120,378.750)">
    <g transform="rotate(-0.0)">
      <text x="0.000" y="0.000" font-family="Helvetica" text-anchor="end" font-size="15pt" fill="#000000" >0</text>
    </g>
  </g>
  <g transform="translate(64.120,295.250)">
    <g transform="rotate(-0.0)">
      <text x="0.000" y="0.000" font-family="Helvetica" text-anchor="end" font-size="15pt" fill="#000000" >25</text>
    </g>
  </g>
  <g transform="translate(64.120,211.750)">
    <g transform="rotate(-0.0)">
      <text x="0.000" y="0.000" font-family="Helvetica" text-anchor="end" font-size="15pt" fill="#000000" >50</text>
    </g>
  </g>
  <g transform="translate(64.120,128.250)">
    <g transform="rotate(-0.0)">
      <text x="0.000" y="0.000" font-family="Helvetica" text-anchor="end" font-size="15pt" fill="#000000" >75</text>
    </g>
  </g>
  <g transform="translate(64.120,44.750)">
    <g transform="rotate(-0.0)">
      <text x="0.000" y="0.000" font-family="Helvetica" text-anchor="end" font-size="15pt" fill="#000000" >100</text>
    </g>
  </g>
      <polyline fill="none" stroke="#000000" stroke-width="0.5pt" stroke-dasharray="none" points="72.800,372.000 72.800,368.660 "/>
      <polyline fill="none" stroke="#000000" stroke-width="0.5pt" stroke-dasharray="none" points="72.800,372.000 72.800,368.660 "/>
      <polyline fill="none" stroke="#000000" stroke-width="0.5pt" stroke-dasharray="none" points="72.800,372.000 72.800,368.660 "/>
      <polyline fill="none" stroke="#000000" stroke-width="0.5pt" stroke-dasharray="none" points="72.800,372.000 72.800,372.000 "/>
    </g>
  </g>
  </g>
</svg>
