<?xml version="1.0" encoding="utf-8" standalone="no"?><!DOCTYPE svg PUBLIC "-//W3C//DTD SVG 1.1//EN" "http://www.w3.org/Graphics/SVG/1.1/DTD/svg11.dtd">
<svg preserveAspectRatio="xMinYMin meet" width="100%" height="100%" viewBox="0 0 560.000 420.000"  version="1.1" xmlns="http://www.w3.org/2000/svg" xmlns:xlink="http://www.w3.org/1999/xlink">
  <desc>Matlab Figure Converted by PLOT2SVG written by Juerg Schwizer</desc>
  <g id="topgroup">
  <rect x="0" y="0" width="560.000" height="420.000" fill="#ffffff" stroke="none" />
  <g id ="ID000000">
  <clipPath id="ID000001">
    <rect x="72.800" y="46.000" width="434.000" height="326.000"/>
  </clipPath>
      <polygon fill="#ffffff" fill-opacity="1.00" stroke="none" stroke-width="0.5pt" stroke-opacity="1.00" stroke-dasharray="none" points="72.800,372.000 506.800,372.000 506.800,46.000 72.800,46.000 "/>
      <polygon fill="#ffffff" fill-opacity="1.00" stroke="none" stroke-width="0.5pt" stroke-opacity="1.00" stroke-dasharray="none" points="72.800,46.000 506.800,46.000 506.800,46.000 72.800,46.000 "/>
      <polygon fill="#ffffff" fill-opacity="1.00" stroke="none" stroke-width="0.5pt" stroke-opacity="1.00" stroke-dasharray="none" points="72.800,372.000 72.800,372.000 72.800,46.000 72.800,46.000 "/>
    <g>
<g id="ID000002" clip-path="url(#ID000001)" >
      <polygon fill="#738ccc" fill-opacity="0.08" stroke="none" stroke-width="0.5pt" stroke-opacity="1.00" stroke-dasharray="none" points="72.800,304.798 103.363,302.895 133.927,304.568 164.490,302.241 195.054,300.245 225.617,298.815 256.180,293.762 286.744,281.073 317.307,265.850 347.870,297.445 378.434,300.999 408.997,281.420 439.561,255.101 470.124,237.713 500.687,184.382 500.687,45.207 470.124,82.976 439.561,112.333 408.997,141.048 378.434,139.557 347.870,146.439 317.307,110.275 286.744,108.040 256.180,136.097 225.617,137.038 195.054,131.049 164.490,141.189 133.927,156.460 103.363,128.496 72.800,125.787 "/>
</g>
<g id="ID000003" clip-path="url(#ID000001)" >
      <polyline fill="none" stroke="#738ccc" stroke-width="2.0pt" stroke-dasharray="none" points="72.800,215.293 103.363,215.696 133.927,230.514 164.490,221.715 195.054,215.647 225.617,217.926 256.180,214.930 286.744,194.557 317.307,188.062 347.870,221.942 378.434,220.278 408.997,211.234 439.561,183.717 470.124,160.344 500.687,114.795 "/>
<g>
<circle cx="72.800" cy="215.293" r="3.333" fill="#738ccc" stroke="none" stroke-width="2.0pt" />
<circle cx="103.363" cy="215.696" r="3.333" fill="#738ccc" stroke="none" stroke-width="2.0pt" />
<circle cx="133.927" cy="230.514" r="3.333" fill="#738ccc" stroke="none" stroke-width="2.0pt" />
<circle cx="164.490" cy="221.715" r="3.333" fill="#738ccc" stroke="none" stroke-width="2.0pt" />
<circle cx="195.054" cy="215.647" r="3.333" fill="#738ccc" stroke="none" stroke-width="2.0pt" />
<circle cx="225.617" cy="217.926" r="3.333" fill="#738ccc" stroke="none" stroke-width="2.0pt" />
<circle cx="256.180" cy="214.930" r="3.333" fill="#738ccc" stroke="none" stroke-width="2.0pt" />
<circle cx="286.744" cy="194.557" r="3.333" fill="#738ccc" stroke="none" stroke-width="2.0pt" />
<circle cx="317.307" cy="188.062" r="3.333" fill="#738ccc" stroke="none" stroke-width="2.0pt" />
<circle cx="347.870" cy="221.942" r="3.333" fill="#738ccc" stroke="none" stroke-width="2.0pt" />
<circle cx="378.434" cy="220.278" r="3.333" fill="#738ccc" stroke="none" stroke-width="2.0pt" />
<circle cx="408.997" cy="211.234" r="3.333" fill="#738ccc" stroke="none" stroke-width="2.0pt" />
<circle cx="439.561" cy="183.717" r="3.333" fill="#738ccc" stroke="none" stroke-width="2.0pt" />
<circle cx="470.124" cy="160.344" r="3.333" fill="#738ccc" stroke="none" stroke-width="2.0pt" />
<circle cx="500.687" cy="114.795" r="3.333" fill="#738ccc" stroke="none" stroke-width="2.0pt" />
</g>
</g>
<g id="ID000004" clip-path="url(#ID000001)" >
      <polygon fill="#000080" fill-opacity="0.08" stroke="none" stroke-width="0.5pt" stroke-opacity="1.00" stroke-dasharray="none" points="72.800,298.039 103.363,309.584 133.927,322.497 164.490,312.063 195.054,312.497 225.617,299.320 256.180,301.937 286.744,292.674 317.307,275.992 347.870,310.961 378.434,321.466 408.997,294.469 439.561,273.732 470.124,229.777 500.687,175.088 500.687,32.514 470.124,66.438 439.561,92.950 408.997,115.339 378.434,122.136 347.870,137.250 317.307,105.106 286.744,112.463 256.180,130.948 225.617,136.717 195.054,121.106 164.490,139.091 133.927,141.397 103.363,126.746 72.800,136.371 "/>
</g>
<g id="ID000005" clip-path="url(#ID000001)" >
      <polyline fill="none" stroke="#000080" stroke-width="2.0pt" stroke-dasharray="none" points="72.800,217.205 103.363,218.165 133.927,231.947 164.490,225.577 195.054,216.802 225.617,218.018 256.180,216.443 286.744,202.569 317.307,190.549 347.870,224.105 378.434,221.801 408.997,204.904 439.561,183.341 470.124,148.107 500.687,103.801 "/>
<g>
<circle cx="72.800" cy="217.205" r="3.333" fill="#000080" stroke="none" stroke-width="2.0pt" />
<circle cx="103.363" cy="218.165" r="3.333" fill="#000080" stroke="none" stroke-width="2.0pt" />
<circle cx="133.927" cy="231.947" r="3.333" fill="#000080" stroke="none" stroke-width="2.0pt" />
<circle cx="164.490" cy="225.577" r="3.333" fill="#000080" stroke="none" stroke-width="2.0pt" />
<circle cx="195.054" cy="216.802" r="3.333" fill="#000080" stroke="none" stroke-width="2.0pt" />
<circle cx="225.617" cy="218.018" r="3.333" fill="#000080" stroke="none" stroke-width="2.0pt" />
<circle cx="256.180" cy="216.443" r="3.333" fill="#000080" stroke="none" stroke-width="2.0pt" />
<circle cx="286.744" cy="202.569" r="3.333" fill="#000080" stroke="none" stroke-width="2.0pt" />
<circle cx="317.307" cy="190.549" r="3.333" fill="#000080" stroke="none" stroke-width="2.0pt" />
<circle cx="347.870" cy="224.105" r="3.333" fill="#000080" stroke="none" stroke-width="2.0pt" />
<circle cx="378.434" cy="221.801" r="3.333" fill="#000080" stroke="none" stroke-width="2.0pt" />
<circle cx="408.997" cy="204.904" r="3.333" fill="#000080" stroke="none" stroke-width="2.0pt" />
<circle cx="439.561" cy="183.341" r="3.333" fill="#000080" stroke="none" stroke-width="2.0pt" />
<circle cx="470.124" cy="148.107" r="3.333" fill="#000080" stroke="none" stroke-width="2.0pt" />
<circle cx="500.687" cy="103.801" r="3.333" fill="#000080" stroke="none" stroke-width="2.0pt" />
</g>
</g>
<g id="ID000006" clip-path="url(#ID000001)" >
      <polygon fill="#f08080" fill-opacity="0.08" stroke="none" stroke-width="0.5pt" stroke-opacity="1.00" stroke-dasharray="none" points="72.800,286.969 103.363,301.592 133.927,286.779 164.490,275.148 195.054,278.056 225.617,318.519 256.180,290.892 286.744,310.234 317.307,283.978 347.870,287.459 378.434,287.065 408.997,279.983 439.561,288.177 470.124,283.004 500.687,188.748 500.687,51.891 470.124,121.166 439.561,119.338 408.997,131.596 378.434,134.283 347.870,97.941 317.307,146.535 286.744,136.325 256.180,115.071 225.617,137.979 195.054,113.024 164.490,131.378 133.927,122.639 103.363,127.329 72.800,147.885 "/>
</g>
<g id="ID000007" clip-path="url(#ID000001)" >
      <polyline fill="none" stroke="#f08080" stroke-width="2.0pt" stroke-dasharray="none" points="72.800,217.427 103.363,214.461 133.927,204.709 164.490,203.263 195.054,195.540 225.617,228.249 256.180,202.982 286.744,223.280 317.307,215.257 347.870,192.700 378.434,210.674 408.997,205.789 439.561,203.758 470.124,202.085 500.687,120.319 "/>
<g>
<circle cx="72.800" cy="217.427" r="3.333" fill="#f08080" stroke="none" stroke-width="2.0pt" />
<circle cx="103.363" cy="214.461" r="3.333" fill="#f08080" stroke="none" stroke-width="2.0pt" />
<circle cx="133.927" cy="204.709" r="3.333" fill="#f08080" stroke="none" stroke-width="2.0pt" />
<circle cx="164.490" cy="203.263" r="3.333" fill="#f08080" stroke="none" stroke-width="2.0pt" />
<circle cx="195.054" cy="195.540" r="3.333" fill="#f08080" stroke="none" stroke-width="2.0pt" />
<circle cx="225.617" cy="228.249" r="3.333" fill="#f08080" stroke="none" stroke-width="2.0pt" />
<circle cx="256.180" cy="202.982" r="3.333" fill="#f08080" stroke="none" stroke-width="2.0pt" />
<circle cx="286.744" cy="223.280" r="3.333" fill="#f08080" stroke="none" stroke-width="2.0pt" />
<circle cx="317.307" cy="215.257" r="3.333" fill="#f08080" stroke="none" stroke-width="2.0pt" />
<circle cx="347.870" cy="192.700" r="3.333" fill="#f08080" stroke="none" stroke-width="2.0pt" />
<circle cx="378.434" cy="210.674" r="3.333" fill="#f08080" stroke="none" stroke-width="2.0pt" />
<circle cx="408.997" cy="205.789" r="3.333" fill="#f08080" stroke="none" stroke-width="2.0pt" />
<circle cx="439.561" cy="203.758" r="3.333" fill="#f08080" stroke="none" stroke-width="2.0pt" />
<circle cx="470.124" cy="202.085" r="3.333" fill="#f08080" stroke="none" stroke-width="2.0pt" />
<circle cx="500.687" cy="120.319" r="3.333" fill="#f08080" stroke="none" stroke-width="2.0pt" />
</g>
</g>
<g id="ID000008" clip-path="url(#ID000001)" >
      <polygon fill="#ff0000" fill-opacity="0.08" stroke="none" stroke-width="0.5pt" stroke-opacity="1.00" stroke-dasharray="none" points="72.800,314.043 103.363,307.459 133.927,284.917 164.490,295.698 195.054,273.459 225.617,317.367 256.180,288.303 286.744,310.020 317.307,304.161 347.870,276.756 378.434,305.192 408.997,295.403 439.561,301.798 470.124,295.955 500.687,185.340 500.687,50.616 470.124,106.163 439.561,115.043 408.997,116.669 378.434,108.061 347.870,122.948 317.307,132.897 286.744,134.347 256.180,121.547 225.617,143.824 195.054,105.399 164.490,122.415 133.927,126.101 103.363,129.218 72.800,118.445 "/>
</g>
<g id="ID000009" clip-path="url(#ID000001)" >
      <polyline fill="none" stroke="#ff0000" stroke-width="2.0pt" stroke-dasharray="none" points="72.800,216.244 103.363,218.339 133.927,205.509 164.490,209.057 195.054,189.429 225.617,230.595 256.180,204.925 286.744,222.183 317.307,218.529 347.870,199.852 378.434,206.626 408.997,206.036 439.561,208.421 470.124,201.059 500.687,117.978 "/>
<g>
<circle cx="72.800" cy="216.244" r="3.333" fill="#ff0000" stroke="none" stroke-width="2.0pt" />
<circle cx="103.363" cy="218.339" r="3.333" fill="#ff0000" stroke="none" stroke-width="2.0pt" />
<circle cx="133.927" cy="205.509" r="3.333" fill="#ff0000" stroke="none" stroke-width="2.0pt" />
<circle cx="164.490" cy="209.057" r="3.333" fill="#ff0000" stroke="none" stroke-width="2.0pt" />
<circle cx="195.054" cy="189.429" r="3.333" fill="#ff0000" stroke="none" stroke-width="2.0pt" />
<circle cx="225.617" cy="230.595" r="3.333" fill="#ff0000" stroke="none" stroke-width="2.0pt" />
<circle cx="256.180" cy="204.925" r="3.333" fill="#ff0000" stroke="none" stroke-width="2.0pt" />
<circle cx="286.744" cy="222.183" r="3.333" fill="#ff0000" stroke="none" stroke-width="2.0pt" />
<circle cx="317.307" cy="218.529" r="3.333" fill="#ff0000" stroke="none" stroke-width="2.0pt" />
<circle cx="347.870" cy="199.852" r="3.333" fill="#ff0000" stroke="none" stroke-width="2.0pt" />
<circle cx="378.434" cy="206.626" r="3.333" fill="#ff0000" stroke="none" stroke-width="2.0pt" />
<circle cx="408.997" cy="206.036" r="3.333" fill="#ff0000" stroke="none" stroke-width="2.0pt" />
<circle cx="439.561" cy="208.421" r="3.333" fill="#ff0000" stroke="none" stroke-width="2.0pt" />
<circle cx="470.124" cy="201.059" r="3.333" fill="#ff0000" stroke="none" stroke-width="2.0pt" />
<circle cx="500.687" cy="117.978" r="3.333" fill="#ff0000" stroke="none" stroke-width="2.0pt" />
</g>
</g>
<g id="ID000010" >
  <g transform="translate(28.550,210.500)">
    <g transform="rotate(-90.0)">
      <text x="0.000" y="0.000" font-family="Helvetica" text-anchor="middle" font-size="15pt" fill="#000000" >Decoding accuracy (%)</text>
    </g>
  </g>
</g>
<g id="ID000011" clip-path="url(#ID000001)" >
      <polyline fill="none" stroke="#000080" stroke-width="1.0pt" stroke-dasharray="none" points="454.842,347.550 485.406,347.550 "/>
<g>
</g>
</g>
<g id="ID000012" clip-path="url(#ID000001)" >
      <polyline fill="none" stroke="#000080" stroke-width="1.0pt" stroke-dasharray="none" points="485.406,347.550 515.969,347.550 "/>
<g>
</g>
</g>
<g id="ID000013" clip-path="url(#ID000001)" >
      <polyline fill="none" stroke="#ff0000" stroke-width="1.0pt" stroke-dasharray="none" points="485.406,355.700 515.969,355.700 "/>
<g>
</g>
</g>
<g id="ID000014" >
  <g transform="translate(289.300,418.750)">
    <g transform="rotate(-0.0)">
      <text x="0.000" y="0.000" font-family="Helvetica" text-anchor="middle" font-size="15pt" fill="#000000" >Time from saccade onset (s)</text>
    </g>
  </g>
</g>
<g id="ID000015" clip-path="url(#ID000001)" >
      <polyline fill="none" stroke="#000000" stroke-width="0.5pt" stroke-dasharray="none" points="72.800,209.000 506.800,209.000 "/>
<g>
</g>
</g>
<g id="ID000016" clip-path="url(#ID000001)" >
      <polyline fill="none" stroke="#000000" stroke-width="0.5pt" stroke-dasharray="8.0,2.0" points="500.687,372.000 500.687,46.000 "/>
<g>
</g>
</g>
<g id="ID000017" >
  <g transform="translate(289.300,30.750)">
    <g transform="rotate(-0.0)">
      <text x="0.000" y="0.000" font-family="Helvetica" text-anchor="middle" font-size="15pt" fill="#000000" ><tspan>Mean decoding for brt abs tr phi 180 te phi 180  both</tspan><tspan dy="6.0pt" font-size="10pt">m</tspan><tspan dy="-6.0pt" font-size="15pt">onkeys</tspan></text>
    </g>
  </g>
</g>
    </g>
    <g>
      <polyline fill="none" stroke="#000000" stroke-width="0.5pt" stroke-dasharray="none" points="133.927,372.000 133.927,367.660 "/>
      <polyline fill="none" stroke="#000000" stroke-width="0.5pt" stroke-dasharray="none" points="195.054,372.000 195.054,367.660 "/>
      <polyline fill="none" stroke="#000000" stroke-width="0.5pt" stroke-dasharray="none" points="256.180,372.000 256.180,367.660 "/>
      <polyline fill="none" stroke="#000000" stroke-width="0.5pt" stroke-dasharray="none" points="317.307,372.000 317.307,367.660 "/>
      <polyline fill="none" stroke="#000000" stroke-width="0.5pt" stroke-dasharray="none" points="378.434,372.000 378.434,367.660 "/>
      <polyline fill="none" stroke="#000000" stroke-width="0.5pt" stroke-dasharray="none" points="439.561,372.000 439.561,367.660 "/>
      <polyline fill="none" stroke="#000000" stroke-width="0.5pt" stroke-dasharray="none" points="500.687,372.000 500.687,367.660 "/>
      <polyline fill="none" stroke="#000000" stroke-width="0.5pt" stroke-dasharray="none" points="72.800,372.000 506.800,372.000 "/>
  <g transform="translate(133.927,396.220)">
    <g transform="rotate(-0.0)">
      <text x="0.000" y="0.000" font-family="Helvetica" text-anchor="middle" font-size="15pt" fill="#000000" >-1.2</text>
    </g>
  </g>
  <g transform="translate(195.054,396.220)">
    <g transform="rotate(-0.0)">
      <text x="0.000" y="0.000" font-family="Helvetica" text-anchor="middle" font-size="15pt" fill="#000000" >-1</text>
    </g>
  </g>
  <g transform="translate(256.180,396.220)">
    <g transform="rotate(-0.0)">
      <text x="0.000" y="0.000" font-family="Helvetica" text-anchor="middle" font-size="15pt" fill="#000000" >-0.8</text>
    </g>
  </g>
  <g transform="translate(317.307,396.220)">
    <g transform="rotate(-0.0)">
      <text x="0.000" y="0.000" font-family="Helvetica" text-anchor="middle" font-size="15pt" fill="#000000" >-0.6</text>
    </g>
  </g>
  <g transform="translate(378.434,396.220)">
    <g transform="rotate(-0.0)">
      <text x="0.000" y="0.000" font-family="Helvetica" text-anchor="middle" font-size="15pt" fill="#000000" >-0.4</text>
    </g>
  </g>
  <g transform="translate(439.561,396.220)">
    <g transform="rotate(-0.0)">
      <text x="0.000" y="0.000" font-family="Helvetica" text-anchor="middle" font-size="15pt" fill="#000000" >-0.2</text>
    </g>
  </g>
  <g transform="translate(500.687,396.220)">
    <g transform="rotate(-0.0)">
      <text x="0.000" y="0.000" font-family="Helvetica" text-anchor="middle" font-size="15pt" fill="#000000" >0</text>
    </g>
  </g>
      <polyline fill="none" stroke="#000000" stroke-width="0.5pt" stroke-dasharray="none" points="72.800,372.000 77.140,372.000 "/>
      <polyline fill="none" stroke="#000000" stroke-width="0.5pt" stroke-dasharray="none" points="72.800,290.500 77.140,290.500 "/>
      <polyline fill="none" stroke="#000000" stroke-width="0.5pt" stroke-dasharray="none" points="72.800,209.000 77.140,209.000 "/>
      <polyline fill="none" stroke="#000000" stroke-width="0.5pt" stroke-dasharray="none" points="72.800,127.500 77.140,127.500 "/>
      <polyline fill="none" stroke="#000000" stroke-width="0.5pt" stroke-dasharray="none" points="72.800,46.000 77.140,46.000 "/>
      <polyline fill="none" stroke="#000000" stroke-width="0.5pt" stroke-dasharray="none" points="72.800,372.000 72.800,46.000 "/>
  <g transform="translate(64.120,378.750)">
    <g transform="rotate(-0.0)">
      <text x="0.000" y="0.000" font-family="Helvetica" text-anchor="end" font-size="15pt" fill="#000000" >0</text>
    </g>
  </g>
  <g transform="translate(64.120,297.250)">
    <g transform="rotate(-0.0)">
      <text x="0.000" y="0.000" font-family="Helvetica" text-anchor="end" font-size="15pt" fill="#000000" >25</text>
    </g>
  </g>
  <g transform="translate(64.120,215.750)">
    <g transform="rotate(-0.0)">
      <text x="0.000" y="0.000" font-family="Helvetica" text-anchor="end" font-size="15pt" fill="#000000" >50</text>
    </g>
  </g>
  <g transform="translate(64.120,134.250)">
    <g transform="rotate(-0.0)">
      <text x="0.000" y="0.000" font-family="Helvetica" text-anchor="end" font-size="15pt" fill="#000000" >75</text>
    </g>
  </g>
  <g transform="translate(64.120,52.750)">
    <g transform="rotate(-0.0)">
      <text x="0.000" y="0.000" font-family="Helvetica" text-anchor="end" font-size="15pt" fill="#000000" >100</text>
    </g>
  </g>
      <polyline fill="none" stroke="#000000" stroke-width="0.5pt" stroke-dasharray="none" points="72.800,372.000 72.800,368.740 "/>
      <polyline fill="none" stroke="#000000" stroke-width="0.5pt" stroke-dasharray="none" points="72.800,372.000 72.800,368.740 "/>
      <polyline fill="none" stroke="#000000" stroke-width="0.5pt" stroke-dasharray="none" points="72.800,372.000 72.800,368.740 "/>
      <polyline fill="none" stroke="#000000" stroke-width="0.5pt" stroke-dasharray="none" points="72.800,372.000 72.800,372.000 "/>
    </g>
  </g>
  </g>
</svg>
