<?xml version="1.0" encoding="utf-8" standalone="no"?><!DOCTYPE svg PUBLIC "-//W3C//DTD SVG 1.1//EN" "http://www.w3.org/Graphics/SVG/1.1/DTD/svg11.dtd">
<svg preserveAspectRatio="xMinYMin meet" width="100%" height="100%" viewBox="0 0 560.000 420.000"  version="1.1" xmlns="http://www.w3.org/2000/svg" xmlns:xlink="http://www.w3.org/1999/xlink">
  <desc>Matlab Figure Converted by PLOT2SVG written by Juerg Schwizer</desc>
  <g id="topgroup">
  <rect x="0" y="0" width="560.000" height="420.000" fill="#ffffff" stroke="none" />
  <g id ="ID000000">
  <clipPath id="ID000001">
    <rect x="72.800" y="38.000" width="434.000" height="334.000"/>
  </clipPath>
      <polygon fill="#ffffff" fill-opacity="1.00" stroke="none" stroke-width="0.5pt" stroke-opacity="1.00" stroke-dasharray="none" points="72.800,372.000 506.800,372.000 506.800,38.000 72.800,38.000 "/>
      <polygon fill="#ffffff" fill-opacity="1.00" stroke="none" stroke-width="0.5pt" stroke-opacity="1.00" stroke-dasharray="none" points="72.800,38.000 506.800,38.000 506.800,38.000 72.800,38.000 "/>
      <polygon fill="#ffffff" fill-opacity="1.00" stroke="none" stroke-width="0.5pt" stroke-opacity="1.00" stroke-dasharray="none" points="72.800,372.000 72.800,372.000 72.800,38.000 72.800,38.000 "/>
    <g>
<g id="ID000002" clip-path="url(#ID000001)" >
      <polygon fill="#738ccc" fill-opacity="0.08" stroke="none" stroke-width="0.5pt" stroke-opacity="1.00" stroke-dasharray="none" points="72.800,187.191 95.642,189.593 118.484,171.886 141.326,189.514 164.168,154.870 187.011,166.593 209.853,154.257 232.695,168.205 255.537,191.693 278.379,196.845 301.221,199.565 324.063,230.782 346.905,225.839 369.747,219.261 392.589,203.996 415.432,200.457 438.274,201.239 461.116,187.733 483.958,193.698 506.800,228.305 506.800,111.887 483.958,83.648 461.116,80.643 438.274,74.604 415.432,80.466 392.589,74.448 369.747,92.131 346.905,100.996 324.063,106.511 301.221,105.974 278.379,109.087 255.537,100.071 232.695,75.981 209.853,66.239 187.011,77.329 164.168,74.548 141.326,110.312 118.484,95.258 95.642,116.754 72.800,105.932 "/>
</g>
<g id="ID000003" clip-path="url(#ID000001)" >
      <polyline fill="none" stroke="#738ccc" stroke-width="2.0pt" stroke-dasharray="none" points="72.800,146.562 95.642,153.174 118.484,133.572 141.326,149.913 164.168,114.709 187.011,121.961 209.853,110.248 232.695,122.093 255.537,145.882 278.379,152.966 301.221,152.770 324.063,168.646 346.905,163.417 369.747,155.696 392.589,139.222 415.432,140.461 438.274,137.922 461.116,134.188 483.958,138.673 506.800,170.096 "/>
<g>
<circle cx="72.800" cy="146.562" r="3.333" fill="#738ccc" stroke="none" stroke-width="2.0pt" />
<circle cx="95.642" cy="153.174" r="3.333" fill="#738ccc" stroke="none" stroke-width="2.0pt" />
<circle cx="118.484" cy="133.572" r="3.333" fill="#738ccc" stroke="none" stroke-width="2.0pt" />
<circle cx="141.326" cy="149.913" r="3.333" fill="#738ccc" stroke="none" stroke-width="2.0pt" />
<circle cx="164.168" cy="114.709" r="3.333" fill="#738ccc" stroke="none" stroke-width="2.0pt" />
<circle cx="187.011" cy="121.961" r="3.333" fill="#738ccc" stroke="none" stroke-width="2.0pt" />
<circle cx="209.853" cy="110.248" r="3.333" fill="#738ccc" stroke="none" stroke-width="2.0pt" />
<circle cx="232.695" cy="122.093" r="3.333" fill="#738ccc" stroke="none" stroke-width="2.0pt" />
<circle cx="255.537" cy="145.882" r="3.333" fill="#738ccc" stroke="none" stroke-width="2.0pt" />
<circle cx="278.379" cy="152.966" r="3.333" fill="#738ccc" stroke="none" stroke-width="2.0pt" />
<circle cx="301.221" cy="152.770" r="3.333" fill="#738ccc" stroke="none" stroke-width="2.0pt" />
<circle cx="324.063" cy="168.646" r="3.333" fill="#738ccc" stroke="none" stroke-width="2.0pt" />
<circle cx="346.905" cy="163.417" r="3.333" fill="#738ccc" stroke="none" stroke-width="2.0pt" />
<circle cx="369.747" cy="155.696" r="3.333" fill="#738ccc" stroke="none" stroke-width="2.0pt" />
<circle cx="392.589" cy="139.222" r="3.333" fill="#738ccc" stroke="none" stroke-width="2.0pt" />
<circle cx="415.432" cy="140.461" r="3.333" fill="#738ccc" stroke="none" stroke-width="2.0pt" />
<circle cx="438.274" cy="137.922" r="3.333" fill="#738ccc" stroke="none" stroke-width="2.0pt" />
<circle cx="461.116" cy="134.188" r="3.333" fill="#738ccc" stroke="none" stroke-width="2.0pt" />
<circle cx="483.958" cy="138.673" r="3.333" fill="#738ccc" stroke="none" stroke-width="2.0pt" />
<circle cx="506.800" cy="170.096" r="3.333" fill="#738ccc" stroke="none" stroke-width="2.0pt" />
</g>
</g>
<g id="ID000004" clip-path="url(#ID000001)" >
      <polygon fill="#000080" fill-opacity="0.08" stroke="none" stroke-width="0.5pt" stroke-opacity="1.00" stroke-dasharray="none" points="72.800,188.810 95.642,191.137 118.484,172.409 141.326,189.438 164.168,158.686 187.011,166.534 209.853,153.048 232.695,165.971 255.537,188.096 278.379,196.293 301.221,202.279 324.063,227.814 346.905,228.772 369.747,207.478 392.589,202.986 415.432,201.541 438.274,192.892 461.116,196.105 483.958,198.745 506.800,234.751 506.800,111.569 483.958,98.293 461.116,83.477 438.274,80.963 415.432,86.277 392.589,80.687 369.747,95.451 346.905,107.186 324.063,114.952 301.221,95.281 278.379,107.140 255.537,93.868 232.695,71.256 209.853,62.278 187.011,87.808 164.168,86.333 141.326,114.752 118.484,96.889 95.642,116.492 72.800,110.492 "/>
</g>
<g id="ID000005" clip-path="url(#ID000001)" >
      <polyline fill="none" stroke="#000080" stroke-width="2.0pt" stroke-dasharray="none" points="72.800,149.651 95.642,153.815 118.484,134.649 141.326,152.095 164.168,122.510 187.011,127.171 209.853,107.663 232.695,118.614 255.537,140.982 278.379,151.717 301.221,148.780 324.063,171.383 346.905,167.979 369.747,151.465 392.589,141.836 415.432,143.909 438.274,136.927 461.116,139.791 483.958,148.519 506.800,173.160 "/>
<g>
<circle cx="72.800" cy="149.651" r="3.333" fill="#000080" stroke="none" stroke-width="2.0pt" />
<circle cx="95.642" cy="153.815" r="3.333" fill="#000080" stroke="none" stroke-width="2.0pt" />
<circle cx="118.484" cy="134.649" r="3.333" fill="#000080" stroke="none" stroke-width="2.0pt" />
<circle cx="141.326" cy="152.095" r="3.333" fill="#000080" stroke="none" stroke-width="2.0pt" />
<circle cx="164.168" cy="122.510" r="3.333" fill="#000080" stroke="none" stroke-width="2.0pt" />
<circle cx="187.011" cy="127.171" r="3.333" fill="#000080" stroke="none" stroke-width="2.0pt" />
<circle cx="209.853" cy="107.663" r="3.333" fill="#000080" stroke="none" stroke-width="2.0pt" />
<circle cx="232.695" cy="118.614" r="3.333" fill="#000080" stroke="none" stroke-width="2.0pt" />
<circle cx="255.537" cy="140.982" r="3.333" fill="#000080" stroke="none" stroke-width="2.0pt" />
<circle cx="278.379" cy="151.717" r="3.333" fill="#000080" stroke="none" stroke-width="2.0pt" />
<circle cx="301.221" cy="148.780" r="3.333" fill="#000080" stroke="none" stroke-width="2.0pt" />
<circle cx="324.063" cy="171.383" r="3.333" fill="#000080" stroke="none" stroke-width="2.0pt" />
<circle cx="346.905" cy="167.979" r="3.333" fill="#000080" stroke="none" stroke-width="2.0pt" />
<circle cx="369.747" cy="151.465" r="3.333" fill="#000080" stroke="none" stroke-width="2.0pt" />
<circle cx="392.589" cy="141.836" r="3.333" fill="#000080" stroke="none" stroke-width="2.0pt" />
<circle cx="415.432" cy="143.909" r="3.333" fill="#000080" stroke="none" stroke-width="2.0pt" />
<circle cx="438.274" cy="136.927" r="3.333" fill="#000080" stroke="none" stroke-width="2.0pt" />
<circle cx="461.116" cy="139.791" r="3.333" fill="#000080" stroke="none" stroke-width="2.0pt" />
<circle cx="483.958" cy="148.519" r="3.333" fill="#000080" stroke="none" stroke-width="2.0pt" />
<circle cx="506.800" cy="173.160" r="3.333" fill="#000080" stroke="none" stroke-width="2.0pt" />
</g>
</g>
<g id="ID000006" clip-path="url(#ID000001)" >
      <polygon fill="#f08080" fill-opacity="0.08" stroke="none" stroke-width="0.5pt" stroke-opacity="1.00" stroke-dasharray="none" points="72.800,258.875 95.642,263.131 118.484,227.240 141.326,236.771 164.168,264.424 187.011,238.754 209.853,211.520 232.695,187.942 255.537,203.431 278.379,186.196 301.221,173.934 324.063,149.382 346.905,142.888 369.747,143.643 392.589,152.830 415.432,176.062 438.274,178.444 461.116,142.358 483.958,172.794 506.800,147.416 506.800,78.398 483.958,94.332 461.116,75.565 438.274,99.384 415.432,104.813 392.589,81.524 369.747,76.125 346.905,71.605 324.063,75.960 301.221,101.471 278.379,111.181 255.537,125.319 232.695,113.172 209.853,134.450 187.011,174.549 164.168,172.527 141.326,158.342 118.484,154.385 95.642,173.784 72.800,172.798 "/>
</g>
<g id="ID000007" clip-path="url(#ID000001)" >
      <polyline fill="none" stroke="#f08080" stroke-width="2.0pt" stroke-dasharray="none" points="72.800,215.836 95.642,218.457 118.484,190.813 141.326,197.556 164.168,218.475 187.011,206.651 209.853,172.985 232.695,150.557 255.537,164.375 278.379,148.689 301.221,137.702 324.063,112.671 346.905,107.246 369.747,109.884 392.589,117.177 415.432,140.438 438.274,138.914 461.116,108.961 483.958,133.563 506.800,112.907 "/>
<g>
<circle cx="72.800" cy="215.836" r="3.333" fill="#f08080" stroke="none" stroke-width="2.0pt" />
<circle cx="95.642" cy="218.457" r="3.333" fill="#f08080" stroke="none" stroke-width="2.0pt" />
<circle cx="118.484" cy="190.813" r="3.333" fill="#f08080" stroke="none" stroke-width="2.0pt" />
<circle cx="141.326" cy="197.556" r="3.333" fill="#f08080" stroke="none" stroke-width="2.0pt" />
<circle cx="164.168" cy="218.475" r="3.333" fill="#f08080" stroke="none" stroke-width="2.0pt" />
<circle cx="187.011" cy="206.651" r="3.333" fill="#f08080" stroke="none" stroke-width="2.0pt" />
<circle cx="209.853" cy="172.985" r="3.333" fill="#f08080" stroke="none" stroke-width="2.0pt" />
<circle cx="232.695" cy="150.557" r="3.333" fill="#f08080" stroke="none" stroke-width="2.0pt" />
<circle cx="255.537" cy="164.375" r="3.333" fill="#f08080" stroke="none" stroke-width="2.0pt" />
<circle cx="278.379" cy="148.689" r="3.333" fill="#f08080" stroke="none" stroke-width="2.0pt" />
<circle cx="301.221" cy="137.702" r="3.333" fill="#f08080" stroke="none" stroke-width="2.0pt" />
<circle cx="324.063" cy="112.671" r="3.333" fill="#f08080" stroke="none" stroke-width="2.0pt" />
<circle cx="346.905" cy="107.246" r="3.333" fill="#f08080" stroke="none" stroke-width="2.0pt" />
<circle cx="369.747" cy="109.884" r="3.333" fill="#f08080" stroke="none" stroke-width="2.0pt" />
<circle cx="392.589" cy="117.177" r="3.333" fill="#f08080" stroke="none" stroke-width="2.0pt" />
<circle cx="415.432" cy="140.438" r="3.333" fill="#f08080" stroke="none" stroke-width="2.0pt" />
<circle cx="438.274" cy="138.914" r="3.333" fill="#f08080" stroke="none" stroke-width="2.0pt" />
<circle cx="461.116" cy="108.961" r="3.333" fill="#f08080" stroke="none" stroke-width="2.0pt" />
<circle cx="483.958" cy="133.563" r="3.333" fill="#f08080" stroke="none" stroke-width="2.0pt" />
<circle cx="506.800" cy="112.907" r="3.333" fill="#f08080" stroke="none" stroke-width="2.0pt" />
</g>
</g>
<g id="ID000008" clip-path="url(#ID000001)" >
      <polygon fill="#ff0000" fill-opacity="0.08" stroke="none" stroke-width="0.5pt" stroke-opacity="1.00" stroke-dasharray="none" points="72.800,249.474 95.642,252.000 118.484,232.430 141.326,236.988 164.168,259.605 187.011,235.833 209.853,212.968 232.695,188.462 255.537,200.270 278.379,186.380 301.221,174.026 324.063,149.579 346.905,144.600 369.747,142.824 392.589,156.486 415.432,176.313 438.274,178.123 461.116,143.702 483.958,173.274 506.800,150.665 506.800,79.924 483.958,99.161 461.116,71.413 438.274,102.881 415.432,106.290 392.589,83.027 369.747,73.592 346.905,74.061 324.063,84.593 301.221,99.684 278.379,115.755 255.537,129.940 232.695,109.056 209.853,136.917 187.011,175.779 164.168,172.275 141.326,158.984 118.484,152.042 95.642,178.352 72.800,182.260 "/>
</g>
<g id="ID000009" clip-path="url(#ID000001)" >
      <polyline fill="none" stroke="#ff0000" stroke-width="2.0pt" stroke-dasharray="none" points="72.800,215.867 95.642,215.176 118.484,192.236 141.326,197.986 164.168,215.940 187.011,205.806 209.853,174.942 232.695,148.759 255.537,165.105 278.379,151.067 301.221,136.855 324.063,117.086 346.905,109.331 369.747,108.208 392.589,119.757 415.432,141.302 438.274,140.502 461.116,107.558 483.958,136.217 506.800,115.295 "/>
<g>
<circle cx="72.800" cy="215.867" r="3.333" fill="#ff0000" stroke="none" stroke-width="2.0pt" />
<circle cx="95.642" cy="215.176" r="3.333" fill="#ff0000" stroke="none" stroke-width="2.0pt" />
<circle cx="118.484" cy="192.236" r="3.333" fill="#ff0000" stroke="none" stroke-width="2.0pt" />
<circle cx="141.326" cy="197.986" r="3.333" fill="#ff0000" stroke="none" stroke-width="2.0pt" />
<circle cx="164.168" cy="215.940" r="3.333" fill="#ff0000" stroke="none" stroke-width="2.0pt" />
<circle cx="187.011" cy="205.806" r="3.333" fill="#ff0000" stroke="none" stroke-width="2.0pt" />
<circle cx="209.853" cy="174.942" r="3.333" fill="#ff0000" stroke="none" stroke-width="2.0pt" />
<circle cx="232.695" cy="148.759" r="3.333" fill="#ff0000" stroke="none" stroke-width="2.0pt" />
<circle cx="255.537" cy="165.105" r="3.333" fill="#ff0000" stroke="none" stroke-width="2.0pt" />
<circle cx="278.379" cy="151.067" r="3.333" fill="#ff0000" stroke="none" stroke-width="2.0pt" />
<circle cx="301.221" cy="136.855" r="3.333" fill="#ff0000" stroke="none" stroke-width="2.0pt" />
<circle cx="324.063" cy="117.086" r="3.333" fill="#ff0000" stroke="none" stroke-width="2.0pt" />
<circle cx="346.905" cy="109.331" r="3.333" fill="#ff0000" stroke="none" stroke-width="2.0pt" />
<circle cx="369.747" cy="108.208" r="3.333" fill="#ff0000" stroke="none" stroke-width="2.0pt" />
<circle cx="392.589" cy="119.757" r="3.333" fill="#ff0000" stroke="none" stroke-width="2.0pt" />
<circle cx="415.432" cy="141.302" r="3.333" fill="#ff0000" stroke="none" stroke-width="2.0pt" />
<circle cx="438.274" cy="140.502" r="3.333" fill="#ff0000" stroke="none" stroke-width="2.0pt" />
<circle cx="461.116" cy="107.558" r="3.333" fill="#ff0000" stroke="none" stroke-width="2.0pt" />
<circle cx="483.958" cy="136.217" r="3.333" fill="#ff0000" stroke="none" stroke-width="2.0pt" />
<circle cx="506.800" cy="115.295" r="3.333" fill="#ff0000" stroke="none" stroke-width="2.0pt" />
</g>
</g>
<g id="ID000010" >
  <g transform="translate(28.550,206.500)">
    <g transform="rotate(-90.0)">
      <text x="0.000" y="0.000" font-family="Helvetica" text-anchor="middle" font-size="15pt" fill="#000000" >Decoding accuracy (%)</text>
    </g>
  </g>
</g>
<g id="ID000011" clip-path="url(#ID000001)" >
      <polyline fill="none" stroke="#000080" stroke-width="1.0pt" stroke-dasharray="none" points="61.379,346.950 84.221,346.950 "/>
<g>
</g>
</g>
<g id="ID000012" clip-path="url(#ID000001)" >
      <polyline fill="none" stroke="#000080" stroke-width="1.0pt" stroke-dasharray="none" points="84.221,346.950 107.063,346.950 "/>
<g>
</g>
</g>
<g id="ID000013" clip-path="url(#ID000001)" >
      <polyline fill="none" stroke="#000080" stroke-width="1.0pt" stroke-dasharray="none" points="107.063,346.950 129.905,346.950 "/>
<g>
</g>
</g>
<g id="ID000014" clip-path="url(#ID000001)" >
      <polyline fill="none" stroke="#000080" stroke-width="1.0pt" stroke-dasharray="none" points="129.905,346.950 152.747,346.950 "/>
<g>
</g>
</g>
<g id="ID000015" clip-path="url(#ID000001)" >
      <polyline fill="none" stroke="#000080" stroke-width="1.0pt" stroke-dasharray="none" points="152.747,346.950 175.589,346.950 "/>
<g>
</g>
</g>
<g id="ID000016" clip-path="url(#ID000001)" >
      <polyline fill="none" stroke="#000080" stroke-width="1.0pt" stroke-dasharray="none" points="175.589,346.950 198.432,346.950 "/>
<g>
</g>
</g>
<g id="ID000017" clip-path="url(#ID000001)" >
      <polyline fill="none" stroke="#000080" stroke-width="1.0pt" stroke-dasharray="none" points="198.432,346.950 221.274,346.950 "/>
<g>
</g>
</g>
<g id="ID000018" clip-path="url(#ID000001)" >
      <polyline fill="none" stroke="#000080" stroke-width="1.0pt" stroke-dasharray="none" points="221.274,346.950 244.116,346.950 "/>
<g>
</g>
</g>
<g id="ID000019" clip-path="url(#ID000001)" >
      <polyline fill="none" stroke="#000080" stroke-width="1.0pt" stroke-dasharray="none" points="244.116,346.950 266.958,346.950 "/>
<g>
</g>
</g>
<g id="ID000020" clip-path="url(#ID000001)" >
      <polyline fill="none" stroke="#000080" stroke-width="1.0pt" stroke-dasharray="none" points="266.958,346.950 289.800,346.950 "/>
<g>
</g>
</g>
<g id="ID000021" clip-path="url(#ID000001)" >
      <polyline fill="none" stroke="#000080" stroke-width="1.0pt" stroke-dasharray="none" points="289.800,346.950 312.642,346.950 "/>
<g>
</g>
</g>
<g id="ID000022" clip-path="url(#ID000001)" >
      <polyline fill="none" stroke="#000080" stroke-width="1.0pt" stroke-dasharray="none" points="312.642,346.950 335.484,346.950 "/>
<g>
</g>
</g>
<g id="ID000023" clip-path="url(#ID000001)" >
      <polyline fill="none" stroke="#000080" stroke-width="1.0pt" stroke-dasharray="none" points="335.484,346.950 358.326,346.950 "/>
<g>
</g>
</g>
<g id="ID000024" clip-path="url(#ID000001)" >
      <polyline fill="none" stroke="#000080" stroke-width="1.0pt" stroke-dasharray="none" points="358.326,346.950 381.168,346.950 "/>
<g>
</g>
</g>
<g id="ID000025" clip-path="url(#ID000001)" >
      <polyline fill="none" stroke="#000080" stroke-width="1.0pt" stroke-dasharray="none" points="381.168,346.950 404.011,346.950 "/>
<g>
</g>
</g>
<g id="ID000026" clip-path="url(#ID000001)" >
      <polyline fill="none" stroke="#000080" stroke-width="1.0pt" stroke-dasharray="none" points="404.011,346.950 426.853,346.950 "/>
<g>
</g>
</g>
<g id="ID000027" clip-path="url(#ID000001)" >
      <polyline fill="none" stroke="#000080" stroke-width="1.0pt" stroke-dasharray="none" points="426.853,346.950 449.695,346.950 "/>
<g>
</g>
</g>
<g id="ID000028" clip-path="url(#ID000001)" >
      <polyline fill="none" stroke="#000080" stroke-width="1.0pt" stroke-dasharray="none" points="449.695,346.950 472.537,346.950 "/>
<g>
</g>
</g>
<g id="ID000029" clip-path="url(#ID000001)" >
      <polyline fill="none" stroke="#000080" stroke-width="1.0pt" stroke-dasharray="none" points="472.537,346.950 495.379,346.950 "/>
<g>
</g>
</g>
<g id="ID000030" clip-path="url(#ID000001)" >
      <polyline fill="none" stroke="#000080" stroke-width="1.0pt" stroke-dasharray="none" points="495.379,346.950 518.221,346.950 "/>
<g>
</g>
</g>
<g id="ID000031" clip-path="url(#ID000001)" >
      <polyline fill="none" stroke="#ff0000" stroke-width="1.0pt" stroke-dasharray="none" points="198.432,355.300 221.274,355.300 "/>
<g>
</g>
</g>
<g id="ID000032" clip-path="url(#ID000001)" >
      <polyline fill="none" stroke="#ff0000" stroke-width="1.0pt" stroke-dasharray="none" points="221.274,355.300 244.116,355.300 "/>
<g>
</g>
</g>
<g id="ID000033" clip-path="url(#ID000001)" >
      <polyline fill="none" stroke="#ff0000" stroke-width="1.0pt" stroke-dasharray="none" points="244.116,355.300 266.958,355.300 "/>
<g>
</g>
</g>
<g id="ID000034" clip-path="url(#ID000001)" >
      <polyline fill="none" stroke="#ff0000" stroke-width="1.0pt" stroke-dasharray="none" points="266.958,355.300 289.800,355.300 "/>
<g>
</g>
</g>
<g id="ID000035" clip-path="url(#ID000001)" >
      <polyline fill="none" stroke="#ff0000" stroke-width="1.0pt" stroke-dasharray="none" points="289.800,355.300 312.642,355.300 "/>
<g>
</g>
</g>
<g id="ID000036" clip-path="url(#ID000001)" >
      <polyline fill="none" stroke="#ff0000" stroke-width="1.0pt" stroke-dasharray="none" points="312.642,355.300 335.484,355.300 "/>
<g>
</g>
</g>
<g id="ID000037" clip-path="url(#ID000001)" >
      <polyline fill="none" stroke="#ff0000" stroke-width="1.0pt" stroke-dasharray="none" points="335.484,355.300 358.326,355.300 "/>
<g>
</g>
</g>
<g id="ID000038" clip-path="url(#ID000001)" >
      <polyline fill="none" stroke="#ff0000" stroke-width="1.0pt" stroke-dasharray="none" points="358.326,355.300 381.168,355.300 "/>
<g>
</g>
</g>
<g id="ID000039" clip-path="url(#ID000001)" >
      <polyline fill="none" stroke="#ff0000" stroke-width="1.0pt" stroke-dasharray="none" points="381.168,355.300 404.011,355.300 "/>
<g>
</g>
</g>
<g id="ID000040" clip-path="url(#ID000001)" >
      <polyline fill="none" stroke="#ff0000" stroke-width="1.0pt" stroke-dasharray="none" points="404.011,355.300 426.853,355.300 "/>
<g>
</g>
</g>
<g id="ID000041" clip-path="url(#ID000001)" >
      <polyline fill="none" stroke="#ff0000" stroke-width="1.0pt" stroke-dasharray="none" points="426.853,355.300 449.695,355.300 "/>
<g>
</g>
</g>
<g id="ID000042" clip-path="url(#ID000001)" >
      <polyline fill="none" stroke="#ff0000" stroke-width="1.0pt" stroke-dasharray="none" points="449.695,355.300 472.537,355.300 "/>
<g>
</g>
</g>
<g id="ID000043" clip-path="url(#ID000001)" >
      <polyline fill="none" stroke="#ff0000" stroke-width="1.0pt" stroke-dasharray="none" points="472.537,355.300 495.379,355.300 "/>
<g>
</g>
</g>
<g id="ID000044" clip-path="url(#ID000001)" >
      <polyline fill="none" stroke="#ff0000" stroke-width="1.0pt" stroke-dasharray="none" points="495.379,355.300 518.221,355.300 "/>
<g>
</g>
</g>
<g id="ID000045" >
  <g transform="translate(288.300,418.750)">
    <g transform="rotate(-0.0)">
      <text x="0.000" y="0.000" font-family="Helvetica" text-anchor="middle" font-size="15pt" fill="#000000" >Time from stimulus onset (s)</text>
    </g>
  </g>
</g>
<g id="ID000046" clip-path="url(#ID000001)" >
      <polyline fill="none" stroke="#000000" stroke-width="0.5pt" stroke-dasharray="none" points="72.800,205.000 506.800,205.000 "/>
<g>
</g>
</g>
<g id="ID000047" clip-path="url(#ID000001)" >
      <polyline fill="none" stroke="#000000" stroke-width="0.5pt" stroke-dasharray="8.0,2.0" points="164.168,372.000 164.168,38.000 "/>
<g>
</g>
</g>
<g id="ID000048" >
  <g transform="translate(288.300,22.750)">
    <g transform="rotate(-0.0)">
      <text x="0.000" y="0.000" font-family="Helvetica" text-anchor="middle" font-size="15pt" fill="#000000" >Mean decoding for phi abs tr brt out te brt in  Michel</text>
    </g>
  </g>
</g>
    </g>
    <g>
      <polyline fill="none" stroke="#000000" stroke-width="0.5pt" stroke-dasharray="none" points="164.168,372.000 164.168,367.660 "/>
      <polyline fill="none" stroke="#000000" stroke-width="0.5pt" stroke-dasharray="none" points="278.379,372.000 278.379,367.660 "/>
      <polyline fill="none" stroke="#000000" stroke-width="0.5pt" stroke-dasharray="none" points="392.589,372.000 392.589,367.660 "/>
      <polyline fill="none" stroke="#000000" stroke-width="0.5pt" stroke-dasharray="none" points="506.800,372.000 506.800,367.660 "/>
      <polyline fill="none" stroke="#000000" stroke-width="0.5pt" stroke-dasharray="none" points="72.800,372.000 506.800,372.000 "/>
  <g transform="translate(164.168,396.380)">
    <g transform="rotate(-0.0)">
      <text x="0.000" y="0.000" font-family="Helvetica" text-anchor="middle" font-size="15pt" fill="#000000" >0</text>
    </g>
  </g>
  <g transform="translate(278.379,396.380)">
    <g transform="rotate(-0.0)">
      <text x="0.000" y="0.000" font-family="Helvetica" text-anchor="middle" font-size="15pt" fill="#000000" >0.5</text>
    </g>
  </g>
  <g transform="translate(392.589,396.380)">
    <g transform="rotate(-0.0)">
      <text x="0.000" y="0.000" font-family="Helvetica" text-anchor="middle" font-size="15pt" fill="#000000" >1</text>
    </g>
  </g>
  <g transform="translate(506.800,396.380)">
    <g transform="rotate(-0.0)">
      <text x="0.000" y="0.000" font-family="Helvetica" text-anchor="middle" font-size="15pt" fill="#000000" >1.5</text>
    </g>
  </g>
      <polyline fill="none" stroke="#000000" stroke-width="0.5pt" stroke-dasharray="none" points="72.800,372.000 77.140,372.000 "/>
      <polyline fill="none" stroke="#000000" stroke-width="0.5pt" stroke-dasharray="none" points="72.800,288.500 77.140,288.500 "/>
      <polyline fill="none" stroke="#000000" stroke-width="0.5pt" stroke-dasharray="none" points="72.800,205.000 77.140,205.000 "/>
      <polyline fill="none" stroke="#000000" stroke-width="0.5pt" stroke-dasharray="none" points="72.800,121.500 77.140,121.500 "/>
      <polyline fill="none" stroke="#000000" stroke-width="0.5pt" stroke-dasharray="none" points="72.800,38.000 77.140,38.000 "/>
      <polyline fill="none" stroke="#000000" stroke-width="0.5pt" stroke-dasharray="none" points="72.800,372.000 72.800,38.000 "/>
  <g transform="translate(64.120,378.750)">
    <g transform="rotate(-0.0)">
      <text x="0.000" y="0.000" font-family="Helvetica" text-anchor="end" font-size="15pt" fill="#000000" >0</text>
    </g>
  </g>
  <g transform="translate(64.120,295.250)">
    <g transform="rotate(-0.0)">
      <text x="0.000" y="0.000" font-family="Helvetica" text-anchor="end" font-size="15pt" fill="#000000" >25</text>
    </g>
  </g>
  <g transform="translate(64.120,211.750)">
    <g transform="rotate(-0.0)">
      <text x="0.000" y="0.000" font-family="Helvetica" text-anchor="end" font-size="15pt" fill="#000000" >50</text>
    </g>
  </g>
  <g transform="translate(64.120,128.250)">
    <g transform="rotate(-0.0)">
      <text x="0.000" y="0.000" font-family="Helvetica" text-anchor="end" font-size="15pt" fill="#000000" >75</text>
    </g>
  </g>
  <g transform="translate(64.120,44.750)">
    <g transform="rotate(-0.0)">
      <text x="0.000" y="0.000" font-family="Helvetica" text-anchor="end" font-size="15pt" fill="#000000" >100</text>
    </g>
  </g>
      <polyline fill="none" stroke="#000000" stroke-width="0.5pt" stroke-dasharray="none" points="72.800,372.000 72.800,368.660 "/>
      <polyline fill="none" stroke="#000000" stroke-width="0.5pt" stroke-dasharray="none" points="72.800,372.000 72.800,368.660 "/>
      <polyline fill="none" stroke="#000000" stroke-width="0.5pt" stroke-dasharray="none" points="72.800,372.000 72.800,368.660 "/>
      <polyline fill="none" stroke="#000000" stroke-width="0.5pt" stroke-dasharray="none" points="72.800,372.000 72.800,372.000 "/>
    </g>
  </g>
  </g>
</svg>
