<?xml version="1.0" encoding="utf-8" standalone="no"?><!DOCTYPE svg PUBLIC "-//W3C//DTD SVG 1.1//EN" "http://www.w3.org/Graphics/SVG/1.1/DTD/svg11.dtd">
<svg preserveAspectRatio="xMinYMin meet" width="100%" height="100%" viewBox="0 0 560.000 420.000"  version="1.1" xmlns="http://www.w3.org/2000/svg" xmlns:xlink="http://www.w3.org/1999/xlink">
  <desc>Matlab Figure Converted by PLOT2SVG written by Juerg Schwizer</desc>
  <g id="topgroup">
  <rect x="0" y="0" width="560.000" height="420.000" fill="#ffffff" stroke="none" />
  <g id ="ID000000">
  <clipPath id="ID000001">
    <rect x="72.800" y="38.000" width="434.000" height="334.000"/>
  </clipPath>
      <polygon fill="#ffffff" fill-opacity="1.00" stroke="none" stroke-width="0.5pt" stroke-opacity="1.00" stroke-dasharray="none" points="72.800,372.000 506.800,372.000 506.800,38.000 72.800,38.000 "/>
      <polygon fill="#ffffff" fill-opacity="1.00" stroke="none" stroke-width="0.5pt" stroke-opacity="1.00" stroke-dasharray="none" points="72.800,38.000 506.800,38.000 506.800,38.000 72.800,38.000 "/>
      <polygon fill="#ffffff" fill-opacity="1.00" stroke="none" stroke-width="0.5pt" stroke-opacity="1.00" stroke-dasharray="none" points="72.800,372.000 72.800,372.000 72.800,38.000 72.800,38.000 "/>
    <g>
<g id="ID000002" clip-path="url(#ID000001)" >
      <polygon fill="#738ccc" fill-opacity="0.08" stroke="none" stroke-width="0.5pt" stroke-opacity="1.00" stroke-dasharray="none" points="72.800,207.447 95.642,216.103 118.484,188.453 141.326,203.395 164.168,180.608 187.011,182.753 209.853,172.319 232.695,205.200 255.537,223.134 278.379,231.796 301.221,245.177 324.063,275.887 346.905,268.090 369.747,253.657 392.589,261.542 415.432,263.718 438.274,254.495 461.116,239.960 483.958,249.632 506.800,277.123 506.800,79.715 483.958,79.095 461.116,65.387 438.274,56.975 415.432,65.566 392.589,63.845 369.747,68.946 346.905,81.512 324.063,81.508 301.221,73.529 278.379,85.797 255.537,74.698 232.695,57.561 209.853,56.765 187.011,83.349 164.168,80.762 141.326,107.240 118.484,89.338 95.642,103.717 72.800,103.467 "/>
</g>
<g id="ID000003" clip-path="url(#ID000001)" >
      <polyline fill="none" stroke="#738ccc" stroke-width="2.0pt" stroke-dasharray="none" points="72.800,155.457 95.642,159.910 118.484,138.896 141.326,155.318 164.168,130.685 187.011,133.051 209.853,114.542 232.695,131.381 255.537,148.916 278.379,158.797 301.221,159.353 324.063,178.698 346.905,174.801 369.747,161.302 392.589,162.693 415.432,164.642 438.274,155.735 461.116,152.673 483.958,164.363 506.800,178.419 "/>
<g>
<circle cx="72.800" cy="155.457" r="3.333" fill="#738ccc" stroke="none" stroke-width="2.0pt" />
<circle cx="95.642" cy="159.910" r="3.333" fill="#738ccc" stroke="none" stroke-width="2.0pt" />
<circle cx="118.484" cy="138.896" r="3.333" fill="#738ccc" stroke="none" stroke-width="2.0pt" />
<circle cx="141.326" cy="155.318" r="3.333" fill="#738ccc" stroke="none" stroke-width="2.0pt" />
<circle cx="164.168" cy="130.685" r="3.333" fill="#738ccc" stroke="none" stroke-width="2.0pt" />
<circle cx="187.011" cy="133.051" r="3.333" fill="#738ccc" stroke="none" stroke-width="2.0pt" />
<circle cx="209.853" cy="114.542" r="3.333" fill="#738ccc" stroke="none" stroke-width="2.0pt" />
<circle cx="232.695" cy="131.381" r="3.333" fill="#738ccc" stroke="none" stroke-width="2.0pt" />
<circle cx="255.537" cy="148.916" r="3.333" fill="#738ccc" stroke="none" stroke-width="2.0pt" />
<circle cx="278.379" cy="158.797" r="3.333" fill="#738ccc" stroke="none" stroke-width="2.0pt" />
<circle cx="301.221" cy="159.353" r="3.333" fill="#738ccc" stroke="none" stroke-width="2.0pt" />
<circle cx="324.063" cy="178.698" r="3.333" fill="#738ccc" stroke="none" stroke-width="2.0pt" />
<circle cx="346.905" cy="174.801" r="3.333" fill="#738ccc" stroke="none" stroke-width="2.0pt" />
<circle cx="369.747" cy="161.302" r="3.333" fill="#738ccc" stroke="none" stroke-width="2.0pt" />
<circle cx="392.589" cy="162.693" r="3.333" fill="#738ccc" stroke="none" stroke-width="2.0pt" />
<circle cx="415.432" cy="164.642" r="3.333" fill="#738ccc" stroke="none" stroke-width="2.0pt" />
<circle cx="438.274" cy="155.735" r="3.333" fill="#738ccc" stroke="none" stroke-width="2.0pt" />
<circle cx="461.116" cy="152.673" r="3.333" fill="#738ccc" stroke="none" stroke-width="2.0pt" />
<circle cx="483.958" cy="164.363" r="3.333" fill="#738ccc" stroke="none" stroke-width="2.0pt" />
<circle cx="506.800" cy="178.419" r="3.333" fill="#738ccc" stroke="none" stroke-width="2.0pt" />
</g>
</g>
<g id="ID000004" clip-path="url(#ID000001)" >
      <polygon fill="#000080" fill-opacity="0.08" stroke="none" stroke-width="0.5pt" stroke-opacity="1.00" stroke-dasharray="none" points="72.800,196.713 95.642,205.526 118.484,186.003 141.326,203.619 164.168,164.672 187.011,171.059 209.853,172.038 232.695,211.275 255.537,231.437 278.379,236.557 301.221,249.101 324.063,277.320 346.905,270.818 369.747,262.668 392.589,260.130 415.432,257.608 438.274,254.211 461.116,247.074 483.958,241.001 506.800,286.406 506.800,82.122 483.958,61.284 461.116,58.273 438.274,58.650 415.432,57.202 392.589,55.236 369.747,75.522 346.905,76.000 324.063,78.962 301.221,82.409 278.379,90.499 255.537,84.486 232.695,61.228 209.853,59.550 187.011,73.611 164.168,66.638 141.326,101.449 118.484,86.500 95.642,101.212 72.800,95.830 "/>
</g>
<g id="ID000005" clip-path="url(#ID000001)" >
      <polyline fill="none" stroke="#000080" stroke-width="2.0pt" stroke-dasharray="none" points="72.800,146.272 95.642,153.369 118.484,136.252 141.326,152.534 164.168,115.655 187.011,122.335 209.853,115.794 232.695,136.252 255.537,157.962 278.379,163.528 301.221,165.755 324.063,178.141 346.905,173.409 369.747,169.095 392.589,157.683 415.432,157.405 438.274,156.431 461.116,152.673 483.958,151.142 506.800,184.264 "/>
<g>
<circle cx="72.800" cy="146.272" r="3.333" fill="#000080" stroke="none" stroke-width="2.0pt" />
<circle cx="95.642" cy="153.369" r="3.333" fill="#000080" stroke="none" stroke-width="2.0pt" />
<circle cx="118.484" cy="136.252" r="3.333" fill="#000080" stroke="none" stroke-width="2.0pt" />
<circle cx="141.326" cy="152.534" r="3.333" fill="#000080" stroke="none" stroke-width="2.0pt" />
<circle cx="164.168" cy="115.655" r="3.333" fill="#000080" stroke="none" stroke-width="2.0pt" />
<circle cx="187.011" cy="122.335" r="3.333" fill="#000080" stroke="none" stroke-width="2.0pt" />
<circle cx="209.853" cy="115.794" r="3.333" fill="#000080" stroke="none" stroke-width="2.0pt" />
<circle cx="232.695" cy="136.252" r="3.333" fill="#000080" stroke="none" stroke-width="2.0pt" />
<circle cx="255.537" cy="157.962" r="3.333" fill="#000080" stroke="none" stroke-width="2.0pt" />
<circle cx="278.379" cy="163.528" r="3.333" fill="#000080" stroke="none" stroke-width="2.0pt" />
<circle cx="301.221" cy="165.755" r="3.333" fill="#000080" stroke="none" stroke-width="2.0pt" />
<circle cx="324.063" cy="178.141" r="3.333" fill="#000080" stroke="none" stroke-width="2.0pt" />
<circle cx="346.905" cy="173.409" r="3.333" fill="#000080" stroke="none" stroke-width="2.0pt" />
<circle cx="369.747" cy="169.095" r="3.333" fill="#000080" stroke="none" stroke-width="2.0pt" />
<circle cx="392.589" cy="157.683" r="3.333" fill="#000080" stroke="none" stroke-width="2.0pt" />
<circle cx="415.432" cy="157.405" r="3.333" fill="#000080" stroke="none" stroke-width="2.0pt" />
<circle cx="438.274" cy="156.431" r="3.333" fill="#000080" stroke="none" stroke-width="2.0pt" />
<circle cx="461.116" cy="152.673" r="3.333" fill="#000080" stroke="none" stroke-width="2.0pt" />
<circle cx="483.958" cy="151.142" r="3.333" fill="#000080" stroke="none" stroke-width="2.0pt" />
<circle cx="506.800" cy="184.264" r="3.333" fill="#000080" stroke="none" stroke-width="2.0pt" />
</g>
</g>
<g id="ID000006" clip-path="url(#ID000001)" >
      <polygon fill="#f08080" fill-opacity="0.08" stroke="none" stroke-width="0.5pt" stroke-opacity="1.00" stroke-dasharray="none" points="72.800,287.755 95.642,290.204 118.484,256.118 141.326,268.991 164.168,293.413 187.011,262.298 209.853,236.565 232.695,207.339 255.537,232.807 278.379,205.153 301.221,188.047 324.063,165.635 346.905,161.364 369.747,153.858 392.589,174.537 415.432,198.637 438.274,192.266 461.116,156.351 483.958,192.425 506.800,164.269 506.800,75.391 483.958,90.377 461.116,65.774 438.274,94.710 415.432,94.741 392.589,76.534 369.747,68.824 346.905,68.276 324.063,78.200 301.221,90.579 278.379,106.038 255.537,113.455 232.695,99.121 209.853,122.500 187.011,160.505 164.168,170.027 141.326,139.617 118.484,134.120 95.642,144.290 72.800,162.325 "/>
</g>
<g id="ID000007" clip-path="url(#ID000001)" >
      <polyline fill="none" stroke="#f08080" stroke-width="2.0pt" stroke-dasharray="none" points="72.800,225.040 95.642,217.247 118.484,195.119 141.326,204.304 164.168,231.720 187.011,211.402 209.853,179.532 232.695,153.230 255.537,173.131 278.379,155.596 301.221,139.313 324.063,121.917 346.905,114.820 369.747,111.341 392.589,125.536 415.432,146.689 438.274,143.488 461.116,111.062 483.958,141.401 506.800,119.830 "/>
<g>
<circle cx="72.800" cy="225.040" r="3.333" fill="#f08080" stroke="none" stroke-width="2.0pt" />
<circle cx="95.642" cy="217.247" r="3.333" fill="#f08080" stroke="none" stroke-width="2.0pt" />
<circle cx="118.484" cy="195.119" r="3.333" fill="#f08080" stroke="none" stroke-width="2.0pt" />
<circle cx="141.326" cy="204.304" r="3.333" fill="#f08080" stroke="none" stroke-width="2.0pt" />
<circle cx="164.168" cy="231.720" r="3.333" fill="#f08080" stroke="none" stroke-width="2.0pt" />
<circle cx="187.011" cy="211.402" r="3.333" fill="#f08080" stroke="none" stroke-width="2.0pt" />
<circle cx="209.853" cy="179.532" r="3.333" fill="#f08080" stroke="none" stroke-width="2.0pt" />
<circle cx="232.695" cy="153.230" r="3.333" fill="#f08080" stroke="none" stroke-width="2.0pt" />
<circle cx="255.537" cy="173.131" r="3.333" fill="#f08080" stroke="none" stroke-width="2.0pt" />
<circle cx="278.379" cy="155.596" r="3.333" fill="#f08080" stroke="none" stroke-width="2.0pt" />
<circle cx="301.221" cy="139.313" r="3.333" fill="#f08080" stroke="none" stroke-width="2.0pt" />
<circle cx="324.063" cy="121.917" r="3.333" fill="#f08080" stroke="none" stroke-width="2.0pt" />
<circle cx="346.905" cy="114.820" r="3.333" fill="#f08080" stroke="none" stroke-width="2.0pt" />
<circle cx="369.747" cy="111.341" r="3.333" fill="#f08080" stroke="none" stroke-width="2.0pt" />
<circle cx="392.589" cy="125.536" r="3.333" fill="#f08080" stroke="none" stroke-width="2.0pt" />
<circle cx="415.432" cy="146.689" r="3.333" fill="#f08080" stroke="none" stroke-width="2.0pt" />
<circle cx="438.274" cy="143.488" r="3.333" fill="#f08080" stroke="none" stroke-width="2.0pt" />
<circle cx="461.116" cy="111.062" r="3.333" fill="#f08080" stroke="none" stroke-width="2.0pt" />
<circle cx="483.958" cy="141.401" r="3.333" fill="#f08080" stroke="none" stroke-width="2.0pt" />
<circle cx="506.800" cy="119.830" r="3.333" fill="#f08080" stroke="none" stroke-width="2.0pt" />
</g>
</g>
<g id="ID000008" clip-path="url(#ID000001)" >
      <polygon fill="#ff0000" fill-opacity="0.08" stroke="none" stroke-width="0.5pt" stroke-opacity="1.00" stroke-dasharray="none" points="72.800,270.980 95.642,280.659 118.484,253.565 141.326,259.438 164.168,261.480 187.011,249.575 209.853,231.670 232.695,200.393 255.537,215.832 278.379,200.289 301.221,192.314 324.063,161.262 346.905,155.878 369.747,160.582 392.589,161.167 415.432,191.205 438.274,194.229 461.116,153.777 483.958,191.052 506.800,159.746 506.800,70.729 483.958,84.235 461.116,70.575 438.274,90.799 415.432,93.824 392.589,75.153 369.747,69.614 346.905,65.412 324.063,68.935 301.221,93.271 278.379,99.770 255.537,110.390 232.695,104.676 209.853,114.870 187.011,153.188 164.168,138.778 141.326,128.573 118.484,126.931 95.642,140.475 72.800,138.742 "/>
</g>
<g id="ID000009" clip-path="url(#ID000001)" >
      <polyline fill="none" stroke="#ff0000" stroke-width="2.0pt" stroke-dasharray="none" points="72.800,204.861 95.642,210.567 118.484,190.248 141.326,194.006 164.168,200.129 187.011,201.382 209.853,173.270 232.695,152.534 255.537,163.111 278.379,150.029 301.221,142.792 324.063,115.098 346.905,110.645 369.747,115.098 392.589,118.160 415.432,142.514 438.274,142.514 461.116,112.176 483.958,137.643 506.800,115.237 "/>
<g>
<circle cx="72.800" cy="204.861" r="3.333" fill="#ff0000" stroke="none" stroke-width="2.0pt" />
<circle cx="95.642" cy="210.567" r="3.333" fill="#ff0000" stroke="none" stroke-width="2.0pt" />
<circle cx="118.484" cy="190.248" r="3.333" fill="#ff0000" stroke="none" stroke-width="2.0pt" />
<circle cx="141.326" cy="194.006" r="3.333" fill="#ff0000" stroke="none" stroke-width="2.0pt" />
<circle cx="164.168" cy="200.129" r="3.333" fill="#ff0000" stroke="none" stroke-width="2.0pt" />
<circle cx="187.011" cy="201.382" r="3.333" fill="#ff0000" stroke="none" stroke-width="2.0pt" />
<circle cx="209.853" cy="173.270" r="3.333" fill="#ff0000" stroke="none" stroke-width="2.0pt" />
<circle cx="232.695" cy="152.534" r="3.333" fill="#ff0000" stroke="none" stroke-width="2.0pt" />
<circle cx="255.537" cy="163.111" r="3.333" fill="#ff0000" stroke="none" stroke-width="2.0pt" />
<circle cx="278.379" cy="150.029" r="3.333" fill="#ff0000" stroke="none" stroke-width="2.0pt" />
<circle cx="301.221" cy="142.792" r="3.333" fill="#ff0000" stroke="none" stroke-width="2.0pt" />
<circle cx="324.063" cy="115.098" r="3.333" fill="#ff0000" stroke="none" stroke-width="2.0pt" />
<circle cx="346.905" cy="110.645" r="3.333" fill="#ff0000" stroke="none" stroke-width="2.0pt" />
<circle cx="369.747" cy="115.098" r="3.333" fill="#ff0000" stroke="none" stroke-width="2.0pt" />
<circle cx="392.589" cy="118.160" r="3.333" fill="#ff0000" stroke="none" stroke-width="2.0pt" />
<circle cx="415.432" cy="142.514" r="3.333" fill="#ff0000" stroke="none" stroke-width="2.0pt" />
<circle cx="438.274" cy="142.514" r="3.333" fill="#ff0000" stroke="none" stroke-width="2.0pt" />
<circle cx="461.116" cy="112.176" r="3.333" fill="#ff0000" stroke="none" stroke-width="2.0pt" />
<circle cx="483.958" cy="137.643" r="3.333" fill="#ff0000" stroke="none" stroke-width="2.0pt" />
<circle cx="506.800" cy="115.237" r="3.333" fill="#ff0000" stroke="none" stroke-width="2.0pt" />
</g>
</g>
<g id="ID000010" >
  <g transform="translate(28.550,206.500)">
    <g transform="rotate(-90.0)">
      <text x="0.000" y="0.000" font-family="Helvetica" text-anchor="middle" font-size="15pt" fill="#000000" >Decoding accuracy (%)</text>
    </g>
  </g>
</g>
<g id="ID000011" clip-path="url(#ID000001)" >
      <polyline fill="none" stroke="#000080" stroke-width="1.0pt" stroke-dasharray="none" points="61.379,346.950 84.221,346.950 "/>
<g>
</g>
</g>
<g id="ID000012" clip-path="url(#ID000001)" >
      <polyline fill="none" stroke="#000080" stroke-width="1.0pt" stroke-dasharray="none" points="84.221,346.950 107.063,346.950 "/>
<g>
</g>
</g>
<g id="ID000013" clip-path="url(#ID000001)" >
      <polyline fill="none" stroke="#000080" stroke-width="1.0pt" stroke-dasharray="none" points="107.063,346.950 129.905,346.950 "/>
<g>
</g>
</g>
<g id="ID000014" clip-path="url(#ID000001)" >
      <polyline fill="none" stroke="#000080" stroke-width="1.0pt" stroke-dasharray="none" points="129.905,346.950 152.747,346.950 "/>
<g>
</g>
</g>
<g id="ID000015" clip-path="url(#ID000001)" >
      <polyline fill="none" stroke="#000080" stroke-width="1.0pt" stroke-dasharray="none" points="152.747,346.950 175.589,346.950 "/>
<g>
</g>
</g>
<g id="ID000016" clip-path="url(#ID000001)" >
      <polyline fill="none" stroke="#000080" stroke-width="1.0pt" stroke-dasharray="none" points="175.589,346.950 198.432,346.950 "/>
<g>
</g>
</g>
<g id="ID000017" clip-path="url(#ID000001)" >
      <polyline fill="none" stroke="#000080" stroke-width="1.0pt" stroke-dasharray="none" points="198.432,346.950 221.274,346.950 "/>
<g>
</g>
</g>
<g id="ID000018" clip-path="url(#ID000001)" >
      <polyline fill="none" stroke="#000080" stroke-width="1.0pt" stroke-dasharray="none" points="221.274,346.950 244.116,346.950 "/>
<g>
</g>
</g>
<g id="ID000019" clip-path="url(#ID000001)" >
      <polyline fill="none" stroke="#000080" stroke-width="1.0pt" stroke-dasharray="none" points="244.116,346.950 266.958,346.950 "/>
<g>
</g>
</g>
<g id="ID000020" clip-path="url(#ID000001)" >
      <polyline fill="none" stroke="#000080" stroke-width="1.0pt" stroke-dasharray="none" points="266.958,346.950 289.800,346.950 "/>
<g>
</g>
</g>
<g id="ID000021" clip-path="url(#ID000001)" >
      <polyline fill="none" stroke="#000080" stroke-width="1.0pt" stroke-dasharray="none" points="289.800,346.950 312.642,346.950 "/>
<g>
</g>
</g>
<g id="ID000022" clip-path="url(#ID000001)" >
      <polyline fill="none" stroke="#000080" stroke-width="1.0pt" stroke-dasharray="none" points="312.642,346.950 335.484,346.950 "/>
<g>
</g>
</g>
<g id="ID000023" clip-path="url(#ID000001)" >
      <polyline fill="none" stroke="#000080" stroke-width="1.0pt" stroke-dasharray="none" points="335.484,346.950 358.326,346.950 "/>
<g>
</g>
</g>
<g id="ID000024" clip-path="url(#ID000001)" >
      <polyline fill="none" stroke="#000080" stroke-width="1.0pt" stroke-dasharray="none" points="358.326,346.950 381.168,346.950 "/>
<g>
</g>
</g>
<g id="ID000025" clip-path="url(#ID000001)" >
      <polyline fill="none" stroke="#000080" stroke-width="1.0pt" stroke-dasharray="none" points="381.168,346.950 404.011,346.950 "/>
<g>
</g>
</g>
<g id="ID000026" clip-path="url(#ID000001)" >
      <polyline fill="none" stroke="#000080" stroke-width="1.0pt" stroke-dasharray="none" points="404.011,346.950 426.853,346.950 "/>
<g>
</g>
</g>
<g id="ID000027" clip-path="url(#ID000001)" >
      <polyline fill="none" stroke="#000080" stroke-width="1.0pt" stroke-dasharray="none" points="426.853,346.950 449.695,346.950 "/>
<g>
</g>
</g>
<g id="ID000028" clip-path="url(#ID000001)" >
      <polyline fill="none" stroke="#000080" stroke-width="1.0pt" stroke-dasharray="none" points="449.695,346.950 472.537,346.950 "/>
<g>
</g>
</g>
<g id="ID000029" clip-path="url(#ID000001)" >
      <polyline fill="none" stroke="#000080" stroke-width="1.0pt" stroke-dasharray="none" points="472.537,346.950 495.379,346.950 "/>
<g>
</g>
</g>
<g id="ID000030" clip-path="url(#ID000001)" >
      <polyline fill="none" stroke="#000080" stroke-width="1.0pt" stroke-dasharray="none" points="495.379,346.950 518.221,346.950 "/>
<g>
</g>
</g>
<g id="ID000031" clip-path="url(#ID000001)" >
      <polyline fill="none" stroke="#ff0000" stroke-width="1.0pt" stroke-dasharray="none" points="198.432,355.300 221.274,355.300 "/>
<g>
</g>
</g>
<g id="ID000032" clip-path="url(#ID000001)" >
      <polyline fill="none" stroke="#ff0000" stroke-width="1.0pt" stroke-dasharray="none" points="221.274,355.300 244.116,355.300 "/>
<g>
</g>
</g>
<g id="ID000033" clip-path="url(#ID000001)" >
      <polyline fill="none" stroke="#ff0000" stroke-width="1.0pt" stroke-dasharray="none" points="244.116,355.300 266.958,355.300 "/>
<g>
</g>
</g>
<g id="ID000034" clip-path="url(#ID000001)" >
      <polyline fill="none" stroke="#ff0000" stroke-width="1.0pt" stroke-dasharray="none" points="266.958,355.300 289.800,355.300 "/>
<g>
</g>
</g>
<g id="ID000035" clip-path="url(#ID000001)" >
      <polyline fill="none" stroke="#ff0000" stroke-width="1.0pt" stroke-dasharray="none" points="289.800,355.300 312.642,355.300 "/>
<g>
</g>
</g>
<g id="ID000036" clip-path="url(#ID000001)" >
      <polyline fill="none" stroke="#ff0000" stroke-width="1.0pt" stroke-dasharray="none" points="312.642,355.300 335.484,355.300 "/>
<g>
</g>
</g>
<g id="ID000037" clip-path="url(#ID000001)" >
      <polyline fill="none" stroke="#ff0000" stroke-width="1.0pt" stroke-dasharray="none" points="335.484,355.300 358.326,355.300 "/>
<g>
</g>
</g>
<g id="ID000038" clip-path="url(#ID000001)" >
      <polyline fill="none" stroke="#ff0000" stroke-width="1.0pt" stroke-dasharray="none" points="358.326,355.300 381.168,355.300 "/>
<g>
</g>
</g>
<g id="ID000039" clip-path="url(#ID000001)" >
      <polyline fill="none" stroke="#ff0000" stroke-width="1.0pt" stroke-dasharray="none" points="381.168,355.300 404.011,355.300 "/>
<g>
</g>
</g>
<g id="ID000040" clip-path="url(#ID000001)" >
      <polyline fill="none" stroke="#ff0000" stroke-width="1.0pt" stroke-dasharray="none" points="404.011,355.300 426.853,355.300 "/>
<g>
</g>
</g>
<g id="ID000041" clip-path="url(#ID000001)" >
      <polyline fill="none" stroke="#ff0000" stroke-width="1.0pt" stroke-dasharray="none" points="426.853,355.300 449.695,355.300 "/>
<g>
</g>
</g>
<g id="ID000042" clip-path="url(#ID000001)" >
      <polyline fill="none" stroke="#ff0000" stroke-width="1.0pt" stroke-dasharray="none" points="449.695,355.300 472.537,355.300 "/>
<g>
</g>
</g>
<g id="ID000043" clip-path="url(#ID000001)" >
      <polyline fill="none" stroke="#ff0000" stroke-width="1.0pt" stroke-dasharray="none" points="472.537,355.300 495.379,355.300 "/>
<g>
</g>
</g>
<g id="ID000044" clip-path="url(#ID000001)" >
      <polyline fill="none" stroke="#ff0000" stroke-width="1.0pt" stroke-dasharray="none" points="495.379,355.300 518.221,355.300 "/>
<g>
</g>
</g>
<g id="ID000045" >
  <g transform="translate(288.300,418.750)">
    <g transform="rotate(-0.0)">
      <text x="0.000" y="0.000" font-family="Helvetica" text-anchor="middle" font-size="15pt" fill="#000000" >Time from stimulus onset (s)</text>
    </g>
  </g>
</g>
<g id="ID000046" clip-path="url(#ID000001)" >
      <polyline fill="none" stroke="#000000" stroke-width="0.5pt" stroke-dasharray="none" points="72.800,205.000 506.800,205.000 "/>
<g>
</g>
</g>
<g id="ID000047" clip-path="url(#ID000001)" >
      <polyline fill="none" stroke="#000000" stroke-width="0.5pt" stroke-dasharray="8.0,2.0" points="164.168,372.000 164.168,38.000 "/>
<g>
</g>
</g>
<g id="ID000048" >
  <g transform="translate(288.300,22.750)">
    <g transform="rotate(-0.0)">
      <text x="0.000" y="0.000" font-family="Helvetica" text-anchor="middle" font-size="15pt" fill="#000000" >Mean decoding for phi abs tr brt out te brt in  Michel</text>
    </g>
  </g>
</g>
    </g>
    <g>
      <polyline fill="none" stroke="#000000" stroke-width="0.5pt" stroke-dasharray="none" points="164.168,372.000 164.168,367.660 "/>
      <polyline fill="none" stroke="#000000" stroke-width="0.5pt" stroke-dasharray="none" points="278.379,372.000 278.379,367.660 "/>
      <polyline fill="none" stroke="#000000" stroke-width="0.5pt" stroke-dasharray="none" points="392.589,372.000 392.589,367.660 "/>
      <polyline fill="none" stroke="#000000" stroke-width="0.5pt" stroke-dasharray="none" points="506.800,372.000 506.800,367.660 "/>
      <polyline fill="none" stroke="#000000" stroke-width="0.5pt" stroke-dasharray="none" points="72.800,372.000 506.800,372.000 "/>
  <g transform="translate(164.168,396.380)">
    <g transform="rotate(-0.0)">
      <text x="0.000" y="0.000" font-family="Helvetica" text-anchor="middle" font-size="15pt" fill="#000000" >0</text>
    </g>
  </g>
  <g transform="translate(278.379,396.380)">
    <g transform="rotate(-0.0)">
      <text x="0.000" y="0.000" font-family="Helvetica" text-anchor="middle" font-size="15pt" fill="#000000" >0.5</text>
    </g>
  </g>
  <g transform="translate(392.589,396.380)">
    <g transform="rotate(-0.0)">
      <text x="0.000" y="0.000" font-family="Helvetica" text-anchor="middle" font-size="15pt" fill="#000000" >1</text>
    </g>
  </g>
  <g transform="translate(506.800,396.380)">
    <g transform="rotate(-0.0)">
      <text x="0.000" y="0.000" font-family="Helvetica" text-anchor="middle" font-size="15pt" fill="#000000" >1.5</text>
    </g>
  </g>
      <polyline fill="none" stroke="#000000" stroke-width="0.5pt" stroke-dasharray="none" points="72.800,372.000 77.140,372.000 "/>
      <polyline fill="none" stroke="#000000" stroke-width="0.5pt" stroke-dasharray="none" points="72.800,288.500 77.140,288.500 "/>
      <polyline fill="none" stroke="#000000" stroke-width="0.5pt" stroke-dasharray="none" points="72.800,205.000 77.140,205.000 "/>
      <polyline fill="none" stroke="#000000" stroke-width="0.5pt" stroke-dasharray="none" points="72.800,121.500 77.140,121.500 "/>
      <polyline fill="none" stroke="#000000" stroke-width="0.5pt" stroke-dasharray="none" points="72.800,38.000 77.140,38.000 "/>
      <polyline fill="none" stroke="#000000" stroke-width="0.5pt" stroke-dasharray="none" points="72.800,372.000 72.800,38.000 "/>
  <g transform="translate(64.120,378.750)">
    <g transform="rotate(-0.0)">
      <text x="0.000" y="0.000" font-family="Helvetica" text-anchor="end" font-size="15pt" fill="#000000" >0</text>
    </g>
  </g>
  <g transform="translate(64.120,295.250)">
    <g transform="rotate(-0.0)">
      <text x="0.000" y="0.000" font-family="Helvetica" text-anchor="end" font-size="15pt" fill="#000000" >25</text>
    </g>
  </g>
  <g transform="translate(64.120,211.750)">
    <g transform="rotate(-0.0)">
      <text x="0.000" y="0.000" font-family="Helvetica" text-anchor="end" font-size="15pt" fill="#000000" >50</text>
    </g>
  </g>
  <g transform="translate(64.120,128.250)">
    <g transform="rotate(-0.0)">
      <text x="0.000" y="0.000" font-family="Helvetica" text-anchor="end" font-size="15pt" fill="#000000" >75</text>
    </g>
  </g>
  <g transform="translate(64.120,44.750)">
    <g transform="rotate(-0.0)">
      <text x="0.000" y="0.000" font-family="Helvetica" text-anchor="end" font-size="15pt" fill="#000000" >100</text>
    </g>
  </g>
      <polyline fill="none" stroke="#000000" stroke-width="0.5pt" stroke-dasharray="none" points="72.800,372.000 72.800,368.660 "/>
      <polyline fill="none" stroke="#000000" stroke-width="0.5pt" stroke-dasharray="none" points="72.800,372.000 72.800,368.660 "/>
      <polyline fill="none" stroke="#000000" stroke-width="0.5pt" stroke-dasharray="none" points="72.800,372.000 72.800,368.660 "/>
      <polyline fill="none" stroke="#000000" stroke-width="0.5pt" stroke-dasharray="none" points="72.800,372.000 72.800,372.000 "/>
    </g>
  </g>
  </g>
</svg>
