<?xml version="1.0" encoding="utf-8" standalone="no"?><!DOCTYPE svg PUBLIC "-//W3C//DTD SVG 1.1//EN" "http://www.w3.org/Graphics/SVG/1.1/DTD/svg11.dtd">
<svg preserveAspectRatio="xMinYMin meet" width="100%" height="100%" viewBox="0 0 560.000 420.000"  version="1.1" xmlns="http://www.w3.org/2000/svg" xmlns:xlink="http://www.w3.org/1999/xlink">
  <desc>Matlab Figure Converted by PLOT2SVG written by Juerg Schwizer</desc>
  <g id="topgroup">
  <rect x="0" y="0" width="560.000" height="420.000" fill="#ffffff" stroke="none" />
  <g id ="ID000000">
  <clipPath id="ID000001">
    <rect x="72.800" y="31.500" width="434.000" height="342.300"/>
  </clipPath>
      <polygon fill="#ffffff" fill-opacity="1.00" stroke="none" stroke-width="0.5pt" stroke-opacity="1.00" stroke-dasharray="none" points="72.800,373.800 506.800,373.800 506.800,31.500 72.800,31.500 "/>
      <polygon fill="#ffffff" fill-opacity="1.00" stroke="none" stroke-width="0.5pt" stroke-opacity="1.00" stroke-dasharray="none" points="72.800,31.500 506.800,31.500 506.800,31.500 72.800,31.500 "/>
      <polygon fill="#ffffff" fill-opacity="1.00" stroke="none" stroke-width="0.5pt" stroke-opacity="1.00" stroke-dasharray="none" points="72.800,373.800 72.800,373.800 72.800,31.500 72.800,31.500 "/>
    <g>
<g id="ID000002" clip-path="url(#ID000001)" >
      <polygon fill="#add8e6" fill-opacity="0.15" stroke="none" stroke-width="0.5pt" stroke-opacity="1.00" stroke-dasharray="none" points="72.800,246.316 101.733,283.157 130.667,299.987 159.600,257.701 188.533,282.790 217.467,303.759 246.400,293.195 275.333,286.638 304.267,290.339 333.200,321.802 362.133,284.758 391.067,309.745 420.000,303.859 448.933,330.020 477.867,319.029 477.867,303.632 448.933,312.608 420.000,284.572 391.067,290.666 362.133,265.164 333.200,305.993 304.267,269.566 275.333,266.992 246.400,272.700 217.467,285.242 188.533,260.856 159.600,235.171 130.667,279.886 101.733,261.915 72.800,222.594 "/>
</g>
<g id="ID000003" clip-path="url(#ID000001)" >
      <polyline fill="none" stroke="#daedf3" stroke-width="0.5pt" stroke-dasharray="none" points="72.800,246.316 101.733,283.157 130.667,299.987 159.600,257.701 188.533,282.790 217.467,303.759 246.400,293.195 275.333,286.638 304.267,290.339 333.200,321.802 362.133,284.758 391.067,309.745 420.000,303.859 448.933,330.020 477.867,319.029 "/>
<g>
</g>
</g>
<g id="ID000004" clip-path="url(#ID000001)" >
      <polyline fill="none" stroke="#daedf3" stroke-width="0.5pt" stroke-dasharray="none" points="72.800,222.594 101.733,261.915 130.667,279.886 159.600,235.171 188.533,260.856 217.467,285.242 246.400,272.700 275.333,266.992 304.267,269.566 333.200,305.993 362.133,265.164 391.067,290.666 420.000,284.572 448.933,312.608 477.867,303.632 "/>
<g>
</g>
</g>
<g id="ID000005" clip-path="url(#ID000001)" >
      <polyline fill="none" stroke="#add8e6" stroke-width="0.5pt" stroke-dasharray="none" points="72.800,234.455 101.733,272.536 130.667,289.937 159.600,246.436 188.533,271.823 217.467,294.500 246.400,282.948 275.333,276.815 304.267,279.953 333.200,313.897 362.133,274.961 391.067,300.205 420.000,294.215 448.933,321.314 477.867,311.330 "/>
<g>
</g>
</g>
<g id="ID000006" clip-path="url(#ID000001)" >
      <polygon fill="#000080" fill-opacity="0.15" stroke="none" stroke-width="0.5pt" stroke-opacity="1.00" stroke-dasharray="none" points="72.800,180.740 101.733,137.250 130.667,123.497 159.600,164.078 188.533,149.926 217.467,128.356 246.400,146.645 275.333,150.534 304.267,125.643 333.200,74.273 362.133,126.261 391.067,90.245 420.000,101.414 448.933,77.746 477.867,48.774 477.867,40.184 448.933,63.983 420.000,83.388 391.067,73.734 362.133,106.748 333.200,62.892 304.267,105.654 275.333,129.256 246.400,124.587 217.467,108.647 188.533,128.152 159.600,140.814 130.667,103.807 101.733,117.438 72.800,156.100 "/>
</g>
<g id="ID000007" clip-path="url(#ID000001)" >
      <polyline fill="none" stroke="#8c8cc5" stroke-width="0.5pt" stroke-dasharray="none" points="72.800,180.740 101.733,137.250 130.667,123.497 159.600,164.078 188.533,149.926 217.467,128.356 246.400,146.645 275.333,150.534 304.267,125.643 333.200,74.273 362.133,126.261 391.067,90.245 420.000,101.414 448.933,77.746 477.867,48.774 "/>
<g>
</g>
</g>
<g id="ID000008" clip-path="url(#ID000001)" >
      <polyline fill="none" stroke="#8c8cc5" stroke-width="0.5pt" stroke-dasharray="none" points="72.800,156.100 101.733,117.438 130.667,103.807 159.600,140.814 188.533,128.152 217.467,108.647 246.400,124.587 275.333,129.256 304.267,105.654 333.200,62.892 362.133,106.748 391.067,73.734 420.000,83.388 448.933,63.983 477.867,40.184 "/>
<g>
</g>
</g>
<g id="ID000009" clip-path="url(#ID000001)" >
      <polyline fill="none" stroke="#000080" stroke-width="0.5pt" stroke-dasharray="none" points="72.800,168.420 101.733,127.344 130.667,113.652 159.600,152.446 188.533,139.039 217.467,118.501 246.400,135.616 275.333,139.895 304.267,115.649 333.200,68.583 362.133,116.505 391.067,81.989 420.000,92.401 448.933,70.865 477.867,44.479 "/>
<g>
</g>
</g>
<g id="ID000010" clip-path="url(#ID000001)" >
      <polygon fill="#f08080" fill-opacity="0.15" stroke="none" stroke-width="0.5pt" stroke-opacity="1.00" stroke-dasharray="none" points="72.800,198.012 101.733,199.618 130.667,241.866 159.600,243.263 188.533,255.011 217.467,144.786 246.400,193.351 275.333,160.754 304.267,235.994 333.200,212.817 362.133,164.556 391.067,211.486 420.000,176.926 448.933,165.482 477.867,197.941 477.867,172.559 448.933,141.692 420.000,155.635 391.067,191.817 362.133,144.329 333.200,191.342 304.267,209.526 275.333,140.715 246.400,168.021 217.467,125.591 188.533,231.871 159.600,219.372 130.667,217.631 101.733,174.875 72.800,175.055 "/>
</g>
<g id="ID000011" clip-path="url(#ID000001)" >
      <polyline fill="none" stroke="#f8c5c5" stroke-width="0.5pt" stroke-dasharray="none" points="72.800,198.012 101.733,199.618 130.667,241.866 159.600,243.263 188.533,255.011 217.467,144.786 246.400,193.351 275.333,160.754 304.267,235.994 333.200,212.817 362.133,164.556 391.067,211.486 420.000,176.926 448.933,165.482 477.867,197.941 "/>
<g>
</g>
</g>
<g id="ID000012" clip-path="url(#ID000001)" >
      <polyline fill="none" stroke="#f8c5c5" stroke-width="0.5pt" stroke-dasharray="none" points="72.800,175.055 101.733,174.875 130.667,217.631 159.600,219.372 188.533,231.871 217.467,125.591 246.400,168.021 275.333,140.715 304.267,209.526 333.200,191.342 362.133,144.329 391.067,191.817 420.000,155.635 448.933,141.692 477.867,172.559 "/>
<g>
</g>
</g>
<g id="ID000013" clip-path="url(#ID000001)" >
      <polyline fill="none" stroke="#f08080" stroke-width="0.5pt" stroke-dasharray="none" points="72.800,186.533 101.733,187.246 130.667,229.749 159.600,231.318 188.533,243.441 217.467,135.188 246.400,180.686 275.333,150.735 304.267,222.760 333.200,202.079 362.133,154.443 391.067,201.652 420.000,166.281 448.933,153.587 477.867,185.250 "/>
<g>
</g>
</g>
<g id="ID000014" clip-path="url(#ID000001)" >
      <polygon fill="#ff0000" fill-opacity="0.15" stroke="none" stroke-width="0.5pt" stroke-opacity="1.00" stroke-dasharray="none" points="72.800,234.002 101.733,236.084 130.667,200.934 159.600,184.093 188.533,179.319 217.467,280.727 246.400,232.458 275.333,242.549 304.267,179.413 333.200,225.929 362.133,248.296 391.067,218.960 420.000,237.851 448.933,235.923 477.867,214.764 477.867,196.526 448.933,216.729 420.000,217.653 391.067,196.038 362.133,226.890 333.200,204.187 304.267,153.433 275.333,219.801 246.400,207.072 217.467,260.067 188.533,156.095 159.600,161.305 130.667,176.697 101.733,210.007 72.800,209.521 "/>
</g>
<g id="ID000015" clip-path="url(#ID000001)" >
      <polyline fill="none" stroke="#ff8c8c" stroke-width="0.5pt" stroke-dasharray="none" points="72.800,234.002 101.733,236.084 130.667,200.934 159.600,184.093 188.533,179.319 217.467,280.727 246.400,232.458 275.333,242.549 304.267,179.413 333.200,225.929 362.133,248.296 391.067,218.960 420.000,237.851 448.933,235.923 477.867,214.764 "/>
<g>
</g>
</g>
<g id="ID000016" clip-path="url(#ID000001)" >
      <polyline fill="none" stroke="#ff8c8c" stroke-width="0.5pt" stroke-dasharray="none" points="72.800,209.521 101.733,210.007 130.667,176.697 159.600,161.305 188.533,156.095 217.467,260.067 246.400,207.072 275.333,219.801 304.267,153.433 333.200,204.187 362.133,226.890 391.067,196.038 420.000,217.653 448.933,216.729 477.867,196.526 "/>
<g>
</g>
</g>
<g id="ID000017" clip-path="url(#ID000001)" >
      <polyline fill="none" stroke="#ff0000" stroke-width="0.5pt" stroke-dasharray="none" points="72.800,221.762 101.733,223.045 130.667,188.815 159.600,172.699 188.533,167.707 217.467,270.397 246.400,219.765 275.333,231.175 304.267,166.423 333.200,215.058 362.133,237.593 391.067,207.499 420.000,227.752 448.933,226.326 477.867,205.645 "/>
<g>
</g>
</g>
<g id="ID000018" clip-path="url(#ID000001)" >
      <polyline fill="none" stroke="#000000" stroke-width="0.5pt" stroke-dasharray="none" points="72.800,202.650 506.800,202.650 "/>
<g>
</g>
</g>
<g id="ID000019" clip-path="url(#ID000001)" >
      <polyline fill="none" stroke="#000000" stroke-width="2.0pt" stroke-dasharray="none" points="506.800,373.800 506.800,31.500 "/>
<g>
</g>
</g>
<g id="ID000020" >
  <g transform="translate(289.300,21.493)">
    <g transform="rotate(-0.0)">
      <text x="0.000" y="0.000" font-family="Helvetica" text-anchor="middle" font-size="10pt" fill="#000000" >Mean decoding for brt rel tr phi in te phi out</text>
    </g>
  </g>
</g>
<g id="ID000021" >
</g>
<g id="ID000022" >
</g>
<g id="ID000023" >
</g>
<g id="ID000024" >
</g>
    </g>
    <g>
      <polyline fill="none" stroke="#000000" stroke-width="0.5pt" stroke-dasharray="none" points="72.800,373.800 72.800,369.460 "/>
      <polyline fill="none" stroke="#000000" stroke-width="0.5pt" stroke-dasharray="none" points="217.467,373.800 217.467,369.460 "/>
      <polyline fill="none" stroke="#000000" stroke-width="0.5pt" stroke-dasharray="none" points="362.133,373.800 362.133,369.460 "/>
      <polyline fill="none" stroke="#000000" stroke-width="0.5pt" stroke-dasharray="none" points="506.800,373.800 506.800,369.460 "/>
      <polyline fill="none" stroke="#000000" stroke-width="0.5pt" stroke-dasharray="none" points="72.800,373.800 506.800,373.800 "/>
  <g transform="translate(72.800,392.446)">
    <g transform="rotate(-0.0)">
      <text x="0.000" y="0.000" font-family="Helvetica" text-anchor="middle" font-size="10pt" fill="#000000" >-1500</text>
    </g>
  </g>
  <g transform="translate(217.467,392.446)">
    <g transform="rotate(-0.0)">
      <text x="0.000" y="0.000" font-family="Helvetica" text-anchor="middle" font-size="10pt" fill="#000000" >-1000</text>
    </g>
  </g>
  <g transform="translate(362.133,392.446)">
    <g transform="rotate(-0.0)">
      <text x="0.000" y="0.000" font-family="Helvetica" text-anchor="middle" font-size="10pt" fill="#000000" >-500</text>
    </g>
  </g>
  <g transform="translate(506.800,392.446)">
    <g transform="rotate(-0.0)">
      <text x="0.000" y="0.000" font-family="Helvetica" text-anchor="middle" font-size="10pt" fill="#000000" >0</text>
    </g>
  </g>
      <polyline fill="none" stroke="#000000" stroke-width="0.5pt" stroke-dasharray="none" points="72.800,373.800 77.140,373.800 "/>
      <polyline fill="none" stroke="#000000" stroke-width="0.5pt" stroke-dasharray="none" points="72.800,339.570 77.140,339.570 "/>
      <polyline fill="none" stroke="#000000" stroke-width="0.5pt" stroke-dasharray="none" points="72.800,305.340 77.140,305.340 "/>
      <polyline fill="none" stroke="#000000" stroke-width="0.5pt" stroke-dasharray="none" points="72.800,271.110 77.140,271.110 "/>
      <polyline fill="none" stroke="#000000" stroke-width="0.5pt" stroke-dasharray="none" points="72.800,236.880 77.140,236.880 "/>
      <polyline fill="none" stroke="#000000" stroke-width="0.5pt" stroke-dasharray="none" points="72.800,202.650 77.140,202.650 "/>
      <polyline fill="none" stroke="#000000" stroke-width="0.5pt" stroke-dasharray="none" points="72.800,168.420 77.140,168.420 "/>
      <polyline fill="none" stroke="#000000" stroke-width="0.5pt" stroke-dasharray="none" points="72.800,134.190 77.140,134.190 "/>
      <polyline fill="none" stroke="#000000" stroke-width="0.5pt" stroke-dasharray="none" points="72.800,99.960 77.140,99.960 "/>
      <polyline fill="none" stroke="#000000" stroke-width="0.5pt" stroke-dasharray="none" points="72.800,65.730 77.140,65.730 "/>
      <polyline fill="none" stroke="#000000" stroke-width="0.5pt" stroke-dasharray="none" points="72.800,31.500 77.140,31.500 "/>
      <polyline fill="none" stroke="#000000" stroke-width="0.5pt" stroke-dasharray="none" points="72.800,373.800 72.800,31.500 "/>
  <g transform="translate(64.120,378.300)">
    <g transform="rotate(-0.0)">
      <text x="0.000" y="0.000" font-family="Helvetica" text-anchor="end" font-size="10pt" fill="#000000" >0</text>
    </g>
  </g>
  <g transform="translate(64.120,344.070)">
    <g transform="rotate(-0.0)">
      <text x="0.000" y="0.000" font-family="Helvetica" text-anchor="end" font-size="10pt" fill="#000000" >0.1</text>
    </g>
  </g>
  <g transform="translate(64.120,309.840)">
    <g transform="rotate(-0.0)">
      <text x="0.000" y="0.000" font-family="Helvetica" text-anchor="end" font-size="10pt" fill="#000000" >0.2</text>
    </g>
  </g>
  <g transform="translate(64.120,275.610)">
    <g transform="rotate(-0.0)">
      <text x="0.000" y="0.000" font-family="Helvetica" text-anchor="end" font-size="10pt" fill="#000000" >0.3</text>
    </g>
  </g>
  <g transform="translate(64.120,241.380)">
    <g transform="rotate(-0.0)">
      <text x="0.000" y="0.000" font-family="Helvetica" text-anchor="end" font-size="10pt" fill="#000000" >0.4</text>
    </g>
  </g>
  <g transform="translate(64.120,207.150)">
    <g transform="rotate(-0.0)">
      <text x="0.000" y="0.000" font-family="Helvetica" text-anchor="end" font-size="10pt" fill="#000000" >0.5</text>
    </g>
  </g>
  <g transform="translate(64.120,172.920)">
    <g transform="rotate(-0.0)">
      <text x="0.000" y="0.000" font-family="Helvetica" text-anchor="end" font-size="10pt" fill="#000000" >0.6</text>
    </g>
  </g>
  <g transform="translate(64.120,138.690)">
    <g transform="rotate(-0.0)">
      <text x="0.000" y="0.000" font-family="Helvetica" text-anchor="end" font-size="10pt" fill="#000000" >0.7</text>
    </g>
  </g>
  <g transform="translate(64.120,104.460)">
    <g transform="rotate(-0.0)">
      <text x="0.000" y="0.000" font-family="Helvetica" text-anchor="end" font-size="10pt" fill="#000000" >0.8</text>
    </g>
  </g>
  <g transform="translate(64.120,70.230)">
    <g transform="rotate(-0.0)">
      <text x="0.000" y="0.000" font-family="Helvetica" text-anchor="end" font-size="10pt" fill="#000000" >0.9</text>
    </g>
  </g>
  <g transform="translate(64.120,36.000)">
    <g transform="rotate(-0.0)">
      <text x="0.000" y="0.000" font-family="Helvetica" text-anchor="end" font-size="10pt" fill="#000000" >1</text>
    </g>
  </g>
      <polyline fill="none" stroke="#000000" stroke-width="0.5pt" stroke-dasharray="none" points="72.800,373.800 72.800,370.377 "/>
      <polyline fill="none" stroke="#000000" stroke-width="0.5pt" stroke-dasharray="none" points="72.800,373.800 72.800,370.377 "/>
      <polyline fill="none" stroke="#000000" stroke-width="0.5pt" stroke-dasharray="none" points="72.800,373.800 72.800,370.377 "/>
      <polyline fill="none" stroke="#000000" stroke-width="0.5pt" stroke-dasharray="none" points="72.800,373.800 72.800,373.800 "/>
    </g>
  </g>
  <g id ="ID000025">
  <clipPath id="ID000026">
    <rect x="79.250" y="277.875" width="123.500" height="86.875"/>
  </clipPath>
      <polygon fill="#ffffff" fill-opacity="1.00" stroke="none" stroke-width="0.5pt" stroke-opacity="1.00" stroke-dasharray="none" points="79.250,364.750 202.750,364.750 202.750,277.875 79.250,277.875 "/>
      <polygon fill="#ffffff" fill-opacity="1.00" stroke="none" stroke-width="0.5pt" stroke-opacity="1.00" stroke-dasharray="none" points="79.250,277.875 202.750,277.875 202.750,277.875 79.250,277.875 "/>
      <polygon fill="#ffffff" fill-opacity="1.00" stroke="none" stroke-width="0.5pt" stroke-opacity="1.00" stroke-dasharray="none" points="79.250,364.750 79.250,364.750 79.250,277.875 79.250,277.875 "/>
    <g>
<g id="ID000027" >
  <g transform="translate(128.550,295.856)">
    <g transform="rotate(-0.0)">
      <text x="0.000" y="0.000" font-family="Helvetica" text-anchor="start" font-size="10pt" fill="#000000" >LIP class 1</text>
    </g>
  </g>
</g>
<g id="ID000028" clip-path="url(#ID000026)" >
      <polyline fill="none" stroke="#add8e6" stroke-width="0.5pt" stroke-dasharray="none" points="86.750,290.375 124.250,290.375 "/>
<g>
</g>
</g>
<g id="ID000029" clip-path="url(#ID000026)" >
<g>
</g>
</g>
<g id="ID000030" >
  <g transform="translate(128.550,316.825)">
    <g transform="rotate(-0.0)">
      <text x="0.000" y="0.000" font-family="Helvetica" text-anchor="start" font-size="10pt" fill="#000000" >LIP class 2</text>
    </g>
  </g>
</g>
<g id="ID000031" clip-path="url(#ID000026)" >
      <polyline fill="none" stroke="#000080" stroke-width="0.5pt" stroke-dasharray="none" points="86.750,311.000 124.250,311.000 "/>
<g>
</g>
</g>
<g id="ID000032" clip-path="url(#ID000026)" >
<g>
</g>
</g>
<g id="ID000033" >
  <g transform="translate(128.550,336.797)">
    <g transform="rotate(-0.0)">
      <text x="0.000" y="0.000" font-family="Helvetica" text-anchor="start" font-size="10pt" fill="#000000" >PITd class 1</text>
    </g>
  </g>
</g>
<g id="ID000034" clip-path="url(#ID000026)" >
      <polyline fill="none" stroke="#f08080" stroke-width="0.5pt" stroke-dasharray="none" points="86.750,331.625 124.250,331.625 "/>
<g>
</g>
</g>
<g id="ID000035" clip-path="url(#ID000026)" >
<g>
</g>
</g>
<g id="ID000036" >
  <g transform="translate(128.550,357.767)">
    <g transform="rotate(-0.0)">
      <text x="0.000" y="0.000" font-family="Helvetica" text-anchor="start" font-size="10pt" fill="#000000" >PITd class 2</text>
    </g>
  </g>
</g>
<g id="ID000037" clip-path="url(#ID000026)" >
      <polyline fill="none" stroke="#ff0000" stroke-width="0.5pt" stroke-dasharray="none" points="86.750,352.250 124.250,352.250 "/>
<g>
</g>
</g>
<g id="ID000038" clip-path="url(#ID000026)" >
<g>
</g>
</g>
<g id="ID000039" >
</g>
<g id="ID000040" >
</g>
<g id="ID000041" >
</g>
    </g>
    <g>
      <polyline fill="none" stroke="#000000" stroke-width="0.5pt" stroke-dasharray="none" points="79.250,364.750 202.750,364.750 "/>
      <polyline fill="none" stroke="#000000" stroke-width="0.5pt" stroke-dasharray="none" points="79.250,277.875 202.750,277.875 "/>
      <polyline fill="none" stroke="#000000" stroke-width="0.5pt" stroke-dasharray="none" points="79.250,364.750 79.250,277.875 "/>
      <polyline fill="none" stroke="#000000" stroke-width="0.5pt" stroke-dasharray="none" points="202.750,364.750 202.750,277.875 "/>
      <polyline fill="none" stroke="#000000" stroke-width="0.5pt" stroke-dasharray="none" points="79.250,364.750 79.250,363.881 "/>
      <polyline fill="none" stroke="#000000" stroke-width="0.5pt" stroke-dasharray="none" points="79.250,364.750 79.250,364.750 "/>
    </g>
  </g>
  </g>
</svg>
