<?xml version="1.0" encoding="utf-8" standalone="no"?><!DOCTYPE svg PUBLIC "-//W3C//DTD SVG 1.1//EN" "http://www.w3.org/Graphics/SVG/1.1/DTD/svg11.dtd">
<svg preserveAspectRatio="xMinYMin meet" width="100%" height="100%" viewBox="0 0 560.000 420.000"  version="1.1" xmlns="http://www.w3.org/2000/svg" xmlns:xlink="http://www.w3.org/1999/xlink">
  <desc>Matlab Figure Converted by PLOT2SVG written by Juerg Schwizer</desc>
  <g id="topgroup">
  <rect x="0" y="0" width="560.000" height="420.000" fill="#ffffff" stroke="none" />
  <g id ="ID000000">
  <clipPath id="ID000001">
    <rect x="72.800" y="31.500" width="434.000" height="342.300"/>
  </clipPath>
      <polygon fill="#ffffff" fill-opacity="1.00" stroke="none" stroke-width="0.5pt" stroke-opacity="1.00" stroke-dasharray="none" points="72.800,373.800 506.800,373.800 506.800,31.500 72.800,31.500 "/>
      <polygon fill="#ffffff" fill-opacity="1.00" stroke="none" stroke-width="0.5pt" stroke-opacity="1.00" stroke-dasharray="none" points="72.800,31.500 506.800,31.500 506.800,31.500 72.800,31.500 "/>
      <polygon fill="#ffffff" fill-opacity="1.00" stroke="none" stroke-width="0.5pt" stroke-opacity="1.00" stroke-dasharray="none" points="72.800,373.800 72.800,373.800 72.800,31.500 72.800,31.500 "/>
    <g>
<g id="ID000002" clip-path="url(#ID000001)" >
      <polygon fill="#ffd8d8" fill-opacity="1.00" stroke="none" stroke-width="0.5pt" stroke-opacity="1.00" stroke-dasharray="none" points="94.500,197.817 116.200,173.304 137.900,208.514 159.600,187.862 181.300,187.373 203.000,221.573 224.700,203.805 246.400,212.782 268.100,198.104 289.800,202.078 311.500,205.880 333.200,220.055 354.900,211.223 376.600,189.962 398.300,211.782 420.000,189.566 441.700,206.664 463.400,218.636 485.100,228.491 506.800,196.067 506.800,184.968 485.100,215.737 463.400,206.488 441.700,195.427 420.000,177.308 398.300,199.783 376.600,177.453 354.900,200.106 333.200,208.721 311.500,193.938 289.800,189.967 268.100,186.847 246.400,200.879 224.700,192.687 203.000,209.351 181.300,175.939 159.600,175.245 137.900,196.969 116.200,161.856 94.500,186.017 "/>
</g>
<g id="ID000003" clip-path="url(#ID000001)" >
      <polyline fill="none" stroke="#ff8c8c" stroke-width="0.5pt" stroke-dasharray="none" points="94.500,197.817 116.200,173.304 137.900,208.514 159.600,187.862 181.300,187.373 203.000,221.573 224.700,203.805 246.400,212.782 268.100,198.104 289.800,202.078 311.500,205.880 333.200,220.055 354.900,211.223 376.600,189.962 398.300,211.782 420.000,189.566 441.700,206.664 463.400,218.636 485.100,228.491 506.800,196.067 "/>
<g>
</g>
</g>
<g id="ID000004" clip-path="url(#ID000001)" >
      <polyline fill="none" stroke="#ff8c8c" stroke-width="0.5pt" stroke-dasharray="none" points="94.500,186.017 116.200,161.856 137.900,196.969 159.600,175.245 181.300,175.939 203.000,209.351 224.700,192.687 246.400,200.879 268.100,186.847 289.800,189.967 311.500,193.938 333.200,208.721 354.900,200.106 376.600,177.453 398.300,199.783 420.000,177.308 441.700,195.427 463.400,206.488 485.100,215.737 506.800,184.968 "/>
<g>
</g>
</g>
<g id="ID000005" clip-path="url(#ID000001)" >
      <polyline fill="none" stroke="#ff0000" stroke-width="0.5pt" stroke-dasharray="none" points="94.500,191.917 116.200,167.580 137.900,202.741 159.600,181.553 181.300,181.656 203.000,215.462 224.700,198.246 246.400,206.830 268.100,192.475 289.800,196.022 311.500,199.909 333.200,214.388 354.900,205.664 376.600,183.707 398.300,205.782 420.000,183.437 441.700,201.045 463.400,212.562 485.100,222.114 506.800,190.518 "/>
<g>
</g>
</g>
<g id="ID000006" clip-path="url(#ID000001)" >
      <polygon fill="#d8ffff" fill-opacity="1.00" stroke="none" stroke-width="0.5pt" stroke-opacity="1.00" stroke-dasharray="none" points="94.500,219.283 116.200,243.444 137.900,208.331 159.600,230.055 181.300,229.361 203.000,195.949 224.700,212.613 246.400,204.421 268.100,218.453 289.800,215.333 311.500,211.362 333.200,196.579 354.900,205.194 376.600,227.847 398.300,205.517 420.000,227.992 441.700,209.873 463.400,198.812 485.100,189.563 506.800,220.332 506.800,209.233 485.100,176.809 463.400,186.664 441.700,198.636 420.000,215.734 398.300,193.518 376.600,215.338 354.900,194.077 333.200,185.245 311.500,199.420 289.800,203.222 268.100,207.196 246.400,192.518 224.700,201.495 203.000,183.727 181.300,217.927 159.600,217.438 137.900,196.786 116.200,231.996 94.500,207.483 "/>
</g>
<g id="ID000007" clip-path="url(#ID000001)" >
      <polyline fill="none" stroke="#8cffff" stroke-width="0.5pt" stroke-dasharray="none" points="94.500,219.283 116.200,243.444 137.900,208.331 159.600,230.055 181.300,229.361 203.000,195.949 224.700,212.613 246.400,204.421 268.100,218.453 289.800,215.333 311.500,211.362 333.200,196.579 354.900,205.194 376.600,227.847 398.300,205.517 420.000,227.992 441.700,209.873 463.400,198.812 485.100,189.563 506.800,220.332 "/>
<g>
</g>
</g>
<g id="ID000008" clip-path="url(#ID000001)" >
      <polyline fill="none" stroke="#8cffff" stroke-width="0.5pt" stroke-dasharray="none" points="94.500,207.483 116.200,231.996 137.900,196.786 159.600,217.438 181.300,217.927 203.000,183.727 224.700,201.495 246.400,192.518 268.100,207.196 289.800,203.222 311.500,199.420 333.200,185.245 354.900,194.077 376.600,215.338 398.300,193.518 420.000,215.734 441.700,198.636 463.400,186.664 485.100,176.809 506.800,209.233 "/>
<g>
</g>
</g>
<g id="ID000009" clip-path="url(#ID000001)" >
      <polyline fill="none" stroke="#00ffff" stroke-width="0.5pt" stroke-dasharray="none" points="94.500,213.383 116.200,237.720 137.900,202.559 159.600,223.747 181.300,223.644 203.000,189.838 224.700,207.054 246.400,198.470 268.100,212.825 289.800,209.278 311.500,205.391 333.200,190.912 354.900,199.636 376.600,221.593 398.300,199.518 420.000,221.863 441.700,204.255 463.400,192.738 485.100,183.186 506.800,214.782 "/>
<g>
</g>
</g>
<g id="ID000010" clip-path="url(#ID000001)" >
      <polyline fill="none" stroke="#000000" stroke-width="0.5pt" stroke-dasharray="none" points="72.800,202.650 506.800,202.650 "/>
<g>
</g>
</g>
<g id="ID000011" clip-path="url(#ID000001)" >
      <polyline fill="none" stroke="#000000" stroke-width="2.0pt" stroke-dasharray="none" points="203.000,373.800 203.000,31.500 "/>
<g>
</g>
</g>
<g id="ID000012" >
  <g transform="translate(289.300,21.493)">
    <g transform="rotate(-0.0)">
      <text x="0.000" y="0.000" font-family="Helvetica" text-anchor="middle" font-size="10pt" fill="#000000" >Decode brt abs tr phi out te phi out  class 2 guessed</text>
    </g>
  </g>
</g>
<g id="ID000013" >
</g>
<g id="ID000014" >
</g>
<g id="ID000015" >
</g>
<g id="ID000016" >
</g>
    </g>
    <g>
      <polyline fill="none" stroke="#000000" stroke-width="0.5pt" stroke-dasharray="none" points="72.800,373.800 72.800,369.460 "/>
      <polyline fill="none" stroke="#000000" stroke-width="0.5pt" stroke-dasharray="none" points="116.200,373.800 116.200,369.460 "/>
      <polyline fill="none" stroke="#000000" stroke-width="0.5pt" stroke-dasharray="none" points="159.600,373.800 159.600,369.460 "/>
      <polyline fill="none" stroke="#000000" stroke-width="0.5pt" stroke-dasharray="none" points="203.000,373.800 203.000,369.460 "/>
      <polyline fill="none" stroke="#000000" stroke-width="0.5pt" stroke-dasharray="none" points="246.400,373.800 246.400,369.460 "/>
      <polyline fill="none" stroke="#000000" stroke-width="0.5pt" stroke-dasharray="none" points="289.800,373.800 289.800,369.460 "/>
      <polyline fill="none" stroke="#000000" stroke-width="0.5pt" stroke-dasharray="none" points="333.200,373.800 333.200,369.460 "/>
      <polyline fill="none" stroke="#000000" stroke-width="0.5pt" stroke-dasharray="none" points="376.600,373.800 376.600,369.460 "/>
      <polyline fill="none" stroke="#000000" stroke-width="0.5pt" stroke-dasharray="none" points="420.000,373.800 420.000,369.460 "/>
      <polyline fill="none" stroke="#000000" stroke-width="0.5pt" stroke-dasharray="none" points="463.400,373.800 463.400,369.460 "/>
      <polyline fill="none" stroke="#000000" stroke-width="0.5pt" stroke-dasharray="none" points="506.800,373.800 506.800,369.460 "/>
      <polyline fill="none" stroke="#000000" stroke-width="0.5pt" stroke-dasharray="none" points="72.800,373.800 506.800,373.800 "/>
  <g transform="translate(72.800,392.446)">
    <g transform="rotate(-0.0)">
      <text x="0.000" y="0.000" font-family="Helvetica" text-anchor="middle" font-size="10pt" fill="#000000" >-600</text>
    </g>
  </g>
  <g transform="translate(116.200,392.446)">
    <g transform="rotate(-0.0)">
      <text x="0.000" y="0.000" font-family="Helvetica" text-anchor="middle" font-size="10pt" fill="#000000" >-400</text>
    </g>
  </g>
  <g transform="translate(159.600,392.446)">
    <g transform="rotate(-0.0)">
      <text x="0.000" y="0.000" font-family="Helvetica" text-anchor="middle" font-size="10pt" fill="#000000" >-200</text>
    </g>
  </g>
  <g transform="translate(203.000,392.446)">
    <g transform="rotate(-0.0)">
      <text x="0.000" y="0.000" font-family="Helvetica" text-anchor="middle" font-size="10pt" fill="#000000" >0</text>
    </g>
  </g>
  <g transform="translate(246.400,392.446)">
    <g transform="rotate(-0.0)">
      <text x="0.000" y="0.000" font-family="Helvetica" text-anchor="middle" font-size="10pt" fill="#000000" >200</text>
    </g>
  </g>
  <g transform="translate(289.800,392.446)">
    <g transform="rotate(-0.0)">
      <text x="0.000" y="0.000" font-family="Helvetica" text-anchor="middle" font-size="10pt" fill="#000000" >400</text>
    </g>
  </g>
  <g transform="translate(333.200,392.446)">
    <g transform="rotate(-0.0)">
      <text x="0.000" y="0.000" font-family="Helvetica" text-anchor="middle" font-size="10pt" fill="#000000" >600</text>
    </g>
  </g>
  <g transform="translate(376.600,392.446)">
    <g transform="rotate(-0.0)">
      <text x="0.000" y="0.000" font-family="Helvetica" text-anchor="middle" font-size="10pt" fill="#000000" >800</text>
    </g>
  </g>
  <g transform="translate(420.000,392.446)">
    <g transform="rotate(-0.0)">
      <text x="0.000" y="0.000" font-family="Helvetica" text-anchor="middle" font-size="10pt" fill="#000000" >1000</text>
    </g>
  </g>
  <g transform="translate(463.400,392.446)">
    <g transform="rotate(-0.0)">
      <text x="0.000" y="0.000" font-family="Helvetica" text-anchor="middle" font-size="10pt" fill="#000000" >1200</text>
    </g>
  </g>
  <g transform="translate(506.800,392.446)">
    <g transform="rotate(-0.0)">
      <text x="0.000" y="0.000" font-family="Helvetica" text-anchor="middle" font-size="10pt" fill="#000000" >1400</text>
    </g>
  </g>
      <polyline fill="none" stroke="#000000" stroke-width="0.5pt" stroke-dasharray="none" points="72.800,373.800 77.140,373.800 "/>
      <polyline fill="none" stroke="#000000" stroke-width="0.5pt" stroke-dasharray="none" points="72.800,339.570 77.140,339.570 "/>
      <polyline fill="none" stroke="#000000" stroke-width="0.5pt" stroke-dasharray="none" points="72.800,305.340 77.140,305.340 "/>
      <polyline fill="none" stroke="#000000" stroke-width="0.5pt" stroke-dasharray="none" points="72.800,271.110 77.140,271.110 "/>
      <polyline fill="none" stroke="#000000" stroke-width="0.5pt" stroke-dasharray="none" points="72.800,236.880 77.140,236.880 "/>
      <polyline fill="none" stroke="#000000" stroke-width="0.5pt" stroke-dasharray="none" points="72.800,202.650 77.140,202.650 "/>
      <polyline fill="none" stroke="#000000" stroke-width="0.5pt" stroke-dasharray="none" points="72.800,168.420 77.140,168.420 "/>
      <polyline fill="none" stroke="#000000" stroke-width="0.5pt" stroke-dasharray="none" points="72.800,134.190 77.140,134.190 "/>
      <polyline fill="none" stroke="#000000" stroke-width="0.5pt" stroke-dasharray="none" points="72.800,99.960 77.140,99.960 "/>
      <polyline fill="none" stroke="#000000" stroke-width="0.5pt" stroke-dasharray="none" points="72.800,65.730 77.140,65.730 "/>
      <polyline fill="none" stroke="#000000" stroke-width="0.5pt" stroke-dasharray="none" points="72.800,31.500 77.140,31.500 "/>
      <polyline fill="none" stroke="#000000" stroke-width="0.5pt" stroke-dasharray="none" points="72.800,373.800 72.800,31.500 "/>
  <g transform="translate(64.120,378.300)">
    <g transform="rotate(-0.0)">
      <text x="0.000" y="0.000" font-family="Helvetica" text-anchor="end" font-size="10pt" fill="#000000" >0</text>
    </g>
  </g>
  <g transform="translate(64.120,344.070)">
    <g transform="rotate(-0.0)">
      <text x="0.000" y="0.000" font-family="Helvetica" text-anchor="end" font-size="10pt" fill="#000000" >0.1</text>
    </g>
  </g>
  <g transform="translate(64.120,309.840)">
    <g transform="rotate(-0.0)">
      <text x="0.000" y="0.000" font-family="Helvetica" text-anchor="end" font-size="10pt" fill="#000000" >0.2</text>
    </g>
  </g>
  <g transform="translate(64.120,275.610)">
    <g transform="rotate(-0.0)">
      <text x="0.000" y="0.000" font-family="Helvetica" text-anchor="end" font-size="10pt" fill="#000000" >0.3</text>
    </g>
  </g>
  <g transform="translate(64.120,241.380)">
    <g transform="rotate(-0.0)">
      <text x="0.000" y="0.000" font-family="Helvetica" text-anchor="end" font-size="10pt" fill="#000000" >0.4</text>
    </g>
  </g>
  <g transform="translate(64.120,207.150)">
    <g transform="rotate(-0.0)">
      <text x="0.000" y="0.000" font-family="Helvetica" text-anchor="end" font-size="10pt" fill="#000000" >0.5</text>
    </g>
  </g>
  <g transform="translate(64.120,172.920)">
    <g transform="rotate(-0.0)">
      <text x="0.000" y="0.000" font-family="Helvetica" text-anchor="end" font-size="10pt" fill="#000000" >0.6</text>
    </g>
  </g>
  <g transform="translate(64.120,138.690)">
    <g transform="rotate(-0.0)">
      <text x="0.000" y="0.000" font-family="Helvetica" text-anchor="end" font-size="10pt" fill="#000000" >0.7</text>
    </g>
  </g>
  <g transform="translate(64.120,104.460)">
    <g transform="rotate(-0.0)">
      <text x="0.000" y="0.000" font-family="Helvetica" text-anchor="end" font-size="10pt" fill="#000000" >0.8</text>
    </g>
  </g>
  <g transform="translate(64.120,70.230)">
    <g transform="rotate(-0.0)">
      <text x="0.000" y="0.000" font-family="Helvetica" text-anchor="end" font-size="10pt" fill="#000000" >0.9</text>
    </g>
  </g>
  <g transform="translate(64.120,36.000)">
    <g transform="rotate(-0.0)">
      <text x="0.000" y="0.000" font-family="Helvetica" text-anchor="end" font-size="10pt" fill="#000000" >1</text>
    </g>
  </g>
      <polyline fill="none" stroke="#000000" stroke-width="0.5pt" stroke-dasharray="none" points="72.800,373.800 72.800,370.377 "/>
      <polyline fill="none" stroke="#000000" stroke-width="0.5pt" stroke-dasharray="none" points="72.800,373.800 72.800,370.377 "/>
      <polyline fill="none" stroke="#000000" stroke-width="0.5pt" stroke-dasharray="none" points="72.800,373.800 72.800,370.377 "/>
      <polyline fill="none" stroke="#000000" stroke-width="0.5pt" stroke-dasharray="none" points="72.800,373.800 72.800,373.800 "/>
    </g>
  </g>
  <g id ="ID000017">
  <clipPath id="ID000018">
    <rect x="79.250" y="319.125" width="242.500" height="45.625"/>
  </clipPath>
      <polygon fill="#ffffff" fill-opacity="1.00" stroke="none" stroke-width="0.5pt" stroke-opacity="1.00" stroke-dasharray="none" points="79.250,364.750 321.750,364.750 321.750,319.125 79.250,319.125 "/>
      <polygon fill="#ffffff" fill-opacity="1.00" stroke="none" stroke-width="0.5pt" stroke-opacity="1.00" stroke-dasharray="none" points="79.250,319.125 321.750,319.125 321.750,319.125 79.250,319.125 "/>
      <polygon fill="#ffffff" fill-opacity="1.00" stroke="none" stroke-width="0.5pt" stroke-opacity="1.00" stroke-dasharray="none" points="79.250,364.750 79.250,364.750 79.250,319.125 79.250,319.125 "/>
    <g>
<g id="ID000019" >
  <g transform="translate(128.648,337.015)">
    <g transform="rotate(-0.0)">
      <text x="0.000" y="0.000" font-family="Helvetica" text-anchor="start" font-size="10pt" fill="#000000" >s = 270, t = 0 &amp; s = 90, t = 0</text>
    </g>
  </g>
</g>
<g id="ID000020" clip-path="url(#ID000018)" >
      <polyline fill="none" stroke="#ff0000" stroke-width="0.5pt" stroke-dasharray="none" points="86.750,331.625 124.250,331.625 "/>
<g>
</g>
</g>
<g id="ID000021" clip-path="url(#ID000018)" >
<g>
</g>
</g>
<g id="ID000022" >
  <g transform="translate(128.648,357.844)">
    <g transform="rotate(-0.0)">
      <text x="0.000" y="0.000" font-family="Helvetica" text-anchor="start" font-size="10pt" fill="#000000" >s = 270, t = 180 &amp; s = 90, t = 180</text>
    </g>
  </g>
</g>
<g id="ID000023" clip-path="url(#ID000018)" >
      <polyline fill="none" stroke="#00ffff" stroke-width="0.5pt" stroke-dasharray="none" points="86.750,352.250 124.250,352.250 "/>
<g>
</g>
</g>
<g id="ID000024" clip-path="url(#ID000018)" >
<g>
</g>
</g>
<g id="ID000025" >
</g>
<g id="ID000026" >
</g>
<g id="ID000027" >
</g>
    </g>
    <g>
      <polyline fill="none" stroke="#000000" stroke-width="0.5pt" stroke-dasharray="none" points="79.250,364.750 321.750,364.750 "/>
      <polyline fill="none" stroke="#000000" stroke-width="0.5pt" stroke-dasharray="none" points="79.250,319.125 321.750,319.125 "/>
      <polyline fill="none" stroke="#000000" stroke-width="0.5pt" stroke-dasharray="none" points="79.250,364.750 79.250,319.125 "/>
      <polyline fill="none" stroke="#000000" stroke-width="0.5pt" stroke-dasharray="none" points="321.750,364.750 321.750,319.125 "/>
      <polyline fill="none" stroke="#000000" stroke-width="0.5pt" stroke-dasharray="none" points="79.250,364.750 79.250,364.294 "/>
      <polyline fill="none" stroke="#000000" stroke-width="0.5pt" stroke-dasharray="none" points="79.250,364.750 79.250,364.750 "/>
    </g>
  </g>
  </g>
</svg>
