<?xml version="1.0" encoding="utf-8" standalone="no"?><!DOCTYPE svg PUBLIC "-//W3C//DTD SVG 1.1//EN" "http://www.w3.org/Graphics/SVG/1.1/DTD/svg11.dtd">
<svg preserveAspectRatio="xMinYMin meet" width="100%" height="100%" viewBox="0 0 560.000 420.000"  version="1.1" xmlns="http://www.w3.org/2000/svg" xmlns:xlink="http://www.w3.org/1999/xlink">
  <desc>Matlab Figure Converted by PLOT2SVG written by Juerg Schwizer</desc>
  <g id="topgroup">
  <rect x="0" y="0" width="560.000" height="420.000" fill="#ffffff" stroke="none" />
  <g id ="ID000000">
  <clipPath id="ID000001">
    <rect x="72.800" y="31.500" width="434.000" height="342.300"/>
  </clipPath>
      <polygon fill="#ffffff" fill-opacity="1.00" stroke="none" stroke-width="0.5pt" stroke-opacity="1.00" stroke-dasharray="none" points="72.800,373.800 506.800,373.800 506.800,31.500 72.800,31.500 "/>
      <polygon fill="#ffffff" fill-opacity="1.00" stroke="none" stroke-width="0.5pt" stroke-opacity="1.00" stroke-dasharray="none" points="72.800,31.500 506.800,31.500 506.800,31.500 72.800,31.500 "/>
      <polygon fill="#ffffff" fill-opacity="1.00" stroke="none" stroke-width="0.5pt" stroke-opacity="1.00" stroke-dasharray="none" points="72.800,373.800 72.800,373.800 72.800,31.500 72.800,31.500 "/>
    <g>
<g id="ID000002" clip-path="url(#ID000001)" >
      <polygon fill="#add8e6" fill-opacity="0.15" stroke="none" stroke-width="0.5pt" stroke-opacity="1.00" stroke-dasharray="none" points="72.800,199.224 101.733,183.869 130.667,172.743 159.600,220.052 188.533,195.975 217.467,193.613 246.400,188.287 275.333,202.429 304.267,191.117 333.200,208.370 362.133,192.239 391.067,208.507 420.000,176.790 448.933,125.253 477.867,129.801 477.867,108.514 448.933,103.393 420.000,155.706 391.067,187.379 362.133,164.497 333.200,182.825 304.267,165.532 275.333,175.896 246.400,160.080 217.467,167.026 188.533,167.126 159.600,199.853 130.667,149.663 101.733,164.209 72.800,170.688 "/>
</g>
<g id="ID000003" clip-path="url(#ID000001)" >
      <polyline fill="none" stroke="#daedf3" stroke-width="0.5pt" stroke-dasharray="none" points="72.800,199.224 101.733,183.869 130.667,172.743 159.600,220.052 188.533,195.975 217.467,193.613 246.400,188.287 275.333,202.429 304.267,191.117 333.200,208.370 362.133,192.239 391.067,208.507 420.000,176.790 448.933,125.253 477.867,129.801 "/>
<g>
</g>
</g>
<g id="ID000004" clip-path="url(#ID000001)" >
      <polyline fill="none" stroke="#daedf3" stroke-width="0.5pt" stroke-dasharray="none" points="72.800,170.688 101.733,164.209 130.667,149.663 159.600,199.853 188.533,167.126 217.467,167.026 246.400,160.080 275.333,175.896 304.267,165.532 333.200,182.825 362.133,164.497 391.067,187.379 420.000,155.706 448.933,103.393 477.867,108.514 "/>
<g>
</g>
</g>
<g id="ID000005" clip-path="url(#ID000001)" >
      <polyline fill="none" stroke="#add8e6" stroke-width="0.5pt" stroke-dasharray="none" points="72.800,184.956 101.733,174.039 130.667,161.203 159.600,209.952 188.533,181.551 217.467,180.320 246.400,174.183 275.333,189.163 304.267,178.324 333.200,195.598 362.133,178.368 391.067,197.943 420.000,166.248 448.933,114.323 477.867,119.157 "/>
<g>
</g>
</g>
<g id="ID000006" clip-path="url(#ID000001)" >
      <polygon fill="#000080" fill-opacity="0.15" stroke="none" stroke-width="0.5pt" stroke-opacity="1.00" stroke-dasharray="none" points="72.800,202.284 101.733,182.025 130.667,159.155 159.600,217.485 188.533,201.026 217.467,203.280 246.400,195.521 275.333,212.483 304.267,187.827 333.200,211.969 362.133,192.898 391.067,211.183 420.000,176.168 448.933,121.236 477.867,120.632 477.867,96.375 448.933,96.234 420.000,146.945 391.067,181.686 362.133,165.667 333.200,187.139 304.267,162.813 275.333,185.857 246.400,173.313 217.467,177.365 188.533,178.128 159.600,185.933 130.667,135.014 101.733,150.095 72.800,177.095 "/>
</g>
<g id="ID000007" clip-path="url(#ID000001)" >
      <polyline fill="none" stroke="#8c8cc5" stroke-width="0.5pt" stroke-dasharray="none" points="72.800,202.284 101.733,182.025 130.667,159.155 159.600,217.485 188.533,201.026 217.467,203.280 246.400,195.521 275.333,212.483 304.267,187.827 333.200,211.969 362.133,192.898 391.067,211.183 420.000,176.168 448.933,121.236 477.867,120.632 "/>
<g>
</g>
</g>
<g id="ID000008" clip-path="url(#ID000001)" >
      <polyline fill="none" stroke="#8c8cc5" stroke-width="0.5pt" stroke-dasharray="none" points="72.800,177.095 101.733,150.095 130.667,135.014 159.600,185.933 188.533,178.128 217.467,177.365 246.400,173.313 275.333,185.857 304.267,162.813 333.200,187.139 362.133,165.667 391.067,181.686 420.000,146.945 448.933,96.234 477.867,96.375 "/>
<g>
</g>
</g>
<g id="ID000009" clip-path="url(#ID000001)" >
      <polyline fill="none" stroke="#000080" stroke-width="0.5pt" stroke-dasharray="none" points="72.800,189.689 101.733,166.060 130.667,147.084 159.600,201.709 188.533,189.577 217.467,190.323 246.400,184.417 275.333,199.170 304.267,175.320 333.200,199.554 362.133,179.283 391.067,196.435 420.000,161.557 448.933,108.735 477.867,108.503 "/>
<g>
</g>
</g>
<g id="ID000010" clip-path="url(#ID000001)" >
      <polygon fill="#f08080" fill-opacity="0.15" stroke="none" stroke-width="0.5pt" stroke-opacity="1.00" stroke-dasharray="none" points="72.800,180.486 101.733,181.644 130.667,154.709 159.600,140.961 188.533,124.592 217.467,158.117 246.400,142.573 275.333,165.196 304.267,141.166 333.200,146.362 362.133,135.458 391.067,149.664 420.000,153.288 448.933,128.185 477.867,115.222 477.867,95.820 448.933,106.650 420.000,132.236 391.067,128.928 362.133,116.491 333.200,122.661 304.267,121.595 275.333,147.219 246.400,122.062 217.467,138.389 188.533,104.994 159.600,119.793 130.667,134.083 101.733,161.813 72.800,159.005 "/>
</g>
<g id="ID000011" clip-path="url(#ID000001)" >
      <polyline fill="none" stroke="#f8c5c5" stroke-width="0.5pt" stroke-dasharray="none" points="72.800,180.486 101.733,181.644 130.667,154.709 159.600,140.961 188.533,124.592 217.467,158.117 246.400,142.573 275.333,165.196 304.267,141.166 333.200,146.362 362.133,135.458 391.067,149.664 420.000,153.288 448.933,128.185 477.867,115.222 "/>
<g>
</g>
</g>
<g id="ID000012" clip-path="url(#ID000001)" >
      <polyline fill="none" stroke="#f8c5c5" stroke-width="0.5pt" stroke-dasharray="none" points="72.800,159.005 101.733,161.813 130.667,134.083 159.600,119.793 188.533,104.994 217.467,138.389 246.400,122.062 275.333,147.219 304.267,121.595 333.200,122.661 362.133,116.491 391.067,128.928 420.000,132.236 448.933,106.650 477.867,95.820 "/>
<g>
</g>
</g>
<g id="ID000013" clip-path="url(#ID000001)" >
      <polyline fill="none" stroke="#f08080" stroke-width="0.5pt" stroke-dasharray="none" points="72.800,169.745 101.733,171.729 130.667,144.396 159.600,130.377 188.533,114.793 217.467,148.253 246.400,132.317 275.333,156.207 304.267,131.381 333.200,134.512 362.133,125.975 391.067,139.296 420.000,142.762 448.933,117.417 477.867,105.521 "/>
<g>
</g>
</g>
<g id="ID000014" clip-path="url(#ID000001)" >
      <polygon fill="#ff0000" fill-opacity="0.15" stroke="none" stroke-width="0.5pt" stroke-opacity="1.00" stroke-dasharray="none" points="72.800,171.631 101.733,179.157 130.667,138.847 159.600,118.394 188.533,114.810 217.467,142.012 246.400,128.663 275.333,136.740 304.267,122.618 333.200,144.628 362.133,113.007 391.067,125.765 420.000,139.386 448.933,122.033 477.867,113.229 477.867,92.280 448.933,98.938 420.000,112.176 391.067,102.151 362.133,89.975 333.200,121.075 304.267,98.005 275.333,106.562 246.400,105.200 217.467,114.483 188.533,93.508 159.600,92.936 130.667,111.905 101.733,148.204 72.800,143.289 "/>
</g>
<g id="ID000015" clip-path="url(#ID000001)" >
      <polyline fill="none" stroke="#ff8c8c" stroke-width="0.5pt" stroke-dasharray="none" points="72.800,171.631 101.733,179.157 130.667,138.847 159.600,118.394 188.533,114.810 217.467,142.012 246.400,128.663 275.333,136.740 304.267,122.618 333.200,144.628 362.133,113.007 391.067,125.765 420.000,139.386 448.933,122.033 477.867,113.229 "/>
<g>
</g>
</g>
<g id="ID000016" clip-path="url(#ID000001)" >
      <polyline fill="none" stroke="#ff8c8c" stroke-width="0.5pt" stroke-dasharray="none" points="72.800,143.289 101.733,148.204 130.667,111.905 159.600,92.936 188.533,93.508 217.467,114.483 246.400,105.200 275.333,106.562 304.267,98.005 333.200,121.075 362.133,89.975 391.067,102.151 420.000,112.176 448.933,98.938 477.867,92.280 "/>
<g>
</g>
</g>
<g id="ID000017" clip-path="url(#ID000001)" >
      <polyline fill="none" stroke="#ff0000" stroke-width="0.5pt" stroke-dasharray="none" points="72.800,157.460 101.733,163.681 130.667,125.376 159.600,105.665 188.533,104.159 217.467,128.247 246.400,116.932 275.333,121.651 304.267,110.311 333.200,132.851 362.133,101.491 391.067,113.958 420.000,125.781 448.933,110.486 477.867,102.755 "/>
<g>
</g>
</g>
<g id="ID000018" clip-path="url(#ID000001)" >
      <polyline fill="none" stroke="#000000" stroke-width="0.5pt" stroke-dasharray="none" points="72.800,202.650 506.800,202.650 "/>
<g>
</g>
</g>
<g id="ID000019" clip-path="url(#ID000001)" >
      <polyline fill="none" stroke="#000000" stroke-width="2.0pt" stroke-dasharray="none" points="506.800,373.800 506.800,31.500 "/>
<g>
</g>
</g>
<g id="ID000020" >
  <g transform="translate(289.300,21.493)">
    <g transform="rotate(-0.0)">
      <text x="0.000" y="0.000" font-family="Helvetica" text-anchor="middle" font-size="10pt" fill="#000000" >Mean decoding for phi rel tr brt 180 te brt 180</text>
    </g>
  </g>
</g>
<g id="ID000021" >
</g>
<g id="ID000022" >
</g>
<g id="ID000023" >
</g>
<g id="ID000024" >
</g>
    </g>
    <g>
      <polyline fill="none" stroke="#000000" stroke-width="0.5pt" stroke-dasharray="none" points="72.800,373.800 72.800,369.460 "/>
      <polyline fill="none" stroke="#000000" stroke-width="0.5pt" stroke-dasharray="none" points="217.467,373.800 217.467,369.460 "/>
      <polyline fill="none" stroke="#000000" stroke-width="0.5pt" stroke-dasharray="none" points="362.133,373.800 362.133,369.460 "/>
      <polyline fill="none" stroke="#000000" stroke-width="0.5pt" stroke-dasharray="none" points="506.800,373.800 506.800,369.460 "/>
      <polyline fill="none" stroke="#000000" stroke-width="0.5pt" stroke-dasharray="none" points="72.800,373.800 506.800,373.800 "/>
  <g transform="translate(72.800,392.446)">
    <g transform="rotate(-0.0)">
      <text x="0.000" y="0.000" font-family="Helvetica" text-anchor="middle" font-size="10pt" fill="#000000" >-1500</text>
    </g>
  </g>
  <g transform="translate(217.467,392.446)">
    <g transform="rotate(-0.0)">
      <text x="0.000" y="0.000" font-family="Helvetica" text-anchor="middle" font-size="10pt" fill="#000000" >-1000</text>
    </g>
  </g>
  <g transform="translate(362.133,392.446)">
    <g transform="rotate(-0.0)">
      <text x="0.000" y="0.000" font-family="Helvetica" text-anchor="middle" font-size="10pt" fill="#000000" >-500</text>
    </g>
  </g>
  <g transform="translate(506.800,392.446)">
    <g transform="rotate(-0.0)">
      <text x="0.000" y="0.000" font-family="Helvetica" text-anchor="middle" font-size="10pt" fill="#000000" >0</text>
    </g>
  </g>
      <polyline fill="none" stroke="#000000" stroke-width="0.5pt" stroke-dasharray="none" points="72.800,373.800 77.140,373.800 "/>
      <polyline fill="none" stroke="#000000" stroke-width="0.5pt" stroke-dasharray="none" points="72.800,339.570 77.140,339.570 "/>
      <polyline fill="none" stroke="#000000" stroke-width="0.5pt" stroke-dasharray="none" points="72.800,305.340 77.140,305.340 "/>
      <polyline fill="none" stroke="#000000" stroke-width="0.5pt" stroke-dasharray="none" points="72.800,271.110 77.140,271.110 "/>
      <polyline fill="none" stroke="#000000" stroke-width="0.5pt" stroke-dasharray="none" points="72.800,236.880 77.140,236.880 "/>
      <polyline fill="none" stroke="#000000" stroke-width="0.5pt" stroke-dasharray="none" points="72.800,202.650 77.140,202.650 "/>
      <polyline fill="none" stroke="#000000" stroke-width="0.5pt" stroke-dasharray="none" points="72.800,168.420 77.140,168.420 "/>
      <polyline fill="none" stroke="#000000" stroke-width="0.5pt" stroke-dasharray="none" points="72.800,134.190 77.140,134.190 "/>
      <polyline fill="none" stroke="#000000" stroke-width="0.5pt" stroke-dasharray="none" points="72.800,99.960 77.140,99.960 "/>
      <polyline fill="none" stroke="#000000" stroke-width="0.5pt" stroke-dasharray="none" points="72.800,65.730 77.140,65.730 "/>
      <polyline fill="none" stroke="#000000" stroke-width="0.5pt" stroke-dasharray="none" points="72.800,31.500 77.140,31.500 "/>
      <polyline fill="none" stroke="#000000" stroke-width="0.5pt" stroke-dasharray="none" points="72.800,373.800 72.800,31.500 "/>
  <g transform="translate(64.120,378.300)">
    <g transform="rotate(-0.0)">
      <text x="0.000" y="0.000" font-family="Helvetica" text-anchor="end" font-size="10pt" fill="#000000" >0</text>
    </g>
  </g>
  <g transform="translate(64.120,344.070)">
    <g transform="rotate(-0.0)">
      <text x="0.000" y="0.000" font-family="Helvetica" text-anchor="end" font-size="10pt" fill="#000000" >0.1</text>
    </g>
  </g>
  <g transform="translate(64.120,309.840)">
    <g transform="rotate(-0.0)">
      <text x="0.000" y="0.000" font-family="Helvetica" text-anchor="end" font-size="10pt" fill="#000000" >0.2</text>
    </g>
  </g>
  <g transform="translate(64.120,275.610)">
    <g transform="rotate(-0.0)">
      <text x="0.000" y="0.000" font-family="Helvetica" text-anchor="end" font-size="10pt" fill="#000000" >0.3</text>
    </g>
  </g>
  <g transform="translate(64.120,241.380)">
    <g transform="rotate(-0.0)">
      <text x="0.000" y="0.000" font-family="Helvetica" text-anchor="end" font-size="10pt" fill="#000000" >0.4</text>
    </g>
  </g>
  <g transform="translate(64.120,207.150)">
    <g transform="rotate(-0.0)">
      <text x="0.000" y="0.000" font-family="Helvetica" text-anchor="end" font-size="10pt" fill="#000000" >0.5</text>
    </g>
  </g>
  <g transform="translate(64.120,172.920)">
    <g transform="rotate(-0.0)">
      <text x="0.000" y="0.000" font-family="Helvetica" text-anchor="end" font-size="10pt" fill="#000000" >0.6</text>
    </g>
  </g>
  <g transform="translate(64.120,138.690)">
    <g transform="rotate(-0.0)">
      <text x="0.000" y="0.000" font-family="Helvetica" text-anchor="end" font-size="10pt" fill="#000000" >0.7</text>
    </g>
  </g>
  <g transform="translate(64.120,104.460)">
    <g transform="rotate(-0.0)">
      <text x="0.000" y="0.000" font-family="Helvetica" text-anchor="end" font-size="10pt" fill="#000000" >0.8</text>
    </g>
  </g>
  <g transform="translate(64.120,70.230)">
    <g transform="rotate(-0.0)">
      <text x="0.000" y="0.000" font-family="Helvetica" text-anchor="end" font-size="10pt" fill="#000000" >0.9</text>
    </g>
  </g>
  <g transform="translate(64.120,36.000)">
    <g transform="rotate(-0.0)">
      <text x="0.000" y="0.000" font-family="Helvetica" text-anchor="end" font-size="10pt" fill="#000000" >1</text>
    </g>
  </g>
      <polyline fill="none" stroke="#000000" stroke-width="0.5pt" stroke-dasharray="none" points="72.800,373.800 72.800,370.377 "/>
      <polyline fill="none" stroke="#000000" stroke-width="0.5pt" stroke-dasharray="none" points="72.800,373.800 72.800,370.377 "/>
      <polyline fill="none" stroke="#000000" stroke-width="0.5pt" stroke-dasharray="none" points="72.800,373.800 72.800,370.377 "/>
      <polyline fill="none" stroke="#000000" stroke-width="0.5pt" stroke-dasharray="none" points="72.800,373.800 72.800,373.800 "/>
    </g>
  </g>
  <g id ="ID000025">
  <clipPath id="ID000026">
    <rect x="79.250" y="277.875" width="123.500" height="86.875"/>
  </clipPath>
      <polygon fill="#ffffff" fill-opacity="1.00" stroke="none" stroke-width="0.5pt" stroke-opacity="1.00" stroke-dasharray="none" points="79.250,364.750 202.750,364.750 202.750,277.875 79.250,277.875 "/>
      <polygon fill="#ffffff" fill-opacity="1.00" stroke="none" stroke-width="0.5pt" stroke-opacity="1.00" stroke-dasharray="none" points="79.250,277.875 202.750,277.875 202.750,277.875 79.250,277.875 "/>
      <polygon fill="#ffffff" fill-opacity="1.00" stroke="none" stroke-width="0.5pt" stroke-opacity="1.00" stroke-dasharray="none" points="79.250,364.750 79.250,364.750 79.250,277.875 79.250,277.875 "/>
    <g>
<g id="ID000027" >
  <g transform="translate(128.550,295.856)">
    <g transform="rotate(-0.0)">
      <text x="0.000" y="0.000" font-family="Helvetica" text-anchor="start" font-size="10pt" fill="#000000" >LIP class 1</text>
    </g>
  </g>
</g>
<g id="ID000028" clip-path="url(#ID000026)" >
      <polyline fill="none" stroke="#add8e6" stroke-width="0.5pt" stroke-dasharray="none" points="86.750,290.375 124.250,290.375 "/>
<g>
</g>
</g>
<g id="ID000029" clip-path="url(#ID000026)" >
<g>
</g>
</g>
<g id="ID000030" >
  <g transform="translate(128.550,316.825)">
    <g transform="rotate(-0.0)">
      <text x="0.000" y="0.000" font-family="Helvetica" text-anchor="start" font-size="10pt" fill="#000000" >LIP class 2</text>
    </g>
  </g>
</g>
<g id="ID000031" clip-path="url(#ID000026)" >
      <polyline fill="none" stroke="#000080" stroke-width="0.5pt" stroke-dasharray="none" points="86.750,311.000 124.250,311.000 "/>
<g>
</g>
</g>
<g id="ID000032" clip-path="url(#ID000026)" >
<g>
</g>
</g>
<g id="ID000033" >
  <g transform="translate(128.550,336.797)">
    <g transform="rotate(-0.0)">
      <text x="0.000" y="0.000" font-family="Helvetica" text-anchor="start" font-size="10pt" fill="#000000" >PITd class 1</text>
    </g>
  </g>
</g>
<g id="ID000034" clip-path="url(#ID000026)" >
      <polyline fill="none" stroke="#f08080" stroke-width="0.5pt" stroke-dasharray="none" points="86.750,331.625 124.250,331.625 "/>
<g>
</g>
</g>
<g id="ID000035" clip-path="url(#ID000026)" >
<g>
</g>
</g>
<g id="ID000036" >
  <g transform="translate(128.550,357.767)">
    <g transform="rotate(-0.0)">
      <text x="0.000" y="0.000" font-family="Helvetica" text-anchor="start" font-size="10pt" fill="#000000" >PITd class 2</text>
    </g>
  </g>
</g>
<g id="ID000037" clip-path="url(#ID000026)" >
      <polyline fill="none" stroke="#ff0000" stroke-width="0.5pt" stroke-dasharray="none" points="86.750,352.250 124.250,352.250 "/>
<g>
</g>
</g>
<g id="ID000038" clip-path="url(#ID000026)" >
<g>
</g>
</g>
<g id="ID000039" >
</g>
<g id="ID000040" >
</g>
<g id="ID000041" >
</g>
    </g>
    <g>
      <polyline fill="none" stroke="#000000" stroke-width="0.5pt" stroke-dasharray="none" points="79.250,364.750 202.750,364.750 "/>
      <polyline fill="none" stroke="#000000" stroke-width="0.5pt" stroke-dasharray="none" points="79.250,277.875 202.750,277.875 "/>
      <polyline fill="none" stroke="#000000" stroke-width="0.5pt" stroke-dasharray="none" points="79.250,364.750 79.250,277.875 "/>
      <polyline fill="none" stroke="#000000" stroke-width="0.5pt" stroke-dasharray="none" points="202.750,364.750 202.750,277.875 "/>
      <polyline fill="none" stroke="#000000" stroke-width="0.5pt" stroke-dasharray="none" points="79.250,364.750 79.250,363.881 "/>
      <polyline fill="none" stroke="#000000" stroke-width="0.5pt" stroke-dasharray="none" points="79.250,364.750 79.250,364.750 "/>
    </g>
  </g>
  </g>
</svg>
