<?xml version="1.0" encoding="utf-8" standalone="no"?><!DOCTYPE svg PUBLIC "-//W3C//DTD SVG 1.1//EN" "http://www.w3.org/Graphics/SVG/1.1/DTD/svg11.dtd">
<svg preserveAspectRatio="xMinYMin meet" width="100%" height="100%" viewBox="0 0 560.000 420.000"  version="1.1" xmlns="http://www.w3.org/2000/svg" xmlns:xlink="http://www.w3.org/1999/xlink">
  <desc>Matlab Figure Converted by PLOT2SVG written by Juerg Schwizer</desc>
  <g id="topgroup">
  <rect x="0" y="0" width="560.000" height="420.000" fill="#ffffff" stroke="none" />
  <g id ="ID000000">
  <clipPath id="ID000001">
    <rect x="72.800" y="38.000" width="434.000" height="334.000"/>
  </clipPath>
      <polygon fill="#ffffff" fill-opacity="1.00" stroke="none" stroke-width="0.5pt" stroke-opacity="1.00" stroke-dasharray="none" points="72.800,372.000 506.800,372.000 506.800,38.000 72.800,38.000 "/>
      <polygon fill="#ffffff" fill-opacity="1.00" stroke="none" stroke-width="0.5pt" stroke-opacity="1.00" stroke-dasharray="none" points="72.800,38.000 506.800,38.000 506.800,38.000 72.800,38.000 "/>
      <polygon fill="#ffffff" fill-opacity="1.00" stroke="none" stroke-width="0.5pt" stroke-opacity="1.00" stroke-dasharray="none" points="72.800,372.000 72.800,372.000 72.800,38.000 72.800,38.000 "/>
    <g>
<g id="ID000002" clip-path="url(#ID000001)" >
      <polygon fill="#738ccc" fill-opacity="0.08" stroke="none" stroke-width="0.5pt" stroke-opacity="1.00" stroke-dasharray="none" points="72.800,227.540 103.363,220.356 133.927,262.408 164.490,245.913 195.054,227.213 225.617,240.838 256.180,245.582 286.744,258.379 317.307,264.295 347.870,251.841 378.434,234.705 408.997,214.765 439.561,198.919 470.124,222.113 500.687,261.585 500.687,111.397 470.124,66.812 439.561,41.297 408.997,48.275 378.434,55.333 347.870,57.959 317.307,63.318 286.744,63.667 256.180,70.063 225.617,63.395 195.054,45.012 164.490,50.249 133.927,57.691 103.363,54.096 72.800,53.591 "/>
</g>
<g id="ID000003" clip-path="url(#ID000001)" >
      <polyline fill="none" stroke="#738ccc" stroke-width="2.0pt" stroke-dasharray="none" points="72.800,140.566 103.363,137.226 133.927,160.049 164.490,148.081 195.054,136.112 225.617,152.117 256.180,157.822 286.744,161.023 317.307,163.807 347.870,154.900 378.434,145.019 408.997,131.520 439.561,120.108 470.124,144.463 500.687,186.491 "/>
<g>
<circle cx="72.800" cy="140.566" r="3.333" fill="#738ccc" stroke="none" stroke-width="2.0pt" />
<circle cx="103.363" cy="137.226" r="3.333" fill="#738ccc" stroke="none" stroke-width="2.0pt" />
<circle cx="133.927" cy="160.049" r="3.333" fill="#738ccc" stroke="none" stroke-width="2.0pt" />
<circle cx="164.490" cy="148.081" r="3.333" fill="#738ccc" stroke="none" stroke-width="2.0pt" />
<circle cx="195.054" cy="136.112" r="3.333" fill="#738ccc" stroke="none" stroke-width="2.0pt" />
<circle cx="225.617" cy="152.117" r="3.333" fill="#738ccc" stroke="none" stroke-width="2.0pt" />
<circle cx="256.180" cy="157.822" r="3.333" fill="#738ccc" stroke="none" stroke-width="2.0pt" />
<circle cx="286.744" cy="161.023" r="3.333" fill="#738ccc" stroke="none" stroke-width="2.0pt" />
<circle cx="317.307" cy="163.807" r="3.333" fill="#738ccc" stroke="none" stroke-width="2.0pt" />
<circle cx="347.870" cy="154.900" r="3.333" fill="#738ccc" stroke="none" stroke-width="2.0pt" />
<circle cx="378.434" cy="145.019" r="3.333" fill="#738ccc" stroke="none" stroke-width="2.0pt" />
<circle cx="408.997" cy="131.520" r="3.333" fill="#738ccc" stroke="none" stroke-width="2.0pt" />
<circle cx="439.561" cy="120.108" r="3.333" fill="#738ccc" stroke="none" stroke-width="2.0pt" />
<circle cx="470.124" cy="144.463" r="3.333" fill="#738ccc" stroke="none" stroke-width="2.0pt" />
<circle cx="500.687" cy="186.491" r="3.333" fill="#738ccc" stroke="none" stroke-width="2.0pt" />
</g>
</g>
<g id="ID000004" clip-path="url(#ID000001)" >
      <polygon fill="#000080" fill-opacity="0.08" stroke="none" stroke-width="0.5pt" stroke-opacity="1.00" stroke-dasharray="none" points="72.800,242.617 103.363,226.805 133.927,271.409 164.490,271.262 195.054,228.171 225.617,242.990 256.180,249.553 286.744,255.351 317.307,259.596 347.870,258.386 378.434,229.559 408.997,219.685 439.561,196.396 470.124,213.651 500.687,268.912 500.687,121.048 470.124,63.306 439.561,41.038 408.997,55.323 378.434,49.067 347.870,64.774 317.307,69.130 286.744,58.903 256.180,65.257 225.617,61.521 195.054,51.013 164.490,75.835 133.927,63.441 103.363,55.161 72.800,56.606 "/>
</g>
<g id="ID000005" clip-path="url(#ID000001)" >
      <polyline fill="none" stroke="#000080" stroke-width="2.0pt" stroke-dasharray="none" points="72.800,149.612 103.363,140.983 133.927,167.425 164.490,173.548 195.054,139.592 225.617,152.256 256.180,157.405 286.744,157.127 317.307,164.363 347.870,161.580 378.434,139.313 408.997,137.504 439.561,118.717 470.124,138.478 500.687,194.980 "/>
<g>
<circle cx="72.800" cy="149.612" r="3.333" fill="#000080" stroke="none" stroke-width="2.0pt" />
<circle cx="103.363" cy="140.983" r="3.333" fill="#000080" stroke="none" stroke-width="2.0pt" />
<circle cx="133.927" cy="167.425" r="3.333" fill="#000080" stroke="none" stroke-width="2.0pt" />
<circle cx="164.490" cy="173.548" r="3.333" fill="#000080" stroke="none" stroke-width="2.0pt" />
<circle cx="195.054" cy="139.592" r="3.333" fill="#000080" stroke="none" stroke-width="2.0pt" />
<circle cx="225.617" cy="152.256" r="3.333" fill="#000080" stroke="none" stroke-width="2.0pt" />
<circle cx="256.180" cy="157.405" r="3.333" fill="#000080" stroke="none" stroke-width="2.0pt" />
<circle cx="286.744" cy="157.127" r="3.333" fill="#000080" stroke="none" stroke-width="2.0pt" />
<circle cx="317.307" cy="164.363" r="3.333" fill="#000080" stroke="none" stroke-width="2.0pt" />
<circle cx="347.870" cy="161.580" r="3.333" fill="#000080" stroke="none" stroke-width="2.0pt" />
<circle cx="378.434" cy="139.313" r="3.333" fill="#000080" stroke="none" stroke-width="2.0pt" />
<circle cx="408.997" cy="137.504" r="3.333" fill="#000080" stroke="none" stroke-width="2.0pt" />
<circle cx="439.561" cy="118.717" r="3.333" fill="#000080" stroke="none" stroke-width="2.0pt" />
<circle cx="470.124" cy="138.478" r="3.333" fill="#000080" stroke="none" stroke-width="2.0pt" />
<circle cx="500.687" cy="194.980" r="3.333" fill="#000080" stroke="none" stroke-width="2.0pt" />
</g>
</g>
<g id="ID000006" clip-path="url(#ID000001)" >
      <polygon fill="#f08080" fill-opacity="0.08" stroke="none" stroke-width="0.5pt" stroke-opacity="1.00" stroke-dasharray="none" points="72.800,186.452 103.363,176.577 133.927,167.047 164.490,192.442 195.054,179.623 225.617,167.311 256.180,170.429 286.744,149.855 317.307,155.618 347.870,157.076 378.434,169.622 408.997,178.588 439.561,146.773 470.124,116.253 500.687,122.111 500.687,44.069 470.124,44.360 439.561,55.033 408.997,65.804 378.434,79.501 347.870,78.687 317.307,65.115 286.744,65.590 256.180,72.015 225.617,74.854 195.054,75.902 164.490,86.741 133.927,73.448 103.363,76.999 72.800,79.093 "/>
</g>
<g id="ID000007" clip-path="url(#ID000001)" >
      <polyline fill="none" stroke="#f08080" stroke-width="2.0pt" stroke-dasharray="none" points="72.800,132.772 103.363,126.788 133.927,120.247 164.490,139.592 195.054,127.762 225.617,121.082 256.180,121.222 286.744,107.722 317.307,110.367 347.870,117.882 378.434,124.562 408.997,122.196 439.561,100.903 470.124,80.307 500.687,83.090 "/>
<g>
<circle cx="72.800" cy="132.772" r="3.333" fill="#f08080" stroke="none" stroke-width="2.0pt" />
<circle cx="103.363" cy="126.788" r="3.333" fill="#f08080" stroke="none" stroke-width="2.0pt" />
<circle cx="133.927" cy="120.247" r="3.333" fill="#f08080" stroke="none" stroke-width="2.0pt" />
<circle cx="164.490" cy="139.592" r="3.333" fill="#f08080" stroke="none" stroke-width="2.0pt" />
<circle cx="195.054" cy="127.762" r="3.333" fill="#f08080" stroke="none" stroke-width="2.0pt" />
<circle cx="225.617" cy="121.082" r="3.333" fill="#f08080" stroke="none" stroke-width="2.0pt" />
<circle cx="256.180" cy="121.222" r="3.333" fill="#f08080" stroke="none" stroke-width="2.0pt" />
<circle cx="286.744" cy="107.722" r="3.333" fill="#f08080" stroke="none" stroke-width="2.0pt" />
<circle cx="317.307" cy="110.367" r="3.333" fill="#f08080" stroke="none" stroke-width="2.0pt" />
<circle cx="347.870" cy="117.882" r="3.333" fill="#f08080" stroke="none" stroke-width="2.0pt" />
<circle cx="378.434" cy="124.562" r="3.333" fill="#f08080" stroke="none" stroke-width="2.0pt" />
<circle cx="408.997" cy="122.196" r="3.333" fill="#f08080" stroke="none" stroke-width="2.0pt" />
<circle cx="439.561" cy="100.903" r="3.333" fill="#f08080" stroke="none" stroke-width="2.0pt" />
<circle cx="470.124" cy="80.307" r="3.333" fill="#f08080" stroke="none" stroke-width="2.0pt" />
<circle cx="500.687" cy="83.090" r="3.333" fill="#f08080" stroke="none" stroke-width="2.0pt" />
</g>
</g>
<g id="ID000008" clip-path="url(#ID000001)" >
      <polygon fill="#ff0000" fill-opacity="0.08" stroke="none" stroke-width="0.5pt" stroke-opacity="1.00" stroke-dasharray="none" points="72.800,167.506 103.363,164.429 133.927,159.934 164.490,202.016 195.054,166.106 225.617,167.880 256.180,167.627 286.744,157.226 317.307,153.617 347.870,165.219 378.434,167.523 408.997,178.711 439.561,146.883 470.124,123.115 500.687,113.621 500.687,41.426 470.124,46.683 439.561,56.315 408.997,67.350 378.434,79.930 347.870,73.049 317.307,69.343 286.744,73.249 256.180,75.930 225.617,74.006 195.054,74.110 164.490,86.909 133.927,73.881 103.363,77.179 72.800,75.215 "/>
</g>
<g id="ID000009" clip-path="url(#ID000001)" >
      <polyline fill="none" stroke="#ff0000" stroke-width="2.0pt" stroke-dasharray="none" points="72.800,121.361 103.363,120.804 133.927,116.908 164.490,144.463 195.054,120.108 225.617,120.943 256.180,121.778 286.744,115.237 317.307,111.480 347.870,119.134 378.434,123.727 408.997,123.031 439.561,101.599 470.124,84.899 500.687,77.523 "/>
<g>
<circle cx="72.800" cy="121.361" r="3.333" fill="#ff0000" stroke="none" stroke-width="2.0pt" />
<circle cx="103.363" cy="120.804" r="3.333" fill="#ff0000" stroke="none" stroke-width="2.0pt" />
<circle cx="133.927" cy="116.908" r="3.333" fill="#ff0000" stroke="none" stroke-width="2.0pt" />
<circle cx="164.490" cy="144.463" r="3.333" fill="#ff0000" stroke="none" stroke-width="2.0pt" />
<circle cx="195.054" cy="120.108" r="3.333" fill="#ff0000" stroke="none" stroke-width="2.0pt" />
<circle cx="225.617" cy="120.943" r="3.333" fill="#ff0000" stroke="none" stroke-width="2.0pt" />
<circle cx="256.180" cy="121.778" r="3.333" fill="#ff0000" stroke="none" stroke-width="2.0pt" />
<circle cx="286.744" cy="115.237" r="3.333" fill="#ff0000" stroke="none" stroke-width="2.0pt" />
<circle cx="317.307" cy="111.480" r="3.333" fill="#ff0000" stroke="none" stroke-width="2.0pt" />
<circle cx="347.870" cy="119.134" r="3.333" fill="#ff0000" stroke="none" stroke-width="2.0pt" />
<circle cx="378.434" cy="123.727" r="3.333" fill="#ff0000" stroke="none" stroke-width="2.0pt" />
<circle cx="408.997" cy="123.031" r="3.333" fill="#ff0000" stroke="none" stroke-width="2.0pt" />
<circle cx="439.561" cy="101.599" r="3.333" fill="#ff0000" stroke="none" stroke-width="2.0pt" />
<circle cx="470.124" cy="84.899" r="3.333" fill="#ff0000" stroke="none" stroke-width="2.0pt" />
<circle cx="500.687" cy="77.523" r="3.333" fill="#ff0000" stroke="none" stroke-width="2.0pt" />
</g>
</g>
<g id="ID000010" >
  <g transform="translate(28.550,206.500)">
    <g transform="rotate(-90.0)">
      <text x="0.000" y="0.000" font-family="Helvetica" text-anchor="middle" font-size="15pt" fill="#000000" >Decoding accuracy (%)</text>
    </g>
  </g>
</g>
<g id="ID000011" clip-path="url(#ID000001)" >
      <polyline fill="none" stroke="#000080" stroke-width="1.0pt" stroke-dasharray="none" points="57.518,346.950 88.082,346.950 "/>
<g>
</g>
</g>
<g id="ID000012" clip-path="url(#ID000001)" >
      <polyline fill="none" stroke="#000080" stroke-width="1.0pt" stroke-dasharray="none" points="88.082,346.950 118.645,346.950 "/>
<g>
</g>
</g>
<g id="ID000013" clip-path="url(#ID000001)" >
      <polyline fill="none" stroke="#000080" stroke-width="1.0pt" stroke-dasharray="none" points="118.645,346.950 149.208,346.950 "/>
<g>
</g>
</g>
<g id="ID000014" clip-path="url(#ID000001)" >
      <polyline fill="none" stroke="#000080" stroke-width="1.0pt" stroke-dasharray="none" points="149.208,346.950 179.772,346.950 "/>
<g>
</g>
</g>
<g id="ID000015" clip-path="url(#ID000001)" >
      <polyline fill="none" stroke="#000080" stroke-width="1.0pt" stroke-dasharray="none" points="179.772,346.950 210.335,346.950 "/>
<g>
</g>
</g>
<g id="ID000016" clip-path="url(#ID000001)" >
      <polyline fill="none" stroke="#000080" stroke-width="1.0pt" stroke-dasharray="none" points="210.335,346.950 240.899,346.950 "/>
<g>
</g>
</g>
<g id="ID000017" clip-path="url(#ID000001)" >
      <polyline fill="none" stroke="#000080" stroke-width="1.0pt" stroke-dasharray="none" points="240.899,346.950 271.462,346.950 "/>
<g>
</g>
</g>
<g id="ID000018" clip-path="url(#ID000001)" >
      <polyline fill="none" stroke="#000080" stroke-width="1.0pt" stroke-dasharray="none" points="271.462,346.950 302.025,346.950 "/>
<g>
</g>
</g>
<g id="ID000019" clip-path="url(#ID000001)" >
      <polyline fill="none" stroke="#000080" stroke-width="1.0pt" stroke-dasharray="none" points="302.025,346.950 332.589,346.950 "/>
<g>
</g>
</g>
<g id="ID000020" clip-path="url(#ID000001)" >
      <polyline fill="none" stroke="#000080" stroke-width="1.0pt" stroke-dasharray="none" points="332.589,346.950 363.152,346.950 "/>
<g>
</g>
</g>
<g id="ID000021" clip-path="url(#ID000001)" >
      <polyline fill="none" stroke="#000080" stroke-width="1.0pt" stroke-dasharray="none" points="363.152,346.950 393.715,346.950 "/>
<g>
</g>
</g>
<g id="ID000022" clip-path="url(#ID000001)" >
      <polyline fill="none" stroke="#000080" stroke-width="1.0pt" stroke-dasharray="none" points="393.715,346.950 424.279,346.950 "/>
<g>
</g>
</g>
<g id="ID000023" clip-path="url(#ID000001)" >
      <polyline fill="none" stroke="#000080" stroke-width="1.0pt" stroke-dasharray="none" points="424.279,346.950 454.842,346.950 "/>
<g>
</g>
</g>
<g id="ID000024" clip-path="url(#ID000001)" >
      <polyline fill="none" stroke="#000080" stroke-width="1.0pt" stroke-dasharray="none" points="454.842,346.950 485.406,346.950 "/>
<g>
</g>
</g>
<g id="ID000025" clip-path="url(#ID000001)" >
      <polyline fill="none" stroke="#ff0000" stroke-width="1.0pt" stroke-dasharray="none" points="57.518,355.300 88.082,355.300 "/>
<g>
</g>
</g>
<g id="ID000026" clip-path="url(#ID000001)" >
      <polyline fill="none" stroke="#ff0000" stroke-width="1.0pt" stroke-dasharray="none" points="88.082,355.300 118.645,355.300 "/>
<g>
</g>
</g>
<g id="ID000027" clip-path="url(#ID000001)" >
      <polyline fill="none" stroke="#ff0000" stroke-width="1.0pt" stroke-dasharray="none" points="118.645,355.300 149.208,355.300 "/>
<g>
</g>
</g>
<g id="ID000028" clip-path="url(#ID000001)" >
      <polyline fill="none" stroke="#ff0000" stroke-width="1.0pt" stroke-dasharray="none" points="149.208,355.300 179.772,355.300 "/>
<g>
</g>
</g>
<g id="ID000029" clip-path="url(#ID000001)" >
      <polyline fill="none" stroke="#ff0000" stroke-width="1.0pt" stroke-dasharray="none" points="179.772,355.300 210.335,355.300 "/>
<g>
</g>
</g>
<g id="ID000030" clip-path="url(#ID000001)" >
      <polyline fill="none" stroke="#ff0000" stroke-width="1.0pt" stroke-dasharray="none" points="210.335,355.300 240.899,355.300 "/>
<g>
</g>
</g>
<g id="ID000031" clip-path="url(#ID000001)" >
      <polyline fill="none" stroke="#ff0000" stroke-width="1.0pt" stroke-dasharray="none" points="240.899,355.300 271.462,355.300 "/>
<g>
</g>
</g>
<g id="ID000032" clip-path="url(#ID000001)" >
      <polyline fill="none" stroke="#ff0000" stroke-width="1.0pt" stroke-dasharray="none" points="271.462,355.300 302.025,355.300 "/>
<g>
</g>
</g>
<g id="ID000033" clip-path="url(#ID000001)" >
      <polyline fill="none" stroke="#ff0000" stroke-width="1.0pt" stroke-dasharray="none" points="302.025,355.300 332.589,355.300 "/>
<g>
</g>
</g>
<g id="ID000034" clip-path="url(#ID000001)" >
      <polyline fill="none" stroke="#ff0000" stroke-width="1.0pt" stroke-dasharray="none" points="332.589,355.300 363.152,355.300 "/>
<g>
</g>
</g>
<g id="ID000035" clip-path="url(#ID000001)" >
      <polyline fill="none" stroke="#ff0000" stroke-width="1.0pt" stroke-dasharray="none" points="363.152,355.300 393.715,355.300 "/>
<g>
</g>
</g>
<g id="ID000036" clip-path="url(#ID000001)" >
      <polyline fill="none" stroke="#ff0000" stroke-width="1.0pt" stroke-dasharray="none" points="393.715,355.300 424.279,355.300 "/>
<g>
</g>
</g>
<g id="ID000037" clip-path="url(#ID000001)" >
      <polyline fill="none" stroke="#ff0000" stroke-width="1.0pt" stroke-dasharray="none" points="424.279,355.300 454.842,355.300 "/>
<g>
</g>
</g>
<g id="ID000038" clip-path="url(#ID000001)" >
      <polyline fill="none" stroke="#ff0000" stroke-width="1.0pt" stroke-dasharray="none" points="454.842,355.300 485.406,355.300 "/>
<g>
</g>
</g>
<g id="ID000039" clip-path="url(#ID000001)" >
      <polyline fill="none" stroke="#ff0000" stroke-width="1.0pt" stroke-dasharray="none" points="485.406,355.300 515.969,355.300 "/>
<g>
</g>
</g>
<g id="ID000040" >
  <g transform="translate(289.300,418.750)">
    <g transform="rotate(-0.0)">
      <text x="0.000" y="0.000" font-family="Helvetica" text-anchor="middle" font-size="15pt" fill="#000000" >Time from saccade onset (s)</text>
    </g>
  </g>
</g>
<g id="ID000041" clip-path="url(#ID000001)" >
      <polyline fill="none" stroke="#000000" stroke-width="0.5pt" stroke-dasharray="none" points="72.800,205.000 506.800,205.000 "/>
<g>
</g>
</g>
<g id="ID000042" clip-path="url(#ID000001)" >
      <polyline fill="none" stroke="#000000" stroke-width="0.5pt" stroke-dasharray="8.0,2.0" points="500.687,372.000 500.687,38.000 "/>
<g>
</g>
</g>
<g id="ID000043" >
  <g transform="translate(289.300,22.750)">
    <g transform="rotate(-0.0)">
      <text x="0.000" y="0.000" font-family="Helvetica" text-anchor="middle" font-size="15pt" fill="#000000" >Mean decoding for phi abs tr brt out te brt in  Michel</text>
    </g>
  </g>
</g>
    </g>
    <g>
      <polyline fill="none" stroke="#000000" stroke-width="0.5pt" stroke-dasharray="none" points="133.927,372.000 133.927,367.660 "/>
      <polyline fill="none" stroke="#000000" stroke-width="0.5pt" stroke-dasharray="none" points="195.054,372.000 195.054,367.660 "/>
      <polyline fill="none" stroke="#000000" stroke-width="0.5pt" stroke-dasharray="none" points="256.180,372.000 256.180,367.660 "/>
      <polyline fill="none" stroke="#000000" stroke-width="0.5pt" stroke-dasharray="none" points="317.307,372.000 317.307,367.660 "/>
      <polyline fill="none" stroke="#000000" stroke-width="0.5pt" stroke-dasharray="none" points="378.434,372.000 378.434,367.660 "/>
      <polyline fill="none" stroke="#000000" stroke-width="0.5pt" stroke-dasharray="none" points="439.561,372.000 439.561,367.660 "/>
      <polyline fill="none" stroke="#000000" stroke-width="0.5pt" stroke-dasharray="none" points="500.687,372.000 500.687,367.660 "/>
      <polyline fill="none" stroke="#000000" stroke-width="0.5pt" stroke-dasharray="none" points="72.800,372.000 506.800,372.000 "/>
  <g transform="translate(133.927,396.380)">
    <g transform="rotate(-0.0)">
      <text x="0.000" y="0.000" font-family="Helvetica" text-anchor="middle" font-size="15pt" fill="#000000" >-1.2</text>
    </g>
  </g>
  <g transform="translate(195.054,396.380)">
    <g transform="rotate(-0.0)">
      <text x="0.000" y="0.000" font-family="Helvetica" text-anchor="middle" font-size="15pt" fill="#000000" >-1</text>
    </g>
  </g>
  <g transform="translate(256.180,396.380)">
    <g transform="rotate(-0.0)">
      <text x="0.000" y="0.000" font-family="Helvetica" text-anchor="middle" font-size="15pt" fill="#000000" >-0.8</text>
    </g>
  </g>
  <g transform="translate(317.307,396.380)">
    <g transform="rotate(-0.0)">
      <text x="0.000" y="0.000" font-family="Helvetica" text-anchor="middle" font-size="15pt" fill="#000000" >-0.6</text>
    </g>
  </g>
  <g transform="translate(378.434,396.380)">
    <g transform="rotate(-0.0)">
      <text x="0.000" y="0.000" font-family="Helvetica" text-anchor="middle" font-size="15pt" fill="#000000" >-0.4</text>
    </g>
  </g>
  <g transform="translate(439.561,396.380)">
    <g transform="rotate(-0.0)">
      <text x="0.000" y="0.000" font-family="Helvetica" text-anchor="middle" font-size="15pt" fill="#000000" >-0.2</text>
    </g>
  </g>
  <g transform="translate(500.687,396.380)">
    <g transform="rotate(-0.0)">
      <text x="0.000" y="0.000" font-family="Helvetica" text-anchor="middle" font-size="15pt" fill="#000000" >0</text>
    </g>
  </g>
      <polyline fill="none" stroke="#000000" stroke-width="0.5pt" stroke-dasharray="none" points="72.800,372.000 77.140,372.000 "/>
      <polyline fill="none" stroke="#000000" stroke-width="0.5pt" stroke-dasharray="none" points="72.800,288.500 77.140,288.500 "/>
      <polyline fill="none" stroke="#000000" stroke-width="0.5pt" stroke-dasharray="none" points="72.800,205.000 77.140,205.000 "/>
      <polyline fill="none" stroke="#000000" stroke-width="0.5pt" stroke-dasharray="none" points="72.800,121.500 77.140,121.500 "/>
      <polyline fill="none" stroke="#000000" stroke-width="0.5pt" stroke-dasharray="none" points="72.800,38.000 77.140,38.000 "/>
      <polyline fill="none" stroke="#000000" stroke-width="0.5pt" stroke-dasharray="none" points="72.800,372.000 72.800,38.000 "/>
  <g transform="translate(64.120,378.750)">
    <g transform="rotate(-0.0)">
      <text x="0.000" y="0.000" font-family="Helvetica" text-anchor="end" font-size="15pt" fill="#000000" >0</text>
    </g>
  </g>
  <g transform="translate(64.120,295.250)">
    <g transform="rotate(-0.0)">
      <text x="0.000" y="0.000" font-family="Helvetica" text-anchor="end" font-size="15pt" fill="#000000" >25</text>
    </g>
  </g>
  <g transform="translate(64.120,211.750)">
    <g transform="rotate(-0.0)">
      <text x="0.000" y="0.000" font-family="Helvetica" text-anchor="end" font-size="15pt" fill="#000000" >50</text>
    </g>
  </g>
  <g transform="translate(64.120,128.250)">
    <g transform="rotate(-0.0)">
      <text x="0.000" y="0.000" font-family="Helvetica" text-anchor="end" font-size="15pt" fill="#000000" >75</text>
    </g>
  </g>
  <g transform="translate(64.120,44.750)">
    <g transform="rotate(-0.0)">
      <text x="0.000" y="0.000" font-family="Helvetica" text-anchor="end" font-size="15pt" fill="#000000" >100</text>
    </g>
  </g>
      <polyline fill="none" stroke="#000000" stroke-width="0.5pt" stroke-dasharray="none" points="72.800,372.000 72.800,368.660 "/>
      <polyline fill="none" stroke="#000000" stroke-width="0.5pt" stroke-dasharray="none" points="72.800,372.000 72.800,368.660 "/>
      <polyline fill="none" stroke="#000000" stroke-width="0.5pt" stroke-dasharray="none" points="72.800,372.000 72.800,368.660 "/>
      <polyline fill="none" stroke="#000000" stroke-width="0.5pt" stroke-dasharray="none" points="72.800,372.000 72.800,372.000 "/>
    </g>
  </g>
  </g>
</svg>
