<?xml version="1.0" encoding="utf-8" standalone="no"?><!DOCTYPE svg PUBLIC "-//W3C//DTD SVG 1.1//EN" "http://www.w3.org/Graphics/SVG/1.1/DTD/svg11.dtd">
<svg preserveAspectRatio="xMinYMin meet" width="100%" height="100%" viewBox="0 0 560.000 420.000"  version="1.1" xmlns="http://www.w3.org/2000/svg" xmlns:xlink="http://www.w3.org/1999/xlink">
  <desc>Matlab Figure Converted by PLOT2SVG written by Juerg Schwizer</desc>
  <g id="topgroup">
  <rect x="0" y="0" width="560.000" height="420.000" fill="#ffffff" stroke="none" />
  <g id ="ID000000">
  <clipPath id="ID000001">
    <rect x="72.800" y="31.500" width="434.000" height="342.300"/>
  </clipPath>
      <polygon fill="#ffffff" fill-opacity="1.00" stroke="none" stroke-width="0.5pt" stroke-opacity="1.00" stroke-dasharray="none" points="72.800,373.800 506.800,373.800 506.800,31.500 72.800,31.500 "/>
      <polygon fill="#ffffff" fill-opacity="1.00" stroke="none" stroke-width="0.5pt" stroke-opacity="1.00" stroke-dasharray="none" points="72.800,31.500 506.800,31.500 506.800,31.500 72.800,31.500 "/>
      <polygon fill="#ffffff" fill-opacity="1.00" stroke="none" stroke-width="0.5pt" stroke-opacity="1.00" stroke-dasharray="none" points="72.800,373.800 72.800,373.800 72.800,31.500 72.800,31.500 "/>
    <g>
<g id="ID000002" clip-path="url(#ID000001)" >
      <polygon fill="#add8e6" fill-opacity="0.15" stroke="none" stroke-width="0.5pt" stroke-opacity="1.00" stroke-dasharray="none" points="94.500,208.452 116.200,211.208 137.900,201.716 159.600,210.819 181.300,232.484 203.000,208.593 224.700,203.832 246.400,203.021 268.100,208.984 289.800,209.293 311.500,221.472 333.200,234.231 354.900,200.686 376.600,168.255 398.300,176.350 420.000,211.517 441.700,212.860 463.400,217.103 485.100,242.813 506.800,246.393 506.800,234.213 485.100,228.950 463.400,204.741 441.700,198.716 420.000,198.632 398.300,163.057 376.600,154.322 354.900,186.358 333.200,220.417 311.500,207.503 289.800,195.722 268.100,196.030 246.400,188.872 224.700,190.058 203.000,194.425 181.300,218.741 159.600,196.478 137.900,187.896 116.200,197.515 94.500,193.710 "/>
</g>
<g id="ID000003" clip-path="url(#ID000001)" >
      <polyline fill="none" stroke="#daedf3" stroke-width="0.5pt" stroke-dasharray="none" points="94.500,208.452 116.200,211.208 137.900,201.716 159.600,210.819 181.300,232.484 203.000,208.593 224.700,203.832 246.400,203.021 268.100,208.984 289.800,209.293 311.500,221.472 333.200,234.231 354.900,200.686 376.600,168.255 398.300,176.350 420.000,211.517 441.700,212.860 463.400,217.103 485.100,242.813 506.800,246.393 "/>
<g>
</g>
</g>
<g id="ID000004" clip-path="url(#ID000001)" >
      <polyline fill="none" stroke="#daedf3" stroke-width="0.5pt" stroke-dasharray="none" points="94.500,193.710 116.200,197.515 137.900,187.896 159.600,196.478 181.300,218.741 203.000,194.425 224.700,190.058 246.400,188.872 268.100,196.030 289.800,195.722 311.500,207.503 333.200,220.417 354.900,186.358 376.600,154.322 398.300,163.057 420.000,198.632 441.700,198.716 463.400,204.741 485.100,228.950 506.800,234.213 "/>
<g>
</g>
</g>
<g id="ID000005" clip-path="url(#ID000001)" >
      <polyline fill="none" stroke="#add8e6" stroke-width="0.5pt" stroke-dasharray="none" points="94.500,201.081 116.200,204.361 137.900,194.806 159.600,203.648 181.300,225.613 203.000,201.509 224.700,196.945 246.400,195.947 268.100,202.507 289.800,202.507 311.500,214.488 333.200,227.324 354.900,193.522 376.600,161.289 398.300,169.704 420.000,205.075 441.700,205.788 463.400,210.922 485.100,235.882 506.800,240.303 "/>
<g>
</g>
</g>
<g id="ID000006" clip-path="url(#ID000001)" >
      <polygon fill="#000080" fill-opacity="0.15" stroke="none" stroke-width="0.5pt" stroke-opacity="1.00" stroke-dasharray="none" points="94.500,222.523 116.200,214.948 137.900,209.982 159.600,211.983 181.300,223.501 203.000,205.780 224.700,211.863 246.400,209.754 268.100,210.930 289.800,203.213 311.500,195.797 333.200,230.485 354.900,207.655 376.600,175.206 398.300,193.402 420.000,215.536 441.700,217.501 463.400,203.119 485.100,243.165 506.800,227.967 506.800,214.415 485.100,229.169 463.400,189.630 441.700,204.344 420.000,202.029 398.300,179.950 376.600,162.204 354.900,194.508 333.200,216.747 311.500,182.119 289.800,190.391 268.100,196.937 246.400,196.402 224.700,198.856 203.000,192.674 181.300,209.469 159.600,198.167 137.900,196.173 116.200,200.621 94.500,208.450 "/>
</g>
<g id="ID000007" clip-path="url(#ID000001)" >
      <polyline fill="none" stroke="#8c8cc5" stroke-width="0.5pt" stroke-dasharray="none" points="94.500,222.523 116.200,214.948 137.900,209.982 159.600,211.983 181.300,223.501 203.000,205.780 224.700,211.863 246.400,209.754 268.100,210.930 289.800,203.213 311.500,195.797 333.200,230.485 354.900,207.655 376.600,175.206 398.300,193.402 420.000,215.536 441.700,217.501 463.400,203.119 485.100,243.165 506.800,227.967 "/>
<g>
</g>
</g>
<g id="ID000008" clip-path="url(#ID000001)" >
      <polyline fill="none" stroke="#8c8cc5" stroke-width="0.5pt" stroke-dasharray="none" points="94.500,208.450 116.200,200.621 137.900,196.173 159.600,198.167 181.300,209.469 203.000,192.674 224.700,198.856 246.400,196.402 268.100,196.937 289.800,190.391 311.500,182.119 333.200,216.747 354.900,194.508 376.600,162.204 398.300,179.950 420.000,202.029 441.700,204.344 463.400,189.630 485.100,229.169 506.800,214.415 "/>
<g>
</g>
</g>
<g id="ID000009" clip-path="url(#ID000001)" >
      <polyline fill="none" stroke="#000080" stroke-width="0.5pt" stroke-dasharray="none" points="94.500,215.486 116.200,207.784 137.900,203.078 159.600,205.075 181.300,216.485 203.000,199.227 224.700,205.360 246.400,203.078 268.100,203.934 289.800,196.802 311.500,188.958 333.200,223.616 354.900,201.081 376.600,168.705 398.300,186.676 420.000,208.783 441.700,210.922 463.400,196.375 485.100,236.167 506.800,221.191 "/>
<g>
</g>
</g>
<g id="ID000010" clip-path="url(#ID000001)" >
      <polygon fill="#f08080" fill-opacity="0.15" stroke="none" stroke-width="0.5pt" stroke-opacity="1.00" stroke-dasharray="none" points="94.500,265.943 116.200,190.104 137.900,192.816 159.600,216.172 181.300,210.977 203.000,198.129 224.700,212.205 246.400,244.545 268.100,228.820 289.800,195.025 311.500,198.597 333.200,174.472 354.900,219.422 376.600,202.768 398.300,215.792 420.000,221.833 441.700,153.778 463.400,182.921 485.100,200.448 506.800,209.647 506.800,197.079 485.100,187.451 463.400,170.464 441.700,140.845 420.000,208.284 398.300,202.344 376.600,189.411 354.900,204.704 333.200,161.797 311.500,185.880 289.800,181.180 268.100,215.844 246.400,232.923 224.700,199.371 203.000,186.348 181.300,196.320 159.600,203.390 137.900,179.395 116.200,175.831 94.500,254.028 "/>
</g>
<g id="ID000011" clip-path="url(#ID000001)" >
      <polyline fill="none" stroke="#f8c5c5" stroke-width="0.5pt" stroke-dasharray="none" points="94.500,265.943 116.200,190.104 137.900,192.816 159.600,216.172 181.300,210.977 203.000,198.129 224.700,212.205 246.400,244.545 268.100,228.820 289.800,195.025 311.500,198.597 333.200,174.472 354.900,219.422 376.600,202.768 398.300,215.792 420.000,221.833 441.700,153.778 463.400,182.921 485.100,200.448 506.800,209.647 "/>
<g>
</g>
</g>
<g id="ID000012" clip-path="url(#ID000001)" >
      <polyline fill="none" stroke="#f8c5c5" stroke-width="0.5pt" stroke-dasharray="none" points="94.500,254.028 116.200,175.831 137.900,179.395 159.600,203.390 181.300,196.320 203.000,186.348 224.700,199.371 246.400,232.923 268.100,215.844 289.800,181.180 311.500,185.880 333.200,161.797 354.900,204.704 376.600,189.411 398.300,202.344 420.000,208.284 441.700,140.845 463.400,170.464 485.100,187.451 506.800,197.079 "/>
<g>
</g>
</g>
<g id="ID000013" clip-path="url(#ID000001)" >
      <polyline fill="none" stroke="#f08080" stroke-width="0.5pt" stroke-dasharray="none" points="94.500,259.985 116.200,182.968 137.900,186.106 159.600,209.781 181.300,203.648 203.000,192.238 224.700,205.788 246.400,238.734 268.100,222.332 289.800,188.102 311.500,192.238 333.200,168.135 354.900,212.063 376.600,196.089 398.300,209.068 420.000,215.058 441.700,147.311 463.400,176.692 485.100,193.950 506.800,203.363 "/>
<g>
</g>
</g>
<g id="ID000014" clip-path="url(#ID000001)" >
      <polygon fill="#ff0000" fill-opacity="0.15" stroke="none" stroke-width="0.5pt" stroke-opacity="1.00" stroke-dasharray="none" points="94.500,243.711 116.200,201.680 137.900,198.883 159.600,209.741 181.300,189.559 203.000,219.982 224.700,216.327 246.400,228.833 268.100,207.738 289.800,196.063 311.500,183.867 333.200,195.908 354.900,231.346 376.600,190.836 398.300,189.766 420.000,209.369 441.700,157.156 463.400,181.492 485.100,193.579 506.800,221.709 506.800,209.264 485.100,180.344 463.400,169.325 441.700,144.598 420.000,195.360 398.300,177.311 376.600,177.096 354.900,218.168 333.200,183.149 311.500,172.370 289.800,183.565 268.100,194.139 246.400,216.116 224.700,202.950 203.000,207.853 181.300,177.803 159.600,196.700 137.900,186.735 116.200,187.931 94.500,232.046 "/>
</g>
<g id="ID000015" clip-path="url(#ID000001)" >
      <polyline fill="none" stroke="#ff8c8c" stroke-width="0.5pt" stroke-dasharray="none" points="94.500,243.711 116.200,201.680 137.900,198.883 159.600,209.741 181.300,189.559 203.000,219.982 224.700,216.327 246.400,228.833 268.100,207.738 289.800,196.063 311.500,183.867 333.200,195.908 354.900,231.346 376.600,190.836 398.300,189.766 420.000,209.369 441.700,157.156 463.400,181.492 485.100,193.579 506.800,221.709 "/>
<g>
</g>
</g>
<g id="ID000016" clip-path="url(#ID000001)" >
      <polyline fill="none" stroke="#ff8c8c" stroke-width="0.5pt" stroke-dasharray="none" points="94.500,232.046 116.200,187.931 137.900,186.735 159.600,196.700 181.300,177.803 203.000,207.853 224.700,202.950 246.400,216.116 268.100,194.139 289.800,183.565 311.500,172.370 333.200,183.149 354.900,218.168 376.600,177.096 398.300,177.311 420.000,195.360 441.700,144.598 463.400,169.325 485.100,180.344 506.800,209.264 "/>
<g>
</g>
</g>
<g id="ID000017" clip-path="url(#ID000001)" >
      <polyline fill="none" stroke="#ff0000" stroke-width="0.5pt" stroke-dasharray="none" points="94.500,237.878 116.200,194.806 137.900,192.809 159.600,203.220 181.300,183.681 203.000,213.917 224.700,209.639 246.400,222.475 268.100,200.939 289.800,189.814 311.500,178.119 333.200,189.528 354.900,224.757 376.600,183.966 398.300,183.538 420.000,202.365 441.700,150.877 463.400,175.409 485.100,186.961 506.800,215.486 "/>
<g>
</g>
</g>
<g id="ID000018" clip-path="url(#ID000001)" >
      <polyline fill="none" stroke="#000000" stroke-width="0.5pt" stroke-dasharray="none" points="72.800,202.650 506.800,202.650 "/>
<g>
</g>
</g>
<g id="ID000019" clip-path="url(#ID000001)" >
      <polyline fill="none" stroke="#000000" stroke-width="2.0pt" stroke-dasharray="none" points="203.000,373.800 203.000,31.500 "/>
<g>
</g>
</g>
<g id="ID000020" >
  <g transform="translate(289.300,21.493)">
    <g transform="rotate(-0.0)">
      <text x="0.000" y="0.000" font-family="Helvetica" text-anchor="middle" font-size="10pt" fill="#000000" >Mean decoding for brt rel tr phi out te phi out</text>
    </g>
  </g>
</g>
<g id="ID000021" >
</g>
<g id="ID000022" >
</g>
<g id="ID000023" >
</g>
<g id="ID000024" >
</g>
    </g>
    <g>
      <polyline fill="none" stroke="#000000" stroke-width="0.5pt" stroke-dasharray="none" points="72.800,373.800 72.800,369.460 "/>
      <polyline fill="none" stroke="#000000" stroke-width="0.5pt" stroke-dasharray="none" points="116.200,373.800 116.200,369.460 "/>
      <polyline fill="none" stroke="#000000" stroke-width="0.5pt" stroke-dasharray="none" points="159.600,373.800 159.600,369.460 "/>
      <polyline fill="none" stroke="#000000" stroke-width="0.5pt" stroke-dasharray="none" points="203.000,373.800 203.000,369.460 "/>
      <polyline fill="none" stroke="#000000" stroke-width="0.5pt" stroke-dasharray="none" points="246.400,373.800 246.400,369.460 "/>
      <polyline fill="none" stroke="#000000" stroke-width="0.5pt" stroke-dasharray="none" points="289.800,373.800 289.800,369.460 "/>
      <polyline fill="none" stroke="#000000" stroke-width="0.5pt" stroke-dasharray="none" points="333.200,373.800 333.200,369.460 "/>
      <polyline fill="none" stroke="#000000" stroke-width="0.5pt" stroke-dasharray="none" points="376.600,373.800 376.600,369.460 "/>
      <polyline fill="none" stroke="#000000" stroke-width="0.5pt" stroke-dasharray="none" points="420.000,373.800 420.000,369.460 "/>
      <polyline fill="none" stroke="#000000" stroke-width="0.5pt" stroke-dasharray="none" points="463.400,373.800 463.400,369.460 "/>
      <polyline fill="none" stroke="#000000" stroke-width="0.5pt" stroke-dasharray="none" points="506.800,373.800 506.800,369.460 "/>
      <polyline fill="none" stroke="#000000" stroke-width="0.5pt" stroke-dasharray="none" points="72.800,373.800 506.800,373.800 "/>
  <g transform="translate(72.800,392.446)">
    <g transform="rotate(-0.0)">
      <text x="0.000" y="0.000" font-family="Helvetica" text-anchor="middle" font-size="10pt" fill="#000000" >-600</text>
    </g>
  </g>
  <g transform="translate(116.200,392.446)">
    <g transform="rotate(-0.0)">
      <text x="0.000" y="0.000" font-family="Helvetica" text-anchor="middle" font-size="10pt" fill="#000000" >-400</text>
    </g>
  </g>
  <g transform="translate(159.600,392.446)">
    <g transform="rotate(-0.0)">
      <text x="0.000" y="0.000" font-family="Helvetica" text-anchor="middle" font-size="10pt" fill="#000000" >-200</text>
    </g>
  </g>
  <g transform="translate(203.000,392.446)">
    <g transform="rotate(-0.0)">
      <text x="0.000" y="0.000" font-family="Helvetica" text-anchor="middle" font-size="10pt" fill="#000000" >0</text>
    </g>
  </g>
  <g transform="translate(246.400,392.446)">
    <g transform="rotate(-0.0)">
      <text x="0.000" y="0.000" font-family="Helvetica" text-anchor="middle" font-size="10pt" fill="#000000" >200</text>
    </g>
  </g>
  <g transform="translate(289.800,392.446)">
    <g transform="rotate(-0.0)">
      <text x="0.000" y="0.000" font-family="Helvetica" text-anchor="middle" font-size="10pt" fill="#000000" >400</text>
    </g>
  </g>
  <g transform="translate(333.200,392.446)">
    <g transform="rotate(-0.0)">
      <text x="0.000" y="0.000" font-family="Helvetica" text-anchor="middle" font-size="10pt" fill="#000000" >600</text>
    </g>
  </g>
  <g transform="translate(376.600,392.446)">
    <g transform="rotate(-0.0)">
      <text x="0.000" y="0.000" font-family="Helvetica" text-anchor="middle" font-size="10pt" fill="#000000" >800</text>
    </g>
  </g>
  <g transform="translate(420.000,392.446)">
    <g transform="rotate(-0.0)">
      <text x="0.000" y="0.000" font-family="Helvetica" text-anchor="middle" font-size="10pt" fill="#000000" >1000</text>
    </g>
  </g>
  <g transform="translate(463.400,392.446)">
    <g transform="rotate(-0.0)">
      <text x="0.000" y="0.000" font-family="Helvetica" text-anchor="middle" font-size="10pt" fill="#000000" >1200</text>
    </g>
  </g>
  <g transform="translate(506.800,392.446)">
    <g transform="rotate(-0.0)">
      <text x="0.000" y="0.000" font-family="Helvetica" text-anchor="middle" font-size="10pt" fill="#000000" >1400</text>
    </g>
  </g>
      <polyline fill="none" stroke="#000000" stroke-width="0.5pt" stroke-dasharray="none" points="72.800,373.800 77.140,373.800 "/>
      <polyline fill="none" stroke="#000000" stroke-width="0.5pt" stroke-dasharray="none" points="72.800,339.570 77.140,339.570 "/>
      <polyline fill="none" stroke="#000000" stroke-width="0.5pt" stroke-dasharray="none" points="72.800,305.340 77.140,305.340 "/>
      <polyline fill="none" stroke="#000000" stroke-width="0.5pt" stroke-dasharray="none" points="72.800,271.110 77.140,271.110 "/>
      <polyline fill="none" stroke="#000000" stroke-width="0.5pt" stroke-dasharray="none" points="72.800,236.880 77.140,236.880 "/>
      <polyline fill="none" stroke="#000000" stroke-width="0.5pt" stroke-dasharray="none" points="72.800,202.650 77.140,202.650 "/>
      <polyline fill="none" stroke="#000000" stroke-width="0.5pt" stroke-dasharray="none" points="72.800,168.420 77.140,168.420 "/>
      <polyline fill="none" stroke="#000000" stroke-width="0.5pt" stroke-dasharray="none" points="72.800,134.190 77.140,134.190 "/>
      <polyline fill="none" stroke="#000000" stroke-width="0.5pt" stroke-dasharray="none" points="72.800,99.960 77.140,99.960 "/>
      <polyline fill="none" stroke="#000000" stroke-width="0.5pt" stroke-dasharray="none" points="72.800,65.730 77.140,65.730 "/>
      <polyline fill="none" stroke="#000000" stroke-width="0.5pt" stroke-dasharray="none" points="72.800,31.500 77.140,31.500 "/>
      <polyline fill="none" stroke="#000000" stroke-width="0.5pt" stroke-dasharray="none" points="72.800,373.800 72.800,31.500 "/>
  <g transform="translate(64.120,378.300)">
    <g transform="rotate(-0.0)">
      <text x="0.000" y="0.000" font-family="Helvetica" text-anchor="end" font-size="10pt" fill="#000000" >0</text>
    </g>
  </g>
  <g transform="translate(64.120,344.070)">
    <g transform="rotate(-0.0)">
      <text x="0.000" y="0.000" font-family="Helvetica" text-anchor="end" font-size="10pt" fill="#000000" >0.1</text>
    </g>
  </g>
  <g transform="translate(64.120,309.840)">
    <g transform="rotate(-0.0)">
      <text x="0.000" y="0.000" font-family="Helvetica" text-anchor="end" font-size="10pt" fill="#000000" >0.2</text>
    </g>
  </g>
  <g transform="translate(64.120,275.610)">
    <g transform="rotate(-0.0)">
      <text x="0.000" y="0.000" font-family="Helvetica" text-anchor="end" font-size="10pt" fill="#000000" >0.3</text>
    </g>
  </g>
  <g transform="translate(64.120,241.380)">
    <g transform="rotate(-0.0)">
      <text x="0.000" y="0.000" font-family="Helvetica" text-anchor="end" font-size="10pt" fill="#000000" >0.4</text>
    </g>
  </g>
  <g transform="translate(64.120,207.150)">
    <g transform="rotate(-0.0)">
      <text x="0.000" y="0.000" font-family="Helvetica" text-anchor="end" font-size="10pt" fill="#000000" >0.5</text>
    </g>
  </g>
  <g transform="translate(64.120,172.920)">
    <g transform="rotate(-0.0)">
      <text x="0.000" y="0.000" font-family="Helvetica" text-anchor="end" font-size="10pt" fill="#000000" >0.6</text>
    </g>
  </g>
  <g transform="translate(64.120,138.690)">
    <g transform="rotate(-0.0)">
      <text x="0.000" y="0.000" font-family="Helvetica" text-anchor="end" font-size="10pt" fill="#000000" >0.7</text>
    </g>
  </g>
  <g transform="translate(64.120,104.460)">
    <g transform="rotate(-0.0)">
      <text x="0.000" y="0.000" font-family="Helvetica" text-anchor="end" font-size="10pt" fill="#000000" >0.8</text>
    </g>
  </g>
  <g transform="translate(64.120,70.230)">
    <g transform="rotate(-0.0)">
      <text x="0.000" y="0.000" font-family="Helvetica" text-anchor="end" font-size="10pt" fill="#000000" >0.9</text>
    </g>
  </g>
  <g transform="translate(64.120,36.000)">
    <g transform="rotate(-0.0)">
      <text x="0.000" y="0.000" font-family="Helvetica" text-anchor="end" font-size="10pt" fill="#000000" >1</text>
    </g>
  </g>
      <polyline fill="none" stroke="#000000" stroke-width="0.5pt" stroke-dasharray="none" points="72.800,373.800 72.800,370.377 "/>
      <polyline fill="none" stroke="#000000" stroke-width="0.5pt" stroke-dasharray="none" points="72.800,373.800 72.800,370.377 "/>
      <polyline fill="none" stroke="#000000" stroke-width="0.5pt" stroke-dasharray="none" points="72.800,373.800 72.800,370.377 "/>
      <polyline fill="none" stroke="#000000" stroke-width="0.5pt" stroke-dasharray="none" points="72.800,373.800 72.800,373.800 "/>
    </g>
  </g>
  <g id ="ID000025">
  <clipPath id="ID000026">
    <rect x="79.250" y="277.875" width="123.500" height="86.875"/>
  </clipPath>
      <polygon fill="#ffffff" fill-opacity="1.00" stroke="none" stroke-width="0.5pt" stroke-opacity="1.00" stroke-dasharray="none" points="79.250,364.750 202.750,364.750 202.750,277.875 79.250,277.875 "/>
      <polygon fill="#ffffff" fill-opacity="1.00" stroke="none" stroke-width="0.5pt" stroke-opacity="1.00" stroke-dasharray="none" points="79.250,277.875 202.750,277.875 202.750,277.875 79.250,277.875 "/>
      <polygon fill="#ffffff" fill-opacity="1.00" stroke="none" stroke-width="0.5pt" stroke-opacity="1.00" stroke-dasharray="none" points="79.250,364.750 79.250,364.750 79.250,277.875 79.250,277.875 "/>
    <g>
<g id="ID000027" >
  <g transform="translate(128.550,295.856)">
    <g transform="rotate(-0.0)">
      <text x="0.000" y="0.000" font-family="Helvetica" text-anchor="start" font-size="10pt" fill="#000000" >LIP class 1</text>
    </g>
  </g>
</g>
<g id="ID000028" clip-path="url(#ID000026)" >
      <polyline fill="none" stroke="#add8e6" stroke-width="0.5pt" stroke-dasharray="none" points="86.750,290.375 124.250,290.375 "/>
<g>
</g>
</g>
<g id="ID000029" clip-path="url(#ID000026)" >
<g>
</g>
</g>
<g id="ID000030" >
  <g transform="translate(128.550,316.825)">
    <g transform="rotate(-0.0)">
      <text x="0.000" y="0.000" font-family="Helvetica" text-anchor="start" font-size="10pt" fill="#000000" >LIP class 2</text>
    </g>
  </g>
</g>
<g id="ID000031" clip-path="url(#ID000026)" >
      <polyline fill="none" stroke="#000080" stroke-width="0.5pt" stroke-dasharray="none" points="86.750,311.000 124.250,311.000 "/>
<g>
</g>
</g>
<g id="ID000032" clip-path="url(#ID000026)" >
<g>
</g>
</g>
<g id="ID000033" >
  <g transform="translate(128.550,336.797)">
    <g transform="rotate(-0.0)">
      <text x="0.000" y="0.000" font-family="Helvetica" text-anchor="start" font-size="10pt" fill="#000000" >PITd class 1</text>
    </g>
  </g>
</g>
<g id="ID000034" clip-path="url(#ID000026)" >
      <polyline fill="none" stroke="#f08080" stroke-width="0.5pt" stroke-dasharray="none" points="86.750,331.625 124.250,331.625 "/>
<g>
</g>
</g>
<g id="ID000035" clip-path="url(#ID000026)" >
<g>
</g>
</g>
<g id="ID000036" >
  <g transform="translate(128.550,357.767)">
    <g transform="rotate(-0.0)">
      <text x="0.000" y="0.000" font-family="Helvetica" text-anchor="start" font-size="10pt" fill="#000000" >PITd class 2</text>
    </g>
  </g>
</g>
<g id="ID000037" clip-path="url(#ID000026)" >
      <polyline fill="none" stroke="#ff0000" stroke-width="0.5pt" stroke-dasharray="none" points="86.750,352.250 124.250,352.250 "/>
<g>
</g>
</g>
<g id="ID000038" clip-path="url(#ID000026)" >
<g>
</g>
</g>
<g id="ID000039" >
</g>
<g id="ID000040" >
</g>
<g id="ID000041" >
</g>
    </g>
    <g>
      <polyline fill="none" stroke="#000000" stroke-width="0.5pt" stroke-dasharray="none" points="79.250,364.750 202.750,364.750 "/>
      <polyline fill="none" stroke="#000000" stroke-width="0.5pt" stroke-dasharray="none" points="79.250,277.875 202.750,277.875 "/>
      <polyline fill="none" stroke="#000000" stroke-width="0.5pt" stroke-dasharray="none" points="79.250,364.750 79.250,277.875 "/>
      <polyline fill="none" stroke="#000000" stroke-width="0.5pt" stroke-dasharray="none" points="202.750,364.750 202.750,277.875 "/>
      <polyline fill="none" stroke="#000000" stroke-width="0.5pt" stroke-dasharray="none" points="79.250,364.750 79.250,363.881 "/>
      <polyline fill="none" stroke="#000000" stroke-width="0.5pt" stroke-dasharray="none" points="79.250,364.750 79.250,364.750 "/>
    </g>
  </g>
  </g>
</svg>
