<?xml version="1.0" encoding="utf-8" standalone="no"?><!DOCTYPE svg PUBLIC "-//W3C//DTD SVG 1.1//EN" "http://www.w3.org/Graphics/SVG/1.1/DTD/svg11.dtd">
<svg preserveAspectRatio="xMinYMin meet" width="100%" height="100%" viewBox="0 0 560.000 420.000"  version="1.1" xmlns="http://www.w3.org/2000/svg" xmlns:xlink="http://www.w3.org/1999/xlink">
  <desc>Matlab Figure Converted by PLOT2SVG written by Juerg Schwizer</desc>
  <g id="topgroup">
  <rect x="0" y="0" width="560.000" height="420.000" fill="#ffffff" stroke="none" />
  <g id ="ID000000">
  <clipPath id="ID000001">
    <rect x="72.800" y="38.000" width="434.000" height="334.000"/>
  </clipPath>
      <polygon fill="#ffffff" fill-opacity="1.00" stroke="none" stroke-width="0.5pt" stroke-opacity="1.00" stroke-dasharray="none" points="72.800,372.000 506.800,372.000 506.800,38.000 72.800,38.000 "/>
      <polygon fill="#ffffff" fill-opacity="1.00" stroke="none" stroke-width="0.5pt" stroke-opacity="1.00" stroke-dasharray="none" points="72.800,38.000 506.800,38.000 506.800,38.000 72.800,38.000 "/>
      <polygon fill="#ffffff" fill-opacity="1.00" stroke="none" stroke-width="0.5pt" stroke-opacity="1.00" stroke-dasharray="none" points="72.800,372.000 72.800,372.000 72.800,38.000 72.800,38.000 "/>
    <g>
<g id="ID000002" clip-path="url(#ID000001)" >
      <polygon fill="#000080" fill-opacity="0.08" stroke="none" stroke-width="0.5pt" stroke-opacity="1.00" stroke-dasharray="none" points="72.800,240.833 95.642,220.674 118.484,226.697 141.326,219.507 164.168,220.656 187.011,237.655 209.853,244.929 232.695,225.034 255.537,221.921 278.379,225.317 301.221,230.836 324.063,237.179 346.905,229.740 369.747,231.069 392.589,230.170 415.432,234.096 438.274,232.307 461.116,220.897 483.958,221.629 506.800,231.414 506.800,183.318 483.958,170.697 461.116,173.099 438.274,181.868 415.432,180.079 392.589,184.283 369.747,180.323 346.905,179.982 324.063,186.876 301.221,171.371 278.379,173.967 255.537,172.353 232.695,188.863 209.853,192.765 187.011,173.736 164.168,164.294 141.326,163.217 118.484,167.855 95.642,157.596 72.800,177.795 "/>
</g>
<g id="ID000003" clip-path="url(#ID000001)" >
      <polyline fill="none" stroke="#000080" stroke-width="2.0pt" stroke-dasharray="none" points="72.800,209.314 95.642,189.135 118.484,197.276 141.326,191.362 164.168,192.475 187.011,205.696 209.853,218.847 232.695,206.948 255.537,197.137 278.379,199.642 301.221,201.103 324.063,212.028 346.905,204.861 369.747,205.696 392.589,207.227 415.432,207.087 438.274,207.088 461.116,196.998 483.958,196.163 506.800,207.366 "/>
<g>
<circle cx="72.800" cy="209.314" r="3.333" fill="#000080" stroke="none" stroke-width="2.0pt" />
<circle cx="95.642" cy="189.135" r="3.333" fill="#000080" stroke="none" stroke-width="2.0pt" />
<circle cx="118.484" cy="197.276" r="3.333" fill="#000080" stroke="none" stroke-width="2.0pt" />
<circle cx="141.326" cy="191.362" r="3.333" fill="#000080" stroke="none" stroke-width="2.0pt" />
<circle cx="164.168" cy="192.475" r="3.333" fill="#000080" stroke="none" stroke-width="2.0pt" />
<circle cx="187.011" cy="205.696" r="3.333" fill="#000080" stroke="none" stroke-width="2.0pt" />
<circle cx="209.853" cy="218.847" r="3.333" fill="#000080" stroke="none" stroke-width="2.0pt" />
<circle cx="232.695" cy="206.948" r="3.333" fill="#000080" stroke="none" stroke-width="2.0pt" />
<circle cx="255.537" cy="197.137" r="3.333" fill="#000080" stroke="none" stroke-width="2.0pt" />
<circle cx="278.379" cy="199.642" r="3.333" fill="#000080" stroke="none" stroke-width="2.0pt" />
<circle cx="301.221" cy="201.103" r="3.333" fill="#000080" stroke="none" stroke-width="2.0pt" />
<circle cx="324.063" cy="212.028" r="3.333" fill="#000080" stroke="none" stroke-width="2.0pt" />
<circle cx="346.905" cy="204.861" r="3.333" fill="#000080" stroke="none" stroke-width="2.0pt" />
<circle cx="369.747" cy="205.696" r="3.333" fill="#000080" stroke="none" stroke-width="2.0pt" />
<circle cx="392.589" cy="207.227" r="3.333" fill="#000080" stroke="none" stroke-width="2.0pt" />
<circle cx="415.432" cy="207.087" r="3.333" fill="#000080" stroke="none" stroke-width="2.0pt" />
<circle cx="438.274" cy="207.088" r="3.333" fill="#000080" stroke="none" stroke-width="2.0pt" />
<circle cx="461.116" cy="196.998" r="3.333" fill="#000080" stroke="none" stroke-width="2.0pt" />
<circle cx="483.958" cy="196.163" r="3.333" fill="#000080" stroke="none" stroke-width="2.0pt" />
<circle cx="506.800" cy="207.366" r="3.333" fill="#000080" stroke="none" stroke-width="2.0pt" />
</g>
</g>
<g id="ID000004" clip-path="url(#ID000001)" >
      <polygon fill="#ff0000" fill-opacity="0.08" stroke="none" stroke-width="0.5pt" stroke-opacity="1.00" stroke-dasharray="none" points="72.800,246.348 95.642,238.832 118.484,241.464 141.326,247.765 164.168,227.964 187.011,230.319 209.853,226.896 232.695,239.548 255.537,239.129 278.379,230.219 301.221,231.660 324.063,233.468 346.905,235.876 369.747,229.851 392.589,222.527 415.432,220.911 438.274,242.027 461.116,224.300 483.958,217.850 506.800,217.883 506.800,164.283 483.958,173.780 461.116,171.505 438.274,187.735 415.432,166.683 392.589,163.814 369.747,174.444 346.905,175.794 324.063,183.908 301.221,172.495 278.379,176.163 255.537,193.416 232.695,190.214 209.853,177.816 187.011,175.089 164.168,163.527 141.326,184.363 118.484,173.128 95.642,181.745 72.800,177.151 "/>
</g>
<g id="ID000005" clip-path="url(#ID000001)" >
      <polyline fill="none" stroke="#ff0000" stroke-width="2.0pt" stroke-dasharray="none" points="72.800,211.750 95.642,210.288 118.484,207.296 141.326,216.064 164.168,195.745 187.011,202.704 209.853,202.356 232.695,214.881 255.537,216.273 278.379,203.191 301.221,202.078 324.063,208.688 346.905,205.835 369.747,202.147 392.589,193.171 415.432,193.797 438.274,214.881 461.116,197.903 483.958,195.815 506.800,191.083 "/>
<g>
<circle cx="72.800" cy="211.750" r="3.333" fill="#ff0000" stroke="none" stroke-width="2.0pt" />
<circle cx="95.642" cy="210.288" r="3.333" fill="#ff0000" stroke="none" stroke-width="2.0pt" />
<circle cx="118.484" cy="207.296" r="3.333" fill="#ff0000" stroke="none" stroke-width="2.0pt" />
<circle cx="141.326" cy="216.064" r="3.333" fill="#ff0000" stroke="none" stroke-width="2.0pt" />
<circle cx="164.168" cy="195.745" r="3.333" fill="#ff0000" stroke="none" stroke-width="2.0pt" />
<circle cx="187.011" cy="202.704" r="3.333" fill="#ff0000" stroke="none" stroke-width="2.0pt" />
<circle cx="209.853" cy="202.356" r="3.333" fill="#ff0000" stroke="none" stroke-width="2.0pt" />
<circle cx="232.695" cy="214.881" r="3.333" fill="#ff0000" stroke="none" stroke-width="2.0pt" />
<circle cx="255.537" cy="216.273" r="3.333" fill="#ff0000" stroke="none" stroke-width="2.0pt" />
<circle cx="278.379" cy="203.191" r="3.333" fill="#ff0000" stroke="none" stroke-width="2.0pt" />
<circle cx="301.221" cy="202.078" r="3.333" fill="#ff0000" stroke="none" stroke-width="2.0pt" />
<circle cx="324.063" cy="208.688" r="3.333" fill="#ff0000" stroke="none" stroke-width="2.0pt" />
<circle cx="346.905" cy="205.835" r="3.333" fill="#ff0000" stroke="none" stroke-width="2.0pt" />
<circle cx="369.747" cy="202.147" r="3.333" fill="#ff0000" stroke="none" stroke-width="2.0pt" />
<circle cx="392.589" cy="193.171" r="3.333" fill="#ff0000" stroke="none" stroke-width="2.0pt" />
<circle cx="415.432" cy="193.797" r="3.333" fill="#ff0000" stroke="none" stroke-width="2.0pt" />
<circle cx="438.274" cy="214.881" r="3.333" fill="#ff0000" stroke="none" stroke-width="2.0pt" />
<circle cx="461.116" cy="197.903" r="3.333" fill="#ff0000" stroke="none" stroke-width="2.0pt" />
<circle cx="483.958" cy="195.815" r="3.333" fill="#ff0000" stroke="none" stroke-width="2.0pt" />
<circle cx="506.800" cy="191.083" r="3.333" fill="#ff0000" stroke="none" stroke-width="2.0pt" />
</g>
</g>
<g id="ID000006" clip-path="url(#ID000001)" >
      <polyline fill="none" stroke="#000000" stroke-width="0.5pt" stroke-dasharray="8.0,2.0" points="164.168,372.000 164.168,38.000 "/>
<g>
</g>
</g>
<g id="ID000007" >
  <g transform="translate(288.300,22.750)">
    <g transform="rotate(-0.0)">
      <text x="0.000" y="0.000" font-family="Helvetica" text-anchor="middle" font-size="15pt" fill="#000000" >Mean decoding for brt abs tr phi out te phi in  Michel</text>
    </g>
  </g>
</g>
<g id="ID000008" >
  <g transform="translate(28.550,206.500)">
    <g transform="rotate(-90.0)">
      <text x="0.000" y="0.000" font-family="Helvetica" text-anchor="middle" font-size="15pt" fill="#000000" >Decoding accuracy (%)</text>
    </g>
  </g>
</g>
<g id="ID000009" >
  <g transform="translate(288.300,418.750)">
    <g transform="rotate(-0.0)">
      <text x="0.000" y="0.000" font-family="Helvetica" text-anchor="middle" font-size="15pt" fill="#000000" >Time from stimulus onset (s)</text>
    </g>
  </g>
</g>
<g id="ID000010" clip-path="url(#ID000001)" >
      <polyline fill="none" stroke="#000000" stroke-width="0.5pt" stroke-dasharray="none" points="72.800,205.000 506.800,205.000 "/>
<g>
</g>
</g>
    </g>
    <g>
      <polyline fill="none" stroke="#000000" stroke-width="0.5pt" stroke-dasharray="none" points="164.168,372.000 164.168,367.660 "/>
      <polyline fill="none" stroke="#000000" stroke-width="0.5pt" stroke-dasharray="none" points="278.379,372.000 278.379,367.660 "/>
      <polyline fill="none" stroke="#000000" stroke-width="0.5pt" stroke-dasharray="none" points="392.589,372.000 392.589,367.660 "/>
      <polyline fill="none" stroke="#000000" stroke-width="0.5pt" stroke-dasharray="none" points="506.800,372.000 506.800,367.660 "/>
      <polyline fill="none" stroke="#000000" stroke-width="0.5pt" stroke-dasharray="none" points="72.800,372.000 506.800,372.000 "/>
  <g transform="translate(164.168,396.380)">
    <g transform="rotate(-0.0)">
      <text x="0.000" y="0.000" font-family="Helvetica" text-anchor="middle" font-size="15pt" fill="#000000" >0</text>
    </g>
  </g>
  <g transform="translate(278.379,396.380)">
    <g transform="rotate(-0.0)">
      <text x="0.000" y="0.000" font-family="Helvetica" text-anchor="middle" font-size="15pt" fill="#000000" >0.5</text>
    </g>
  </g>
  <g transform="translate(392.589,396.380)">
    <g transform="rotate(-0.0)">
      <text x="0.000" y="0.000" font-family="Helvetica" text-anchor="middle" font-size="15pt" fill="#000000" >1</text>
    </g>
  </g>
  <g transform="translate(506.800,396.380)">
    <g transform="rotate(-0.0)">
      <text x="0.000" y="0.000" font-family="Helvetica" text-anchor="middle" font-size="15pt" fill="#000000" >1.5</text>
    </g>
  </g>
      <polyline fill="none" stroke="#000000" stroke-width="0.5pt" stroke-dasharray="none" points="72.800,372.000 77.140,372.000 "/>
      <polyline fill="none" stroke="#000000" stroke-width="0.5pt" stroke-dasharray="none" points="72.800,288.500 77.140,288.500 "/>
      <polyline fill="none" stroke="#000000" stroke-width="0.5pt" stroke-dasharray="none" points="72.800,205.000 77.140,205.000 "/>
      <polyline fill="none" stroke="#000000" stroke-width="0.5pt" stroke-dasharray="none" points="72.800,121.500 77.140,121.500 "/>
      <polyline fill="none" stroke="#000000" stroke-width="0.5pt" stroke-dasharray="none" points="72.800,38.000 77.140,38.000 "/>
      <polyline fill="none" stroke="#000000" stroke-width="0.5pt" stroke-dasharray="none" points="72.800,372.000 72.800,38.000 "/>
  <g transform="translate(64.120,378.750)">
    <g transform="rotate(-0.0)">
      <text x="0.000" y="0.000" font-family="Helvetica" text-anchor="end" font-size="15pt" fill="#000000" >0</text>
    </g>
  </g>
  <g transform="translate(64.120,295.250)">
    <g transform="rotate(-0.0)">
      <text x="0.000" y="0.000" font-family="Helvetica" text-anchor="end" font-size="15pt" fill="#000000" >25</text>
    </g>
  </g>
  <g transform="translate(64.120,211.750)">
    <g transform="rotate(-0.0)">
      <text x="0.000" y="0.000" font-family="Helvetica" text-anchor="end" font-size="15pt" fill="#000000" >50</text>
    </g>
  </g>
  <g transform="translate(64.120,128.250)">
    <g transform="rotate(-0.0)">
      <text x="0.000" y="0.000" font-family="Helvetica" text-anchor="end" font-size="15pt" fill="#000000" >75</text>
    </g>
  </g>
  <g transform="translate(64.120,44.750)">
    <g transform="rotate(-0.0)">
      <text x="0.000" y="0.000" font-family="Helvetica" text-anchor="end" font-size="15pt" fill="#000000" >100</text>
    </g>
  </g>
      <polyline fill="none" stroke="#000000" stroke-width="0.5pt" stroke-dasharray="none" points="72.800,372.000 72.800,368.660 "/>
      <polyline fill="none" stroke="#000000" stroke-width="0.5pt" stroke-dasharray="none" points="72.800,372.000 72.800,368.660 "/>
      <polyline fill="none" stroke="#000000" stroke-width="0.5pt" stroke-dasharray="none" points="72.800,372.000 72.800,368.660 "/>
      <polyline fill="none" stroke="#000000" stroke-width="0.5pt" stroke-dasharray="none" points="72.800,372.000 72.800,372.000 "/>
    </g>
  </g>
  </g>
</svg>
