<?xml version="1.0" encoding="utf-8" standalone="no"?><!DOCTYPE svg PUBLIC "-//W3C//DTD SVG 1.1//EN" "http://www.w3.org/Graphics/SVG/1.1/DTD/svg11.dtd">
<svg preserveAspectRatio="xMinYMin meet" width="100%" height="100%" viewBox="0 0 560.000 420.000"  version="1.1" xmlns="http://www.w3.org/2000/svg" xmlns:xlink="http://www.w3.org/1999/xlink">
  <desc>Matlab Figure Converted by PLOT2SVG written by Juerg Schwizer</desc>
  <g id="topgroup">
  <rect x="0" y="0" width="560.000" height="420.000" fill="#ffffff" stroke="none" />
  <g id ="ID000000">
  <clipPath id="ID000001">
    <rect x="72.800" y="31.500" width="434.000" height="342.300"/>
  </clipPath>
      <polygon fill="#ffffff" fill-opacity="1.00" stroke="none" stroke-width="0.5pt" stroke-opacity="1.00" stroke-dasharray="none" points="72.800,373.800 506.800,373.800 506.800,31.500 72.800,31.500 "/>
      <polygon fill="#ffffff" fill-opacity="1.00" stroke="none" stroke-width="0.5pt" stroke-opacity="1.00" stroke-dasharray="none" points="72.800,31.500 506.800,31.500 506.800,31.500 72.800,31.500 "/>
      <polygon fill="#ffffff" fill-opacity="1.00" stroke="none" stroke-width="0.5pt" stroke-opacity="1.00" stroke-dasharray="none" points="72.800,373.800 72.800,373.800 72.800,31.500 72.800,31.500 "/>
    <g>
<g id="ID000002" clip-path="url(#ID000001)" >
      <polygon fill="#ffd8d8" fill-opacity="1.00" stroke="none" stroke-width="0.5pt" stroke-opacity="1.00" stroke-dasharray="none" points="94.500,195.093 116.200,209.656 137.900,238.829 159.600,235.734 181.300,215.185 203.000,243.492 224.700,249.022 246.400,182.975 268.100,183.385 289.800,227.407 311.500,221.434 333.200,244.506 354.900,246.506 376.600,306.941 398.300,273.682 420.000,228.774 441.700,243.706 463.400,227.958 485.100,212.592 506.800,185.607 506.800,166.066 485.100,193.564 463.400,208.719 441.700,226.346 420.000,207.904 398.300,253.705 376.600,289.191 354.900,226.398 333.200,225.831 311.500,200.411 289.800,204.136 268.100,160.016 246.400,157.858 224.700,223.312 203.000,223.993 181.300,198.673 159.600,219.770 137.900,224.092 116.200,193.932 94.500,179.685 "/>
</g>
<g id="ID000003" clip-path="url(#ID000001)" >
      <polyline fill="none" stroke="#ff8c8c" stroke-width="0.5pt" stroke-dasharray="none" points="94.500,195.093 116.200,209.656 137.900,238.829 159.600,235.734 181.300,215.185 203.000,243.492 224.700,249.022 246.400,182.975 268.100,183.385 289.800,227.407 311.500,221.434 333.200,244.506 354.900,246.506 376.600,306.941 398.300,273.682 420.000,228.774 441.700,243.706 463.400,227.958 485.100,212.592 506.800,185.607 "/>
<g>
</g>
</g>
<g id="ID000004" clip-path="url(#ID000001)" >
      <polyline fill="none" stroke="#ff8c8c" stroke-width="0.5pt" stroke-dasharray="none" points="94.500,179.685 116.200,193.932 137.900,224.092 159.600,219.770 181.300,198.673 203.000,223.993 224.700,223.312 246.400,157.858 268.100,160.016 289.800,204.136 311.500,200.411 333.200,225.831 354.900,226.398 376.600,289.191 398.300,253.705 420.000,207.904 441.700,226.346 463.400,208.719 485.100,193.564 506.800,166.066 "/>
<g>
</g>
</g>
<g id="ID000005" clip-path="url(#ID000001)" >
      <polyline fill="none" stroke="#ff0000" stroke-width="0.5pt" stroke-dasharray="none" points="94.500,187.389 116.200,201.794 137.900,231.460 159.600,227.752 181.300,206.929 203.000,233.742 224.700,236.167 246.400,170.417 268.100,171.700 289.800,215.772 311.500,210.922 333.200,235.168 354.900,236.452 376.600,298.066 398.300,263.694 420.000,218.339 441.700,235.026 463.400,218.339 485.100,203.078 506.800,175.837 "/>
<g>
</g>
</g>
<g id="ID000006" clip-path="url(#ID000001)" >
      <polygon fill="#d8ffff" fill-opacity="1.00" stroke="none" stroke-width="0.5pt" stroke-opacity="1.00" stroke-dasharray="none" points="94.500,225.615 116.200,211.368 137.900,181.208 159.600,185.530 181.300,206.627 203.000,181.307 224.700,181.988 246.400,247.442 268.100,245.284 289.800,201.164 311.500,204.889 333.200,179.469 354.900,178.902 376.600,116.109 398.300,151.595 420.000,197.396 441.700,178.954 463.400,196.581 485.100,211.736 506.800,239.234 506.800,219.693 485.100,192.708 463.400,177.342 441.700,161.594 420.000,176.526 398.300,131.618 376.600,98.359 354.900,158.794 333.200,160.794 311.500,183.866 289.800,177.893 268.100,221.915 246.400,222.325 224.700,156.278 203.000,161.808 181.300,190.115 159.600,169.566 137.900,166.471 116.200,195.644 94.500,210.207 "/>
</g>
<g id="ID000007" clip-path="url(#ID000001)" >
      <polyline fill="none" stroke="#8cffff" stroke-width="0.5pt" stroke-dasharray="none" points="94.500,225.615 116.200,211.368 137.900,181.208 159.600,185.530 181.300,206.627 203.000,181.307 224.700,181.988 246.400,247.442 268.100,245.284 289.800,201.164 311.500,204.889 333.200,179.469 354.900,178.902 376.600,116.109 398.300,151.595 420.000,197.396 441.700,178.954 463.400,196.581 485.100,211.736 506.800,239.234 "/>
<g>
</g>
</g>
<g id="ID000008" clip-path="url(#ID000001)" >
      <polyline fill="none" stroke="#8cffff" stroke-width="0.5pt" stroke-dasharray="none" points="94.500,210.207 116.200,195.644 137.900,166.471 159.600,169.566 181.300,190.115 203.000,161.808 224.700,156.278 246.400,222.325 268.100,221.915 289.800,177.893 311.500,183.866 333.200,160.794 354.900,158.794 376.600,98.359 398.300,131.618 420.000,176.526 441.700,161.594 463.400,177.342 485.100,192.708 506.800,219.693 "/>
<g>
</g>
</g>
<g id="ID000009" clip-path="url(#ID000001)" >
      <polyline fill="none" stroke="#00ffff" stroke-width="0.5pt" stroke-dasharray="none" points="94.500,217.911 116.200,203.506 137.900,173.840 159.600,177.548 181.300,198.371 203.000,171.558 224.700,169.133 246.400,234.883 268.100,233.600 289.800,189.528 311.500,194.378 333.200,170.132 354.900,168.848 376.600,107.234 398.300,141.607 420.000,186.961 441.700,170.274 463.400,186.961 485.100,202.222 506.800,229.464 "/>
<g>
</g>
</g>
<g id="ID000010" clip-path="url(#ID000001)" >
      <polyline fill="none" stroke="#000000" stroke-width="0.5pt" stroke-dasharray="none" points="72.800,202.650 506.800,202.650 "/>
<g>
</g>
</g>
<g id="ID000011" clip-path="url(#ID000001)" >
      <polyline fill="none" stroke="#000000" stroke-width="2.0pt" stroke-dasharray="none" points="203.000,373.800 203.000,31.500 "/>
<g>
</g>
</g>
<g id="ID000012" >
  <g transform="translate(289.300,21.493)">
    <g transform="rotate(-0.0)">
      <text x="0.000" y="0.000" font-family="Helvetica" text-anchor="middle" font-size="10pt" fill="#000000" >Decode brt rel tr phi out te phi in  class 2 presented</text>
    </g>
  </g>
</g>
<g id="ID000013" >
</g>
<g id="ID000014" >
</g>
<g id="ID000015" >
</g>
<g id="ID000016" >
</g>
    </g>
    <g>
      <polyline fill="none" stroke="#000000" stroke-width="0.5pt" stroke-dasharray="none" points="72.800,373.800 72.800,369.460 "/>
      <polyline fill="none" stroke="#000000" stroke-width="0.5pt" stroke-dasharray="none" points="116.200,373.800 116.200,369.460 "/>
      <polyline fill="none" stroke="#000000" stroke-width="0.5pt" stroke-dasharray="none" points="159.600,373.800 159.600,369.460 "/>
      <polyline fill="none" stroke="#000000" stroke-width="0.5pt" stroke-dasharray="none" points="203.000,373.800 203.000,369.460 "/>
      <polyline fill="none" stroke="#000000" stroke-width="0.5pt" stroke-dasharray="none" points="246.400,373.800 246.400,369.460 "/>
      <polyline fill="none" stroke="#000000" stroke-width="0.5pt" stroke-dasharray="none" points="289.800,373.800 289.800,369.460 "/>
      <polyline fill="none" stroke="#000000" stroke-width="0.5pt" stroke-dasharray="none" points="333.200,373.800 333.200,369.460 "/>
      <polyline fill="none" stroke="#000000" stroke-width="0.5pt" stroke-dasharray="none" points="376.600,373.800 376.600,369.460 "/>
      <polyline fill="none" stroke="#000000" stroke-width="0.5pt" stroke-dasharray="none" points="420.000,373.800 420.000,369.460 "/>
      <polyline fill="none" stroke="#000000" stroke-width="0.5pt" stroke-dasharray="none" points="463.400,373.800 463.400,369.460 "/>
      <polyline fill="none" stroke="#000000" stroke-width="0.5pt" stroke-dasharray="none" points="506.800,373.800 506.800,369.460 "/>
      <polyline fill="none" stroke="#000000" stroke-width="0.5pt" stroke-dasharray="none" points="72.800,373.800 506.800,373.800 "/>
  <g transform="translate(72.800,392.446)">
    <g transform="rotate(-0.0)">
      <text x="0.000" y="0.000" font-family="Helvetica" text-anchor="middle" font-size="10pt" fill="#000000" >-600</text>
    </g>
  </g>
  <g transform="translate(116.200,392.446)">
    <g transform="rotate(-0.0)">
      <text x="0.000" y="0.000" font-family="Helvetica" text-anchor="middle" font-size="10pt" fill="#000000" >-400</text>
    </g>
  </g>
  <g transform="translate(159.600,392.446)">
    <g transform="rotate(-0.0)">
      <text x="0.000" y="0.000" font-family="Helvetica" text-anchor="middle" font-size="10pt" fill="#000000" >-200</text>
    </g>
  </g>
  <g transform="translate(203.000,392.446)">
    <g transform="rotate(-0.0)">
      <text x="0.000" y="0.000" font-family="Helvetica" text-anchor="middle" font-size="10pt" fill="#000000" >0</text>
    </g>
  </g>
  <g transform="translate(246.400,392.446)">
    <g transform="rotate(-0.0)">
      <text x="0.000" y="0.000" font-family="Helvetica" text-anchor="middle" font-size="10pt" fill="#000000" >200</text>
    </g>
  </g>
  <g transform="translate(289.800,392.446)">
    <g transform="rotate(-0.0)">
      <text x="0.000" y="0.000" font-family="Helvetica" text-anchor="middle" font-size="10pt" fill="#000000" >400</text>
    </g>
  </g>
  <g transform="translate(333.200,392.446)">
    <g transform="rotate(-0.0)">
      <text x="0.000" y="0.000" font-family="Helvetica" text-anchor="middle" font-size="10pt" fill="#000000" >600</text>
    </g>
  </g>
  <g transform="translate(376.600,392.446)">
    <g transform="rotate(-0.0)">
      <text x="0.000" y="0.000" font-family="Helvetica" text-anchor="middle" font-size="10pt" fill="#000000" >800</text>
    </g>
  </g>
  <g transform="translate(420.000,392.446)">
    <g transform="rotate(-0.0)">
      <text x="0.000" y="0.000" font-family="Helvetica" text-anchor="middle" font-size="10pt" fill="#000000" >1000</text>
    </g>
  </g>
  <g transform="translate(463.400,392.446)">
    <g transform="rotate(-0.0)">
      <text x="0.000" y="0.000" font-family="Helvetica" text-anchor="middle" font-size="10pt" fill="#000000" >1200</text>
    </g>
  </g>
  <g transform="translate(506.800,392.446)">
    <g transform="rotate(-0.0)">
      <text x="0.000" y="0.000" font-family="Helvetica" text-anchor="middle" font-size="10pt" fill="#000000" >1400</text>
    </g>
  </g>
      <polyline fill="none" stroke="#000000" stroke-width="0.5pt" stroke-dasharray="none" points="72.800,373.800 77.140,373.800 "/>
      <polyline fill="none" stroke="#000000" stroke-width="0.5pt" stroke-dasharray="none" points="72.800,339.570 77.140,339.570 "/>
      <polyline fill="none" stroke="#000000" stroke-width="0.5pt" stroke-dasharray="none" points="72.800,305.340 77.140,305.340 "/>
      <polyline fill="none" stroke="#000000" stroke-width="0.5pt" stroke-dasharray="none" points="72.800,271.110 77.140,271.110 "/>
      <polyline fill="none" stroke="#000000" stroke-width="0.5pt" stroke-dasharray="none" points="72.800,236.880 77.140,236.880 "/>
      <polyline fill="none" stroke="#000000" stroke-width="0.5pt" stroke-dasharray="none" points="72.800,202.650 77.140,202.650 "/>
      <polyline fill="none" stroke="#000000" stroke-width="0.5pt" stroke-dasharray="none" points="72.800,168.420 77.140,168.420 "/>
      <polyline fill="none" stroke="#000000" stroke-width="0.5pt" stroke-dasharray="none" points="72.800,134.190 77.140,134.190 "/>
      <polyline fill="none" stroke="#000000" stroke-width="0.5pt" stroke-dasharray="none" points="72.800,99.960 77.140,99.960 "/>
      <polyline fill="none" stroke="#000000" stroke-width="0.5pt" stroke-dasharray="none" points="72.800,65.730 77.140,65.730 "/>
      <polyline fill="none" stroke="#000000" stroke-width="0.5pt" stroke-dasharray="none" points="72.800,31.500 77.140,31.500 "/>
      <polyline fill="none" stroke="#000000" stroke-width="0.5pt" stroke-dasharray="none" points="72.800,373.800 72.800,31.500 "/>
  <g transform="translate(64.120,378.300)">
    <g transform="rotate(-0.0)">
      <text x="0.000" y="0.000" font-family="Helvetica" text-anchor="end" font-size="10pt" fill="#000000" >0</text>
    </g>
  </g>
  <g transform="translate(64.120,344.070)">
    <g transform="rotate(-0.0)">
      <text x="0.000" y="0.000" font-family="Helvetica" text-anchor="end" font-size="10pt" fill="#000000" >0.1</text>
    </g>
  </g>
  <g transform="translate(64.120,309.840)">
    <g transform="rotate(-0.0)">
      <text x="0.000" y="0.000" font-family="Helvetica" text-anchor="end" font-size="10pt" fill="#000000" >0.2</text>
    </g>
  </g>
  <g transform="translate(64.120,275.610)">
    <g transform="rotate(-0.0)">
      <text x="0.000" y="0.000" font-family="Helvetica" text-anchor="end" font-size="10pt" fill="#000000" >0.3</text>
    </g>
  </g>
  <g transform="translate(64.120,241.380)">
    <g transform="rotate(-0.0)">
      <text x="0.000" y="0.000" font-family="Helvetica" text-anchor="end" font-size="10pt" fill="#000000" >0.4</text>
    </g>
  </g>
  <g transform="translate(64.120,207.150)">
    <g transform="rotate(-0.0)">
      <text x="0.000" y="0.000" font-family="Helvetica" text-anchor="end" font-size="10pt" fill="#000000" >0.5</text>
    </g>
  </g>
  <g transform="translate(64.120,172.920)">
    <g transform="rotate(-0.0)">
      <text x="0.000" y="0.000" font-family="Helvetica" text-anchor="end" font-size="10pt" fill="#000000" >0.6</text>
    </g>
  </g>
  <g transform="translate(64.120,138.690)">
    <g transform="rotate(-0.0)">
      <text x="0.000" y="0.000" font-family="Helvetica" text-anchor="end" font-size="10pt" fill="#000000" >0.7</text>
    </g>
  </g>
  <g transform="translate(64.120,104.460)">
    <g transform="rotate(-0.0)">
      <text x="0.000" y="0.000" font-family="Helvetica" text-anchor="end" font-size="10pt" fill="#000000" >0.8</text>
    </g>
  </g>
  <g transform="translate(64.120,70.230)">
    <g transform="rotate(-0.0)">
      <text x="0.000" y="0.000" font-family="Helvetica" text-anchor="end" font-size="10pt" fill="#000000" >0.9</text>
    </g>
  </g>
  <g transform="translate(64.120,36.000)">
    <g transform="rotate(-0.0)">
      <text x="0.000" y="0.000" font-family="Helvetica" text-anchor="end" font-size="10pt" fill="#000000" >1</text>
    </g>
  </g>
      <polyline fill="none" stroke="#000000" stroke-width="0.5pt" stroke-dasharray="none" points="72.800,373.800 72.800,370.377 "/>
      <polyline fill="none" stroke="#000000" stroke-width="0.5pt" stroke-dasharray="none" points="72.800,373.800 72.800,370.377 "/>
      <polyline fill="none" stroke="#000000" stroke-width="0.5pt" stroke-dasharray="none" points="72.800,373.800 72.800,370.377 "/>
      <polyline fill="none" stroke="#000000" stroke-width="0.5pt" stroke-dasharray="none" points="72.800,373.800 72.800,373.800 "/>
    </g>
  </g>
  <g id ="ID000017">
  <clipPath id="ID000018">
    <rect x="79.250" y="319.125" width="235.500" height="45.625"/>
  </clipPath>
      <polygon fill="#ffffff" fill-opacity="1.00" stroke="none" stroke-width="0.5pt" stroke-opacity="1.00" stroke-dasharray="none" points="79.250,364.750 314.750,364.750 314.750,319.125 79.250,319.125 "/>
      <polygon fill="#ffffff" fill-opacity="1.00" stroke="none" stroke-width="0.5pt" stroke-opacity="1.00" stroke-dasharray="none" points="79.250,319.125 314.750,319.125 314.750,319.125 79.250,319.125 "/>
      <polygon fill="#ffffff" fill-opacity="1.00" stroke="none" stroke-width="0.5pt" stroke-opacity="1.00" stroke-dasharray="none" points="79.250,364.750 79.250,364.750 79.250,319.125 79.250,319.125 "/>
    <g>
<g id="ID000019" >
  <g transform="translate(128.645,337.015)">
    <g transform="rotate(-0.0)">
      <text x="0.000" y="0.000" font-family="Helvetica" text-anchor="start" font-size="10pt" fill="#000000" >s = 0, t = 0 &amp; s = 180, t = 0</text>
    </g>
  </g>
</g>
<g id="ID000020" clip-path="url(#ID000018)" >
      <polyline fill="none" stroke="#ff0000" stroke-width="0.5pt" stroke-dasharray="none" points="86.750,331.625 124.250,331.625 "/>
<g>
</g>
</g>
<g id="ID000021" clip-path="url(#ID000018)" >
<g>
</g>
</g>
<g id="ID000022" >
  <g transform="translate(128.645,357.844)">
    <g transform="rotate(-0.0)">
      <text x="0.000" y="0.000" font-family="Helvetica" text-anchor="start" font-size="10pt" fill="#000000" >s = 0, t = 180 &amp; s = 180, t = 180</text>
    </g>
  </g>
</g>
<g id="ID000023" clip-path="url(#ID000018)" >
      <polyline fill="none" stroke="#00ffff" stroke-width="0.5pt" stroke-dasharray="none" points="86.750,352.250 124.250,352.250 "/>
<g>
</g>
</g>
<g id="ID000024" clip-path="url(#ID000018)" >
<g>
</g>
</g>
<g id="ID000025" >
</g>
<g id="ID000026" >
</g>
<g id="ID000027" >
</g>
    </g>
    <g>
      <polyline fill="none" stroke="#000000" stroke-width="0.5pt" stroke-dasharray="none" points="79.250,364.750 314.750,364.750 "/>
      <polyline fill="none" stroke="#000000" stroke-width="0.5pt" stroke-dasharray="none" points="79.250,319.125 314.750,319.125 "/>
      <polyline fill="none" stroke="#000000" stroke-width="0.5pt" stroke-dasharray="none" points="79.250,364.750 79.250,319.125 "/>
      <polyline fill="none" stroke="#000000" stroke-width="0.5pt" stroke-dasharray="none" points="314.750,364.750 314.750,319.125 "/>
      <polyline fill="none" stroke="#000000" stroke-width="0.5pt" stroke-dasharray="none" points="79.250,364.750 79.250,364.294 "/>
      <polyline fill="none" stroke="#000000" stroke-width="0.5pt" stroke-dasharray="none" points="79.250,364.750 79.250,364.750 "/>
    </g>
  </g>
  </g>
</svg>
