<?xml version="1.0" encoding="utf-8" standalone="no"?><!DOCTYPE svg PUBLIC "-//W3C//DTD SVG 1.1//EN" "http://www.w3.org/Graphics/SVG/1.1/DTD/svg11.dtd">
<svg preserveAspectRatio="xMinYMin meet" width="100%" height="100%" viewBox="0 0 560.000 420.000"  version="1.1" xmlns="http://www.w3.org/2000/svg" xmlns:xlink="http://www.w3.org/1999/xlink">
  <desc>Matlab Figure Converted by PLOT2SVG written by Juerg Schwizer</desc>
  <g id="topgroup">
  <rect x="0" y="0" width="560.000" height="420.000" fill="#ffffff" stroke="none" />
  <g id ="ID000000">
  <clipPath id="ID000001">
    <rect x="72.800" y="31.500" width="434.000" height="342.300"/>
  </clipPath>
      <polygon fill="#ffffff" fill-opacity="1.00" stroke="none" stroke-width="0.5pt" stroke-opacity="1.00" stroke-dasharray="none" points="72.800,373.800 506.800,373.800 506.800,31.500 72.800,31.500 "/>
      <polygon fill="#ffffff" fill-opacity="1.00" stroke="none" stroke-width="0.5pt" stroke-opacity="1.00" stroke-dasharray="none" points="72.800,31.500 506.800,31.500 506.800,31.500 72.800,31.500 "/>
      <polygon fill="#ffffff" fill-opacity="1.00" stroke="none" stroke-width="0.5pt" stroke-opacity="1.00" stroke-dasharray="none" points="72.800,373.800 72.800,373.800 72.800,31.500 72.800,31.500 "/>
    <g>
<g id="ID000002" clip-path="url(#ID000001)" >
      <polygon fill="#add8e6" fill-opacity="0.15" stroke="none" stroke-width="0.5pt" stroke-opacity="1.00" stroke-dasharray="none" points="94.500,204.136 116.200,202.843 137.900,200.188 159.600,190.806 181.300,203.156 203.000,207.306 224.700,213.312 246.400,220.507 268.100,203.391 289.800,205.024 311.500,201.246 333.200,212.531 354.900,219.701 376.600,211.582 398.300,202.775 420.000,202.133 441.700,224.390 463.400,199.953 485.100,196.043 506.800,192.180 506.800,171.600 485.100,177.035 463.400,184.476 441.700,210.034 420.000,186.168 398.300,179.367 376.600,198.938 354.900,203.969 333.200,201.282 311.500,192.053 289.800,187.919 268.100,185.096 246.400,202.038 224.700,196.339 203.000,196.518 181.300,193.826 159.600,180.177 137.900,187.996 116.200,190.424 94.500,193.797 "/>
</g>
<g id="ID000003" clip-path="url(#ID000001)" >
      <polyline fill="none" stroke="#daedf3" stroke-width="0.5pt" stroke-dasharray="none" points="94.500,204.136 116.200,202.843 137.900,200.188 159.600,190.806 181.300,203.156 203.000,207.306 224.700,213.312 246.400,220.507 268.100,203.391 289.800,205.024 311.500,201.246 333.200,212.531 354.900,219.701 376.600,211.582 398.300,202.775 420.000,202.133 441.700,224.390 463.400,199.953 485.100,196.043 506.800,192.180 "/>
<g>
</g>
</g>
<g id="ID000004" clip-path="url(#ID000001)" >
      <polyline fill="none" stroke="#daedf3" stroke-width="0.5pt" stroke-dasharray="none" points="94.500,193.797 116.200,190.424 137.900,187.996 159.600,180.177 181.300,193.826 203.000,196.518 224.700,196.339 246.400,202.038 268.100,185.096 289.800,187.919 311.500,192.053 333.200,201.282 354.900,203.969 376.600,198.938 398.300,179.367 420.000,186.168 441.700,210.034 463.400,184.476 485.100,177.035 506.800,171.600 "/>
<g>
</g>
</g>
<g id="ID000005" clip-path="url(#ID000001)" >
      <polyline fill="none" stroke="#add8e6" stroke-width="0.5pt" stroke-dasharray="none" points="94.500,198.966 116.200,196.634 137.900,194.092 159.600,185.492 181.300,198.491 203.000,201.912 224.700,204.825 246.400,211.273 268.100,194.244 289.800,196.472 311.500,196.650 333.200,206.907 354.900,211.835 376.600,205.260 398.300,191.071 420.000,194.151 441.700,217.212 463.400,192.215 485.100,186.539 506.800,181.890 "/>
<g>
</g>
</g>
<g id="ID000006" clip-path="url(#ID000001)" >
      <polygon fill="#000080" fill-opacity="0.15" stroke="none" stroke-width="0.5pt" stroke-opacity="1.00" stroke-dasharray="none" points="94.500,205.429 116.200,204.041 137.900,200.456 159.600,194.275 181.300,203.366 203.000,206.869 224.700,211.865 246.400,210.954 268.100,204.694 289.800,201.178 311.500,202.588 333.200,217.916 354.900,217.616 376.600,212.519 398.300,205.375 420.000,202.148 441.700,216.642 463.400,193.986 485.100,195.361 506.800,193.472 506.800,184.025 485.100,187.226 463.400,182.696 441.700,205.239 420.000,192.183 398.300,198.107 376.600,199.829 354.900,206.001 333.200,200.656 311.500,189.738 289.800,192.013 268.100,196.556 246.400,203.092 224.700,201.976 203.000,195.342 181.300,192.847 159.600,184.204 137.900,190.913 116.200,194.778 94.500,194.489 "/>
</g>
<g id="ID000007" clip-path="url(#ID000001)" >
      <polyline fill="none" stroke="#8c8cc5" stroke-width="0.5pt" stroke-dasharray="none" points="94.500,205.429 116.200,204.041 137.900,200.456 159.600,194.275 181.300,203.366 203.000,206.869 224.700,211.865 246.400,210.954 268.100,204.694 289.800,201.178 311.500,202.588 333.200,217.916 354.900,217.616 376.600,212.519 398.300,205.375 420.000,202.148 441.700,216.642 463.400,193.986 485.100,195.361 506.800,193.472 "/>
<g>
</g>
</g>
<g id="ID000008" clip-path="url(#ID000001)" >
      <polyline fill="none" stroke="#8c8cc5" stroke-width="0.5pt" stroke-dasharray="none" points="94.500,194.489 116.200,194.778 137.900,190.913 159.600,184.204 181.300,192.847 203.000,195.342 224.700,201.976 246.400,203.092 268.100,196.556 289.800,192.013 311.500,189.738 333.200,200.656 354.900,206.001 376.600,199.829 398.300,198.107 420.000,192.183 441.700,205.239 463.400,182.696 485.100,187.226 506.800,184.025 "/>
<g>
</g>
</g>
<g id="ID000009" clip-path="url(#ID000001)" >
      <polyline fill="none" stroke="#000080" stroke-width="0.5pt" stroke-dasharray="none" points="94.500,199.959 116.200,199.409 137.900,195.685 159.600,189.239 181.300,198.106 203.000,201.105 224.700,206.920 246.400,207.023 268.100,200.625 289.800,196.595 311.500,196.163 333.200,209.286 354.900,211.808 376.600,206.174 398.300,201.741 420.000,197.165 441.700,210.940 463.400,188.341 485.100,191.293 506.800,188.748 "/>
<g>
</g>
</g>
<g id="ID000010" clip-path="url(#ID000001)" >
      <polygon fill="#f08080" fill-opacity="0.15" stroke="none" stroke-width="0.5pt" stroke-opacity="1.00" stroke-dasharray="none" points="94.500,212.275 116.200,213.234 137.900,213.697 159.600,203.905 181.300,206.057 203.000,210.884 224.700,203.974 246.400,204.600 268.100,228.076 289.800,223.073 311.500,212.001 333.200,202.892 354.900,203.450 376.600,205.073 398.300,217.892 420.000,216.342 441.700,213.845 463.400,232.134 485.100,213.271 506.800,196.436 506.800,182.879 485.100,199.677 463.400,211.828 441.700,201.666 420.000,195.827 398.300,204.278 376.600,189.020 354.900,188.112 333.200,189.572 311.500,198.805 289.800,203.785 268.100,210.472 246.400,193.194 224.700,190.339 203.000,198.636 181.300,194.847 159.600,191.943 137.900,201.265 116.200,199.900 94.500,202.032 "/>
</g>
<g id="ID000011" clip-path="url(#ID000001)" >
      <polyline fill="none" stroke="#f8c5c5" stroke-width="0.5pt" stroke-dasharray="none" points="94.500,212.275 116.200,213.234 137.900,213.697 159.600,203.905 181.300,206.057 203.000,210.884 224.700,203.974 246.400,204.600 268.100,228.076 289.800,223.073 311.500,212.001 333.200,202.892 354.900,203.450 376.600,205.073 398.300,217.892 420.000,216.342 441.700,213.845 463.400,232.134 485.100,213.271 506.800,196.436 "/>
<g>
</g>
</g>
<g id="ID000012" clip-path="url(#ID000001)" >
      <polyline fill="none" stroke="#f8c5c5" stroke-width="0.5pt" stroke-dasharray="none" points="94.500,202.032 116.200,199.900 137.900,201.265 159.600,191.943 181.300,194.847 203.000,198.636 224.700,190.339 246.400,193.194 268.100,210.472 289.800,203.785 311.500,198.805 333.200,189.572 354.900,188.112 376.600,189.020 398.300,204.278 420.000,195.827 441.700,201.666 463.400,211.828 485.100,199.677 506.800,182.879 "/>
<g>
</g>
</g>
<g id="ID000013" clip-path="url(#ID000001)" >
      <polyline fill="none" stroke="#f08080" stroke-width="0.5pt" stroke-dasharray="none" points="94.500,207.154 116.200,206.567 137.900,207.481 159.600,197.924 181.300,200.452 203.000,204.760 224.700,197.156 246.400,198.897 268.100,219.274 289.800,213.429 311.500,205.403 333.200,196.232 354.900,195.781 376.600,197.046 398.300,211.085 420.000,206.084 441.700,207.756 463.400,221.981 485.100,206.474 506.800,189.657 "/>
<g>
</g>
</g>
<g id="ID000014" clip-path="url(#ID000001)" >
      <polygon fill="#ff0000" fill-opacity="0.15" stroke="none" stroke-width="0.5pt" stroke-opacity="1.00" stroke-dasharray="none" points="94.500,210.515 116.200,209.757 137.900,210.475 159.600,204.055 181.300,204.648 203.000,208.249 224.700,199.270 246.400,210.253 268.100,212.350 289.800,212.851 311.500,210.017 333.200,200.979 354.900,207.562 376.600,206.730 398.300,223.279 420.000,215.837 441.700,215.061 463.400,215.728 485.100,207.592 506.800,199.750 506.800,189.563 485.100,193.151 463.400,206.260 441.700,200.503 420.000,205.645 398.300,208.013 376.600,196.166 354.900,197.296 333.200,189.836 311.500,198.882 289.800,204.892 268.100,203.173 246.400,194.249 224.700,184.391 203.000,197.352 181.300,193.996 159.600,194.445 137.900,201.650 116.200,200.810 94.500,200.911 "/>
</g>
<g id="ID000015" clip-path="url(#ID000001)" >
      <polyline fill="none" stroke="#ff8c8c" stroke-width="0.5pt" stroke-dasharray="none" points="94.500,210.515 116.200,209.757 137.900,210.475 159.600,204.055 181.300,204.648 203.000,208.249 224.700,199.270 246.400,210.253 268.100,212.350 289.800,212.851 311.500,210.017 333.200,200.979 354.900,207.562 376.600,206.730 398.300,223.279 420.000,215.837 441.700,215.061 463.400,215.728 485.100,207.592 506.800,199.750 "/>
<g>
</g>
</g>
<g id="ID000016" clip-path="url(#ID000001)" >
      <polyline fill="none" stroke="#ff8c8c" stroke-width="0.5pt" stroke-dasharray="none" points="94.500,200.911 116.200,200.810 137.900,201.650 159.600,194.445 181.300,193.996 203.000,197.352 224.700,184.391 246.400,194.249 268.100,203.173 289.800,204.892 311.500,198.882 333.200,189.836 354.900,197.296 376.600,196.166 398.300,208.013 420.000,205.645 441.700,200.503 463.400,206.260 485.100,193.151 506.800,189.563 "/>
<g>
</g>
</g>
<g id="ID000017" clip-path="url(#ID000001)" >
      <polyline fill="none" stroke="#ff0000" stroke-width="0.5pt" stroke-dasharray="none" points="94.500,205.713 116.200,205.284 137.900,206.063 159.600,199.250 181.300,199.322 203.000,202.800 224.700,191.830 246.400,202.251 268.100,207.762 289.800,208.871 311.500,204.450 333.200,195.408 354.900,202.429 376.600,201.448 398.300,215.646 420.000,210.741 441.700,207.782 463.400,210.994 485.100,200.372 506.800,194.657 "/>
<g>
</g>
</g>
<g id="ID000018" clip-path="url(#ID000001)" >
      <polyline fill="none" stroke="#000000" stroke-width="0.5pt" stroke-dasharray="none" points="72.800,202.650 506.800,202.650 "/>
<g>
</g>
</g>
<g id="ID000019" clip-path="url(#ID000001)" >
      <polyline fill="none" stroke="#000000" stroke-width="2.0pt" stroke-dasharray="none" points="203.000,373.800 203.000,31.500 "/>
<g>
</g>
</g>
<g id="ID000020" >
  <g transform="translate(289.300,21.493)">
    <g transform="rotate(-0.0)">
      <text x="0.000" y="0.000" font-family="Helvetica" text-anchor="middle" font-size="10pt" fill="#000000" >Mean decoding for brt rel tr phi out te phi in</text>
    </g>
  </g>
</g>
<g id="ID000021" >
</g>
<g id="ID000022" >
</g>
<g id="ID000023" >
</g>
<g id="ID000024" >
</g>
    </g>
    <g>
      <polyline fill="none" stroke="#000000" stroke-width="0.5pt" stroke-dasharray="none" points="72.800,373.800 72.800,369.460 "/>
      <polyline fill="none" stroke="#000000" stroke-width="0.5pt" stroke-dasharray="none" points="116.200,373.800 116.200,369.460 "/>
      <polyline fill="none" stroke="#000000" stroke-width="0.5pt" stroke-dasharray="none" points="159.600,373.800 159.600,369.460 "/>
      <polyline fill="none" stroke="#000000" stroke-width="0.5pt" stroke-dasharray="none" points="203.000,373.800 203.000,369.460 "/>
      <polyline fill="none" stroke="#000000" stroke-width="0.5pt" stroke-dasharray="none" points="246.400,373.800 246.400,369.460 "/>
      <polyline fill="none" stroke="#000000" stroke-width="0.5pt" stroke-dasharray="none" points="289.800,373.800 289.800,369.460 "/>
      <polyline fill="none" stroke="#000000" stroke-width="0.5pt" stroke-dasharray="none" points="333.200,373.800 333.200,369.460 "/>
      <polyline fill="none" stroke="#000000" stroke-width="0.5pt" stroke-dasharray="none" points="376.600,373.800 376.600,369.460 "/>
      <polyline fill="none" stroke="#000000" stroke-width="0.5pt" stroke-dasharray="none" points="420.000,373.800 420.000,369.460 "/>
      <polyline fill="none" stroke="#000000" stroke-width="0.5pt" stroke-dasharray="none" points="463.400,373.800 463.400,369.460 "/>
      <polyline fill="none" stroke="#000000" stroke-width="0.5pt" stroke-dasharray="none" points="506.800,373.800 506.800,369.460 "/>
      <polyline fill="none" stroke="#000000" stroke-width="0.5pt" stroke-dasharray="none" points="72.800,373.800 506.800,373.800 "/>
  <g transform="translate(72.800,392.446)">
    <g transform="rotate(-0.0)">
      <text x="0.000" y="0.000" font-family="Helvetica" text-anchor="middle" font-size="10pt" fill="#000000" >-600</text>
    </g>
  </g>
  <g transform="translate(116.200,392.446)">
    <g transform="rotate(-0.0)">
      <text x="0.000" y="0.000" font-family="Helvetica" text-anchor="middle" font-size="10pt" fill="#000000" >-400</text>
    </g>
  </g>
  <g transform="translate(159.600,392.446)">
    <g transform="rotate(-0.0)">
      <text x="0.000" y="0.000" font-family="Helvetica" text-anchor="middle" font-size="10pt" fill="#000000" >-200</text>
    </g>
  </g>
  <g transform="translate(203.000,392.446)">
    <g transform="rotate(-0.0)">
      <text x="0.000" y="0.000" font-family="Helvetica" text-anchor="middle" font-size="10pt" fill="#000000" >0</text>
    </g>
  </g>
  <g transform="translate(246.400,392.446)">
    <g transform="rotate(-0.0)">
      <text x="0.000" y="0.000" font-family="Helvetica" text-anchor="middle" font-size="10pt" fill="#000000" >200</text>
    </g>
  </g>
  <g transform="translate(289.800,392.446)">
    <g transform="rotate(-0.0)">
      <text x="0.000" y="0.000" font-family="Helvetica" text-anchor="middle" font-size="10pt" fill="#000000" >400</text>
    </g>
  </g>
  <g transform="translate(333.200,392.446)">
    <g transform="rotate(-0.0)">
      <text x="0.000" y="0.000" font-family="Helvetica" text-anchor="middle" font-size="10pt" fill="#000000" >600</text>
    </g>
  </g>
  <g transform="translate(376.600,392.446)">
    <g transform="rotate(-0.0)">
      <text x="0.000" y="0.000" font-family="Helvetica" text-anchor="middle" font-size="10pt" fill="#000000" >800</text>
    </g>
  </g>
  <g transform="translate(420.000,392.446)">
    <g transform="rotate(-0.0)">
      <text x="0.000" y="0.000" font-family="Helvetica" text-anchor="middle" font-size="10pt" fill="#000000" >1000</text>
    </g>
  </g>
  <g transform="translate(463.400,392.446)">
    <g transform="rotate(-0.0)">
      <text x="0.000" y="0.000" font-family="Helvetica" text-anchor="middle" font-size="10pt" fill="#000000" >1200</text>
    </g>
  </g>
  <g transform="translate(506.800,392.446)">
    <g transform="rotate(-0.0)">
      <text x="0.000" y="0.000" font-family="Helvetica" text-anchor="middle" font-size="10pt" fill="#000000" >1400</text>
    </g>
  </g>
      <polyline fill="none" stroke="#000000" stroke-width="0.5pt" stroke-dasharray="none" points="72.800,373.800 77.140,373.800 "/>
      <polyline fill="none" stroke="#000000" stroke-width="0.5pt" stroke-dasharray="none" points="72.800,339.570 77.140,339.570 "/>
      <polyline fill="none" stroke="#000000" stroke-width="0.5pt" stroke-dasharray="none" points="72.800,305.340 77.140,305.340 "/>
      <polyline fill="none" stroke="#000000" stroke-width="0.5pt" stroke-dasharray="none" points="72.800,271.110 77.140,271.110 "/>
      <polyline fill="none" stroke="#000000" stroke-width="0.5pt" stroke-dasharray="none" points="72.800,236.880 77.140,236.880 "/>
      <polyline fill="none" stroke="#000000" stroke-width="0.5pt" stroke-dasharray="none" points="72.800,202.650 77.140,202.650 "/>
      <polyline fill="none" stroke="#000000" stroke-width="0.5pt" stroke-dasharray="none" points="72.800,168.420 77.140,168.420 "/>
      <polyline fill="none" stroke="#000000" stroke-width="0.5pt" stroke-dasharray="none" points="72.800,134.190 77.140,134.190 "/>
      <polyline fill="none" stroke="#000000" stroke-width="0.5pt" stroke-dasharray="none" points="72.800,99.960 77.140,99.960 "/>
      <polyline fill="none" stroke="#000000" stroke-width="0.5pt" stroke-dasharray="none" points="72.800,65.730 77.140,65.730 "/>
      <polyline fill="none" stroke="#000000" stroke-width="0.5pt" stroke-dasharray="none" points="72.800,31.500 77.140,31.500 "/>
      <polyline fill="none" stroke="#000000" stroke-width="0.5pt" stroke-dasharray="none" points="72.800,373.800 72.800,31.500 "/>
  <g transform="translate(64.120,378.300)">
    <g transform="rotate(-0.0)">
      <text x="0.000" y="0.000" font-family="Helvetica" text-anchor="end" font-size="10pt" fill="#000000" >0</text>
    </g>
  </g>
  <g transform="translate(64.120,344.070)">
    <g transform="rotate(-0.0)">
      <text x="0.000" y="0.000" font-family="Helvetica" text-anchor="end" font-size="10pt" fill="#000000" >0.1</text>
    </g>
  </g>
  <g transform="translate(64.120,309.840)">
    <g transform="rotate(-0.0)">
      <text x="0.000" y="0.000" font-family="Helvetica" text-anchor="end" font-size="10pt" fill="#000000" >0.2</text>
    </g>
  </g>
  <g transform="translate(64.120,275.610)">
    <g transform="rotate(-0.0)">
      <text x="0.000" y="0.000" font-family="Helvetica" text-anchor="end" font-size="10pt" fill="#000000" >0.3</text>
    </g>
  </g>
  <g transform="translate(64.120,241.380)">
    <g transform="rotate(-0.0)">
      <text x="0.000" y="0.000" font-family="Helvetica" text-anchor="end" font-size="10pt" fill="#000000" >0.4</text>
    </g>
  </g>
  <g transform="translate(64.120,207.150)">
    <g transform="rotate(-0.0)">
      <text x="0.000" y="0.000" font-family="Helvetica" text-anchor="end" font-size="10pt" fill="#000000" >0.5</text>
    </g>
  </g>
  <g transform="translate(64.120,172.920)">
    <g transform="rotate(-0.0)">
      <text x="0.000" y="0.000" font-family="Helvetica" text-anchor="end" font-size="10pt" fill="#000000" >0.6</text>
    </g>
  </g>
  <g transform="translate(64.120,138.690)">
    <g transform="rotate(-0.0)">
      <text x="0.000" y="0.000" font-family="Helvetica" text-anchor="end" font-size="10pt" fill="#000000" >0.7</text>
    </g>
  </g>
  <g transform="translate(64.120,104.460)">
    <g transform="rotate(-0.0)">
      <text x="0.000" y="0.000" font-family="Helvetica" text-anchor="end" font-size="10pt" fill="#000000" >0.8</text>
    </g>
  </g>
  <g transform="translate(64.120,70.230)">
    <g transform="rotate(-0.0)">
      <text x="0.000" y="0.000" font-family="Helvetica" text-anchor="end" font-size="10pt" fill="#000000" >0.9</text>
    </g>
  </g>
  <g transform="translate(64.120,36.000)">
    <g transform="rotate(-0.0)">
      <text x="0.000" y="0.000" font-family="Helvetica" text-anchor="end" font-size="10pt" fill="#000000" >1</text>
    </g>
  </g>
      <polyline fill="none" stroke="#000000" stroke-width="0.5pt" stroke-dasharray="none" points="72.800,373.800 72.800,370.377 "/>
      <polyline fill="none" stroke="#000000" stroke-width="0.5pt" stroke-dasharray="none" points="72.800,373.800 72.800,370.377 "/>
      <polyline fill="none" stroke="#000000" stroke-width="0.5pt" stroke-dasharray="none" points="72.800,373.800 72.800,370.377 "/>
      <polyline fill="none" stroke="#000000" stroke-width="0.5pt" stroke-dasharray="none" points="72.800,373.800 72.800,373.800 "/>
    </g>
  </g>
  <g id ="ID000025">
  <clipPath id="ID000026">
    <rect x="79.250" y="277.875" width="123.500" height="86.875"/>
  </clipPath>
      <polygon fill="#ffffff" fill-opacity="1.00" stroke="none" stroke-width="0.5pt" stroke-opacity="1.00" stroke-dasharray="none" points="79.250,364.750 202.750,364.750 202.750,277.875 79.250,277.875 "/>
      <polygon fill="#ffffff" fill-opacity="1.00" stroke="none" stroke-width="0.5pt" stroke-opacity="1.00" stroke-dasharray="none" points="79.250,277.875 202.750,277.875 202.750,277.875 79.250,277.875 "/>
      <polygon fill="#ffffff" fill-opacity="1.00" stroke="none" stroke-width="0.5pt" stroke-opacity="1.00" stroke-dasharray="none" points="79.250,364.750 79.250,364.750 79.250,277.875 79.250,277.875 "/>
    <g>
<g id="ID000027" >
  <g transform="translate(128.550,295.856)">
    <g transform="rotate(-0.0)">
      <text x="0.000" y="0.000" font-family="Helvetica" text-anchor="start" font-size="10pt" fill="#000000" >LIP class 1</text>
    </g>
  </g>
</g>
<g id="ID000028" clip-path="url(#ID000026)" >
      <polyline fill="none" stroke="#add8e6" stroke-width="0.5pt" stroke-dasharray="none" points="86.750,290.375 124.250,290.375 "/>
<g>
</g>
</g>
<g id="ID000029" clip-path="url(#ID000026)" >
<g>
</g>
</g>
<g id="ID000030" >
  <g transform="translate(128.550,316.825)">
    <g transform="rotate(-0.0)">
      <text x="0.000" y="0.000" font-family="Helvetica" text-anchor="start" font-size="10pt" fill="#000000" >LIP class 2</text>
    </g>
  </g>
</g>
<g id="ID000031" clip-path="url(#ID000026)" >
      <polyline fill="none" stroke="#000080" stroke-width="0.5pt" stroke-dasharray="none" points="86.750,311.000 124.250,311.000 "/>
<g>
</g>
</g>
<g id="ID000032" clip-path="url(#ID000026)" >
<g>
</g>
</g>
<g id="ID000033" >
  <g transform="translate(128.550,336.797)">
    <g transform="rotate(-0.0)">
      <text x="0.000" y="0.000" font-family="Helvetica" text-anchor="start" font-size="10pt" fill="#000000" >PITd class 1</text>
    </g>
  </g>
</g>
<g id="ID000034" clip-path="url(#ID000026)" >
      <polyline fill="none" stroke="#f08080" stroke-width="0.5pt" stroke-dasharray="none" points="86.750,331.625 124.250,331.625 "/>
<g>
</g>
</g>
<g id="ID000035" clip-path="url(#ID000026)" >
<g>
</g>
</g>
<g id="ID000036" >
  <g transform="translate(128.550,357.767)">
    <g transform="rotate(-0.0)">
      <text x="0.000" y="0.000" font-family="Helvetica" text-anchor="start" font-size="10pt" fill="#000000" >PITd class 2</text>
    </g>
  </g>
</g>
<g id="ID000037" clip-path="url(#ID000026)" >
      <polyline fill="none" stroke="#ff0000" stroke-width="0.5pt" stroke-dasharray="none" points="86.750,352.250 124.250,352.250 "/>
<g>
</g>
</g>
<g id="ID000038" clip-path="url(#ID000026)" >
<g>
</g>
</g>
<g id="ID000039" >
</g>
<g id="ID000040" >
</g>
<g id="ID000041" >
</g>
    </g>
    <g>
      <polyline fill="none" stroke="#000000" stroke-width="0.5pt" stroke-dasharray="none" points="79.250,364.750 202.750,364.750 "/>
      <polyline fill="none" stroke="#000000" stroke-width="0.5pt" stroke-dasharray="none" points="79.250,277.875 202.750,277.875 "/>
      <polyline fill="none" stroke="#000000" stroke-width="0.5pt" stroke-dasharray="none" points="79.250,364.750 79.250,277.875 "/>
      <polyline fill="none" stroke="#000000" stroke-width="0.5pt" stroke-dasharray="none" points="202.750,364.750 202.750,277.875 "/>
      <polyline fill="none" stroke="#000000" stroke-width="0.5pt" stroke-dasharray="none" points="79.250,364.750 79.250,363.881 "/>
      <polyline fill="none" stroke="#000000" stroke-width="0.5pt" stroke-dasharray="none" points="79.250,364.750 79.250,364.750 "/>
    </g>
  </g>
  </g>
</svg>
