<?xml version="1.0" encoding="utf-8" standalone="no"?><!DOCTYPE svg PUBLIC "-//W3C//DTD SVG 1.1//EN" "http://www.w3.org/Graphics/SVG/1.1/DTD/svg11.dtd">
<svg preserveAspectRatio="xMinYMin meet" width="100%" height="100%" viewBox="0 0 560.000 420.000"  version="1.1" xmlns="http://www.w3.org/2000/svg" xmlns:xlink="http://www.w3.org/1999/xlink">
  <desc>Matlab Figure Converted by PLOT2SVG written by Juerg Schwizer</desc>
  <g id="topgroup">
  <rect x="0" y="0" width="560.000" height="420.000" fill="#ffffff" stroke="none" />
  <g id ="ID000000">
  <clipPath id="ID000001">
    <rect x="72.800" y="46.000" width="434.000" height="326.000"/>
  </clipPath>
      <polygon fill="#ffffff" fill-opacity="1.00" stroke="none" stroke-width="0.5pt" stroke-opacity="1.00" stroke-dasharray="none" points="72.800,372.000 506.800,372.000 506.800,46.000 72.800,46.000 "/>
      <polygon fill="#ffffff" fill-opacity="1.00" stroke="none" stroke-width="0.5pt" stroke-opacity="1.00" stroke-dasharray="none" points="72.800,46.000 506.800,46.000 506.800,46.000 72.800,46.000 "/>
      <polygon fill="#ffffff" fill-opacity="1.00" stroke="none" stroke-width="0.5pt" stroke-opacity="1.00" stroke-dasharray="none" points="72.800,372.000 72.800,372.000 72.800,46.000 72.800,46.000 "/>
    <g>
<g id="ID000002" clip-path="url(#ID000001)" >
      <polygon fill="#738ccc" fill-opacity="0.08" stroke="none" stroke-width="0.5pt" stroke-opacity="1.00" stroke-dasharray="none" points="72.800,277.247 95.642,309.140 118.484,310.507 141.326,325.642 164.168,285.502 187.011,294.136 209.853,284.256 232.695,294.008 255.537,290.535 278.379,282.655 301.221,287.384 324.063,305.452 346.905,272.885 369.747,288.633 392.589,303.989 415.432,272.130 438.274,284.592 461.116,290.076 483.958,285.423 506.800,287.117 506.800,115.367 483.958,113.180 461.116,114.494 438.274,126.220 415.432,106.862 392.589,137.828 369.747,111.913 346.905,130.368 324.063,143.992 301.221,121.570 278.379,137.878 255.537,138.387 232.695,133.436 209.853,122.878 187.011,112.498 164.168,128.319 141.326,129.857 118.484,123.454 95.642,124.983 72.800,117.023 "/>
</g>
<g id="ID000003" clip-path="url(#ID000001)" >
      <polyline fill="none" stroke="#738ccc" stroke-width="2.0pt" stroke-dasharray="none" points="72.800,197.135 95.642,217.061 118.484,216.980 141.326,227.749 164.168,206.910 187.011,203.317 209.853,203.567 232.695,213.722 255.537,214.461 278.379,210.267 301.221,204.477 324.063,224.722 346.905,201.626 369.747,200.273 392.589,220.908 415.432,189.496 438.274,205.406 461.116,202.285 483.958,199.302 506.800,201.242 "/>
<g>
<circle cx="72.800" cy="197.135" r="3.333" fill="#738ccc" stroke="none" stroke-width="2.0pt" />
<circle cx="95.642" cy="217.061" r="3.333" fill="#738ccc" stroke="none" stroke-width="2.0pt" />
<circle cx="118.484" cy="216.980" r="3.333" fill="#738ccc" stroke="none" stroke-width="2.0pt" />
<circle cx="141.326" cy="227.749" r="3.333" fill="#738ccc" stroke="none" stroke-width="2.0pt" />
<circle cx="164.168" cy="206.910" r="3.333" fill="#738ccc" stroke="none" stroke-width="2.0pt" />
<circle cx="187.011" cy="203.317" r="3.333" fill="#738ccc" stroke="none" stroke-width="2.0pt" />
<circle cx="209.853" cy="203.567" r="3.333" fill="#738ccc" stroke="none" stroke-width="2.0pt" />
<circle cx="232.695" cy="213.722" r="3.333" fill="#738ccc" stroke="none" stroke-width="2.0pt" />
<circle cx="255.537" cy="214.461" r="3.333" fill="#738ccc" stroke="none" stroke-width="2.0pt" />
<circle cx="278.379" cy="210.267" r="3.333" fill="#738ccc" stroke="none" stroke-width="2.0pt" />
<circle cx="301.221" cy="204.477" r="3.333" fill="#738ccc" stroke="none" stroke-width="2.0pt" />
<circle cx="324.063" cy="224.722" r="3.333" fill="#738ccc" stroke="none" stroke-width="2.0pt" />
<circle cx="346.905" cy="201.626" r="3.333" fill="#738ccc" stroke="none" stroke-width="2.0pt" />
<circle cx="369.747" cy="200.273" r="3.333" fill="#738ccc" stroke="none" stroke-width="2.0pt" />
<circle cx="392.589" cy="220.908" r="3.333" fill="#738ccc" stroke="none" stroke-width="2.0pt" />
<circle cx="415.432" cy="189.496" r="3.333" fill="#738ccc" stroke="none" stroke-width="2.0pt" />
<circle cx="438.274" cy="205.406" r="3.333" fill="#738ccc" stroke="none" stroke-width="2.0pt" />
<circle cx="461.116" cy="202.285" r="3.333" fill="#738ccc" stroke="none" stroke-width="2.0pt" />
<circle cx="483.958" cy="199.302" r="3.333" fill="#738ccc" stroke="none" stroke-width="2.0pt" />
<circle cx="506.800" cy="201.242" r="3.333" fill="#738ccc" stroke="none" stroke-width="2.0pt" />
</g>
</g>
<g id="ID000004" clip-path="url(#ID000001)" >
      <polygon fill="#000080" fill-opacity="0.08" stroke="none" stroke-width="0.5pt" stroke-opacity="1.00" stroke-dasharray="none" points="72.800,283.870 95.642,283.348 118.484,304.792 141.326,302.757 164.168,295.721 187.011,288.171 209.853,295.552 232.695,302.304 255.537,289.343 278.379,297.392 301.221,297.409 324.063,295.534 346.905,287.362 369.747,281.185 392.589,302.919 415.432,279.696 438.274,284.743 461.116,301.614 483.958,291.399 506.800,271.522 506.800,109.318 483.958,115.223 461.116,117.889 438.274,122.448 415.432,96.897 392.589,124.372 369.747,126.340 346.905,113.528 324.063,124.221 301.221,119.811 278.379,122.263 255.537,130.333 232.695,124.234 209.853,105.296 187.011,113.982 164.168,126.614 141.326,151.918 118.484,122.282 95.642,150.952 72.800,120.216 "/>
</g>
<g id="ID000005" clip-path="url(#ID000001)" >
      <polyline fill="none" stroke="#000080" stroke-width="2.0pt" stroke-dasharray="none" points="72.800,202.043 95.642,217.150 118.484,213.537 141.326,227.338 164.168,211.168 187.011,201.076 209.853,200.424 232.695,213.269 255.537,209.838 278.379,209.827 301.221,208.610 324.063,209.877 346.905,200.445 369.747,203.763 392.589,213.645 415.432,188.296 438.274,203.595 461.116,209.751 483.958,203.311 506.800,190.420 "/>
<g>
<circle cx="72.800" cy="202.043" r="3.333" fill="#000080" stroke="none" stroke-width="2.0pt" />
<circle cx="95.642" cy="217.150" r="3.333" fill="#000080" stroke="none" stroke-width="2.0pt" />
<circle cx="118.484" cy="213.537" r="3.333" fill="#000080" stroke="none" stroke-width="2.0pt" />
<circle cx="141.326" cy="227.338" r="3.333" fill="#000080" stroke="none" stroke-width="2.0pt" />
<circle cx="164.168" cy="211.168" r="3.333" fill="#000080" stroke="none" stroke-width="2.0pt" />
<circle cx="187.011" cy="201.076" r="3.333" fill="#000080" stroke="none" stroke-width="2.0pt" />
<circle cx="209.853" cy="200.424" r="3.333" fill="#000080" stroke="none" stroke-width="2.0pt" />
<circle cx="232.695" cy="213.269" r="3.333" fill="#000080" stroke="none" stroke-width="2.0pt" />
<circle cx="255.537" cy="209.838" r="3.333" fill="#000080" stroke="none" stroke-width="2.0pt" />
<circle cx="278.379" cy="209.827" r="3.333" fill="#000080" stroke="none" stroke-width="2.0pt" />
<circle cx="301.221" cy="208.610" r="3.333" fill="#000080" stroke="none" stroke-width="2.0pt" />
<circle cx="324.063" cy="209.877" r="3.333" fill="#000080" stroke="none" stroke-width="2.0pt" />
<circle cx="346.905" cy="200.445" r="3.333" fill="#000080" stroke="none" stroke-width="2.0pt" />
<circle cx="369.747" cy="203.763" r="3.333" fill="#000080" stroke="none" stroke-width="2.0pt" />
<circle cx="392.589" cy="213.645" r="3.333" fill="#000080" stroke="none" stroke-width="2.0pt" />
<circle cx="415.432" cy="188.296" r="3.333" fill="#000080" stroke="none" stroke-width="2.0pt" />
<circle cx="438.274" cy="203.595" r="3.333" fill="#000080" stroke="none" stroke-width="2.0pt" />
<circle cx="461.116" cy="209.751" r="3.333" fill="#000080" stroke="none" stroke-width="2.0pt" />
<circle cx="483.958" cy="203.311" r="3.333" fill="#000080" stroke="none" stroke-width="2.0pt" />
<circle cx="506.800" cy="190.420" r="3.333" fill="#000080" stroke="none" stroke-width="2.0pt" />
</g>
</g>
<g id="ID000006" clip-path="url(#ID000001)" >
      <polygon fill="#f08080" fill-opacity="0.08" stroke="none" stroke-width="0.5pt" stroke-opacity="1.00" stroke-dasharray="none" points="72.800,298.957 95.642,264.387 118.484,275.699 141.326,265.742 164.168,305.563 187.011,288.250 209.853,279.874 232.695,307.514 255.537,310.775 278.379,280.450 301.221,294.513 324.063,308.295 346.905,287.186 369.747,282.258 392.589,258.168 415.432,281.876 438.274,276.402 461.116,297.433 483.958,286.159 506.800,296.090 506.800,129.829 483.958,135.079 461.116,125.169 438.274,135.122 415.432,119.384 392.589,128.979 369.747,116.070 346.905,120.972 324.063,125.165 301.221,144.948 278.379,118.588 255.537,137.663 232.695,149.892 209.853,137.908 187.011,124.511 164.168,101.096 141.326,126.134 118.484,141.642 95.642,125.393 72.800,146.377 "/>
</g>
<g id="ID000007" clip-path="url(#ID000001)" >
      <polyline fill="none" stroke="#f08080" stroke-width="2.0pt" stroke-dasharray="none" points="72.800,222.667 95.642,194.890 118.484,208.671 141.326,195.938 164.168,203.329 187.011,206.381 209.853,208.891 232.695,228.703 255.537,224.219 278.379,199.519 301.221,219.730 324.063,216.730 346.905,204.079 369.747,199.164 392.589,193.574 415.432,200.630 438.274,205.762 461.116,211.301 483.958,210.619 506.800,212.959 "/>
<g>
<circle cx="72.800" cy="222.667" r="3.333" fill="#f08080" stroke="none" stroke-width="2.0pt" />
<circle cx="95.642" cy="194.890" r="3.333" fill="#f08080" stroke="none" stroke-width="2.0pt" />
<circle cx="118.484" cy="208.671" r="3.333" fill="#f08080" stroke="none" stroke-width="2.0pt" />
<circle cx="141.326" cy="195.938" r="3.333" fill="#f08080" stroke="none" stroke-width="2.0pt" />
<circle cx="164.168" cy="203.329" r="3.333" fill="#f08080" stroke="none" stroke-width="2.0pt" />
<circle cx="187.011" cy="206.381" r="3.333" fill="#f08080" stroke="none" stroke-width="2.0pt" />
<circle cx="209.853" cy="208.891" r="3.333" fill="#f08080" stroke="none" stroke-width="2.0pt" />
<circle cx="232.695" cy="228.703" r="3.333" fill="#f08080" stroke="none" stroke-width="2.0pt" />
<circle cx="255.537" cy="224.219" r="3.333" fill="#f08080" stroke="none" stroke-width="2.0pt" />
<circle cx="278.379" cy="199.519" r="3.333" fill="#f08080" stroke="none" stroke-width="2.0pt" />
<circle cx="301.221" cy="219.730" r="3.333" fill="#f08080" stroke="none" stroke-width="2.0pt" />
<circle cx="324.063" cy="216.730" r="3.333" fill="#f08080" stroke="none" stroke-width="2.0pt" />
<circle cx="346.905" cy="204.079" r="3.333" fill="#f08080" stroke="none" stroke-width="2.0pt" />
<circle cx="369.747" cy="199.164" r="3.333" fill="#f08080" stroke="none" stroke-width="2.0pt" />
<circle cx="392.589" cy="193.574" r="3.333" fill="#f08080" stroke="none" stroke-width="2.0pt" />
<circle cx="415.432" cy="200.630" r="3.333" fill="#f08080" stroke="none" stroke-width="2.0pt" />
<circle cx="438.274" cy="205.762" r="3.333" fill="#f08080" stroke="none" stroke-width="2.0pt" />
<circle cx="461.116" cy="211.301" r="3.333" fill="#f08080" stroke="none" stroke-width="2.0pt" />
<circle cx="483.958" cy="210.619" r="3.333" fill="#f08080" stroke="none" stroke-width="2.0pt" />
<circle cx="506.800" cy="212.959" r="3.333" fill="#f08080" stroke="none" stroke-width="2.0pt" />
</g>
</g>
<g id="ID000008" clip-path="url(#ID000001)" >
      <polygon fill="#ff0000" fill-opacity="0.08" stroke="none" stroke-width="0.5pt" stroke-opacity="1.00" stroke-dasharray="none" points="72.800,297.320 95.642,270.314 118.484,301.890 141.326,289.119 164.168,279.500 187.011,299.998 209.853,306.735 232.695,313.960 255.537,301.003 278.379,286.818 301.221,315.448 324.063,302.567 346.905,281.564 369.747,290.890 392.589,301.794 415.432,290.845 438.274,307.106 461.116,287.337 483.958,301.673 506.800,298.738 506.800,138.265 483.958,126.627 461.116,120.374 438.274,108.207 415.432,107.617 392.589,82.803 369.747,114.257 346.905,127.352 324.063,150.029 301.221,114.499 278.379,106.464 255.537,133.467 232.695,128.976 209.853,119.060 187.011,128.196 164.168,144.153 141.326,104.273 118.484,104.162 95.642,109.515 72.800,134.668 "/>
</g>
<g id="ID000009" clip-path="url(#ID000001)" >
      <polyline fill="none" stroke="#ff0000" stroke-width="2.0pt" stroke-dasharray="none" points="72.800,215.994 95.642,189.914 118.484,203.026 141.326,196.696 164.168,211.826 187.011,214.097 209.853,212.897 232.695,221.468 255.537,217.235 278.379,196.641 301.221,214.974 324.063,226.298 346.905,204.458 369.747,202.574 392.589,192.299 415.432,199.231 438.274,207.656 461.116,203.856 483.958,214.150 506.800,218.501 "/>
<g>
<circle cx="72.800" cy="215.994" r="3.333" fill="#ff0000" stroke="none" stroke-width="2.0pt" />
<circle cx="95.642" cy="189.914" r="3.333" fill="#ff0000" stroke="none" stroke-width="2.0pt" />
<circle cx="118.484" cy="203.026" r="3.333" fill="#ff0000" stroke="none" stroke-width="2.0pt" />
<circle cx="141.326" cy="196.696" r="3.333" fill="#ff0000" stroke="none" stroke-width="2.0pt" />
<circle cx="164.168" cy="211.826" r="3.333" fill="#ff0000" stroke="none" stroke-width="2.0pt" />
<circle cx="187.011" cy="214.097" r="3.333" fill="#ff0000" stroke="none" stroke-width="2.0pt" />
<circle cx="209.853" cy="212.897" r="3.333" fill="#ff0000" stroke="none" stroke-width="2.0pt" />
<circle cx="232.695" cy="221.468" r="3.333" fill="#ff0000" stroke="none" stroke-width="2.0pt" />
<circle cx="255.537" cy="217.235" r="3.333" fill="#ff0000" stroke="none" stroke-width="2.0pt" />
<circle cx="278.379" cy="196.641" r="3.333" fill="#ff0000" stroke="none" stroke-width="2.0pt" />
<circle cx="301.221" cy="214.974" r="3.333" fill="#ff0000" stroke="none" stroke-width="2.0pt" />
<circle cx="324.063" cy="226.298" r="3.333" fill="#ff0000" stroke="none" stroke-width="2.0pt" />
<circle cx="346.905" cy="204.458" r="3.333" fill="#ff0000" stroke="none" stroke-width="2.0pt" />
<circle cx="369.747" cy="202.574" r="3.333" fill="#ff0000" stroke="none" stroke-width="2.0pt" />
<circle cx="392.589" cy="192.299" r="3.333" fill="#ff0000" stroke="none" stroke-width="2.0pt" />
<circle cx="415.432" cy="199.231" r="3.333" fill="#ff0000" stroke="none" stroke-width="2.0pt" />
<circle cx="438.274" cy="207.656" r="3.333" fill="#ff0000" stroke="none" stroke-width="2.0pt" />
<circle cx="461.116" cy="203.856" r="3.333" fill="#ff0000" stroke="none" stroke-width="2.0pt" />
<circle cx="483.958" cy="214.150" r="3.333" fill="#ff0000" stroke="none" stroke-width="2.0pt" />
<circle cx="506.800" cy="218.501" r="3.333" fill="#ff0000" stroke="none" stroke-width="2.0pt" />
</g>
</g>
<g id="ID000010" >
  <g transform="translate(28.550,210.500)">
    <g transform="rotate(-90.0)">
      <text x="0.000" y="0.000" font-family="Helvetica" text-anchor="middle" font-size="15pt" fill="#000000" >Decoding accuracy (%)</text>
    </g>
  </g>
</g>
<g id="ID000011" >
  <g transform="translate(288.300,418.750)">
    <g transform="rotate(-0.0)">
      <text x="0.000" y="0.000" font-family="Helvetica" text-anchor="middle" font-size="15pt" fill="#000000" >Time from stimulus onset (s)</text>
    </g>
  </g>
</g>
<g id="ID000012" clip-path="url(#ID000001)" >
      <polyline fill="none" stroke="#000000" stroke-width="0.5pt" stroke-dasharray="none" points="72.800,209.000 506.800,209.000 "/>
<g>
</g>
</g>
<g id="ID000013" clip-path="url(#ID000001)" >
      <polyline fill="none" stroke="#000000" stroke-width="0.5pt" stroke-dasharray="8.0,2.0" points="164.168,372.000 164.168,46.000 "/>
<g>
</g>
</g>
<g id="ID000014" >
  <g transform="translate(288.300,30.750)">
    <g transform="rotate(-0.0)">
      <text x="0.000" y="0.000" font-family="Helvetica" text-anchor="middle" font-size="15pt" fill="#000000" ><tspan>Mean decoding for brt rel tr phi 0 te phi 180  both</tspan><tspan dy="6.0pt" font-size="10pt">m</tspan><tspan dy="-6.0pt" font-size="15pt">onkeys</tspan></text>
    </g>
  </g>
</g>
    </g>
    <g>
      <polyline fill="none" stroke="#000000" stroke-width="0.5pt" stroke-dasharray="none" points="164.168,372.000 164.168,367.660 "/>
      <polyline fill="none" stroke="#000000" stroke-width="0.5pt" stroke-dasharray="none" points="278.379,372.000 278.379,367.660 "/>
      <polyline fill="none" stroke="#000000" stroke-width="0.5pt" stroke-dasharray="none" points="392.589,372.000 392.589,367.660 "/>
      <polyline fill="none" stroke="#000000" stroke-width="0.5pt" stroke-dasharray="none" points="506.800,372.000 506.800,367.660 "/>
      <polyline fill="none" stroke="#000000" stroke-width="0.5pt" stroke-dasharray="none" points="72.800,372.000 506.800,372.000 "/>
  <g transform="translate(164.168,396.220)">
    <g transform="rotate(-0.0)">
      <text x="0.000" y="0.000" font-family="Helvetica" text-anchor="middle" font-size="15pt" fill="#000000" >0</text>
    </g>
  </g>
  <g transform="translate(278.379,396.220)">
    <g transform="rotate(-0.0)">
      <text x="0.000" y="0.000" font-family="Helvetica" text-anchor="middle" font-size="15pt" fill="#000000" >0.5</text>
    </g>
  </g>
  <g transform="translate(392.589,396.220)">
    <g transform="rotate(-0.0)">
      <text x="0.000" y="0.000" font-family="Helvetica" text-anchor="middle" font-size="15pt" fill="#000000" >1</text>
    </g>
  </g>
  <g transform="translate(506.800,396.220)">
    <g transform="rotate(-0.0)">
      <text x="0.000" y="0.000" font-family="Helvetica" text-anchor="middle" font-size="15pt" fill="#000000" >1.5</text>
    </g>
  </g>
      <polyline fill="none" stroke="#000000" stroke-width="0.5pt" stroke-dasharray="none" points="72.800,372.000 77.140,372.000 "/>
      <polyline fill="none" stroke="#000000" stroke-width="0.5pt" stroke-dasharray="none" points="72.800,290.500 77.140,290.500 "/>
      <polyline fill="none" stroke="#000000" stroke-width="0.5pt" stroke-dasharray="none" points="72.800,209.000 77.140,209.000 "/>
      <polyline fill="none" stroke="#000000" stroke-width="0.5pt" stroke-dasharray="none" points="72.800,127.500 77.140,127.500 "/>
      <polyline fill="none" stroke="#000000" stroke-width="0.5pt" stroke-dasharray="none" points="72.800,46.000 77.140,46.000 "/>
      <polyline fill="none" stroke="#000000" stroke-width="0.5pt" stroke-dasharray="none" points="72.800,372.000 72.800,46.000 "/>
  <g transform="translate(64.120,378.750)">
    <g transform="rotate(-0.0)">
      <text x="0.000" y="0.000" font-family="Helvetica" text-anchor="end" font-size="15pt" fill="#000000" >0</text>
    </g>
  </g>
  <g transform="translate(64.120,297.250)">
    <g transform="rotate(-0.0)">
      <text x="0.000" y="0.000" font-family="Helvetica" text-anchor="end" font-size="15pt" fill="#000000" >25</text>
    </g>
  </g>
  <g transform="translate(64.120,215.750)">
    <g transform="rotate(-0.0)">
      <text x="0.000" y="0.000" font-family="Helvetica" text-anchor="end" font-size="15pt" fill="#000000" >50</text>
    </g>
  </g>
  <g transform="translate(64.120,134.250)">
    <g transform="rotate(-0.0)">
      <text x="0.000" y="0.000" font-family="Helvetica" text-anchor="end" font-size="15pt" fill="#000000" >75</text>
    </g>
  </g>
  <g transform="translate(64.120,52.750)">
    <g transform="rotate(-0.0)">
      <text x="0.000" y="0.000" font-family="Helvetica" text-anchor="end" font-size="15pt" fill="#000000" >100</text>
    </g>
  </g>
      <polyline fill="none" stroke="#000000" stroke-width="0.5pt" stroke-dasharray="none" points="72.800,372.000 72.800,368.740 "/>
      <polyline fill="none" stroke="#000000" stroke-width="0.5pt" stroke-dasharray="none" points="72.800,372.000 72.800,368.740 "/>
      <polyline fill="none" stroke="#000000" stroke-width="0.5pt" stroke-dasharray="none" points="72.800,372.000 72.800,368.740 "/>
      <polyline fill="none" stroke="#000000" stroke-width="0.5pt" stroke-dasharray="none" points="72.800,372.000 72.800,372.000 "/>
    </g>
  </g>
  </g>
</svg>
