<?xml version="1.0" encoding="utf-8" standalone="no"?><!DOCTYPE svg PUBLIC "-//W3C//DTD SVG 1.1//EN" "http://www.w3.org/Graphics/SVG/1.1/DTD/svg11.dtd">
<svg preserveAspectRatio="xMinYMin meet" width="100%" height="100%" viewBox="0 0 560.000 420.000"  version="1.1" xmlns="http://www.w3.org/2000/svg" xmlns:xlink="http://www.w3.org/1999/xlink">
  <desc>Matlab Figure Converted by PLOT2SVG written by Juerg Schwizer</desc>
  <g id="topgroup">
  <rect x="0" y="0" width="560.000" height="420.000" fill="#ffffff" stroke="none" />
  <g id ="ID000000">
  <clipPath id="ID000001">
    <rect x="72.800" y="31.500" width="434.000" height="342.300"/>
  </clipPath>
      <polygon fill="#ffffff" fill-opacity="1.00" stroke="none" stroke-width="0.5pt" stroke-opacity="1.00" stroke-dasharray="none" points="72.800,373.800 506.800,373.800 506.800,31.500 72.800,31.500 "/>
      <polygon fill="#ffffff" fill-opacity="1.00" stroke="none" stroke-width="0.5pt" stroke-opacity="1.00" stroke-dasharray="none" points="72.800,31.500 506.800,31.500 506.800,31.500 72.800,31.500 "/>
      <polygon fill="#ffffff" fill-opacity="1.00" stroke="none" stroke-width="0.5pt" stroke-opacity="1.00" stroke-dasharray="none" points="72.800,373.800 72.800,373.800 72.800,31.500 72.800,31.500 "/>
    <g>
<g id="ID000002" clip-path="url(#ID000001)" >
      <polygon fill="#ff0000" fill-opacity="0.15" stroke="none" stroke-width="0.5pt" stroke-opacity="1.00" stroke-dasharray="none" points="94.500,200.707 116.200,207.269 137.900,207.530 159.600,210.018 181.300,196.635 203.000,195.675 224.700,212.179 246.400,205.538 268.100,222.562 289.800,216.733 311.500,207.652 333.200,206.439 354.900,189.480 376.600,196.058 398.300,221.019 420.000,210.600 441.700,208.054 463.400,205.939 485.100,212.089 506.800,208.624 506.800,201.240 485.100,203.623 463.400,197.935 441.700,199.813 420.000,201.689 398.300,212.378 376.600,187.706 354.900,180.163 333.200,198.576 311.500,199.502 289.800,208.677 268.100,215.969 246.400,199.049 224.700,205.957 203.000,187.090 181.300,187.842 159.600,200.416 137.900,197.913 116.200,198.744 94.500,191.757 "/>
</g>
<g id="ID000003" clip-path="url(#ID000001)" >
      <polyline fill="none" stroke="#ff8c8c" stroke-width="0.5pt" stroke-dasharray="none" points="94.500,200.707 116.200,207.269 137.900,207.530 159.600,210.018 181.300,196.635 203.000,195.675 224.700,212.179 246.400,205.538 268.100,222.562 289.800,216.733 311.500,207.652 333.200,206.439 354.900,189.480 376.600,196.058 398.300,221.019 420.000,210.600 441.700,208.054 463.400,205.939 485.100,212.089 506.800,208.624 "/>
<g>
</g>
</g>
<g id="ID000004" clip-path="url(#ID000001)" >
      <polyline fill="none" stroke="#ff8c8c" stroke-width="0.5pt" stroke-dasharray="none" points="94.500,191.757 116.200,198.744 137.900,197.913 159.600,200.416 181.300,187.842 203.000,187.090 224.700,205.957 246.400,199.049 268.100,215.969 289.800,208.677 311.500,199.502 333.200,198.576 354.900,180.163 376.600,187.706 398.300,212.378 420.000,201.689 441.700,199.813 463.400,197.935 485.100,203.623 506.800,201.240 "/>
<g>
</g>
</g>
<g id="ID000005" clip-path="url(#ID000001)" >
      <polyline fill="none" stroke="#ff0000" stroke-width="0.5pt" stroke-dasharray="none" points="94.500,196.232 116.200,203.007 137.900,202.721 159.600,205.217 181.300,192.238 203.000,191.383 224.700,209.068 246.400,202.293 268.100,219.266 289.800,212.705 311.500,203.577 333.200,202.507 354.900,184.822 376.600,191.882 398.300,216.699 420.000,206.144 441.700,203.934 463.400,201.937 485.100,207.856 506.800,204.932 "/>
<g>
</g>
</g>
<g id="ID000006" clip-path="url(#ID000001)" >
      <polyline fill="none" stroke="#000000" stroke-width="0.5pt" stroke-dasharray="none" points="72.800,202.650 506.800,202.650 "/>
<g>
</g>
</g>
<g id="ID000007" clip-path="url(#ID000001)" >
      <polyline fill="none" stroke="#000000" stroke-width="2.0pt" stroke-dasharray="none" points="203.000,373.800 203.000,31.500 "/>
<g>
</g>
</g>
<g id="ID000008" >
  <g transform="translate(289.300,21.493)">
    <g transform="rotate(-0.0)">
      <text x="0.000" y="0.000" font-family="Helvetica" text-anchor="middle" font-size="10pt" fill="#000000" >Mean decoding for brt rel tr phi in te phi out</text>
    </g>
  </g>
</g>
<g id="ID000009" >
</g>
<g id="ID000010" >
</g>
<g id="ID000011" >
</g>
<g id="ID000012" >
</g>
    </g>
    <g>
      <polyline fill="none" stroke="#000000" stroke-width="0.5pt" stroke-dasharray="none" points="72.800,373.800 72.800,369.460 "/>
      <polyline fill="none" stroke="#000000" stroke-width="0.5pt" stroke-dasharray="none" points="116.200,373.800 116.200,369.460 "/>
      <polyline fill="none" stroke="#000000" stroke-width="0.5pt" stroke-dasharray="none" points="159.600,373.800 159.600,369.460 "/>
      <polyline fill="none" stroke="#000000" stroke-width="0.5pt" stroke-dasharray="none" points="203.000,373.800 203.000,369.460 "/>
      <polyline fill="none" stroke="#000000" stroke-width="0.5pt" stroke-dasharray="none" points="246.400,373.800 246.400,369.460 "/>
      <polyline fill="none" stroke="#000000" stroke-width="0.5pt" stroke-dasharray="none" points="289.800,373.800 289.800,369.460 "/>
      <polyline fill="none" stroke="#000000" stroke-width="0.5pt" stroke-dasharray="none" points="333.200,373.800 333.200,369.460 "/>
      <polyline fill="none" stroke="#000000" stroke-width="0.5pt" stroke-dasharray="none" points="376.600,373.800 376.600,369.460 "/>
      <polyline fill="none" stroke="#000000" stroke-width="0.5pt" stroke-dasharray="none" points="420.000,373.800 420.000,369.460 "/>
      <polyline fill="none" stroke="#000000" stroke-width="0.5pt" stroke-dasharray="none" points="463.400,373.800 463.400,369.460 "/>
      <polyline fill="none" stroke="#000000" stroke-width="0.5pt" stroke-dasharray="none" points="506.800,373.800 506.800,369.460 "/>
      <polyline fill="none" stroke="#000000" stroke-width="0.5pt" stroke-dasharray="none" points="72.800,373.800 506.800,373.800 "/>
  <g transform="translate(72.800,392.446)">
    <g transform="rotate(-0.0)">
      <text x="0.000" y="0.000" font-family="Helvetica" text-anchor="middle" font-size="10pt" fill="#000000" >-600</text>
    </g>
  </g>
  <g transform="translate(116.200,392.446)">
    <g transform="rotate(-0.0)">
      <text x="0.000" y="0.000" font-family="Helvetica" text-anchor="middle" font-size="10pt" fill="#000000" >-400</text>
    </g>
  </g>
  <g transform="translate(159.600,392.446)">
    <g transform="rotate(-0.0)">
      <text x="0.000" y="0.000" font-family="Helvetica" text-anchor="middle" font-size="10pt" fill="#000000" >-200</text>
    </g>
  </g>
  <g transform="translate(203.000,392.446)">
    <g transform="rotate(-0.0)">
      <text x="0.000" y="0.000" font-family="Helvetica" text-anchor="middle" font-size="10pt" fill="#000000" >0</text>
    </g>
  </g>
  <g transform="translate(246.400,392.446)">
    <g transform="rotate(-0.0)">
      <text x="0.000" y="0.000" font-family="Helvetica" text-anchor="middle" font-size="10pt" fill="#000000" >200</text>
    </g>
  </g>
  <g transform="translate(289.800,392.446)">
    <g transform="rotate(-0.0)">
      <text x="0.000" y="0.000" font-family="Helvetica" text-anchor="middle" font-size="10pt" fill="#000000" >400</text>
    </g>
  </g>
  <g transform="translate(333.200,392.446)">
    <g transform="rotate(-0.0)">
      <text x="0.000" y="0.000" font-family="Helvetica" text-anchor="middle" font-size="10pt" fill="#000000" >600</text>
    </g>
  </g>
  <g transform="translate(376.600,392.446)">
    <g transform="rotate(-0.0)">
      <text x="0.000" y="0.000" font-family="Helvetica" text-anchor="middle" font-size="10pt" fill="#000000" >800</text>
    </g>
  </g>
  <g transform="translate(420.000,392.446)">
    <g transform="rotate(-0.0)">
      <text x="0.000" y="0.000" font-family="Helvetica" text-anchor="middle" font-size="10pt" fill="#000000" >1000</text>
    </g>
  </g>
  <g transform="translate(463.400,392.446)">
    <g transform="rotate(-0.0)">
      <text x="0.000" y="0.000" font-family="Helvetica" text-anchor="middle" font-size="10pt" fill="#000000" >1200</text>
    </g>
  </g>
  <g transform="translate(506.800,392.446)">
    <g transform="rotate(-0.0)">
      <text x="0.000" y="0.000" font-family="Helvetica" text-anchor="middle" font-size="10pt" fill="#000000" >1400</text>
    </g>
  </g>
      <polyline fill="none" stroke="#000000" stroke-width="0.5pt" stroke-dasharray="none" points="72.800,373.800 77.140,373.800 "/>
      <polyline fill="none" stroke="#000000" stroke-width="0.5pt" stroke-dasharray="none" points="72.800,339.570 77.140,339.570 "/>
      <polyline fill="none" stroke="#000000" stroke-width="0.5pt" stroke-dasharray="none" points="72.800,305.340 77.140,305.340 "/>
      <polyline fill="none" stroke="#000000" stroke-width="0.5pt" stroke-dasharray="none" points="72.800,271.110 77.140,271.110 "/>
      <polyline fill="none" stroke="#000000" stroke-width="0.5pt" stroke-dasharray="none" points="72.800,236.880 77.140,236.880 "/>
      <polyline fill="none" stroke="#000000" stroke-width="0.5pt" stroke-dasharray="none" points="72.800,202.650 77.140,202.650 "/>
      <polyline fill="none" stroke="#000000" stroke-width="0.5pt" stroke-dasharray="none" points="72.800,168.420 77.140,168.420 "/>
      <polyline fill="none" stroke="#000000" stroke-width="0.5pt" stroke-dasharray="none" points="72.800,134.190 77.140,134.190 "/>
      <polyline fill="none" stroke="#000000" stroke-width="0.5pt" stroke-dasharray="none" points="72.800,99.960 77.140,99.960 "/>
      <polyline fill="none" stroke="#000000" stroke-width="0.5pt" stroke-dasharray="none" points="72.800,65.730 77.140,65.730 "/>
      <polyline fill="none" stroke="#000000" stroke-width="0.5pt" stroke-dasharray="none" points="72.800,31.500 77.140,31.500 "/>
      <polyline fill="none" stroke="#000000" stroke-width="0.5pt" stroke-dasharray="none" points="72.800,373.800 72.800,31.500 "/>
  <g transform="translate(64.120,378.300)">
    <g transform="rotate(-0.0)">
      <text x="0.000" y="0.000" font-family="Helvetica" text-anchor="end" font-size="10pt" fill="#000000" >0</text>
    </g>
  </g>
  <g transform="translate(64.120,344.070)">
    <g transform="rotate(-0.0)">
      <text x="0.000" y="0.000" font-family="Helvetica" text-anchor="end" font-size="10pt" fill="#000000" >0.1</text>
    </g>
  </g>
  <g transform="translate(64.120,309.840)">
    <g transform="rotate(-0.0)">
      <text x="0.000" y="0.000" font-family="Helvetica" text-anchor="end" font-size="10pt" fill="#000000" >0.2</text>
    </g>
  </g>
  <g transform="translate(64.120,275.610)">
    <g transform="rotate(-0.0)">
      <text x="0.000" y="0.000" font-family="Helvetica" text-anchor="end" font-size="10pt" fill="#000000" >0.3</text>
    </g>
  </g>
  <g transform="translate(64.120,241.380)">
    <g transform="rotate(-0.0)">
      <text x="0.000" y="0.000" font-family="Helvetica" text-anchor="end" font-size="10pt" fill="#000000" >0.4</text>
    </g>
  </g>
  <g transform="translate(64.120,207.150)">
    <g transform="rotate(-0.0)">
      <text x="0.000" y="0.000" font-family="Helvetica" text-anchor="end" font-size="10pt" fill="#000000" >0.5</text>
    </g>
  </g>
  <g transform="translate(64.120,172.920)">
    <g transform="rotate(-0.0)">
      <text x="0.000" y="0.000" font-family="Helvetica" text-anchor="end" font-size="10pt" fill="#000000" >0.6</text>
    </g>
  </g>
  <g transform="translate(64.120,138.690)">
    <g transform="rotate(-0.0)">
      <text x="0.000" y="0.000" font-family="Helvetica" text-anchor="end" font-size="10pt" fill="#000000" >0.7</text>
    </g>
  </g>
  <g transform="translate(64.120,104.460)">
    <g transform="rotate(-0.0)">
      <text x="0.000" y="0.000" font-family="Helvetica" text-anchor="end" font-size="10pt" fill="#000000" >0.8</text>
    </g>
  </g>
  <g transform="translate(64.120,70.230)">
    <g transform="rotate(-0.0)">
      <text x="0.000" y="0.000" font-family="Helvetica" text-anchor="end" font-size="10pt" fill="#000000" >0.9</text>
    </g>
  </g>
  <g transform="translate(64.120,36.000)">
    <g transform="rotate(-0.0)">
      <text x="0.000" y="0.000" font-family="Helvetica" text-anchor="end" font-size="10pt" fill="#000000" >1</text>
    </g>
  </g>
      <polyline fill="none" stroke="#000000" stroke-width="0.5pt" stroke-dasharray="none" points="72.800,373.800 72.800,370.377 "/>
      <polyline fill="none" stroke="#000000" stroke-width="0.5pt" stroke-dasharray="none" points="72.800,373.800 72.800,370.377 "/>
      <polyline fill="none" stroke="#000000" stroke-width="0.5pt" stroke-dasharray="none" points="72.800,373.800 72.800,370.377 "/>
      <polyline fill="none" stroke="#000000" stroke-width="0.5pt" stroke-dasharray="none" points="72.800,373.800 72.800,373.800 "/>
    </g>
  </g>
  <g id ="ID000013">
  <clipPath id="ID000014">
    <rect x="79.250" y="339.750" width="140.500" height="25.000"/>
  </clipPath>
      <polygon fill="#ffffff" fill-opacity="1.00" stroke="none" stroke-width="0.5pt" stroke-opacity="1.00" stroke-dasharray="none" points="79.250,364.750 219.750,364.750 219.750,339.750 79.250,339.750 "/>
      <polygon fill="#ffffff" fill-opacity="1.00" stroke="none" stroke-width="0.5pt" stroke-opacity="1.00" stroke-dasharray="none" points="79.250,339.750 219.750,339.750 219.750,339.750 79.250,339.750 "/>
      <polygon fill="#ffffff" fill-opacity="1.00" stroke="none" stroke-width="0.5pt" stroke-opacity="1.00" stroke-dasharray="none" points="79.250,364.750 79.250,364.750 79.250,339.750 79.250,339.750 "/>
    <g>
<g id="ID000015" >
  <g transform="translate(128.574,357.750)">
    <g transform="rotate(-0.0)">
      <text x="0.000" y="0.000" font-family="Helvetica" text-anchor="start" font-size="10pt" fill="#000000" >mean decoding</text>
    </g>
  </g>
</g>
<g id="ID000016" clip-path="url(#ID000014)" >
      <polyline fill="none" stroke="#ff0000" stroke-width="0.5pt" stroke-dasharray="none" points="86.750,352.250 124.250,352.250 "/>
<g>
</g>
</g>
<g id="ID000017" clip-path="url(#ID000014)" >
<g>
</g>
</g>
<g id="ID000018" >
</g>
<g id="ID000019" >
</g>
<g id="ID000020" >
</g>
    </g>
    <g>
      <polyline fill="none" stroke="#000000" stroke-width="0.5pt" stroke-dasharray="none" points="79.250,364.750 219.750,364.750 "/>
      <polyline fill="none" stroke="#000000" stroke-width="0.5pt" stroke-dasharray="none" points="79.250,339.750 219.750,339.750 "/>
      <polyline fill="none" stroke="#000000" stroke-width="0.5pt" stroke-dasharray="none" points="79.250,364.750 79.250,339.750 "/>
      <polyline fill="none" stroke="#000000" stroke-width="0.5pt" stroke-dasharray="none" points="219.750,364.750 219.750,339.750 "/>
      <polyline fill="none" stroke="#000000" stroke-width="0.5pt" stroke-dasharray="none" points="79.250,364.750 79.250,364.500 "/>
      <polyline fill="none" stroke="#000000" stroke-width="0.5pt" stroke-dasharray="none" points="79.250,364.750 79.250,364.750 "/>
    </g>
  </g>
  </g>
</svg>
