<?xml version="1.0" encoding="utf-8" standalone="no"?><!DOCTYPE svg PUBLIC "-//W3C//DTD SVG 1.1//EN" "http://www.w3.org/Graphics/SVG/1.1/DTD/svg11.dtd">
<svg preserveAspectRatio="xMinYMin meet" width="100%" height="100%" viewBox="0 0 560.000 420.000"  version="1.1" xmlns="http://www.w3.org/2000/svg" xmlns:xlink="http://www.w3.org/1999/xlink">
  <desc>Matlab Figure Converted by PLOT2SVG written by Juerg Schwizer</desc>
  <g id="topgroup">
  <rect x="0" y="0" width="560.000" height="420.000" fill="#ffffff" stroke="none" />
  <g id ="ID000000">
  <clipPath id="ID000001">
    <rect x="72.800" y="38.000" width="434.000" height="334.000"/>
  </clipPath>
      <polygon fill="#ffffff" fill-opacity="1.00" stroke="none" stroke-width="0.5pt" stroke-opacity="1.00" stroke-dasharray="none" points="72.800,372.000 506.800,372.000 506.800,38.000 72.800,38.000 "/>
      <polygon fill="#ffffff" fill-opacity="1.00" stroke="none" stroke-width="0.5pt" stroke-opacity="1.00" stroke-dasharray="none" points="72.800,38.000 506.800,38.000 506.800,38.000 72.800,38.000 "/>
      <polygon fill="#ffffff" fill-opacity="1.00" stroke="none" stroke-width="0.5pt" stroke-opacity="1.00" stroke-dasharray="none" points="72.800,372.000 72.800,372.000 72.800,38.000 72.800,38.000 "/>
    <g>
<g id="ID000002" clip-path="url(#ID000001)" >
      <polygon fill="#000080" fill-opacity="0.08" stroke="none" stroke-width="0.5pt" stroke-opacity="1.00" stroke-dasharray="none" points="72.800,253.146 103.363,250.158 133.927,252.703 164.490,254.637 195.054,260.226 225.617,255.626 256.180,252.299 286.744,251.427 317.307,254.109 347.870,270.272 378.434,259.269 408.997,251.360 439.561,254.791 470.124,239.613 500.687,207.977 500.687,96.813 470.124,135.873 439.561,154.652 408.997,138.043 378.434,156.854 347.870,151.418 317.307,141.974 286.744,145.213 256.180,144.341 225.617,142.684 195.054,140.868 164.490,150.353 133.927,143.381 103.363,139.802 72.800,150.731 "/>
</g>
<g id="ID000003" clip-path="url(#ID000001)" >
      <polyline fill="none" stroke="#000080" stroke-width="2.0pt" stroke-dasharray="none" points="72.800,201.938 103.363,194.980 133.927,198.042 164.490,202.495 195.054,200.547 225.617,199.155 256.180,198.320 286.744,198.320 317.307,198.042 347.870,210.845 378.434,208.062 408.997,194.702 439.561,204.722 470.124,187.743 500.687,152.395 "/>
<g>
<circle cx="72.800" cy="201.938" r="3.333" fill="#000080" stroke="none" stroke-width="2.0pt" />
<circle cx="103.363" cy="194.980" r="3.333" fill="#000080" stroke="none" stroke-width="2.0pt" />
<circle cx="133.927" cy="198.042" r="3.333" fill="#000080" stroke="none" stroke-width="2.0pt" />
<circle cx="164.490" cy="202.495" r="3.333" fill="#000080" stroke="none" stroke-width="2.0pt" />
<circle cx="195.054" cy="200.547" r="3.333" fill="#000080" stroke="none" stroke-width="2.0pt" />
<circle cx="225.617" cy="199.155" r="3.333" fill="#000080" stroke="none" stroke-width="2.0pt" />
<circle cx="256.180" cy="198.320" r="3.333" fill="#000080" stroke="none" stroke-width="2.0pt" />
<circle cx="286.744" cy="198.320" r="3.333" fill="#000080" stroke="none" stroke-width="2.0pt" />
<circle cx="317.307" cy="198.042" r="3.333" fill="#000080" stroke="none" stroke-width="2.0pt" />
<circle cx="347.870" cy="210.845" r="3.333" fill="#000080" stroke="none" stroke-width="2.0pt" />
<circle cx="378.434" cy="208.062" r="3.333" fill="#000080" stroke="none" stroke-width="2.0pt" />
<circle cx="408.997" cy="194.702" r="3.333" fill="#000080" stroke="none" stroke-width="2.0pt" />
<circle cx="439.561" cy="204.722" r="3.333" fill="#000080" stroke="none" stroke-width="2.0pt" />
<circle cx="470.124" cy="187.743" r="3.333" fill="#000080" stroke="none" stroke-width="2.0pt" />
<circle cx="500.687" cy="152.395" r="3.333" fill="#000080" stroke="none" stroke-width="2.0pt" />
</g>
</g>
<g id="ID000004" clip-path="url(#ID000001)" >
      <polygon fill="#ff0000" fill-opacity="0.08" stroke="none" stroke-width="0.5pt" stroke-opacity="1.00" stroke-dasharray="none" points="72.800,249.348 103.363,255.072 133.927,254.624 164.490,270.179 195.054,255.481 225.617,258.873 256.180,261.085 286.744,259.960 317.307,248.403 347.870,257.480 378.434,266.539 408.997,272.192 439.561,265.476 470.124,267.074 500.687,254.512 500.687,143.798 470.124,163.522 439.561,153.987 408.997,166.755 378.434,154.038 347.870,153.077 317.307,136.547 286.744,147.813 256.180,148.915 225.617,153.911 195.054,138.932 164.490,143.718 133.927,143.129 103.363,143.238 72.800,149.519 "/>
</g>
<g id="ID000005" clip-path="url(#ID000001)" >
      <polyline fill="none" stroke="#ff0000" stroke-width="2.0pt" stroke-dasharray="none" points="72.800,199.433 103.363,199.155 133.927,198.877 164.490,206.948 195.054,197.207 225.617,206.392 256.180,205.000 286.744,203.887 317.307,192.475 347.870,205.278 378.434,210.288 408.997,219.473 439.561,209.732 470.124,215.298 500.687,199.155 "/>
<g>
<circle cx="72.800" cy="199.433" r="3.333" fill="#ff0000" stroke="none" stroke-width="2.0pt" />
<circle cx="103.363" cy="199.155" r="3.333" fill="#ff0000" stroke="none" stroke-width="2.0pt" />
<circle cx="133.927" cy="198.877" r="3.333" fill="#ff0000" stroke="none" stroke-width="2.0pt" />
<circle cx="164.490" cy="206.948" r="3.333" fill="#ff0000" stroke="none" stroke-width="2.0pt" />
<circle cx="195.054" cy="197.207" r="3.333" fill="#ff0000" stroke="none" stroke-width="2.0pt" />
<circle cx="225.617" cy="206.392" r="3.333" fill="#ff0000" stroke="none" stroke-width="2.0pt" />
<circle cx="256.180" cy="205.000" r="3.333" fill="#ff0000" stroke="none" stroke-width="2.0pt" />
<circle cx="286.744" cy="203.887" r="3.333" fill="#ff0000" stroke="none" stroke-width="2.0pt" />
<circle cx="317.307" cy="192.475" r="3.333" fill="#ff0000" stroke="none" stroke-width="2.0pt" />
<circle cx="347.870" cy="205.278" r="3.333" fill="#ff0000" stroke="none" stroke-width="2.0pt" />
<circle cx="378.434" cy="210.288" r="3.333" fill="#ff0000" stroke="none" stroke-width="2.0pt" />
<circle cx="408.997" cy="219.473" r="3.333" fill="#ff0000" stroke="none" stroke-width="2.0pt" />
<circle cx="439.561" cy="209.732" r="3.333" fill="#ff0000" stroke="none" stroke-width="2.0pt" />
<circle cx="470.124" cy="215.298" r="3.333" fill="#ff0000" stroke="none" stroke-width="2.0pt" />
<circle cx="500.687" cy="199.155" r="3.333" fill="#ff0000" stroke="none" stroke-width="2.0pt" />
</g>
</g>
<g id="ID000006" clip-path="url(#ID000001)" >
      <polyline fill="none" stroke="#000000" stroke-width="0.5pt" stroke-dasharray="8.0,2.0" points="500.687,372.000 500.687,38.000 "/>
<g>
</g>
</g>
<g id="ID000007" >
  <g transform="translate(289.300,22.750)">
    <g transform="rotate(-0.0)">
      <text x="0.000" y="0.000" font-family="Helvetica" text-anchor="middle" font-size="15pt" fill="#000000" >Mean decoding for brt abs tr phi 180 te phi 0  Quincy</text>
    </g>
  </g>
</g>
<g id="ID000008" >
  <g transform="translate(28.550,206.500)">
    <g transform="rotate(-90.0)">
      <text x="0.000" y="0.000" font-family="Helvetica" text-anchor="middle" font-size="15pt" fill="#000000" >Decoding accuracy (%)</text>
    </g>
  </g>
</g>
<g id="ID000009" clip-path="url(#ID000001)" >
      <polyline fill="none" stroke="#000080" stroke-width="1.0pt" stroke-dasharray="none" points="485.406,346.950 515.969,346.950 "/>
<g>
</g>
</g>
<g id="ID000010" >
  <g transform="translate(289.300,418.750)">
    <g transform="rotate(-0.0)">
      <text x="0.000" y="0.000" font-family="Helvetica" text-anchor="middle" font-size="15pt" fill="#000000" >Time from saccade onset (s)</text>
    </g>
  </g>
</g>
<g id="ID000011" clip-path="url(#ID000001)" >
      <polyline fill="none" stroke="#000000" stroke-width="0.5pt" stroke-dasharray="none" points="72.800,205.000 506.800,205.000 "/>
<g>
</g>
</g>
    </g>
    <g>
      <polyline fill="none" stroke="#000000" stroke-width="0.5pt" stroke-dasharray="none" points="133.927,372.000 133.927,367.660 "/>
      <polyline fill="none" stroke="#000000" stroke-width="0.5pt" stroke-dasharray="none" points="195.054,372.000 195.054,367.660 "/>
      <polyline fill="none" stroke="#000000" stroke-width="0.5pt" stroke-dasharray="none" points="256.180,372.000 256.180,367.660 "/>
      <polyline fill="none" stroke="#000000" stroke-width="0.5pt" stroke-dasharray="none" points="317.307,372.000 317.307,367.660 "/>
      <polyline fill="none" stroke="#000000" stroke-width="0.5pt" stroke-dasharray="none" points="378.434,372.000 378.434,367.660 "/>
      <polyline fill="none" stroke="#000000" stroke-width="0.5pt" stroke-dasharray="none" points="439.561,372.000 439.561,367.660 "/>
      <polyline fill="none" stroke="#000000" stroke-width="0.5pt" stroke-dasharray="none" points="500.687,372.000 500.687,367.660 "/>
      <polyline fill="none" stroke="#000000" stroke-width="0.5pt" stroke-dasharray="none" points="72.800,372.000 506.800,372.000 "/>
  <g transform="translate(133.927,396.380)">
    <g transform="rotate(-0.0)">
      <text x="0.000" y="0.000" font-family="Helvetica" text-anchor="middle" font-size="15pt" fill="#000000" >-1.2</text>
    </g>
  </g>
  <g transform="translate(195.054,396.380)">
    <g transform="rotate(-0.0)">
      <text x="0.000" y="0.000" font-family="Helvetica" text-anchor="middle" font-size="15pt" fill="#000000" >-1</text>
    </g>
  </g>
  <g transform="translate(256.180,396.380)">
    <g transform="rotate(-0.0)">
      <text x="0.000" y="0.000" font-family="Helvetica" text-anchor="middle" font-size="15pt" fill="#000000" >-0.8</text>
    </g>
  </g>
  <g transform="translate(317.307,396.380)">
    <g transform="rotate(-0.0)">
      <text x="0.000" y="0.000" font-family="Helvetica" text-anchor="middle" font-size="15pt" fill="#000000" >-0.6</text>
    </g>
  </g>
  <g transform="translate(378.434,396.380)">
    <g transform="rotate(-0.0)">
      <text x="0.000" y="0.000" font-family="Helvetica" text-anchor="middle" font-size="15pt" fill="#000000" >-0.4</text>
    </g>
  </g>
  <g transform="translate(439.561,396.380)">
    <g transform="rotate(-0.0)">
      <text x="0.000" y="0.000" font-family="Helvetica" text-anchor="middle" font-size="15pt" fill="#000000" >-0.2</text>
    </g>
  </g>
  <g transform="translate(500.687,396.380)">
    <g transform="rotate(-0.0)">
      <text x="0.000" y="0.000" font-family="Helvetica" text-anchor="middle" font-size="15pt" fill="#000000" >0</text>
    </g>
  </g>
      <polyline fill="none" stroke="#000000" stroke-width="0.5pt" stroke-dasharray="none" points="72.800,372.000 77.140,372.000 "/>
      <polyline fill="none" stroke="#000000" stroke-width="0.5pt" stroke-dasharray="none" points="72.800,288.500 77.140,288.500 "/>
      <polyline fill="none" stroke="#000000" stroke-width="0.5pt" stroke-dasharray="none" points="72.800,205.000 77.140,205.000 "/>
      <polyline fill="none" stroke="#000000" stroke-width="0.5pt" stroke-dasharray="none" points="72.800,121.500 77.140,121.500 "/>
      <polyline fill="none" stroke="#000000" stroke-width="0.5pt" stroke-dasharray="none" points="72.800,38.000 77.140,38.000 "/>
      <polyline fill="none" stroke="#000000" stroke-width="0.5pt" stroke-dasharray="none" points="72.800,372.000 72.800,38.000 "/>
  <g transform="translate(64.120,378.750)">
    <g transform="rotate(-0.0)">
      <text x="0.000" y="0.000" font-family="Helvetica" text-anchor="end" font-size="15pt" fill="#000000" >0</text>
    </g>
  </g>
  <g transform="translate(64.120,295.250)">
    <g transform="rotate(-0.0)">
      <text x="0.000" y="0.000" font-family="Helvetica" text-anchor="end" font-size="15pt" fill="#000000" >25</text>
    </g>
  </g>
  <g transform="translate(64.120,211.750)">
    <g transform="rotate(-0.0)">
      <text x="0.000" y="0.000" font-family="Helvetica" text-anchor="end" font-size="15pt" fill="#000000" >50</text>
    </g>
  </g>
  <g transform="translate(64.120,128.250)">
    <g transform="rotate(-0.0)">
      <text x="0.000" y="0.000" font-family="Helvetica" text-anchor="end" font-size="15pt" fill="#000000" >75</text>
    </g>
  </g>
  <g transform="translate(64.120,44.750)">
    <g transform="rotate(-0.0)">
      <text x="0.000" y="0.000" font-family="Helvetica" text-anchor="end" font-size="15pt" fill="#000000" >100</text>
    </g>
  </g>
      <polyline fill="none" stroke="#000000" stroke-width="0.5pt" stroke-dasharray="none" points="72.800,372.000 72.800,368.660 "/>
      <polyline fill="none" stroke="#000000" stroke-width="0.5pt" stroke-dasharray="none" points="72.800,372.000 72.800,368.660 "/>
      <polyline fill="none" stroke="#000000" stroke-width="0.5pt" stroke-dasharray="none" points="72.800,372.000 72.800,368.660 "/>
      <polyline fill="none" stroke="#000000" stroke-width="0.5pt" stroke-dasharray="none" points="72.800,372.000 72.800,372.000 "/>
    </g>
  </g>
  </g>
</svg>
