<?xml version="1.0" encoding="utf-8" standalone="no"?><!DOCTYPE svg PUBLIC "-//W3C//DTD SVG 1.1//EN" "http://www.w3.org/Graphics/SVG/1.1/DTD/svg11.dtd">
<svg preserveAspectRatio="xMinYMin meet" width="100%" height="100%" viewBox="0 0 560.000 420.000"  version="1.1" xmlns="http://www.w3.org/2000/svg" xmlns:xlink="http://www.w3.org/1999/xlink">
  <desc>Matlab Figure Converted by PLOT2SVG written by Juerg Schwizer</desc>
  <g id="topgroup">
  <rect x="0" y="0" width="560.000" height="420.000" fill="#ffffff" stroke="none" />
  <g id ="ID000000">
  <clipPath id="ID000001">
    <rect x="72.800" y="31.500" width="434.000" height="342.300"/>
  </clipPath>
      <polygon fill="#ffffff" fill-opacity="1.00" stroke="none" stroke-width="0.5pt" stroke-opacity="1.00" stroke-dasharray="none" points="72.800,373.800 506.800,373.800 506.800,31.500 72.800,31.500 "/>
      <polygon fill="#ffffff" fill-opacity="1.00" stroke="none" stroke-width="0.5pt" stroke-opacity="1.00" stroke-dasharray="none" points="72.800,31.500 506.800,31.500 506.800,31.500 72.800,31.500 "/>
      <polygon fill="#ffffff" fill-opacity="1.00" stroke="none" stroke-width="0.5pt" stroke-opacity="1.00" stroke-dasharray="none" points="72.800,373.800 72.800,373.800 72.800,31.500 72.800,31.500 "/>
    <g>
<g id="ID000002" clip-path="url(#ID000001)" >
      <polygon fill="#ff0000" fill-opacity="0.08" stroke="none" stroke-width="0.5pt" stroke-opacity="1.00" stroke-dasharray="none" points="94.500,231.111 116.200,248.408 137.900,241.208 159.600,235.259 181.300,255.814 203.000,237.429 224.700,247.962 246.400,253.271 268.100,243.206 289.800,228.354 311.500,228.229 333.200,254.005 354.900,224.811 376.600,238.351 398.300,235.143 420.000,240.125 441.700,240.217 463.400,243.679 485.100,258.916 506.800,256.391 506.800,173.013 485.100,182.183 463.400,167.611 441.700,160.947 420.000,159.328 398.300,154.326 376.600,159.105 354.900,142.836 333.200,178.679 311.500,147.405 289.800,149.134 268.100,162.807 246.400,169.572 224.700,165.183 203.000,160.883 181.300,181.577 159.600,154.637 137.900,156.391 116.200,164.024 94.500,144.523 "/>
</g>
<g id="ID000003" clip-path="url(#ID000001)" >
      <polyline fill="none" stroke="#ff0000" stroke-width="0.5pt" stroke-dasharray="none" points="94.500,187.817 116.200,206.216 137.900,198.799 159.600,194.948 181.300,218.695 203.000,199.156 224.700,206.572 246.400,211.421 268.100,203.007 289.800,188.744 311.500,187.817 333.200,216.342 354.900,183.823 376.600,198.728 398.300,194.734 420.000,199.726 441.700,200.582 463.400,205.645 485.100,220.549 506.800,214.702 "/>
<g>
</g>
</g>
<g id="ID000004" clip-path="url(#ID000001)" >
      <polyline fill="none" stroke="#000000" stroke-width="0.5pt" stroke-dasharray="none" points="72.800,202.650 506.800,202.650 "/>
<g>
</g>
</g>
<g id="ID000005" clip-path="url(#ID000001)" >
      <polyline fill="none" stroke="#000000" stroke-width="2.0pt" stroke-dasharray="none" points="203.000,373.800 203.000,31.500 "/>
<g>
</g>
</g>
<g id="ID000006" >
  <g transform="translate(289.300,21.493)">
    <g transform="rotate(-0.0)">
      <text x="0.000" y="0.000" font-family="Helvetica" text-anchor="middle" font-size="10pt" fill="#000000" >Mean decoding for brt rel tr phi in te phi in</text>
    </g>
  </g>
</g>
<g id="ID000007" >
</g>
<g id="ID000008" >
</g>
<g id="ID000009" >
</g>
<g id="ID000010" >
</g>
    </g>
    <g>
      <polyline fill="none" stroke="#000000" stroke-width="0.5pt" stroke-dasharray="none" points="72.800,373.800 72.800,369.460 "/>
      <polyline fill="none" stroke="#000000" stroke-width="0.5pt" stroke-dasharray="none" points="116.200,373.800 116.200,369.460 "/>
      <polyline fill="none" stroke="#000000" stroke-width="0.5pt" stroke-dasharray="none" points="159.600,373.800 159.600,369.460 "/>
      <polyline fill="none" stroke="#000000" stroke-width="0.5pt" stroke-dasharray="none" points="203.000,373.800 203.000,369.460 "/>
      <polyline fill="none" stroke="#000000" stroke-width="0.5pt" stroke-dasharray="none" points="246.400,373.800 246.400,369.460 "/>
      <polyline fill="none" stroke="#000000" stroke-width="0.5pt" stroke-dasharray="none" points="289.800,373.800 289.800,369.460 "/>
      <polyline fill="none" stroke="#000000" stroke-width="0.5pt" stroke-dasharray="none" points="333.200,373.800 333.200,369.460 "/>
      <polyline fill="none" stroke="#000000" stroke-width="0.5pt" stroke-dasharray="none" points="376.600,373.800 376.600,369.460 "/>
      <polyline fill="none" stroke="#000000" stroke-width="0.5pt" stroke-dasharray="none" points="420.000,373.800 420.000,369.460 "/>
      <polyline fill="none" stroke="#000000" stroke-width="0.5pt" stroke-dasharray="none" points="463.400,373.800 463.400,369.460 "/>
      <polyline fill="none" stroke="#000000" stroke-width="0.5pt" stroke-dasharray="none" points="506.800,373.800 506.800,369.460 "/>
      <polyline fill="none" stroke="#000000" stroke-width="0.5pt" stroke-dasharray="none" points="72.800,373.800 506.800,373.800 "/>
  <g transform="translate(72.800,392.446)">
    <g transform="rotate(-0.0)">
      <text x="0.000" y="0.000" font-family="Helvetica" text-anchor="middle" font-size="10pt" fill="#000000" >-600</text>
    </g>
  </g>
  <g transform="translate(116.200,392.446)">
    <g transform="rotate(-0.0)">
      <text x="0.000" y="0.000" font-family="Helvetica" text-anchor="middle" font-size="10pt" fill="#000000" >-400</text>
    </g>
  </g>
  <g transform="translate(159.600,392.446)">
    <g transform="rotate(-0.0)">
      <text x="0.000" y="0.000" font-family="Helvetica" text-anchor="middle" font-size="10pt" fill="#000000" >-200</text>
    </g>
  </g>
  <g transform="translate(203.000,392.446)">
    <g transform="rotate(-0.0)">
      <text x="0.000" y="0.000" font-family="Helvetica" text-anchor="middle" font-size="10pt" fill="#000000" >0</text>
    </g>
  </g>
  <g transform="translate(246.400,392.446)">
    <g transform="rotate(-0.0)">
      <text x="0.000" y="0.000" font-family="Helvetica" text-anchor="middle" font-size="10pt" fill="#000000" >200</text>
    </g>
  </g>
  <g transform="translate(289.800,392.446)">
    <g transform="rotate(-0.0)">
      <text x="0.000" y="0.000" font-family="Helvetica" text-anchor="middle" font-size="10pt" fill="#000000" >400</text>
    </g>
  </g>
  <g transform="translate(333.200,392.446)">
    <g transform="rotate(-0.0)">
      <text x="0.000" y="0.000" font-family="Helvetica" text-anchor="middle" font-size="10pt" fill="#000000" >600</text>
    </g>
  </g>
  <g transform="translate(376.600,392.446)">
    <g transform="rotate(-0.0)">
      <text x="0.000" y="0.000" font-family="Helvetica" text-anchor="middle" font-size="10pt" fill="#000000" >800</text>
    </g>
  </g>
  <g transform="translate(420.000,392.446)">
    <g transform="rotate(-0.0)">
      <text x="0.000" y="0.000" font-family="Helvetica" text-anchor="middle" font-size="10pt" fill="#000000" >1000</text>
    </g>
  </g>
  <g transform="translate(463.400,392.446)">
    <g transform="rotate(-0.0)">
      <text x="0.000" y="0.000" font-family="Helvetica" text-anchor="middle" font-size="10pt" fill="#000000" >1200</text>
    </g>
  </g>
  <g transform="translate(506.800,392.446)">
    <g transform="rotate(-0.0)">
      <text x="0.000" y="0.000" font-family="Helvetica" text-anchor="middle" font-size="10pt" fill="#000000" >1400</text>
    </g>
  </g>
      <polyline fill="none" stroke="#000000" stroke-width="0.5pt" stroke-dasharray="none" points="72.800,373.800 77.140,373.800 "/>
      <polyline fill="none" stroke="#000000" stroke-width="0.5pt" stroke-dasharray="none" points="72.800,339.570 77.140,339.570 "/>
      <polyline fill="none" stroke="#000000" stroke-width="0.5pt" stroke-dasharray="none" points="72.800,305.340 77.140,305.340 "/>
      <polyline fill="none" stroke="#000000" stroke-width="0.5pt" stroke-dasharray="none" points="72.800,271.110 77.140,271.110 "/>
      <polyline fill="none" stroke="#000000" stroke-width="0.5pt" stroke-dasharray="none" points="72.800,236.880 77.140,236.880 "/>
      <polyline fill="none" stroke="#000000" stroke-width="0.5pt" stroke-dasharray="none" points="72.800,202.650 77.140,202.650 "/>
      <polyline fill="none" stroke="#000000" stroke-width="0.5pt" stroke-dasharray="none" points="72.800,168.420 77.140,168.420 "/>
      <polyline fill="none" stroke="#000000" stroke-width="0.5pt" stroke-dasharray="none" points="72.800,134.190 77.140,134.190 "/>
      <polyline fill="none" stroke="#000000" stroke-width="0.5pt" stroke-dasharray="none" points="72.800,99.960 77.140,99.960 "/>
      <polyline fill="none" stroke="#000000" stroke-width="0.5pt" stroke-dasharray="none" points="72.800,65.730 77.140,65.730 "/>
      <polyline fill="none" stroke="#000000" stroke-width="0.5pt" stroke-dasharray="none" points="72.800,31.500 77.140,31.500 "/>
      <polyline fill="none" stroke="#000000" stroke-width="0.5pt" stroke-dasharray="none" points="72.800,373.800 72.800,31.500 "/>
  <g transform="translate(64.120,378.300)">
    <g transform="rotate(-0.0)">
      <text x="0.000" y="0.000" font-family="Helvetica" text-anchor="end" font-size="10pt" fill="#000000" >0</text>
    </g>
  </g>
  <g transform="translate(64.120,344.070)">
    <g transform="rotate(-0.0)">
      <text x="0.000" y="0.000" font-family="Helvetica" text-anchor="end" font-size="10pt" fill="#000000" >0.1</text>
    </g>
  </g>
  <g transform="translate(64.120,309.840)">
    <g transform="rotate(-0.0)">
      <text x="0.000" y="0.000" font-family="Helvetica" text-anchor="end" font-size="10pt" fill="#000000" >0.2</text>
    </g>
  </g>
  <g transform="translate(64.120,275.610)">
    <g transform="rotate(-0.0)">
      <text x="0.000" y="0.000" font-family="Helvetica" text-anchor="end" font-size="10pt" fill="#000000" >0.3</text>
    </g>
  </g>
  <g transform="translate(64.120,241.380)">
    <g transform="rotate(-0.0)">
      <text x="0.000" y="0.000" font-family="Helvetica" text-anchor="end" font-size="10pt" fill="#000000" >0.4</text>
    </g>
  </g>
  <g transform="translate(64.120,207.150)">
    <g transform="rotate(-0.0)">
      <text x="0.000" y="0.000" font-family="Helvetica" text-anchor="end" font-size="10pt" fill="#000000" >0.5</text>
    </g>
  </g>
  <g transform="translate(64.120,172.920)">
    <g transform="rotate(-0.0)">
      <text x="0.000" y="0.000" font-family="Helvetica" text-anchor="end" font-size="10pt" fill="#000000" >0.6</text>
    </g>
  </g>
  <g transform="translate(64.120,138.690)">
    <g transform="rotate(-0.0)">
      <text x="0.000" y="0.000" font-family="Helvetica" text-anchor="end" font-size="10pt" fill="#000000" >0.7</text>
    </g>
  </g>
  <g transform="translate(64.120,104.460)">
    <g transform="rotate(-0.0)">
      <text x="0.000" y="0.000" font-family="Helvetica" text-anchor="end" font-size="10pt" fill="#000000" >0.8</text>
    </g>
  </g>
  <g transform="translate(64.120,70.230)">
    <g transform="rotate(-0.0)">
      <text x="0.000" y="0.000" font-family="Helvetica" text-anchor="end" font-size="10pt" fill="#000000" >0.9</text>
    </g>
  </g>
  <g transform="translate(64.120,36.000)">
    <g transform="rotate(-0.0)">
      <text x="0.000" y="0.000" font-family="Helvetica" text-anchor="end" font-size="10pt" fill="#000000" >1</text>
    </g>
  </g>
      <polyline fill="none" stroke="#000000" stroke-width="0.5pt" stroke-dasharray="none" points="72.800,373.800 72.800,370.377 "/>
      <polyline fill="none" stroke="#000000" stroke-width="0.5pt" stroke-dasharray="none" points="72.800,373.800 72.800,370.377 "/>
      <polyline fill="none" stroke="#000000" stroke-width="0.5pt" stroke-dasharray="none" points="72.800,373.800 72.800,370.377 "/>
      <polyline fill="none" stroke="#000000" stroke-width="0.5pt" stroke-dasharray="none" points="72.800,373.800 72.800,373.800 "/>
    </g>
  </g>
  <g id ="ID000011">
  <clipPath id="ID000012">
    <rect x="79.250" y="339.750" width="140.500" height="25.000"/>
  </clipPath>
      <polygon fill="#ffffff" fill-opacity="1.00" stroke="none" stroke-width="0.5pt" stroke-opacity="1.00" stroke-dasharray="none" points="79.250,364.750 219.750,364.750 219.750,339.750 79.250,339.750 "/>
      <polygon fill="#ffffff" fill-opacity="1.00" stroke="none" stroke-width="0.5pt" stroke-opacity="1.00" stroke-dasharray="none" points="79.250,339.750 219.750,339.750 219.750,339.750 79.250,339.750 "/>
      <polygon fill="#ffffff" fill-opacity="1.00" stroke="none" stroke-width="0.5pt" stroke-opacity="1.00" stroke-dasharray="none" points="79.250,364.750 79.250,364.750 79.250,339.750 79.250,339.750 "/>
    <g>
<g id="ID000013" >
  <g transform="translate(128.574,357.750)">
    <g transform="rotate(-0.0)">
      <text x="0.000" y="0.000" font-family="Helvetica" text-anchor="start" font-size="10pt" fill="#000000" >mean decoding</text>
    </g>
  </g>
</g>
<g id="ID000014" clip-path="url(#ID000012)" >
      <polyline fill="none" stroke="#ff0000" stroke-width="0.5pt" stroke-dasharray="none" points="86.750,352.250 124.250,352.250 "/>
<g>
</g>
</g>
<g id="ID000015" clip-path="url(#ID000012)" >
<g>
</g>
</g>
<g id="ID000016" >
</g>
<g id="ID000017" >
</g>
<g id="ID000018" >
</g>
    </g>
    <g>
      <polyline fill="none" stroke="#000000" stroke-width="0.5pt" stroke-dasharray="none" points="79.250,364.750 219.750,364.750 "/>
      <polyline fill="none" stroke="#000000" stroke-width="0.5pt" stroke-dasharray="none" points="79.250,339.750 219.750,339.750 "/>
      <polyline fill="none" stroke="#000000" stroke-width="0.5pt" stroke-dasharray="none" points="79.250,364.750 79.250,339.750 "/>
      <polyline fill="none" stroke="#000000" stroke-width="0.5pt" stroke-dasharray="none" points="219.750,364.750 219.750,339.750 "/>
      <polyline fill="none" stroke="#000000" stroke-width="0.5pt" stroke-dasharray="none" points="79.250,364.750 79.250,364.500 "/>
      <polyline fill="none" stroke="#000000" stroke-width="0.5pt" stroke-dasharray="none" points="79.250,364.750 79.250,364.750 "/>
    </g>
  </g>
  </g>
</svg>
