<?xml version="1.0" encoding="utf-8" standalone="no"?><!DOCTYPE svg PUBLIC "-//W3C//DTD SVG 1.1//EN" "http://www.w3.org/Graphics/SVG/1.1/DTD/svg11.dtd">
<svg preserveAspectRatio="xMinYMin meet" width="100%" height="100%" viewBox="0 0 560.000 420.000"  version="1.1" xmlns="http://www.w3.org/2000/svg" xmlns:xlink="http://www.w3.org/1999/xlink">
  <desc>Matlab Figure Converted by PLOT2SVG written by Juerg Schwizer</desc>
  <g id="topgroup">
  <rect x="0" y="0" width="560.000" height="420.000" fill="#ffffff" stroke="none" />
  <g id ="ID000000">
  <clipPath id="ID000001">
    <rect x="72.800" y="38.000" width="434.000" height="334.000"/>
  </clipPath>
      <polygon fill="#ffffff" fill-opacity="1.00" stroke="none" stroke-width="0.5pt" stroke-opacity="1.00" stroke-dasharray="none" points="72.800,372.000 506.800,372.000 506.800,38.000 72.800,38.000 "/>
      <polygon fill="#ffffff" fill-opacity="1.00" stroke="none" stroke-width="0.5pt" stroke-opacity="1.00" stroke-dasharray="none" points="72.800,38.000 506.800,38.000 506.800,38.000 72.800,38.000 "/>
      <polygon fill="#ffffff" fill-opacity="1.00" stroke="none" stroke-width="0.5pt" stroke-opacity="1.00" stroke-dasharray="none" points="72.800,372.000 72.800,372.000 72.800,38.000 72.800,38.000 "/>
    <g>
<g id="ID000002" clip-path="url(#ID000001)" >
      <polygon fill="#738ccc" fill-opacity="0.08" stroke="none" stroke-width="0.5pt" stroke-opacity="1.00" stroke-dasharray="none" points="72.800,193.467 95.642,191.473 118.484,189.457 141.326,173.839 164.168,160.792 187.011,149.195 209.853,143.276 232.695,187.178 255.537,174.090 278.379,183.139 301.221,163.792 324.063,197.933 346.905,230.374 369.747,180.790 392.589,185.069 415.432,226.054 438.274,198.141 461.116,194.547 483.958,166.765 506.800,188.895 506.800,68.765 483.958,61.128 461.116,72.382 438.274,72.126 415.432,97.123 392.589,82.101 369.747,71.982 346.905,104.694 324.063,94.377 301.221,54.389 278.379,73.801 255.537,58.203 232.695,31.574 209.853,37.321 187.011,81.731 164.168,84.950 141.326,98.464 118.484,105.574 95.642,121.054 72.800,118.343 "/>
</g>
<g id="ID000003" clip-path="url(#ID000001)" >
      <polyline fill="none" stroke="#738ccc" stroke-width="2.0pt" stroke-dasharray="none" points="72.800,155.905 95.642,156.263 118.484,147.516 141.326,136.151 164.168,122.871 187.011,115.463 209.853,90.299 232.695,109.376 255.537,116.146 278.379,128.470 301.221,109.090 324.063,146.155 346.905,167.534 369.747,126.386 392.589,133.585 415.432,161.588 438.274,135.134 461.116,133.464 483.958,113.946 506.800,128.830 "/>
<g>
<circle cx="72.800" cy="155.905" r="3.333" fill="#738ccc" stroke="none" stroke-width="2.0pt" />
<circle cx="95.642" cy="156.263" r="3.333" fill="#738ccc" stroke="none" stroke-width="2.0pt" />
<circle cx="118.484" cy="147.516" r="3.333" fill="#738ccc" stroke="none" stroke-width="2.0pt" />
<circle cx="141.326" cy="136.151" r="3.333" fill="#738ccc" stroke="none" stroke-width="2.0pt" />
<circle cx="164.168" cy="122.871" r="3.333" fill="#738ccc" stroke="none" stroke-width="2.0pt" />
<circle cx="187.011" cy="115.463" r="3.333" fill="#738ccc" stroke="none" stroke-width="2.0pt" />
<circle cx="209.853" cy="90.299" r="3.333" fill="#738ccc" stroke="none" stroke-width="2.0pt" />
<circle cx="232.695" cy="109.376" r="3.333" fill="#738ccc" stroke="none" stroke-width="2.0pt" />
<circle cx="255.537" cy="116.146" r="3.333" fill="#738ccc" stroke="none" stroke-width="2.0pt" />
<circle cx="278.379" cy="128.470" r="3.333" fill="#738ccc" stroke="none" stroke-width="2.0pt" />
<circle cx="301.221" cy="109.090" r="3.333" fill="#738ccc" stroke="none" stroke-width="2.0pt" />
<circle cx="324.063" cy="146.155" r="3.333" fill="#738ccc" stroke="none" stroke-width="2.0pt" />
<circle cx="346.905" cy="167.534" r="3.333" fill="#738ccc" stroke="none" stroke-width="2.0pt" />
<circle cx="369.747" cy="126.386" r="3.333" fill="#738ccc" stroke="none" stroke-width="2.0pt" />
<circle cx="392.589" cy="133.585" r="3.333" fill="#738ccc" stroke="none" stroke-width="2.0pt" />
<circle cx="415.432" cy="161.588" r="3.333" fill="#738ccc" stroke="none" stroke-width="2.0pt" />
<circle cx="438.274" cy="135.134" r="3.333" fill="#738ccc" stroke="none" stroke-width="2.0pt" />
<circle cx="461.116" cy="133.464" r="3.333" fill="#738ccc" stroke="none" stroke-width="2.0pt" />
<circle cx="483.958" cy="113.946" r="3.333" fill="#738ccc" stroke="none" stroke-width="2.0pt" />
<circle cx="506.800" cy="128.830" r="3.333" fill="#738ccc" stroke="none" stroke-width="2.0pt" />
</g>
</g>
<g id="ID000004" clip-path="url(#ID000001)" >
      <polygon fill="#000080" fill-opacity="0.08" stroke="none" stroke-width="0.5pt" stroke-opacity="1.00" stroke-dasharray="none" points="72.800,191.324 95.642,180.078 118.484,189.998 141.326,175.544 164.168,157.298 187.011,121.008 209.853,176.725 232.695,205.163 255.537,197.386 278.379,184.348 301.221,191.119 324.063,201.727 346.905,230.068 369.747,178.452 392.589,190.358 415.432,244.753 438.274,197.218 461.116,204.560 483.958,180.609 506.800,189.261 506.800,80.918 483.958,98.379 461.116,104.783 438.274,96.434 415.432,109.009 392.589,83.652 369.747,71.218 346.905,99.136 324.063,79.424 301.221,104.416 278.379,96.144 255.537,142.198 232.695,166.998 209.853,111.713 187.011,47.247 164.168,83.009 141.326,106.919 118.484,109.686 95.642,99.843 72.800,116.616 "/>
</g>
<g id="ID000005" clip-path="url(#ID000001)" >
      <polyline fill="none" stroke="#000080" stroke-width="2.0pt" stroke-dasharray="none" points="72.800,153.970 95.642,139.960 118.484,149.842 141.326,141.231 164.168,120.153 187.011,84.128 209.853,144.219 232.695,186.081 255.537,169.792 278.379,140.246 301.221,147.768 324.063,140.575 346.905,164.602 369.747,124.835 392.589,137.005 415.432,176.881 438.274,146.826 461.116,154.671 483.958,139.494 506.800,135.090 "/>
<g>
<circle cx="72.800" cy="153.970" r="3.333" fill="#000080" stroke="none" stroke-width="2.0pt" />
<circle cx="95.642" cy="139.960" r="3.333" fill="#000080" stroke="none" stroke-width="2.0pt" />
<circle cx="118.484" cy="149.842" r="3.333" fill="#000080" stroke="none" stroke-width="2.0pt" />
<circle cx="141.326" cy="141.231" r="3.333" fill="#000080" stroke="none" stroke-width="2.0pt" />
<circle cx="164.168" cy="120.153" r="3.333" fill="#000080" stroke="none" stroke-width="2.0pt" />
<circle cx="187.011" cy="84.128" r="3.333" fill="#000080" stroke="none" stroke-width="2.0pt" />
<circle cx="209.853" cy="144.219" r="3.333" fill="#000080" stroke="none" stroke-width="2.0pt" />
<circle cx="232.695" cy="186.081" r="3.333" fill="#000080" stroke="none" stroke-width="2.0pt" />
<circle cx="255.537" cy="169.792" r="3.333" fill="#000080" stroke="none" stroke-width="2.0pt" />
<circle cx="278.379" cy="140.246" r="3.333" fill="#000080" stroke="none" stroke-width="2.0pt" />
<circle cx="301.221" cy="147.768" r="3.333" fill="#000080" stroke="none" stroke-width="2.0pt" />
<circle cx="324.063" cy="140.575" r="3.333" fill="#000080" stroke="none" stroke-width="2.0pt" />
<circle cx="346.905" cy="164.602" r="3.333" fill="#000080" stroke="none" stroke-width="2.0pt" />
<circle cx="369.747" cy="124.835" r="3.333" fill="#000080" stroke="none" stroke-width="2.0pt" />
<circle cx="392.589" cy="137.005" r="3.333" fill="#000080" stroke="none" stroke-width="2.0pt" />
<circle cx="415.432" cy="176.881" r="3.333" fill="#000080" stroke="none" stroke-width="2.0pt" />
<circle cx="438.274" cy="146.826" r="3.333" fill="#000080" stroke="none" stroke-width="2.0pt" />
<circle cx="461.116" cy="154.671" r="3.333" fill="#000080" stroke="none" stroke-width="2.0pt" />
<circle cx="483.958" cy="139.494" r="3.333" fill="#000080" stroke="none" stroke-width="2.0pt" />
<circle cx="506.800" cy="135.090" r="3.333" fill="#000080" stroke="none" stroke-width="2.0pt" />
</g>
</g>
<g id="ID000006" clip-path="url(#ID000001)" >
      <polygon fill="#f08080" fill-opacity="0.08" stroke="none" stroke-width="0.5pt" stroke-opacity="1.00" stroke-dasharray="none" points="72.800,260.903 95.642,261.686 118.484,241.126 141.326,242.254 164.168,284.643 187.011,236.035 209.853,220.238 232.695,218.255 255.537,210.411 278.379,208.952 301.221,184.451 324.063,157.070 346.905,165.564 369.747,152.085 392.589,178.188 415.432,161.047 438.274,146.893 461.116,133.234 483.958,168.260 506.800,151.744 506.800,70.922 483.958,92.491 461.116,65.930 438.274,78.093 415.432,88.452 392.589,101.123 369.747,77.394 346.905,98.171 324.063,79.338 301.221,108.984 278.379,129.934 255.537,141.909 232.695,147.693 209.853,145.528 187.011,165.963 164.168,177.096 141.326,166.816 118.484,160.516 95.642,140.989 72.800,169.776 "/>
</g>
<g id="ID000007" clip-path="url(#ID000001)" >
      <polyline fill="none" stroke="#f08080" stroke-width="2.0pt" stroke-dasharray="none" points="72.800,215.339 95.642,201.337 118.484,200.821 141.326,204.535 164.168,230.870 187.011,200.999 209.853,182.883 232.695,182.974 255.537,176.160 278.379,169.443 301.221,146.718 324.063,118.204 346.905,131.867 369.747,114.739 392.589,139.656 415.432,124.749 438.274,112.493 461.116,99.582 483.958,130.376 506.800,111.333 "/>
<g>
<circle cx="72.800" cy="215.339" r="3.333" fill="#f08080" stroke="none" stroke-width="2.0pt" />
<circle cx="95.642" cy="201.337" r="3.333" fill="#f08080" stroke="none" stroke-width="2.0pt" />
<circle cx="118.484" cy="200.821" r="3.333" fill="#f08080" stroke="none" stroke-width="2.0pt" />
<circle cx="141.326" cy="204.535" r="3.333" fill="#f08080" stroke="none" stroke-width="2.0pt" />
<circle cx="164.168" cy="230.870" r="3.333" fill="#f08080" stroke="none" stroke-width="2.0pt" />
<circle cx="187.011" cy="200.999" r="3.333" fill="#f08080" stroke="none" stroke-width="2.0pt" />
<circle cx="209.853" cy="182.883" r="3.333" fill="#f08080" stroke="none" stroke-width="2.0pt" />
<circle cx="232.695" cy="182.974" r="3.333" fill="#f08080" stroke="none" stroke-width="2.0pt" />
<circle cx="255.537" cy="176.160" r="3.333" fill="#f08080" stroke="none" stroke-width="2.0pt" />
<circle cx="278.379" cy="169.443" r="3.333" fill="#f08080" stroke="none" stroke-width="2.0pt" />
<circle cx="301.221" cy="146.718" r="3.333" fill="#f08080" stroke="none" stroke-width="2.0pt" />
<circle cx="324.063" cy="118.204" r="3.333" fill="#f08080" stroke="none" stroke-width="2.0pt" />
<circle cx="346.905" cy="131.867" r="3.333" fill="#f08080" stroke="none" stroke-width="2.0pt" />
<circle cx="369.747" cy="114.739" r="3.333" fill="#f08080" stroke="none" stroke-width="2.0pt" />
<circle cx="392.589" cy="139.656" r="3.333" fill="#f08080" stroke="none" stroke-width="2.0pt" />
<circle cx="415.432" cy="124.749" r="3.333" fill="#f08080" stroke="none" stroke-width="2.0pt" />
<circle cx="438.274" cy="112.493" r="3.333" fill="#f08080" stroke="none" stroke-width="2.0pt" />
<circle cx="461.116" cy="99.582" r="3.333" fill="#f08080" stroke="none" stroke-width="2.0pt" />
<circle cx="483.958" cy="130.376" r="3.333" fill="#f08080" stroke="none" stroke-width="2.0pt" />
<circle cx="506.800" cy="111.333" r="3.333" fill="#f08080" stroke="none" stroke-width="2.0pt" />
</g>
</g>
<g id="ID000008" clip-path="url(#ID000001)" >
      <polygon fill="#ff0000" fill-opacity="0.08" stroke="none" stroke-width="0.5pt" stroke-opacity="1.00" stroke-dasharray="none" points="72.800,248.551 95.642,231.303 118.484,234.846 141.326,238.248 164.168,252.254 187.011,242.929 209.853,220.216 232.695,218.302 255.537,208.431 278.379,204.567 301.221,184.941 324.063,162.983 346.905,163.232 369.747,151.833 392.589,181.705 415.432,157.887 438.274,157.947 461.116,145.781 483.958,155.093 506.800,157.930 506.800,80.737 483.958,75.191 461.116,80.227 438.274,87.522 415.432,87.368 392.589,107.541 369.747,75.103 346.905,89.263 324.063,87.200 301.221,106.782 278.379,127.764 255.537,131.668 232.695,137.572 209.853,142.812 187.011,159.613 164.168,187.370 141.326,166.420 118.484,144.092 95.642,174.593 72.800,160.366 "/>
</g>
<g id="ID000009" clip-path="url(#ID000001)" >
      <polyline fill="none" stroke="#ff0000" stroke-width="2.0pt" stroke-dasharray="none" points="72.800,204.459 95.642,202.948 118.484,189.469 141.326,202.334 164.168,219.812 187.011,201.271 209.853,181.514 232.695,177.937 255.537,170.050 278.379,166.166 301.221,145.861 324.063,125.092 346.905,126.247 369.747,113.468 392.589,144.623 415.432,122.627 438.274,122.735 461.116,113.004 483.958,115.142 506.800,119.333 "/>
<g>
<circle cx="72.800" cy="204.459" r="3.333" fill="#ff0000" stroke="none" stroke-width="2.0pt" />
<circle cx="95.642" cy="202.948" r="3.333" fill="#ff0000" stroke="none" stroke-width="2.0pt" />
<circle cx="118.484" cy="189.469" r="3.333" fill="#ff0000" stroke="none" stroke-width="2.0pt" />
<circle cx="141.326" cy="202.334" r="3.333" fill="#ff0000" stroke="none" stroke-width="2.0pt" />
<circle cx="164.168" cy="219.812" r="3.333" fill="#ff0000" stroke="none" stroke-width="2.0pt" />
<circle cx="187.011" cy="201.271" r="3.333" fill="#ff0000" stroke="none" stroke-width="2.0pt" />
<circle cx="209.853" cy="181.514" r="3.333" fill="#ff0000" stroke="none" stroke-width="2.0pt" />
<circle cx="232.695" cy="177.937" r="3.333" fill="#ff0000" stroke="none" stroke-width="2.0pt" />
<circle cx="255.537" cy="170.050" r="3.333" fill="#ff0000" stroke="none" stroke-width="2.0pt" />
<circle cx="278.379" cy="166.166" r="3.333" fill="#ff0000" stroke="none" stroke-width="2.0pt" />
<circle cx="301.221" cy="145.861" r="3.333" fill="#ff0000" stroke="none" stroke-width="2.0pt" />
<circle cx="324.063" cy="125.092" r="3.333" fill="#ff0000" stroke="none" stroke-width="2.0pt" />
<circle cx="346.905" cy="126.247" r="3.333" fill="#ff0000" stroke="none" stroke-width="2.0pt" />
<circle cx="369.747" cy="113.468" r="3.333" fill="#ff0000" stroke="none" stroke-width="2.0pt" />
<circle cx="392.589" cy="144.623" r="3.333" fill="#ff0000" stroke="none" stroke-width="2.0pt" />
<circle cx="415.432" cy="122.627" r="3.333" fill="#ff0000" stroke="none" stroke-width="2.0pt" />
<circle cx="438.274" cy="122.735" r="3.333" fill="#ff0000" stroke="none" stroke-width="2.0pt" />
<circle cx="461.116" cy="113.004" r="3.333" fill="#ff0000" stroke="none" stroke-width="2.0pt" />
<circle cx="483.958" cy="115.142" r="3.333" fill="#ff0000" stroke="none" stroke-width="2.0pt" />
<circle cx="506.800" cy="119.333" r="3.333" fill="#ff0000" stroke="none" stroke-width="2.0pt" />
</g>
</g>
<g id="ID000010" >
  <g transform="translate(28.550,206.500)">
    <g transform="rotate(-90.0)">
      <text x="0.000" y="0.000" font-family="Helvetica" text-anchor="middle" font-size="15pt" fill="#000000" >Decoding accuracy (%)</text>
    </g>
  </g>
</g>
<g id="ID000011" clip-path="url(#ID000001)" >
      <polyline fill="none" stroke="#000080" stroke-width="1.0pt" stroke-dasharray="none" points="61.379,346.950 84.221,346.950 "/>
<g>
</g>
</g>
<g id="ID000012" clip-path="url(#ID000001)" >
      <polyline fill="none" stroke="#000080" stroke-width="1.0pt" stroke-dasharray="none" points="84.221,346.950 107.063,346.950 "/>
<g>
</g>
</g>
<g id="ID000013" clip-path="url(#ID000001)" >
      <polyline fill="none" stroke="#000080" stroke-width="1.0pt" stroke-dasharray="none" points="107.063,346.950 129.905,346.950 "/>
<g>
</g>
</g>
<g id="ID000014" clip-path="url(#ID000001)" >
      <polyline fill="none" stroke="#000080" stroke-width="1.0pt" stroke-dasharray="none" points="129.905,346.950 152.747,346.950 "/>
<g>
</g>
</g>
<g id="ID000015" clip-path="url(#ID000001)" >
      <polyline fill="none" stroke="#000080" stroke-width="1.0pt" stroke-dasharray="none" points="152.747,346.950 175.589,346.950 "/>
<g>
</g>
</g>
<g id="ID000016" clip-path="url(#ID000001)" >
      <polyline fill="none" stroke="#000080" stroke-width="1.0pt" stroke-dasharray="none" points="175.589,346.950 198.432,346.950 "/>
<g>
</g>
</g>
<g id="ID000017" clip-path="url(#ID000001)" >
      <polyline fill="none" stroke="#000080" stroke-width="1.0pt" stroke-dasharray="none" points="198.432,346.950 221.274,346.950 "/>
<g>
</g>
</g>
<g id="ID000018" clip-path="url(#ID000001)" >
      <polyline fill="none" stroke="#000080" stroke-width="1.0pt" stroke-dasharray="none" points="221.274,346.950 244.116,346.950 "/>
<g>
</g>
</g>
<g id="ID000019" clip-path="url(#ID000001)" >
      <polyline fill="none" stroke="#000080" stroke-width="1.0pt" stroke-dasharray="none" points="244.116,346.950 266.958,346.950 "/>
<g>
</g>
</g>
<g id="ID000020" clip-path="url(#ID000001)" >
      <polyline fill="none" stroke="#000080" stroke-width="1.0pt" stroke-dasharray="none" points="266.958,346.950 289.800,346.950 "/>
<g>
</g>
</g>
<g id="ID000021" clip-path="url(#ID000001)" >
      <polyline fill="none" stroke="#000080" stroke-width="1.0pt" stroke-dasharray="none" points="289.800,346.950 312.642,346.950 "/>
<g>
</g>
</g>
<g id="ID000022" clip-path="url(#ID000001)" >
      <polyline fill="none" stroke="#000080" stroke-width="1.0pt" stroke-dasharray="none" points="312.642,346.950 335.484,346.950 "/>
<g>
</g>
</g>
<g id="ID000023" clip-path="url(#ID000001)" >
      <polyline fill="none" stroke="#000080" stroke-width="1.0pt" stroke-dasharray="none" points="335.484,346.950 358.326,346.950 "/>
<g>
</g>
</g>
<g id="ID000024" clip-path="url(#ID000001)" >
      <polyline fill="none" stroke="#000080" stroke-width="1.0pt" stroke-dasharray="none" points="358.326,346.950 381.168,346.950 "/>
<g>
</g>
</g>
<g id="ID000025" clip-path="url(#ID000001)" >
      <polyline fill="none" stroke="#000080" stroke-width="1.0pt" stroke-dasharray="none" points="381.168,346.950 404.011,346.950 "/>
<g>
</g>
</g>
<g id="ID000026" clip-path="url(#ID000001)" >
      <polyline fill="none" stroke="#000080" stroke-width="1.0pt" stroke-dasharray="none" points="404.011,346.950 426.853,346.950 "/>
<g>
</g>
</g>
<g id="ID000027" clip-path="url(#ID000001)" >
      <polyline fill="none" stroke="#000080" stroke-width="1.0pt" stroke-dasharray="none" points="426.853,346.950 449.695,346.950 "/>
<g>
</g>
</g>
<g id="ID000028" clip-path="url(#ID000001)" >
      <polyline fill="none" stroke="#000080" stroke-width="1.0pt" stroke-dasharray="none" points="449.695,346.950 472.537,346.950 "/>
<g>
</g>
</g>
<g id="ID000029" clip-path="url(#ID000001)" >
      <polyline fill="none" stroke="#000080" stroke-width="1.0pt" stroke-dasharray="none" points="472.537,346.950 495.379,346.950 "/>
<g>
</g>
</g>
<g id="ID000030" clip-path="url(#ID000001)" >
      <polyline fill="none" stroke="#000080" stroke-width="1.0pt" stroke-dasharray="none" points="495.379,346.950 518.221,346.950 "/>
<g>
</g>
</g>
<g id="ID000031" clip-path="url(#ID000001)" >
      <polyline fill="none" stroke="#ff0000" stroke-width="1.0pt" stroke-dasharray="none" points="221.274,355.300 244.116,355.300 "/>
<g>
</g>
</g>
<g id="ID000032" clip-path="url(#ID000001)" >
      <polyline fill="none" stroke="#ff0000" stroke-width="1.0pt" stroke-dasharray="none" points="244.116,355.300 266.958,355.300 "/>
<g>
</g>
</g>
<g id="ID000033" clip-path="url(#ID000001)" >
      <polyline fill="none" stroke="#ff0000" stroke-width="1.0pt" stroke-dasharray="none" points="266.958,355.300 289.800,355.300 "/>
<g>
</g>
</g>
<g id="ID000034" clip-path="url(#ID000001)" >
      <polyline fill="none" stroke="#ff0000" stroke-width="1.0pt" stroke-dasharray="none" points="289.800,355.300 312.642,355.300 "/>
<g>
</g>
</g>
<g id="ID000035" clip-path="url(#ID000001)" >
      <polyline fill="none" stroke="#ff0000" stroke-width="1.0pt" stroke-dasharray="none" points="312.642,355.300 335.484,355.300 "/>
<g>
</g>
</g>
<g id="ID000036" clip-path="url(#ID000001)" >
      <polyline fill="none" stroke="#ff0000" stroke-width="1.0pt" stroke-dasharray="none" points="335.484,355.300 358.326,355.300 "/>
<g>
</g>
</g>
<g id="ID000037" clip-path="url(#ID000001)" >
      <polyline fill="none" stroke="#ff0000" stroke-width="1.0pt" stroke-dasharray="none" points="358.326,355.300 381.168,355.300 "/>
<g>
</g>
</g>
<g id="ID000038" clip-path="url(#ID000001)" >
      <polyline fill="none" stroke="#ff0000" stroke-width="1.0pt" stroke-dasharray="none" points="381.168,355.300 404.011,355.300 "/>
<g>
</g>
</g>
<g id="ID000039" clip-path="url(#ID000001)" >
      <polyline fill="none" stroke="#ff0000" stroke-width="1.0pt" stroke-dasharray="none" points="404.011,355.300 426.853,355.300 "/>
<g>
</g>
</g>
<g id="ID000040" clip-path="url(#ID000001)" >
      <polyline fill="none" stroke="#ff0000" stroke-width="1.0pt" stroke-dasharray="none" points="426.853,355.300 449.695,355.300 "/>
<g>
</g>
</g>
<g id="ID000041" clip-path="url(#ID000001)" >
      <polyline fill="none" stroke="#ff0000" stroke-width="1.0pt" stroke-dasharray="none" points="449.695,355.300 472.537,355.300 "/>
<g>
</g>
</g>
<g id="ID000042" clip-path="url(#ID000001)" >
      <polyline fill="none" stroke="#ff0000" stroke-width="1.0pt" stroke-dasharray="none" points="472.537,355.300 495.379,355.300 "/>
<g>
</g>
</g>
<g id="ID000043" clip-path="url(#ID000001)" >
      <polyline fill="none" stroke="#ff0000" stroke-width="1.0pt" stroke-dasharray="none" points="495.379,355.300 518.221,355.300 "/>
<g>
</g>
</g>
<g id="ID000044" >
  <g transform="translate(288.300,418.750)">
    <g transform="rotate(-0.0)">
      <text x="0.000" y="0.000" font-family="Helvetica" text-anchor="middle" font-size="15pt" fill="#000000" >Time from stimulus onset (s)</text>
    </g>
  </g>
</g>
<g id="ID000045" clip-path="url(#ID000001)" >
      <polyline fill="none" stroke="#000000" stroke-width="0.5pt" stroke-dasharray="none" points="72.800,205.000 506.800,205.000 "/>
<g>
</g>
</g>
<g id="ID000046" clip-path="url(#ID000001)" >
      <polyline fill="none" stroke="#000000" stroke-width="0.5pt" stroke-dasharray="8.0,2.0" points="164.168,372.000 164.168,38.000 "/>
<g>
</g>
</g>
<g id="ID000047" >
  <g transform="translate(288.300,22.750)">
    <g transform="rotate(-0.0)">
      <text x="0.000" y="0.000" font-family="Helvetica" text-anchor="middle" font-size="15pt" fill="#000000" >Mean decoding for phi rel tr brt in te brt out  Michel</text>
    </g>
  </g>
</g>
    </g>
    <g>
      <polyline fill="none" stroke="#000000" stroke-width="0.5pt" stroke-dasharray="none" points="164.168,372.000 164.168,367.660 "/>
      <polyline fill="none" stroke="#000000" stroke-width="0.5pt" stroke-dasharray="none" points="278.379,372.000 278.379,367.660 "/>
      <polyline fill="none" stroke="#000000" stroke-width="0.5pt" stroke-dasharray="none" points="392.589,372.000 392.589,367.660 "/>
      <polyline fill="none" stroke="#000000" stroke-width="0.5pt" stroke-dasharray="none" points="506.800,372.000 506.800,367.660 "/>
      <polyline fill="none" stroke="#000000" stroke-width="0.5pt" stroke-dasharray="none" points="72.800,372.000 506.800,372.000 "/>
  <g transform="translate(164.168,396.380)">
    <g transform="rotate(-0.0)">
      <text x="0.000" y="0.000" font-family="Helvetica" text-anchor="middle" font-size="15pt" fill="#000000" >0</text>
    </g>
  </g>
  <g transform="translate(278.379,396.380)">
    <g transform="rotate(-0.0)">
      <text x="0.000" y="0.000" font-family="Helvetica" text-anchor="middle" font-size="15pt" fill="#000000" >0.5</text>
    </g>
  </g>
  <g transform="translate(392.589,396.380)">
    <g transform="rotate(-0.0)">
      <text x="0.000" y="0.000" font-family="Helvetica" text-anchor="middle" font-size="15pt" fill="#000000" >1</text>
    </g>
  </g>
  <g transform="translate(506.800,396.380)">
    <g transform="rotate(-0.0)">
      <text x="0.000" y="0.000" font-family="Helvetica" text-anchor="middle" font-size="15pt" fill="#000000" >1.5</text>
    </g>
  </g>
      <polyline fill="none" stroke="#000000" stroke-width="0.5pt" stroke-dasharray="none" points="72.800,372.000 77.140,372.000 "/>
      <polyline fill="none" stroke="#000000" stroke-width="0.5pt" stroke-dasharray="none" points="72.800,288.500 77.140,288.500 "/>
      <polyline fill="none" stroke="#000000" stroke-width="0.5pt" stroke-dasharray="none" points="72.800,205.000 77.140,205.000 "/>
      <polyline fill="none" stroke="#000000" stroke-width="0.5pt" stroke-dasharray="none" points="72.800,121.500 77.140,121.500 "/>
      <polyline fill="none" stroke="#000000" stroke-width="0.5pt" stroke-dasharray="none" points="72.800,38.000 77.140,38.000 "/>
      <polyline fill="none" stroke="#000000" stroke-width="0.5pt" stroke-dasharray="none" points="72.800,372.000 72.800,38.000 "/>
  <g transform="translate(64.120,378.750)">
    <g transform="rotate(-0.0)">
      <text x="0.000" y="0.000" font-family="Helvetica" text-anchor="end" font-size="15pt" fill="#000000" >0</text>
    </g>
  </g>
  <g transform="translate(64.120,295.250)">
    <g transform="rotate(-0.0)">
      <text x="0.000" y="0.000" font-family="Helvetica" text-anchor="end" font-size="15pt" fill="#000000" >25</text>
    </g>
  </g>
  <g transform="translate(64.120,211.750)">
    <g transform="rotate(-0.0)">
      <text x="0.000" y="0.000" font-family="Helvetica" text-anchor="end" font-size="15pt" fill="#000000" >50</text>
    </g>
  </g>
  <g transform="translate(64.120,128.250)">
    <g transform="rotate(-0.0)">
      <text x="0.000" y="0.000" font-family="Helvetica" text-anchor="end" font-size="15pt" fill="#000000" >75</text>
    </g>
  </g>
  <g transform="translate(64.120,44.750)">
    <g transform="rotate(-0.0)">
      <text x="0.000" y="0.000" font-family="Helvetica" text-anchor="end" font-size="15pt" fill="#000000" >100</text>
    </g>
  </g>
      <polyline fill="none" stroke="#000000" stroke-width="0.5pt" stroke-dasharray="none" points="72.800,372.000 72.800,368.660 "/>
      <polyline fill="none" stroke="#000000" stroke-width="0.5pt" stroke-dasharray="none" points="72.800,372.000 72.800,368.660 "/>
      <polyline fill="none" stroke="#000000" stroke-width="0.5pt" stroke-dasharray="none" points="72.800,372.000 72.800,368.660 "/>
      <polyline fill="none" stroke="#000000" stroke-width="0.5pt" stroke-dasharray="none" points="72.800,372.000 72.800,372.000 "/>
    </g>
  </g>
  </g>
</svg>
