<?xml version="1.0" encoding="utf-8" standalone="no"?><!DOCTYPE svg PUBLIC "-//W3C//DTD SVG 1.1//EN" "http://www.w3.org/Graphics/SVG/1.1/DTD/svg11.dtd">
<svg preserveAspectRatio="xMinYMin meet" width="100%" height="100%" viewBox="0 0 560.000 420.000"  version="1.1" xmlns="http://www.w3.org/2000/svg" xmlns:xlink="http://www.w3.org/1999/xlink">
  <desc>Matlab Figure Converted by PLOT2SVG written by Juerg Schwizer</desc>
  <g id="topgroup">
  <rect x="0" y="0" width="560.000" height="420.000" fill="#ffffff" stroke="none" />
  <g id ="ID000000">
  <clipPath id="ID000001">
    <rect x="72.800" y="46.000" width="434.000" height="326.000"/>
  </clipPath>
      <polygon fill="#ffffff" fill-opacity="1.00" stroke="none" stroke-width="0.5pt" stroke-opacity="1.00" stroke-dasharray="none" points="72.800,372.000 506.800,372.000 506.800,46.000 72.800,46.000 "/>
      <polygon fill="#ffffff" fill-opacity="1.00" stroke="none" stroke-width="0.5pt" stroke-opacity="1.00" stroke-dasharray="none" points="72.800,46.000 506.800,46.000 506.800,46.000 72.800,46.000 "/>
      <polygon fill="#ffffff" fill-opacity="1.00" stroke="none" stroke-width="0.5pt" stroke-opacity="1.00" stroke-dasharray="none" points="72.800,372.000 72.800,372.000 72.800,46.000 72.800,46.000 "/>
    <g>
<g id="ID000002" clip-path="url(#ID000001)" >
      <polygon fill="#738ccc" fill-opacity="0.08" stroke="none" stroke-width="0.5pt" stroke-opacity="1.00" stroke-dasharray="none" points="72.800,245.355 133.078,233.793 193.356,237.942 253.633,248.640 313.911,244.047 374.189,212.216 434.467,188.011 494.744,129.975 494.744,57.923 434.467,102.849 374.189,113.417 313.911,151.404 253.633,157.678 193.356,148.545 133.078,142.370 72.800,151.184 "/>
</g>
<g id="ID000003" clip-path="url(#ID000001)" >
      <polyline fill="none" stroke="#738ccc" stroke-width="2.0pt" stroke-dasharray="none" points="72.800,198.269 133.078,188.082 193.356,193.243 253.633,203.159 313.911,197.726 374.189,162.817 434.467,145.430 494.744,93.949 "/>
<g>
<circle cx="72.800" cy="198.269" r="3.333" fill="#738ccc" stroke="none" stroke-width="2.0pt" />
<circle cx="133.078" cy="188.082" r="3.333" fill="#738ccc" stroke="none" stroke-width="2.0pt" />
<circle cx="193.356" cy="193.243" r="3.333" fill="#738ccc" stroke="none" stroke-width="2.0pt" />
<circle cx="253.633" cy="203.159" r="3.333" fill="#738ccc" stroke="none" stroke-width="2.0pt" />
<circle cx="313.911" cy="197.726" r="3.333" fill="#738ccc" stroke="none" stroke-width="2.0pt" />
<circle cx="374.189" cy="162.817" r="3.333" fill="#738ccc" stroke="none" stroke-width="2.0pt" />
<circle cx="434.467" cy="145.430" r="3.333" fill="#738ccc" stroke="none" stroke-width="2.0pt" />
<circle cx="494.744" cy="93.949" r="3.333" fill="#738ccc" stroke="none" stroke-width="2.0pt" />
</g>
</g>
<g id="ID000004" clip-path="url(#ID000001)" >
      <polygon fill="#000080" fill-opacity="0.08" stroke="none" stroke-width="0.5pt" stroke-opacity="1.00" stroke-dasharray="none" points="72.800,247.590 133.078,237.395 193.356,232.263 253.633,250.911 313.911,236.495 374.189,208.637 434.467,189.295 494.744,132.270 494.744,55.629 434.467,104.282 374.189,110.476 313.911,154.610 253.633,161.112 193.356,139.282 133.078,142.300 72.800,149.763 "/>
</g>
<g id="ID000005" clip-path="url(#ID000001)" >
      <polyline fill="none" stroke="#000080" stroke-width="2.0pt" stroke-dasharray="none" points="72.800,198.677 133.078,189.848 193.356,185.773 253.633,206.012 313.911,195.552 374.189,159.557 434.467,146.788 494.744,93.949 "/>
<g>
<circle cx="72.800" cy="198.677" r="3.333" fill="#000080" stroke="none" stroke-width="2.0pt" />
<circle cx="133.078" cy="189.848" r="3.333" fill="#000080" stroke="none" stroke-width="2.0pt" />
<circle cx="193.356" cy="185.773" r="3.333" fill="#000080" stroke="none" stroke-width="2.0pt" />
<circle cx="253.633" cy="206.012" r="3.333" fill="#000080" stroke="none" stroke-width="2.0pt" />
<circle cx="313.911" cy="195.552" r="3.333" fill="#000080" stroke="none" stroke-width="2.0pt" />
<circle cx="374.189" cy="159.557" r="3.333" fill="#000080" stroke="none" stroke-width="2.0pt" />
<circle cx="434.467" cy="146.788" r="3.333" fill="#000080" stroke="none" stroke-width="2.0pt" />
<circle cx="494.744" cy="93.949" r="3.333" fill="#000080" stroke="none" stroke-width="2.0pt" />
</g>
</g>
<g id="ID000006" clip-path="url(#ID000001)" >
      <polygon fill="#f08080" fill-opacity="0.08" stroke="none" stroke-width="0.5pt" stroke-opacity="1.00" stroke-dasharray="none" points="72.800,282.222 133.078,265.153 193.356,263.402 253.633,260.141 313.911,263.317 374.189,255.919 434.467,245.706 494.744,266.323 494.744,167.705 434.467,158.982 374.189,160.723 313.911,169.896 253.633,170.355 193.356,169.540 133.078,175.123 72.800,178.973 "/>
</g>
<g id="ID000007" clip-path="url(#ID000001)" >
      <polyline fill="none" stroke="#f08080" stroke-width="2.0pt" stroke-dasharray="none" points="72.800,230.597 133.078,220.138 193.356,216.471 253.633,215.248 313.911,216.607 374.189,208.321 434.467,202.344 494.744,217.014 "/>
<g>
<circle cx="72.800" cy="230.597" r="3.333" fill="#f08080" stroke="none" stroke-width="2.0pt" />
<circle cx="133.078" cy="220.138" r="3.333" fill="#f08080" stroke="none" stroke-width="2.0pt" />
<circle cx="193.356" cy="216.471" r="3.333" fill="#f08080" stroke="none" stroke-width="2.0pt" />
<circle cx="253.633" cy="215.248" r="3.333" fill="#f08080" stroke="none" stroke-width="2.0pt" />
<circle cx="313.911" cy="216.607" r="3.333" fill="#f08080" stroke="none" stroke-width="2.0pt" />
<circle cx="374.189" cy="208.321" r="3.333" fill="#f08080" stroke="none" stroke-width="2.0pt" />
<circle cx="434.467" cy="202.344" r="3.333" fill="#f08080" stroke="none" stroke-width="2.0pt" />
<circle cx="494.744" cy="217.014" r="3.333" fill="#f08080" stroke="none" stroke-width="2.0pt" />
</g>
</g>
<g id="ID000008" clip-path="url(#ID000001)" >
      <polygon fill="#ff0000" fill-opacity="0.08" stroke="none" stroke-width="0.5pt" stroke-opacity="1.00" stroke-dasharray="none" points="72.800,270.854 133.078,265.168 193.356,263.769 253.633,264.329 313.911,262.215 374.189,257.651 434.467,235.170 494.744,256.299 494.744,166.863 434.467,148.329 374.189,164.424 313.911,165.837 253.633,176.763 193.356,170.531 133.078,175.924 72.800,177.844 "/>
</g>
<g id="ID000009" clip-path="url(#ID000001)" >
      <polyline fill="none" stroke="#ff0000" stroke-width="2.0pt" stroke-dasharray="none" points="72.800,224.349 133.078,220.546 193.356,217.150 253.633,220.546 313.911,214.026 374.189,211.038 434.467,191.749 494.744,211.581 "/>
<g>
<circle cx="72.800" cy="224.349" r="3.333" fill="#ff0000" stroke="none" stroke-width="2.0pt" />
<circle cx="133.078" cy="220.546" r="3.333" fill="#ff0000" stroke="none" stroke-width="2.0pt" />
<circle cx="193.356" cy="217.150" r="3.333" fill="#ff0000" stroke="none" stroke-width="2.0pt" />
<circle cx="253.633" cy="220.546" r="3.333" fill="#ff0000" stroke="none" stroke-width="2.0pt" />
<circle cx="313.911" cy="214.026" r="3.333" fill="#ff0000" stroke="none" stroke-width="2.0pt" />
<circle cx="374.189" cy="211.038" r="3.333" fill="#ff0000" stroke="none" stroke-width="2.0pt" />
<circle cx="434.467" cy="191.749" r="3.333" fill="#ff0000" stroke="none" stroke-width="2.0pt" />
<circle cx="494.744" cy="211.581" r="3.333" fill="#ff0000" stroke="none" stroke-width="2.0pt" />
</g>
</g>
<g id="ID000010" >
  <g transform="translate(28.550,210.500)">
    <g transform="rotate(-90.0)">
      <text x="0.000" y="0.000" font-family="Helvetica" text-anchor="middle" font-size="15pt" fill="#000000" >Decoding accuracy (%)</text>
    </g>
  </g>
</g>
<g id="ID000011" clip-path="url(#ID000001)" >
      <polyline fill="none" stroke="#000080" stroke-width="1.0pt" stroke-dasharray="none" points="344.050,347.550 404.328,347.550 "/>
<g>
</g>
</g>
<g id="ID000012" clip-path="url(#ID000001)" >
      <polyline fill="none" stroke="#000080" stroke-width="1.0pt" stroke-dasharray="none" points="404.328,347.550 464.606,347.550 "/>
<g>
</g>
</g>
<g id="ID000013" clip-path="url(#ID000001)" >
      <polyline fill="none" stroke="#000080" stroke-width="1.0pt" stroke-dasharray="none" points="464.606,347.550 524.883,347.550 "/>
<g>
</g>
</g>
<g id="ID000014" >
  <g transform="translate(289.300,418.750)">
    <g transform="rotate(-0.0)">
      <text x="0.000" y="0.000" font-family="Helvetica" text-anchor="middle" font-size="15pt" fill="#000000" >Time from saccade onset (s)</text>
    </g>
  </g>
</g>
<g id="ID000015" clip-path="url(#ID000001)" >
      <polyline fill="none" stroke="#000000" stroke-width="0.5pt" stroke-dasharray="none" points="72.800,209.000 506.800,209.000 "/>
<g>
</g>
</g>
<g id="ID000016" clip-path="url(#ID000001)" >
      <polyline fill="none" stroke="#000000" stroke-width="0.5pt" stroke-dasharray="8.0,2.0" points="494.744,372.000 494.744,46.000 "/>
<g>
</g>
</g>
<g id="ID000017" >
  <g transform="translate(289.300,30.750)">
    <g transform="rotate(-0.0)">
      <text x="0.000" y="0.000" font-family="Helvetica" text-anchor="middle" font-size="15pt" fill="#000000" ><tspan>Mean decoding for brt abs tr phi in te phi in  both</tspan><tspan dy="6.0pt" font-size="10pt">m</tspan><tspan dy="-6.0pt" font-size="15pt">onkeys</tspan></text>
    </g>
  </g>
</g>
    </g>
    <g>
      <polyline fill="none" stroke="#000000" stroke-width="0.5pt" stroke-dasharray="none" points="133.078,372.000 133.078,367.660 "/>
      <polyline fill="none" stroke="#000000" stroke-width="0.5pt" stroke-dasharray="none" points="193.356,372.000 193.356,367.660 "/>
      <polyline fill="none" stroke="#000000" stroke-width="0.5pt" stroke-dasharray="none" points="253.633,372.000 253.633,367.660 "/>
      <polyline fill="none" stroke="#000000" stroke-width="0.5pt" stroke-dasharray="none" points="313.911,372.000 313.911,367.660 "/>
      <polyline fill="none" stroke="#000000" stroke-width="0.5pt" stroke-dasharray="none" points="374.189,372.000 374.189,367.660 "/>
      <polyline fill="none" stroke="#000000" stroke-width="0.5pt" stroke-dasharray="none" points="434.467,372.000 434.467,367.660 "/>
      <polyline fill="none" stroke="#000000" stroke-width="0.5pt" stroke-dasharray="none" points="494.744,372.000 494.744,367.660 "/>
      <polyline fill="none" stroke="#000000" stroke-width="0.5pt" stroke-dasharray="none" points="72.800,372.000 506.800,372.000 "/>
  <g transform="translate(133.078,396.220)">
    <g transform="rotate(-0.0)">
      <text x="0.000" y="0.000" font-family="Helvetica" text-anchor="middle" font-size="15pt" fill="#000000" >-0.6</text>
    </g>
  </g>
  <g transform="translate(193.356,396.220)">
    <g transform="rotate(-0.0)">
      <text x="0.000" y="0.000" font-family="Helvetica" text-anchor="middle" font-size="15pt" fill="#000000" >-0.5</text>
    </g>
  </g>
  <g transform="translate(253.633,396.220)">
    <g transform="rotate(-0.0)">
      <text x="0.000" y="0.000" font-family="Helvetica" text-anchor="middle" font-size="15pt" fill="#000000" >-0.4</text>
    </g>
  </g>
  <g transform="translate(313.911,396.220)">
    <g transform="rotate(-0.0)">
      <text x="0.000" y="0.000" font-family="Helvetica" text-anchor="middle" font-size="15pt" fill="#000000" >-0.3</text>
    </g>
  </g>
  <g transform="translate(374.189,396.220)">
    <g transform="rotate(-0.0)">
      <text x="0.000" y="0.000" font-family="Helvetica" text-anchor="middle" font-size="15pt" fill="#000000" >-0.2</text>
    </g>
  </g>
  <g transform="translate(434.467,396.220)">
    <g transform="rotate(-0.0)">
      <text x="0.000" y="0.000" font-family="Helvetica" text-anchor="middle" font-size="15pt" fill="#000000" >-0.1</text>
    </g>
  </g>
  <g transform="translate(494.744,396.220)">
    <g transform="rotate(-0.0)">
      <text x="0.000" y="0.000" font-family="Helvetica" text-anchor="middle" font-size="15pt" fill="#000000" >0</text>
    </g>
  </g>
      <polyline fill="none" stroke="#000000" stroke-width="0.5pt" stroke-dasharray="none" points="72.800,372.000 77.140,372.000 "/>
      <polyline fill="none" stroke="#000000" stroke-width="0.5pt" stroke-dasharray="none" points="72.800,290.500 77.140,290.500 "/>
      <polyline fill="none" stroke="#000000" stroke-width="0.5pt" stroke-dasharray="none" points="72.800,209.000 77.140,209.000 "/>
      <polyline fill="none" stroke="#000000" stroke-width="0.5pt" stroke-dasharray="none" points="72.800,127.500 77.140,127.500 "/>
      <polyline fill="none" stroke="#000000" stroke-width="0.5pt" stroke-dasharray="none" points="72.800,46.000 77.140,46.000 "/>
      <polyline fill="none" stroke="#000000" stroke-width="0.5pt" stroke-dasharray="none" points="72.800,372.000 72.800,46.000 "/>
  <g transform="translate(64.120,378.750)">
    <g transform="rotate(-0.0)">
      <text x="0.000" y="0.000" font-family="Helvetica" text-anchor="end" font-size="15pt" fill="#000000" >0</text>
    </g>
  </g>
  <g transform="translate(64.120,297.250)">
    <g transform="rotate(-0.0)">
      <text x="0.000" y="0.000" font-family="Helvetica" text-anchor="end" font-size="15pt" fill="#000000" >25</text>
    </g>
  </g>
  <g transform="translate(64.120,215.750)">
    <g transform="rotate(-0.0)">
      <text x="0.000" y="0.000" font-family="Helvetica" text-anchor="end" font-size="15pt" fill="#000000" >50</text>
    </g>
  </g>
  <g transform="translate(64.120,134.250)">
    <g transform="rotate(-0.0)">
      <text x="0.000" y="0.000" font-family="Helvetica" text-anchor="end" font-size="15pt" fill="#000000" >75</text>
    </g>
  </g>
  <g transform="translate(64.120,52.750)">
    <g transform="rotate(-0.0)">
      <text x="0.000" y="0.000" font-family="Helvetica" text-anchor="end" font-size="15pt" fill="#000000" >100</text>
    </g>
  </g>
      <polyline fill="none" stroke="#000000" stroke-width="0.5pt" stroke-dasharray="none" points="72.800,372.000 72.800,368.740 "/>
      <polyline fill="none" stroke="#000000" stroke-width="0.5pt" stroke-dasharray="none" points="72.800,372.000 72.800,368.740 "/>
      <polyline fill="none" stroke="#000000" stroke-width="0.5pt" stroke-dasharray="none" points="72.800,372.000 72.800,368.740 "/>
      <polyline fill="none" stroke="#000000" stroke-width="0.5pt" stroke-dasharray="none" points="72.800,372.000 72.800,372.000 "/>
    </g>
  </g>
  </g>
</svg>
