<?xml version="1.0" encoding="utf-8" standalone="no"?><!DOCTYPE svg PUBLIC "-//W3C//DTD SVG 1.1//EN" "http://www.w3.org/Graphics/SVG/1.1/DTD/svg11.dtd">
<svg preserveAspectRatio="xMinYMin meet" width="100%" height="100%" viewBox="0 0 560.000 420.000"  version="1.1" xmlns="http://www.w3.org/2000/svg" xmlns:xlink="http://www.w3.org/1999/xlink">
  <desc>Matlab Figure Converted by PLOT2SVG written by Juerg Schwizer</desc>
  <g id="topgroup">
  <rect x="0" y="0" width="560.000" height="420.000" fill="#ffffff" stroke="none" />
  <g id ="ID000000">
  <clipPath id="ID000001">
    <rect x="72.800" y="38.000" width="434.000" height="334.000"/>
  </clipPath>
      <polygon fill="#ffffff" fill-opacity="1.00" stroke="none" stroke-width="0.5pt" stroke-opacity="1.00" stroke-dasharray="none" points="72.800,372.000 506.800,372.000 506.800,38.000 72.800,38.000 "/>
      <polygon fill="#ffffff" fill-opacity="1.00" stroke="none" stroke-width="0.5pt" stroke-opacity="1.00" stroke-dasharray="none" points="72.800,38.000 506.800,38.000 506.800,38.000 72.800,38.000 "/>
      <polygon fill="#ffffff" fill-opacity="1.00" stroke="none" stroke-width="0.5pt" stroke-opacity="1.00" stroke-dasharray="none" points="72.800,372.000 72.800,372.000 72.800,38.000 72.800,38.000 "/>
    <g>
<g id="ID000002" clip-path="url(#ID000001)" >
      <polygon fill="#738ccc" fill-opacity="0.08" stroke="none" stroke-width="0.5pt" stroke-opacity="1.00" stroke-dasharray="none" points="72.800,265.343 103.363,267.807 133.927,250.522 164.490,227.903 195.054,266.207 225.617,271.709 256.180,248.388 286.744,271.324 317.307,262.761 347.870,252.605 378.434,237.081 408.997,223.663 439.561,223.065 470.124,219.703 500.687,252.472 500.687,56.215 470.124,54.471 439.561,44.429 408.997,51.624 378.434,64.926 347.870,50.515 317.307,58.172 286.744,77.442 256.180,59.185 225.617,82.625 195.054,75.879 164.490,47.384 133.927,65.958 103.363,77.620 72.800,74.517 "/>
</g>
<g id="ID000003" clip-path="url(#ID000001)" >
      <polyline fill="none" stroke="#738ccc" stroke-width="2.0pt" stroke-dasharray="none" points="72.800,169.930 103.363,172.713 133.927,158.240 164.490,137.643 195.054,171.043 225.617,177.167 256.180,153.787 286.744,174.383 317.307,160.467 347.870,151.560 378.434,151.003 408.997,137.643 439.561,133.747 470.124,137.087 500.687,154.343 "/>
<g>
<circle cx="72.800" cy="169.930" r="3.333" fill="#738ccc" stroke="none" stroke-width="2.0pt" />
<circle cx="103.363" cy="172.713" r="3.333" fill="#738ccc" stroke="none" stroke-width="2.0pt" />
<circle cx="133.927" cy="158.240" r="3.333" fill="#738ccc" stroke="none" stroke-width="2.0pt" />
<circle cx="164.490" cy="137.643" r="3.333" fill="#738ccc" stroke="none" stroke-width="2.0pt" />
<circle cx="195.054" cy="171.043" r="3.333" fill="#738ccc" stroke="none" stroke-width="2.0pt" />
<circle cx="225.617" cy="177.167" r="3.333" fill="#738ccc" stroke="none" stroke-width="2.0pt" />
<circle cx="256.180" cy="153.787" r="3.333" fill="#738ccc" stroke="none" stroke-width="2.0pt" />
<circle cx="286.744" cy="174.383" r="3.333" fill="#738ccc" stroke="none" stroke-width="2.0pt" />
<circle cx="317.307" cy="160.467" r="3.333" fill="#738ccc" stroke="none" stroke-width="2.0pt" />
<circle cx="347.870" cy="151.560" r="3.333" fill="#738ccc" stroke="none" stroke-width="2.0pt" />
<circle cx="378.434" cy="151.003" r="3.333" fill="#738ccc" stroke="none" stroke-width="2.0pt" />
<circle cx="408.997" cy="137.643" r="3.333" fill="#738ccc" stroke="none" stroke-width="2.0pt" />
<circle cx="439.561" cy="133.747" r="3.333" fill="#738ccc" stroke="none" stroke-width="2.0pt" />
<circle cx="470.124" cy="137.087" r="3.333" fill="#738ccc" stroke="none" stroke-width="2.0pt" />
<circle cx="500.687" cy="154.343" r="3.333" fill="#738ccc" stroke="none" stroke-width="2.0pt" />
</g>
</g>
<g id="ID000004" clip-path="url(#ID000001)" >
      <polygon fill="#000080" fill-opacity="0.08" stroke="none" stroke-width="0.5pt" stroke-opacity="1.00" stroke-dasharray="none" points="72.800,254.486 103.363,266.893 133.927,245.578 164.490,277.503 195.054,270.844 225.617,265.821 256.180,289.448 286.744,248.302 317.307,245.523 347.870,208.079 378.434,274.023 408.997,255.131 439.561,235.530 470.124,232.708 500.687,261.924 500.687,76.822 470.124,48.145 439.561,48.663 408.997,61.349 378.434,70.291 347.870,42.715 317.307,60.937 286.744,62.612 256.180,79.358 225.617,79.605 195.054,80.149 164.490,91.304 133.927,65.335 103.363,85.214 72.800,61.994 "/>
</g>
<g id="ID000005" clip-path="url(#ID000001)" >
      <polyline fill="none" stroke="#000080" stroke-width="2.0pt" stroke-dasharray="none" points="72.800,158.240 103.363,176.053 133.927,155.457 164.490,184.403 195.054,175.497 225.617,172.713 256.180,184.403 286.744,155.457 317.307,153.230 347.870,125.397 378.434,172.157 408.997,158.240 439.561,142.097 470.124,140.427 500.687,169.373 "/>
<g>
<circle cx="72.800" cy="158.240" r="3.333" fill="#000080" stroke="none" stroke-width="2.0pt" />
<circle cx="103.363" cy="176.053" r="3.333" fill="#000080" stroke="none" stroke-width="2.0pt" />
<circle cx="133.927" cy="155.457" r="3.333" fill="#000080" stroke="none" stroke-width="2.0pt" />
<circle cx="164.490" cy="184.403" r="3.333" fill="#000080" stroke="none" stroke-width="2.0pt" />
<circle cx="195.054" cy="175.497" r="3.333" fill="#000080" stroke="none" stroke-width="2.0pt" />
<circle cx="225.617" cy="172.713" r="3.333" fill="#000080" stroke="none" stroke-width="2.0pt" />
<circle cx="256.180" cy="184.403" r="3.333" fill="#000080" stroke="none" stroke-width="2.0pt" />
<circle cx="286.744" cy="155.457" r="3.333" fill="#000080" stroke="none" stroke-width="2.0pt" />
<circle cx="317.307" cy="153.230" r="3.333" fill="#000080" stroke="none" stroke-width="2.0pt" />
<circle cx="347.870" cy="125.397" r="3.333" fill="#000080" stroke="none" stroke-width="2.0pt" />
<circle cx="378.434" cy="172.157" r="3.333" fill="#000080" stroke="none" stroke-width="2.0pt" />
<circle cx="408.997" cy="158.240" r="3.333" fill="#000080" stroke="none" stroke-width="2.0pt" />
<circle cx="439.561" cy="142.097" r="3.333" fill="#000080" stroke="none" stroke-width="2.0pt" />
<circle cx="470.124" cy="140.427" r="3.333" fill="#000080" stroke="none" stroke-width="2.0pt" />
<circle cx="500.687" cy="169.373" r="3.333" fill="#000080" stroke="none" stroke-width="2.0pt" />
</g>
</g>
<g id="ID000006" clip-path="url(#ID000001)" >
      <polygon fill="#f08080" fill-opacity="0.08" stroke="none" stroke-width="0.5pt" stroke-opacity="1.00" stroke-dasharray="none" points="72.800,231.185 103.363,212.127 133.927,269.306 164.490,259.694 195.054,270.493 225.617,254.717 256.180,251.675 286.744,225.156 317.307,203.638 347.870,242.892 378.434,213.697 408.997,222.666 439.561,207.386 470.124,162.247 500.687,176.389 500.687,18.738 470.124,22.860 439.561,41.181 408.997,45.941 378.434,51.570 347.870,60.228 317.307,42.702 286.744,60.150 256.180,68.145 225.617,80.690 195.054,76.047 164.490,76.826 133.927,71.667 103.363,37.553 72.800,51.895 "/>
</g>
<g id="ID000007" clip-path="url(#ID000001)" >
      <polyline fill="none" stroke="#f08080" stroke-width="2.0pt" stroke-dasharray="none" points="72.800,141.540 103.363,124.840 133.927,170.487 164.490,168.260 195.054,173.270 225.617,167.703 256.180,159.910 286.744,142.653 317.307,123.170 347.870,151.560 378.434,132.633 408.997,134.303 439.561,124.283 470.124,92.553 500.687,97.563 "/>
<g>
<circle cx="72.800" cy="141.540" r="3.333" fill="#f08080" stroke="none" stroke-width="2.0pt" />
<circle cx="103.363" cy="124.840" r="3.333" fill="#f08080" stroke="none" stroke-width="2.0pt" />
<circle cx="133.927" cy="170.487" r="3.333" fill="#f08080" stroke="none" stroke-width="2.0pt" />
<circle cx="164.490" cy="168.260" r="3.333" fill="#f08080" stroke="none" stroke-width="2.0pt" />
<circle cx="195.054" cy="173.270" r="3.333" fill="#f08080" stroke="none" stroke-width="2.0pt" />
<circle cx="225.617" cy="167.703" r="3.333" fill="#f08080" stroke="none" stroke-width="2.0pt" />
<circle cx="256.180" cy="159.910" r="3.333" fill="#f08080" stroke="none" stroke-width="2.0pt" />
<circle cx="286.744" cy="142.653" r="3.333" fill="#f08080" stroke="none" stroke-width="2.0pt" />
<circle cx="317.307" cy="123.170" r="3.333" fill="#f08080" stroke="none" stroke-width="2.0pt" />
<circle cx="347.870" cy="151.560" r="3.333" fill="#f08080" stroke="none" stroke-width="2.0pt" />
<circle cx="378.434" cy="132.633" r="3.333" fill="#f08080" stroke="none" stroke-width="2.0pt" />
<circle cx="408.997" cy="134.303" r="3.333" fill="#f08080" stroke="none" stroke-width="2.0pt" />
<circle cx="439.561" cy="124.283" r="3.333" fill="#f08080" stroke="none" stroke-width="2.0pt" />
<circle cx="470.124" cy="92.553" r="3.333" fill="#f08080" stroke="none" stroke-width="2.0pt" />
<circle cx="500.687" cy="97.563" r="3.333" fill="#f08080" stroke="none" stroke-width="2.0pt" />
</g>
</g>
<g id="ID000008" clip-path="url(#ID000001)" >
      <polygon fill="#ff0000" fill-opacity="0.08" stroke="none" stroke-width="0.5pt" stroke-opacity="1.00" stroke-dasharray="none" points="72.800,270.582 103.363,265.554 133.927,281.880 164.490,274.101 195.054,261.823 225.617,294.303 256.180,242.026 286.744,242.207 317.307,292.943 347.870,206.292 378.434,250.848 408.997,245.576 439.561,226.880 470.124,213.754 500.687,264.774 500.687,65.066 470.124,30.359 439.561,59.540 408.997,54.204 378.434,63.405 347.870,34.481 317.307,85.884 286.744,60.913 256.180,53.301 225.617,95.657 195.054,75.811 164.490,93.592 133.927,82.474 103.363,65.400 72.800,89.318 "/>
</g>
<g id="ID000009" clip-path="url(#ID000001)" >
      <polyline fill="none" stroke="#ff0000" stroke-width="2.0pt" stroke-dasharray="none" points="72.800,179.950 103.363,165.477 133.927,182.177 164.490,183.847 195.054,168.817 225.617,194.980 256.180,147.663 286.744,151.560 317.307,189.413 347.870,120.387 378.434,157.127 408.997,149.890 439.561,143.210 470.124,122.057 500.687,164.920 "/>
<g>
<circle cx="72.800" cy="179.950" r="3.333" fill="#ff0000" stroke="none" stroke-width="2.0pt" />
<circle cx="103.363" cy="165.477" r="3.333" fill="#ff0000" stroke="none" stroke-width="2.0pt" />
<circle cx="133.927" cy="182.177" r="3.333" fill="#ff0000" stroke="none" stroke-width="2.0pt" />
<circle cx="164.490" cy="183.847" r="3.333" fill="#ff0000" stroke="none" stroke-width="2.0pt" />
<circle cx="195.054" cy="168.817" r="3.333" fill="#ff0000" stroke="none" stroke-width="2.0pt" />
<circle cx="225.617" cy="194.980" r="3.333" fill="#ff0000" stroke="none" stroke-width="2.0pt" />
<circle cx="256.180" cy="147.663" r="3.333" fill="#ff0000" stroke="none" stroke-width="2.0pt" />
<circle cx="286.744" cy="151.560" r="3.333" fill="#ff0000" stroke="none" stroke-width="2.0pt" />
<circle cx="317.307" cy="189.413" r="3.333" fill="#ff0000" stroke="none" stroke-width="2.0pt" />
<circle cx="347.870" cy="120.387" r="3.333" fill="#ff0000" stroke="none" stroke-width="2.0pt" />
<circle cx="378.434" cy="157.127" r="3.333" fill="#ff0000" stroke="none" stroke-width="2.0pt" />
<circle cx="408.997" cy="149.890" r="3.333" fill="#ff0000" stroke="none" stroke-width="2.0pt" />
<circle cx="439.561" cy="143.210" r="3.333" fill="#ff0000" stroke="none" stroke-width="2.0pt" />
<circle cx="470.124" cy="122.057" r="3.333" fill="#ff0000" stroke="none" stroke-width="2.0pt" />
<circle cx="500.687" cy="164.920" r="3.333" fill="#ff0000" stroke="none" stroke-width="2.0pt" />
</g>
</g>
<g id="ID000010" >
  <g transform="translate(28.550,206.500)">
    <g transform="rotate(-90.0)">
      <text x="0.000" y="0.000" font-family="Helvetica" text-anchor="middle" font-size="15pt" fill="#000000" >Decoding accuracy (%)</text>
    </g>
  </g>
</g>
<g id="ID000011" clip-path="url(#ID000001)" >
      <polyline fill="none" stroke="#000080" stroke-width="1.0pt" stroke-dasharray="none" points="57.518,346.950 88.082,346.950 "/>
<g>
</g>
</g>
<g id="ID000012" clip-path="url(#ID000001)" >
      <polyline fill="none" stroke="#000080" stroke-width="1.0pt" stroke-dasharray="none" points="88.082,346.950 118.645,346.950 "/>
<g>
</g>
</g>
<g id="ID000013" clip-path="url(#ID000001)" >
      <polyline fill="none" stroke="#000080" stroke-width="1.0pt" stroke-dasharray="none" points="118.645,346.950 149.208,346.950 "/>
<g>
</g>
</g>
<g id="ID000014" clip-path="url(#ID000001)" >
      <polyline fill="none" stroke="#000080" stroke-width="1.0pt" stroke-dasharray="none" points="149.208,346.950 179.772,346.950 "/>
<g>
</g>
</g>
<g id="ID000015" clip-path="url(#ID000001)" >
      <polyline fill="none" stroke="#000080" stroke-width="1.0pt" stroke-dasharray="none" points="179.772,346.950 210.335,346.950 "/>
<g>
</g>
</g>
<g id="ID000016" clip-path="url(#ID000001)" >
      <polyline fill="none" stroke="#000080" stroke-width="1.0pt" stroke-dasharray="none" points="210.335,346.950 240.899,346.950 "/>
<g>
</g>
</g>
<g id="ID000017" clip-path="url(#ID000001)" >
      <polyline fill="none" stroke="#000080" stroke-width="1.0pt" stroke-dasharray="none" points="240.899,346.950 271.462,346.950 "/>
<g>
</g>
</g>
<g id="ID000018" clip-path="url(#ID000001)" >
      <polyline fill="none" stroke="#000080" stroke-width="1.0pt" stroke-dasharray="none" points="271.462,346.950 302.025,346.950 "/>
<g>
</g>
</g>
<g id="ID000019" clip-path="url(#ID000001)" >
      <polyline fill="none" stroke="#000080" stroke-width="1.0pt" stroke-dasharray="none" points="302.025,346.950 332.589,346.950 "/>
<g>
</g>
</g>
<g id="ID000020" clip-path="url(#ID000001)" >
      <polyline fill="none" stroke="#000080" stroke-width="1.0pt" stroke-dasharray="none" points="332.589,346.950 363.152,346.950 "/>
<g>
</g>
</g>
<g id="ID000021" clip-path="url(#ID000001)" >
      <polyline fill="none" stroke="#000080" stroke-width="1.0pt" stroke-dasharray="none" points="363.152,346.950 393.715,346.950 "/>
<g>
</g>
</g>
<g id="ID000022" clip-path="url(#ID000001)" >
      <polyline fill="none" stroke="#000080" stroke-width="1.0pt" stroke-dasharray="none" points="393.715,346.950 424.279,346.950 "/>
<g>
</g>
</g>
<g id="ID000023" clip-path="url(#ID000001)" >
      <polyline fill="none" stroke="#000080" stroke-width="1.0pt" stroke-dasharray="none" points="424.279,346.950 454.842,346.950 "/>
<g>
</g>
</g>
<g id="ID000024" clip-path="url(#ID000001)" >
      <polyline fill="none" stroke="#000080" stroke-width="1.0pt" stroke-dasharray="none" points="454.842,346.950 485.406,346.950 "/>
<g>
</g>
</g>
<g id="ID000025" clip-path="url(#ID000001)" >
      <polyline fill="none" stroke="#000080" stroke-width="1.0pt" stroke-dasharray="none" points="485.406,346.950 515.969,346.950 "/>
<g>
</g>
</g>
<g id="ID000026" clip-path="url(#ID000001)" >
      <polyline fill="none" stroke="#ff0000" stroke-width="1.0pt" stroke-dasharray="none" points="57.518,355.300 88.082,355.300 "/>
<g>
</g>
</g>
<g id="ID000027" clip-path="url(#ID000001)" >
      <polyline fill="none" stroke="#ff0000" stroke-width="1.0pt" stroke-dasharray="none" points="88.082,355.300 118.645,355.300 "/>
<g>
</g>
</g>
<g id="ID000028" clip-path="url(#ID000001)" >
      <polyline fill="none" stroke="#ff0000" stroke-width="1.0pt" stroke-dasharray="none" points="179.772,355.300 210.335,355.300 "/>
<g>
</g>
</g>
<g id="ID000029" clip-path="url(#ID000001)" >
      <polyline fill="none" stroke="#ff0000" stroke-width="1.0pt" stroke-dasharray="none" points="240.899,355.300 271.462,355.300 "/>
<g>
</g>
</g>
<g id="ID000030" clip-path="url(#ID000001)" >
      <polyline fill="none" stroke="#ff0000" stroke-width="1.0pt" stroke-dasharray="none" points="271.462,355.300 302.025,355.300 "/>
<g>
</g>
</g>
<g id="ID000031" clip-path="url(#ID000001)" >
      <polyline fill="none" stroke="#ff0000" stroke-width="1.0pt" stroke-dasharray="none" points="302.025,355.300 332.589,355.300 "/>
<g>
</g>
</g>
<g id="ID000032" clip-path="url(#ID000001)" >
      <polyline fill="none" stroke="#ff0000" stroke-width="1.0pt" stroke-dasharray="none" points="332.589,355.300 363.152,355.300 "/>
<g>
</g>
</g>
<g id="ID000033" clip-path="url(#ID000001)" >
      <polyline fill="none" stroke="#ff0000" stroke-width="1.0pt" stroke-dasharray="none" points="363.152,355.300 393.715,355.300 "/>
<g>
</g>
</g>
<g id="ID000034" clip-path="url(#ID000001)" >
      <polyline fill="none" stroke="#ff0000" stroke-width="1.0pt" stroke-dasharray="none" points="393.715,355.300 424.279,355.300 "/>
<g>
</g>
</g>
<g id="ID000035" clip-path="url(#ID000001)" >
      <polyline fill="none" stroke="#ff0000" stroke-width="1.0pt" stroke-dasharray="none" points="424.279,355.300 454.842,355.300 "/>
<g>
</g>
</g>
<g id="ID000036" clip-path="url(#ID000001)" >
      <polyline fill="none" stroke="#ff0000" stroke-width="1.0pt" stroke-dasharray="none" points="454.842,355.300 485.406,355.300 "/>
<g>
</g>
</g>
<g id="ID000037" clip-path="url(#ID000001)" >
      <polyline fill="none" stroke="#ff0000" stroke-width="1.0pt" stroke-dasharray="none" points="485.406,355.300 515.969,355.300 "/>
<g>
</g>
</g>
<g id="ID000038" >
  <g transform="translate(289.300,418.750)">
    <g transform="rotate(-0.0)">
      <text x="0.000" y="0.000" font-family="Helvetica" text-anchor="middle" font-size="15pt" fill="#000000" >Time from saccade onset (s)</text>
    </g>
  </g>
</g>
<g id="ID000039" clip-path="url(#ID000001)" >
      <polyline fill="none" stroke="#000000" stroke-width="0.5pt" stroke-dasharray="none" points="72.800,205.000 506.800,205.000 "/>
<g>
</g>
</g>
<g id="ID000040" clip-path="url(#ID000001)" >
      <polyline fill="none" stroke="#000000" stroke-width="0.5pt" stroke-dasharray="8.0,2.0" points="500.687,372.000 500.687,38.000 "/>
<g>
</g>
</g>
<g id="ID000041" >
  <g transform="translate(289.300,22.750)">
    <g transform="rotate(-0.0)">
      <text x="0.000" y="0.000" font-family="Helvetica" text-anchor="middle" font-size="15pt" fill="#000000" >Mean decoding for phi abs tr brt 180 te brt 180  Quincy</text>
    </g>
  </g>
</g>
    </g>
    <g>
      <polyline fill="none" stroke="#000000" stroke-width="0.5pt" stroke-dasharray="none" points="133.927,372.000 133.927,367.660 "/>
      <polyline fill="none" stroke="#000000" stroke-width="0.5pt" stroke-dasharray="none" points="195.054,372.000 195.054,367.660 "/>
      <polyline fill="none" stroke="#000000" stroke-width="0.5pt" stroke-dasharray="none" points="256.180,372.000 256.180,367.660 "/>
      <polyline fill="none" stroke="#000000" stroke-width="0.5pt" stroke-dasharray="none" points="317.307,372.000 317.307,367.660 "/>
      <polyline fill="none" stroke="#000000" stroke-width="0.5pt" stroke-dasharray="none" points="378.434,372.000 378.434,367.660 "/>
      <polyline fill="none" stroke="#000000" stroke-width="0.5pt" stroke-dasharray="none" points="439.561,372.000 439.561,367.660 "/>
      <polyline fill="none" stroke="#000000" stroke-width="0.5pt" stroke-dasharray="none" points="500.687,372.000 500.687,367.660 "/>
      <polyline fill="none" stroke="#000000" stroke-width="0.5pt" stroke-dasharray="none" points="72.800,372.000 506.800,372.000 "/>
  <g transform="translate(133.927,396.380)">
    <g transform="rotate(-0.0)">
      <text x="0.000" y="0.000" font-family="Helvetica" text-anchor="middle" font-size="15pt" fill="#000000" >-1.2</text>
    </g>
  </g>
  <g transform="translate(195.054,396.380)">
    <g transform="rotate(-0.0)">
      <text x="0.000" y="0.000" font-family="Helvetica" text-anchor="middle" font-size="15pt" fill="#000000" >-1</text>
    </g>
  </g>
  <g transform="translate(256.180,396.380)">
    <g transform="rotate(-0.0)">
      <text x="0.000" y="0.000" font-family="Helvetica" text-anchor="middle" font-size="15pt" fill="#000000" >-0.8</text>
    </g>
  </g>
  <g transform="translate(317.307,396.380)">
    <g transform="rotate(-0.0)">
      <text x="0.000" y="0.000" font-family="Helvetica" text-anchor="middle" font-size="15pt" fill="#000000" >-0.6</text>
    </g>
  </g>
  <g transform="translate(378.434,396.380)">
    <g transform="rotate(-0.0)">
      <text x="0.000" y="0.000" font-family="Helvetica" text-anchor="middle" font-size="15pt" fill="#000000" >-0.4</text>
    </g>
  </g>
  <g transform="translate(439.561,396.380)">
    <g transform="rotate(-0.0)">
      <text x="0.000" y="0.000" font-family="Helvetica" text-anchor="middle" font-size="15pt" fill="#000000" >-0.2</text>
    </g>
  </g>
  <g transform="translate(500.687,396.380)">
    <g transform="rotate(-0.0)">
      <text x="0.000" y="0.000" font-family="Helvetica" text-anchor="middle" font-size="15pt" fill="#000000" >0</text>
    </g>
  </g>
      <polyline fill="none" stroke="#000000" stroke-width="0.5pt" stroke-dasharray="none" points="72.800,372.000 77.140,372.000 "/>
      <polyline fill="none" stroke="#000000" stroke-width="0.5pt" stroke-dasharray="none" points="72.800,288.500 77.140,288.500 "/>
      <polyline fill="none" stroke="#000000" stroke-width="0.5pt" stroke-dasharray="none" points="72.800,205.000 77.140,205.000 "/>
      <polyline fill="none" stroke="#000000" stroke-width="0.5pt" stroke-dasharray="none" points="72.800,121.500 77.140,121.500 "/>
      <polyline fill="none" stroke="#000000" stroke-width="0.5pt" stroke-dasharray="none" points="72.800,38.000 77.140,38.000 "/>
      <polyline fill="none" stroke="#000000" stroke-width="0.5pt" stroke-dasharray="none" points="72.800,372.000 72.800,38.000 "/>
  <g transform="translate(64.120,378.750)">
    <g transform="rotate(-0.0)">
      <text x="0.000" y="0.000" font-family="Helvetica" text-anchor="end" font-size="15pt" fill="#000000" >0</text>
    </g>
  </g>
  <g transform="translate(64.120,295.250)">
    <g transform="rotate(-0.0)">
      <text x="0.000" y="0.000" font-family="Helvetica" text-anchor="end" font-size="15pt" fill="#000000" >25</text>
    </g>
  </g>
  <g transform="translate(64.120,211.750)">
    <g transform="rotate(-0.0)">
      <text x="0.000" y="0.000" font-family="Helvetica" text-anchor="end" font-size="15pt" fill="#000000" >50</text>
    </g>
  </g>
  <g transform="translate(64.120,128.250)">
    <g transform="rotate(-0.0)">
      <text x="0.000" y="0.000" font-family="Helvetica" text-anchor="end" font-size="15pt" fill="#000000" >75</text>
    </g>
  </g>
  <g transform="translate(64.120,44.750)">
    <g transform="rotate(-0.0)">
      <text x="0.000" y="0.000" font-family="Helvetica" text-anchor="end" font-size="15pt" fill="#000000" >100</text>
    </g>
  </g>
      <polyline fill="none" stroke="#000000" stroke-width="0.5pt" stroke-dasharray="none" points="72.800,372.000 72.800,368.660 "/>
      <polyline fill="none" stroke="#000000" stroke-width="0.5pt" stroke-dasharray="none" points="72.800,372.000 72.800,368.660 "/>
      <polyline fill="none" stroke="#000000" stroke-width="0.5pt" stroke-dasharray="none" points="72.800,372.000 72.800,368.660 "/>
      <polyline fill="none" stroke="#000000" stroke-width="0.5pt" stroke-dasharray="none" points="72.800,372.000 72.800,372.000 "/>
    </g>
  </g>
  </g>
</svg>
